<svg xml:space="preserve" style="clip-rule:evenodd;fill-rule:evenodd;stroke-linejoin:round;stroke-miterlimit:2" width="512" height="512" xmlns="http://www.w3.org/2000/svg"><path style="fill:#f2a800;fill-rule:nonzero;stroke-width:.983737" d="M-494.731-47.693H685.754V542.55H-494.73z"/><path style="fill:#0033a0;fill-rule:nonzero;stroke-width:.983737" d="M-494.731-47.693H685.754v393.495H-494.73z"/><path style="fill:#d90012;fill-rule:nonzero;stroke-width:.983737" d="M-494.731-47.693H685.754v196.747H-494.73z"/><path d="M11.979 12.481c-.637-.085-1.084-.224-1.859-.578a32.3 32.3 0 0 0-.355-.161l-.058-.025-.228.094a5.885 5.885 0 0 1-1.424.404c-.19.028-.591.054-.734.048h-.097l1.281-1.257.127.085c.207.139.552.339.883.511l.191.1.052-.02c.046-.017.417-.229.492-.281.027-.018.024-.021-.119-.098-.392-.211-1.188-.676-1.217-.711-.01-.012-.002-.037.03-.096.204-.379.319-.673.387-.99.094-.436.116-1.109.047-1.447-.162-.8-.508-1.441-1.02-1.892-.327-.287-.587-.431-1.073-.591a5.275 5.275 0 0 1-.297-.105c-.107-.054-.206-.143-.397-.355-.473-.526-1.076-1.039-1.432-1.217-.219-.11-.513-.133-.804-.062-.182.044-.513.23-.68.382-.158.144-.213.284-.142.36.062.066.144.084.422.095.562.022.682.077 1.132.519.202.197.326.339.365.415.014.027.054.136.089.242.082.244.204.496.337.694.057.085.21.295.34.465.13.17.263.348.295.395.25.366.264.652.047.97-.058.086-.236.289-.252.289-.02 0-.641-.539-1.027-.891a24.216 24.216 0 0 1-1.847-1.866 15.084 15.084 0 0 1-.834-1.04c-.109-.148-.176-.228-.184-.22a3.662 3.662 0 0 0-.197.497l-.038.133.195.247a23.795 23.795 0 0 0 3.261 3.385c.097.083.179.156.182.162.015.025-1.999 1.873-2.041 1.873-.041 0-.498-.476-.708-.737a4.51 4.51 0 0 1-.57-.913c-.404-.809-.579-1.541-.577-2.422 0-.531.054-.95.182-1.428l.044-.165-.026-.036c-.08-.108-.395-.586-.481-.73-.336-.563-.531-1.006-.612-1.39a1.538 1.538 0 0 1-.008-.556c.072-.269.254-.437.548-.504.135-.031.49-.031.675 0 .461.078.961.245 1.662.558l.07.031.093-.071c.255-.195.653-.431.977-.579a5.418 5.418 0 0 1 1.777-.477 6.72 6.72 0 0 1 1.033.01c1.125.132 2.026.513 2.913 1.234.168.135.559.527.695.695a5.48 5.48 0 0 1 1.196 2.831c.027.224.037.75.018.98a5.454 5.454 0 0 1-.542 2.003l-.106.219.099.153c.252.386.365.581.523.902.343.697.431 1.201.267 1.543-.102.214-.295.338-.583.376a2.19 2.19 0 0 1-.359.019zm.206-.568a.452.452 0 0 0 .346-.274c.042-.109.04-.312-.005-.481a3.127 3.127 0 0 0-.304-.708c-.143-.254-.371-.601-.395-.601a.195.195 0 0 0-.046.059 5.993 5.993 0 0 1-.364.48 6.967 6.967 0 0 1-.941.882c-.095.073-.148.123-.141.131.018.018.394.182.653.286.503.2.934.282 1.197.226zm-1.171-3.532a.644.644 0 0 0 .137-.068 5.75 5.75 0 0 0 .589-.508c.167-.166.17-.169.196-.259a.61.61 0 0 0-.018-.399c-.074-.151-.359-.453-.484-.514a.559.559 0 0 0-.444-.01c-.097.05-.494.378-.68.563-.152.15-.2.231-.214.363-.017.162.042.312.2.505.164.199.292.304.416.339a.613.613 0 0 0 .302-.012zm-.857-1.36c.028-.01.068-.022.089-.035.12-.07 1.041-.844 1.309-1.102.133-.127.174-.185.195-.279a.822.822 0 0 0-.006-.326c-.036-.101-.196-.303-.387-.487-.128-.123-.178-.146-.339-.156-.166-.01-.229.01-.356.105a37.07 37.07 0 0 0-1.056.879c-.237.205-.287.261-.345.384-.03.064-.033.086-.033.202 0 .122.003.136.039.211.046.093.207.298.343.437.164.168.334.22.547.167zm-.895-1.333c.074-.033.142-.085.505-.387.617-.514.957-.826 1.003-.921a.625.625 0 0 0-.001-.464c-.062-.128-.391-.489-.495-.542a.585.585 0 0 0-.396-.035c-.09.026-.154.073-.569.42-.483.403-.69.583-.844.737-.166.164-.19.215-.19.403 0 .115.003.129.04.205.056.112.18.274.31.404.194.194.243.217.442.211.106 0 .15-.01.195-.031zM2.526 4.403c.265-.489.5-.815.902-1.255.146-.16.186-.21.172-.218a8.879 8.879 0 0 0-.642-.247 1.765 1.765 0 0 0-.663-.101c-.24-.001-.242 0-.317.034a.412.412 0 0 0-.205.2c-.035.077-.047.289-.023.421.034.199.139.467.293.754.14.26.368.621.379.601.005-.01.053-.094.104-.19z" style="fill:#fff;fill-rule:nonzero" transform="matrix(34.71485 0 0 34.71485 8.311 9.214)"/></svg>