<?xml version="1.0" encoding="UTF-8" standalone="no"?>
<!DOCTYPE svg PUBLIC "-//W3C//DTD SVG 1.1//EN" "http://www.w3.org/Graphics/SVG/1.1/DTD/svg11.dtd">
<svg width="100%" height="100%" viewBox="0 0 4697 800" version="1.1" xmlns="http://www.w3.org/2000/svg" xmlns:xlink="http://www.w3.org/1999/xlink" xml:space="preserve" xmlns:serif="http://www.serif.com/" style="fill-rule:evenodd;clip-rule:evenodd;stroke-linejoin:round;stroke-miterlimit:2;">
    <rect x="-407.535" y="-2.8" width="1612.14" height="806.068" style="fill:#f2a800;fill-rule:nonzero;"/>
    <rect x="-407.535" y="-2.8" width="1612.14" height="537.379" style="fill:#0033a0;fill-rule:nonzero;"/>
    <rect x="-407.535" y="-2.8" width="1612.14" height="268.689" style="fill:#d90012;fill-rule:nonzero;"/>
    <path d="M826.065,683.314c-32.306,-4.31 -54.977,-11.379 -94.249,-29.309c-8.294,-3.803 -16.399,-7.448 -18.01,-8.143l-2.931,-1.268l-11.595,4.767c-25.572,10.516 -48.304,16.956 -72.159,20.45c-9.674,1.419 -29.977,2.738 -37.228,2.434l-4.944,-0l64.985,-63.728l6.418,4.31c10.48,7.033 28.014,17.179 44.769,25.911l9.714,5.07l2.637,-1.014c2.307,-0.862 21.096,-11.611 24.928,-14.228c1.369,-0.913 1.202,-1.065 -6.044,-4.969c-19.888,-10.704 -60.234,-34.278 -61.709,-36.052c-0.507,-0.609 -0.101,-1.877 1.511,-4.868c10.363,-19.218 16.202,-34.141 19.655,-50.235c4.741,-22.098 5.845,-56.228 2.368,-73.347c-8.24,-40.565 -25.766,-73.063 -51.728,-95.926c-16.567,-14.588 -29.743,-21.85 -54.389,-29.983c-7.184,-2.383 -13.97,-4.766 -15.081,-5.339c-5.429,-2.738 -10.458,-7.256 -20.129,-18.001c-23.974,-26.646 -54.571,-52.643 -72.598,-61.684c-11.129,-5.583 -26.014,-6.734 -40.778,-3.144c-9.205,2.231 -26.008,11.678 -34.484,19.38c-8.019,7.286 -10.812,14.37 -7.188,18.229c3.124,3.346 7.314,4.259 21.416,4.817c28.479,1.115 34.539,3.904 57.397,26.301c10.206,10.005 16.502,17.19 18.476,21.084c0.7,1.369 2.744,6.896 4.539,12.251c4.142,12.362 10.347,25.15 17.071,35.205c2.895,4.31 10.66,14.928 17.253,23.558c6.594,8.636 13.324,17.651 14.957,20.034c12.692,18.574 13.391,33.046 2.373,49.191c-2.962,4.36 -11.966,14.644 -12.795,14.644c-0.974,-0 -32.468,-27.341 -52.042,-45.175c-34.374,-31.316 -67.889,-65.178 -93.665,-94.628c-15.57,-17.793 -26.69,-31.656 -42.287,-52.729c-5.553,-7.5 -8.934,-11.556 -9.317,-11.171c-1.192,1.217 -8.084,18.569 -9.996,25.206l-1.957,6.785l9.928,12.499c51.265,64.539 101.857,117.071 165.322,171.656c4.903,4.209 9.068,7.91 9.252,8.209c0.771,1.268 -101.368,94.958 -103.498,94.958c-2.1,0 -25.271,-24.106 -35.933,-37.386c-11.506,-14.329 -18.7,-25.85 -28.888,-46.259c-20.482,-41.021 -29.331,-78.164 -29.273,-122.846c0.036,-26.89 2.754,-48.156 9.245,-72.389l2.246,-8.382l-1.343,-1.825c-4.016,-5.436 -19.988,-29.709 -24.357,-37.021c-17.043,-28.527 -26.94,-50.975 -31.064,-70.446c-1.82,-8.595 -2.003,-22.164 -0.405,-28.203c3.671,-13.655 12.894,-22.138 27.78,-25.551c6.885,-1.572 24.882,-1.572 34.244,-0.01c23.388,3.955 48.734,12.438 84.278,28.299l3.539,1.572l4.726,-3.6c12.913,-9.898 33.101,-21.88 49.526,-29.384c28.969,-13.24 56.581,-20.648 90.099,-24.167c11.223,-1.166 41.249,-1.014 52.389,0.507c57.044,6.688 102.743,26.038 147.733,62.556c8.486,6.886 28.343,26.743 35.247,35.241c33.622,41.402 54.001,89.675 60.608,143.575c1.389,11.344 1.901,38.005 0.948,49.698c-2.997,36.853 -11.611,68.646 -27.519,101.539l-5.379,11.125l5.04,7.728c12.791,19.613 18.51,29.481 26.518,45.742c17.406,35.348 21.837,60.934 13.551,78.245c-5.2,10.867 -14.983,17.174 -29.577,19.076c-6.116,0.811 -15.633,1.318 -18.175,0.963l0.028,-0.405Zm10.449,-28.807c8.494,-1.774 14.75,-6.759 17.525,-13.893c2.145,-5.512 2.033,-15.815 -0.254,-24.375c-2.951,-10.998 -7.794,-22.27 -15.417,-35.89c-7.233,-12.92 -18.767,-30.5 -20.009,-30.494c-0.253,-0 -1.298,1.318 -2.332,2.991c-3.114,4.969 -12.758,17.656 -18.463,24.344c-11.845,13.884 -30.254,31.144 -47.713,44.734c-4.787,3.701 -7.513,6.247 -7.15,6.607c0.918,0.912 19.964,9.264 33.107,14.502c25.524,10.176 47.378,14.309 60.716,11.48l-0.01,-0.006Zm-59.365,-179.079c1.779,-0.558 4.888,-2.079 6.911,-3.448c6,-4.006 20.654,-16.657 29.869,-25.779c8.479,-8.392 8.619,-8.575 9.968,-13.103c1.962,-6.587 1.577,-15.283 -0.898,-20.272c-3.787,-7.627 -18.237,-22.955 -24.545,-26.043c-6.668,-3.245 -16.753,-3.499 -22.538,-0.507c-4.929,2.535 -25.058,19.182 -34.494,28.527c-7.693,7.616 -10.114,11.744 -10.833,18.447c-0.877,8.174 2.15,15.805 10.147,25.576c8.284,10.121 14.804,15.451 21.067,17.215c3.925,1.116 10.598,0.862 15.347,-0.608l-0.001,-0.005Zm-43.449,-68.946c1.385,-0.507 3.413,-1.115 4.508,-1.774c6.083,-3.55 52.746,-42.822 66.363,-55.884c6.761,-6.48 8.796,-9.401 9.886,-14.172c0.999,-4.361 0.842,-13.321 -0.304,-16.526c-1.815,-5.141 -9.954,-15.379 -19.627,-24.689c-6.506,-6.257 -9.006,-7.413 -17.175,-7.93c-8.405,-0.507 -11.613,0.507 -18.088,5.329c-7.194,5.461 -38.838,31.803 -53.541,44.566c-11.976,10.4 -14.545,13.265 -17.463,19.497c-1.511,3.245 -1.699,4.36 -1.699,10.232c0,6.166 0.152,6.881 2.008,10.684c2.338,4.716 10.493,15.151 17.364,22.164c8.327,8.508 16.951,11.15 27.75,8.498l0.018,0.005Zm-45.392,-67.602c3.737,-1.673 7.174,-4.31 25.6,-19.648c31.305,-26.063 48.515,-41.874 50.856,-46.706c2.997,-6.196 2.977,-17.255 -0.042,-23.497c-3.139,-6.48 -19.847,-24.786 -25.113,-27.508c-5.495,-2.84 -13.963,-3.601 -20.089,-1.775c-4.538,1.318 -7.771,3.701 -28.86,21.312c-24.473,20.409 -34.95,29.551 -42.786,37.345c-8.386,8.341 -9.609,10.937 -9.625,20.445c-0.011,5.841 0.152,6.571 2.038,10.405c2.824,5.684 9.142,13.919 15.727,20.505c9.802,9.797 12.307,10.994 22.396,10.684c5.357,0 7.584,-0.507 9.901,-1.572l-0.003,0.01Zm-341.554,-65.177c13.43,-24.776 25.336,-41.341 45.733,-63.642c7.417,-8.108 9.397,-10.623 8.691,-11.034c-2.393,-1.42 -24.716,-9.989 -32.536,-12.524c-12.775,-4.158 -18.972,-5.091 -33.616,-5.132c-12.154,-0.035 -12.282,-0.02 -16.095,1.724c-4.625,2.13 -8.473,5.902 -10.392,10.162c-1.754,3.904 -2.343,14.629 -1.166,21.352c1.764,10.076 7.054,23.655 14.894,38.233c7.078,13.158 18.62,31.448 19.222,30.454c0.253,-0.507 2.641,-4.766 5.263,-9.614l0.002,0.021Z" style="fill:#fff;fill-rule:nonzero;"/>
    <path d="M1647.69,669.668l-72.436,0l0,-9.013c1.968,-0.169 4.817,-0.423 8.548,-0.762c3.73,-0.338 6.292,-0.846 7.686,-1.523c2.459,-1.015 4.263,-2.56 5.411,-4.633c1.148,-2.074 1.722,-4.761 1.722,-8.061l-0,-144.714l-80.307,-0l0,143.318c0,2.962 0.472,5.458 1.415,7.489c0.942,2.031 2.808,3.808 5.595,5.332c1.394,0.761 3.874,1.523 7.44,2.285c3.567,0.761 6.375,1.184 8.425,1.269l-0,9.013l-72.436,0l-0,-9.013c1.968,-0.169 4.817,-0.423 8.547,-0.762c3.731,-0.338 6.293,-0.846 7.686,-1.523c2.46,-1.015 4.264,-2.56 5.412,-4.633c1.147,-2.074 1.721,-4.761 1.721,-8.061l0,-129.989c0,-2.708 -0.533,-5.184 -1.598,-7.426c-1.066,-2.243 -2.911,-3.999 -5.535,-5.268c-2.213,-1.101 -4.898,-2.074 -8.055,-2.92c-3.156,-0.846 -5.882,-1.354 -8.178,-1.523l-0,-9.013l178.937,-0l0,9.013c-2.296,0.084 -5.104,0.465 -8.424,1.142c-3.321,0.677 -5.801,1.312 -7.44,1.904c-2.788,1.016 -4.653,2.708 -5.596,5.078c-0.943,2.37 -1.414,4.951 -1.414,7.743l-0,129.863c-0,2.962 0.471,5.458 1.414,7.489c0.943,2.031 2.808,3.808 5.596,5.332c1.393,0.761 3.873,1.523 7.44,2.285c3.566,0.761 6.374,1.184 8.424,1.269l0,9.013Z" style="fill-rule:nonzero;"/>
    <path d="M1659.87,710.543c0,-4.231 1.128,-7.68 3.382,-10.345c2.255,-2.666 5.063,-3.999 8.424,-3.999c2.624,-0 4.879,0.508 6.764,1.523c1.886,1.016 3.567,2.328 5.043,3.935c1.229,1.27 2.541,3.005 3.935,5.205c1.394,2.2 2.501,4.02 3.32,5.459c4.1,-2.285 8.999,-8.252 14.697,-17.899c5.698,-9.648 9.818,-18.111 12.359,-25.389c-7.789,-20.057 -14.839,-37.998 -21.152,-53.823c-6.313,-15.826 -12.913,-32.201 -19.8,-49.127c-1.558,-3.893 -4.182,-6.918 -7.871,-9.076c-3.69,-2.158 -7.379,-3.534 -11.068,-4.126l-0,-8.378l55.341,-0l-0,8.886c-2.46,0.084 -5.411,0.613 -8.855,1.587c-3.443,0.973 -5.165,2.094 -5.165,3.364c0,0.507 0.185,1.354 0.554,2.538c0.368,1.185 0.799,2.412 1.291,3.682c3.115,8.378 7.871,20.459 14.266,36.242c6.395,15.783 11.355,28.414 14.88,37.892c3.69,-9.055 7.523,-18.428 11.499,-28.118c3.976,-9.69 8.424,-21.136 13.343,-34.338c0.574,-1.608 1.394,-3.829 2.46,-6.664c1.066,-2.835 1.599,-5.268 1.599,-7.299c-0,-2.201 -1.865,-4.253 -5.596,-6.157c-3.73,-1.904 -7.276,-3.068 -10.638,-3.491l0,-8.124l45.011,-0l0,7.87c-2.459,0.423 -5.698,1.883 -9.715,4.38c-4.018,2.496 -7.01,6.029 -8.978,10.599c-9.756,23.358 -18.426,44.642 -26.01,63.852c-7.584,19.211 -13.344,33.344 -17.279,42.399c-5.165,11.848 -9.777,21.094 -13.835,27.737c-4.059,6.643 -8.015,11.869 -11.868,15.678c-3.771,3.554 -7.194,5.945 -10.269,7.172c-3.074,1.227 -6.251,1.84 -9.531,1.84c-6.395,0 -11.417,-1.565 -15.065,-4.696c-3.649,-3.132 -5.473,-6.728 -5.473,-10.791Z" style="fill-rule:nonzero;"/>
    <path d="M1900.05,584.617l-7.502,-0c-0.738,-2.37 -1.824,-5.163 -3.259,-8.379c-1.435,-3.215 -3.013,-6.262 -4.735,-9.139c-1.803,-3.132 -3.833,-5.903 -6.087,-8.315c-2.255,-2.412 -4.612,-3.787 -7.072,-4.126c-2.541,-0.254 -5.37,-0.444 -8.485,-0.571c-3.116,-0.127 -5.78,-0.19 -7.994,-0.19l-0,93.175c-0,2.878 0.574,5.247 1.722,7.109c1.147,1.862 2.869,3.301 5.165,4.316c1.804,0.846 3.853,1.481 6.149,1.904c2.296,0.423 4.55,0.72 6.764,0.889l-0,8.378l-61.737,0l0,-8.378c1.886,-0.169 4.038,-0.339 6.457,-0.508c2.419,-0.169 4.366,-0.508 5.842,-1.016c2.295,-0.761 3.996,-2.094 5.103,-3.998c1.107,-1.904 1.66,-4.38 1.66,-7.426l0,-94.445c-2.623,0.084 -5.575,0.19 -8.854,0.317c-3.28,0.127 -5.862,0.275 -7.748,0.444c-2.132,0.169 -4.407,1.566 -6.825,4.189c-2.419,2.624 -4.53,5.374 -6.334,8.252c-1.722,2.877 -3.32,6.072 -4.796,9.584c-1.476,3.512 -2.501,6.156 -3.075,7.934l-7.502,-0l0,-40.114l113.143,-0l-0,40.114Z" style="fill-rule:nonzero;"/>
    <path d="M2019.34,640.217c-5.083,9.986 -11.888,17.942 -20.414,23.866c-8.527,5.924 -18.325,8.886 -29.393,8.886c-9.756,-0 -18.304,-1.778 -25.641,-5.332c-7.338,-3.554 -13.385,-8.378 -18.14,-14.472c-4.755,-6.093 -8.301,-13.202 -10.638,-21.326c-2.337,-8.124 -3.505,-16.714 -3.505,-25.769c0,-8.124 1.25,-16.101 3.751,-23.929c2.501,-7.828 6.17,-14.873 11.007,-21.136c4.673,-6.008 10.474,-10.853 17.402,-14.535c6.928,-3.681 14.696,-5.522 23.305,-5.522c8.854,0 16.438,1.439 22.751,4.316c6.313,2.878 11.437,6.813 15.373,11.806c3.771,4.739 6.579,10.325 8.424,16.756c1.844,6.432 2.767,13.414 2.767,20.946l-0,8.378l-80.307,0c0,8.209 0.759,15.656 2.275,22.342c1.517,6.686 3.915,12.567 7.195,17.645c3.197,4.908 7.379,8.78 12.544,11.615c5.165,2.835 11.314,4.253 18.447,4.253c7.297,-0 13.589,-1.756 18.878,-5.268c5.288,-3.512 10.391,-9.838 15.311,-18.978l8.608,5.458Zm-27.178,-47.73c-0,-4.739 -0.39,-9.817 -1.169,-15.233c-0.779,-5.416 -2.029,-9.944 -3.751,-13.583c-1.885,-3.893 -4.468,-7.066 -7.747,-9.521c-3.28,-2.454 -7.502,-3.681 -12.667,-3.681c-8.609,0 -15.763,3.703 -21.461,11.108c-5.698,7.405 -8.793,17.708 -9.285,30.91l56.08,0Z" style="fill-rule:nonzero;"/>
    <path d="M2121.05,632.855c-0,-7.448 -2.665,-13.329 -7.994,-17.645c-5.329,-4.316 -12.954,-6.474 -22.875,-6.474c-4.345,-0 -7.768,0.084 -10.269,0.254c-2.5,0.169 -4.447,0.253 -5.841,0.253l-0,41.384c-0,3.3 1.353,5.86 4.058,7.68c2.706,1.819 6.846,2.729 12.421,2.729c5.903,-0 10.905,-0.804 15.004,-2.412c4.099,-1.608 7.297,-3.808 9.593,-6.601c2.213,-2.708 3.75,-5.67 4.611,-8.886c0.861,-3.216 1.292,-6.643 1.292,-10.282Zm24.596,1.904c-0,6.178 -1.353,11.509 -4.059,15.995c-2.705,4.485 -6.436,8.166 -11.191,11.044c-4.345,2.623 -9.305,4.591 -14.881,5.902c-5.575,1.312 -11.519,1.968 -17.832,1.968l-64.073,0l0,-8.378c1.886,-0.169 3.833,-0.339 5.842,-0.508c2.008,-0.169 3.751,-0.508 5.226,-1.016c2.296,-0.761 3.997,-2.094 5.104,-3.998c1.107,-1.904 1.66,-4.38 1.66,-7.426l0,-81.243c0,-2.793 -0.574,-5.142 -1.721,-7.046c-1.148,-1.904 -2.87,-3.364 -5.166,-4.379c-2.131,-1.016 -4.201,-1.693 -6.21,-2.031c-2.009,-0.339 -3.874,-0.593 -5.596,-0.762l0,-8.378c7.297,-0 16.336,-0.043 27.118,-0.127c10.781,-0.085 22.034,-0.127 33.758,-0.127c6.231,-0 12.031,0.444 17.402,1.333c5.37,0.888 10.146,2.391 14.327,4.506c4.345,2.201 7.707,5.184 10.084,8.95c2.378,3.766 3.567,8.314 3.567,13.646c-0,8.378 -2.521,15 -7.564,19.866c-5.042,4.867 -11.662,8.188 -19.861,9.965l0,1.397c4.181,0.592 8.301,1.565 12.36,2.92c4.058,1.354 7.686,3.215 10.883,5.585c3.28,2.454 5.904,5.48 7.871,9.076c1.968,3.597 2.952,8.019 2.952,13.266Zm-30.991,-61.059c-0,-4.232 -0.759,-7.68 -2.276,-10.346c-1.516,-2.666 -3.546,-4.761 -6.087,-6.284c-2.542,-1.523 -5.391,-2.56 -8.547,-3.11c-3.157,-0.55 -6.416,-0.825 -9.777,-0.825c-2.132,-0 -4.489,0.063 -7.072,0.19c-2.582,0.127 -4.857,0.233 -6.825,0.318l-0,45.699l11.929,-0c5.657,-0 10.412,-0.677 14.266,-2.031c3.853,-1.354 6.764,-3.174 8.731,-5.459c2.05,-2.2 3.505,-4.824 4.366,-7.87c0.861,-3.047 1.292,-6.474 1.292,-10.282Z" style="fill-rule:nonzero;"/>
    <path d="M2282.03,605.816c-0,8.801 -1.353,17.455 -4.059,25.96c-2.705,8.505 -6.559,15.719 -11.56,21.643c-5.657,6.771 -12.216,11.806 -19.677,15.107c-7.461,3.3 -15.823,4.95 -25.088,4.95c-7.707,0 -15.045,-1.502 -22.014,-4.506c-6.969,-3.004 -13.159,-7.384 -18.57,-13.139c-5.329,-5.67 -9.572,-12.588 -12.728,-20.755c-3.157,-8.166 -4.735,-17.327 -4.735,-27.483c-0,-19.549 5.514,-35.544 16.541,-47.984c11.027,-12.44 25.477,-18.661 43.351,-18.661c16.971,0 30.97,5.903 41.998,17.709c11.027,11.806 16.541,27.525 16.541,47.159Zm-25.457,0.254c-0,-6.347 -0.615,-13.054 -1.845,-20.121c-1.23,-7.066 -3.075,-13.053 -5.534,-17.962c-2.624,-5.247 -6.067,-9.457 -10.331,-12.631c-4.263,-3.173 -9.469,-4.76 -15.618,-4.76c-6.313,0 -11.704,1.608 -16.172,4.824c-4.469,3.216 -8.097,7.616 -10.884,13.202c-2.624,5.162 -4.468,11.044 -5.534,17.645c-1.066,6.601 -1.599,12.99 -1.599,19.168c0,8.124 0.635,15.635 1.906,22.532c1.271,6.898 3.3,13.054 6.088,18.471c2.787,5.416 6.292,9.668 10.515,12.757c4.222,3.089 9.449,4.634 15.68,4.634c10.248,-0 18.365,-5.12 24.35,-15.36c5.985,-10.24 8.978,-24.373 8.978,-42.399Z" style="fill-rule:nonzero;"/>
    <path d="M2304.53,659.386c8.117,-11.087 15.188,-25.643 21.214,-43.669c6.026,-18.025 9.039,-32.793 9.039,-44.302c0,-4.401 -0.533,-7.659 -1.598,-9.775c-1.066,-2.116 -2.747,-3.766 -5.043,-4.951c-1.557,-0.846 -4.099,-1.629 -7.624,-2.348c-3.526,-0.72 -6.395,-1.206 -8.609,-1.46l-0,-8.378l110.437,-0l-0,8.378c-2.378,0.169 -4.448,0.381 -6.211,0.635c-1.762,0.254 -3.382,0.55 -4.857,0.888c-2.296,0.677 -3.997,2.01 -5.104,3.999c-1.107,1.989 -1.66,4.464 -1.66,7.426l-0,81.116c-0,4.486 0.84,7.68 2.521,9.584c1.68,1.905 5.226,2.857 10.638,2.857l7.87,-0l0,46.968l-8.854,0c-1.722,-8.547 -4.633,-16.629 -8.732,-24.246c-4.099,-7.616 -8.527,-11.932 -13.282,-12.948l-71.452,0c-4.427,0.762 -8.916,4.993 -13.466,12.694c-4.551,7.702 -7.646,15.868 -9.285,24.5l-8.855,0l0,-46.968l12.913,-0Zm14.02,-0l53.005,-0c3.607,-0 6.19,-0.656 7.747,-1.968c1.558,-1.312 2.337,-3.322 2.337,-6.03l0,-96.476l-33.82,0c-0.492,21.411 -3.341,41.024 -8.547,58.838c-5.206,17.814 -12.113,33.026 -20.722,45.636Z" style="fill-rule:nonzero;"/>
    <path d="M2577.31,669.668l-58.908,0l-0,-8.378c1.886,-0.169 3.833,-0.339 5.841,-0.508c2.009,-0.169 3.751,-0.508 5.227,-1.016c2.296,-0.761 4.059,-2.094 5.288,-3.998c1.23,-1.904 1.845,-4.38 1.845,-7.426l0,-65.756l-55.833,62.328l-0,2.158c-0,2.878 0.574,5.247 1.721,7.109c1.148,1.862 2.87,3.301 5.166,4.316c1.803,0.846 3.71,1.481 5.718,1.904c2.009,0.423 4.12,0.72 6.334,0.889l-0,8.378l-58.908,0l-0,-8.378c1.886,-0.169 3.833,-0.339 5.842,-0.508c2.008,-0.169 3.75,-0.508 5.226,-1.016c2.296,-0.761 3.997,-2.094 5.104,-3.998c1.107,-1.904 1.66,-4.38 1.66,-7.426l0,-81.243c0,-2.793 -0.574,-5.142 -1.722,-7.046c-1.147,-1.904 -2.869,-3.364 -5.165,-4.379c-2.131,-1.016 -4.202,-1.693 -6.21,-2.031c-2.009,-0.339 -3.874,-0.593 -5.596,-0.762l0,-8.378l58.908,-0l-0,8.378c-2.378,0.169 -4.448,0.381 -6.211,0.635c-1.762,0.254 -3.382,0.55 -4.857,0.888c-2.296,0.677 -3.997,2.01 -5.104,3.999c-1.107,1.989 -1.66,4.464 -1.66,7.426l-0,64.741l55.833,-62.456c0,-3.724 -0.574,-6.474 -1.722,-8.251c-1.148,-1.777 -2.869,-3.174 -5.165,-4.189c-2.132,-1.016 -4.243,-1.693 -6.333,-2.031c-2.091,-0.339 -3.997,-0.593 -5.719,-0.762l-0,-8.378l58.908,-0l-0,8.378c-2.378,0.169 -4.448,0.381 -6.211,0.635c-1.762,0.254 -3.382,0.55 -4.857,0.888c-2.296,0.677 -3.997,2.01 -5.104,3.999c-1.107,1.989 -1.66,4.464 -1.66,7.426l-0,81.243c-0,2.962 0.491,5.353 1.475,7.172c0.984,1.82 2.665,3.238 5.043,4.253c1.721,0.846 3.586,1.481 5.595,1.904c2.009,0.423 4.079,0.72 6.211,0.889l-0,8.378Z" style="fill-rule:nonzero;"/>
    <path d="M2701.76,584.617l-7.501,-0c-0.738,-2.37 -1.825,-5.163 -3.259,-8.379c-1.435,-3.215 -3.013,-6.262 -4.735,-9.139c-1.804,-3.132 -3.833,-5.903 -6.088,-8.315c-2.254,-2.412 -4.612,-3.787 -7.071,-4.126c-2.542,-0.254 -5.37,-0.444 -8.486,-0.571c-3.115,-0.127 -5.78,-0.19 -7.994,-0.19l0,93.175c0,2.878 0.574,5.247 1.722,7.109c1.148,1.862 2.87,3.301 5.165,4.316c1.804,0.846 3.854,1.481 6.149,1.904c2.296,0.423 4.551,0.72 6.764,0.889l0,8.378l-61.736,0l-0,-8.378c1.886,-0.169 4.038,-0.339 6.456,-0.508c2.419,-0.169 4.366,-0.508 5.842,-1.016c2.296,-0.761 3.997,-2.094 5.104,-3.998c1.107,-1.904 1.66,-4.38 1.66,-7.426l-0,-94.445c-2.624,0.084 -5.575,0.19 -8.855,0.317c-3.279,0.127 -5.862,0.275 -7.747,0.444c-2.132,0.169 -4.407,1.566 -6.826,4.189c-2.419,2.624 -4.53,5.374 -6.333,8.252c-1.722,2.877 -3.321,6.072 -4.797,9.584c-1.475,3.512 -2.5,6.156 -3.074,7.934l-7.502,-0l-0,-40.114l113.142,-0l0,40.114Z" style="fill-rule:nonzero;"/>
    <path d="M2821.05,640.217c-5.083,9.986 -11.888,17.942 -20.415,23.866c-8.527,5.924 -18.324,8.886 -29.392,8.886c-9.757,-0 -18.304,-1.778 -25.642,-5.332c-7.338,-3.554 -13.384,-8.378 -18.14,-14.472c-4.755,-6.093 -8.301,-13.202 -10.637,-21.326c-2.337,-8.124 -3.505,-16.714 -3.505,-25.769c-0,-8.124 1.25,-16.101 3.751,-23.929c2.5,-7.828 6.169,-14.873 11.006,-21.136c4.674,-6.008 10.474,-10.853 17.402,-14.535c6.928,-3.681 14.696,-5.522 23.305,-5.522c8.855,0 16.438,1.439 22.751,4.316c6.313,2.878 11.438,6.813 15.373,11.806c3.771,4.739 6.58,10.325 8.424,16.756c1.845,6.432 2.767,13.414 2.767,20.946l0,8.378l-80.306,0c-0,8.209 0.758,15.656 2.275,22.342c1.517,6.686 3.915,12.567 7.194,17.645c3.198,4.908 7.379,8.78 12.544,11.615c5.166,2.835 11.315,4.253 18.448,4.253c7.296,-0 13.589,-1.756 18.877,-5.268c5.288,-3.512 10.392,-9.838 15.311,-18.978l8.609,5.458Zm-27.179,-47.73c0,-4.739 -0.389,-9.817 -1.168,-15.233c-0.779,-5.416 -2.029,-9.944 -3.751,-13.583c-1.886,-3.893 -4.468,-7.066 -7.748,-9.521c-3.279,-2.454 -7.502,-3.681 -12.667,-3.681c-8.609,0 -15.762,3.703 -21.46,11.108c-5.698,7.405 -8.793,17.708 -9.285,30.91l56.079,0Z" style="fill-rule:nonzero;"/>
    <path d="M2963.96,669.668l-59.277,0l-0,-8.378c1.886,-0.169 3.812,-0.339 5.78,-0.508c1.968,-0.169 3.689,-0.508 5.165,-1.016c2.296,-0.761 4.059,-2.094 5.288,-3.998c1.23,-1.904 1.845,-4.38 1.845,-7.426l0,-93.43l-33.697,0c0,20.649 -1.393,38.421 -4.181,53.316c-2.788,14.894 -6.395,27.039 -10.822,36.432c-4.346,9.225 -9.265,16.122 -14.758,20.692c-5.493,4.57 -11.109,6.855 -16.848,6.855c-5.904,-0 -10.372,-1.587 -13.405,-4.76c-3.034,-3.174 -4.551,-6.877 -4.551,-11.108c0,-3.047 0.964,-5.924 2.89,-8.632c1.927,-2.708 4.735,-4.062 8.425,-4.062c3.443,-0 6.559,1.015 9.346,3.046c2.788,2.032 5.493,4.867 8.117,8.506c1.968,-1.862 4.284,-5.311 6.948,-10.346c2.665,-5.036 5.104,-11.277 7.318,-18.724c2.459,-8.04 4.468,-16.376 6.026,-25.008c1.557,-8.632 2.336,-18.533 2.336,-29.704c0,-4.401 -0.533,-7.659 -1.598,-9.775c-1.066,-2.116 -2.747,-3.766 -5.043,-4.951c-1.557,-0.846 -4.099,-1.629 -7.624,-2.348c-3.526,-0.72 -6.395,-1.206 -8.609,-1.46l-0,-8.378l110.437,-0l-0,8.378c-2.378,0.169 -4.448,0.381 -6.211,0.635c-1.763,0.254 -3.382,0.55 -4.858,0.888c-2.295,0.677 -3.996,2.01 -5.103,3.999c-1.107,1.989 -1.66,4.464 -1.66,7.426l-0,81.243c-0,2.962 0.491,5.353 1.475,7.172c0.984,1.82 2.665,3.238 5.042,4.253c1.722,0.846 3.587,1.481 5.596,1.904c2.009,0.423 4.079,0.72 6.211,0.889l-0,8.378Z" style="fill-rule:nonzero;"/>
    <path d="M3067.51,630.57c-0,-7.109 -2.501,-13.181 -7.502,-18.216c-5.001,-5.036 -12.298,-7.554 -21.891,-7.554c-4.017,0 -7.338,0.149 -9.961,0.445c-2.624,0.296 -4.633,0.444 -6.026,0.444l-0,44.684c-0,3.554 1.25,6.22 3.751,7.997c2.5,1.777 7.03,2.666 13.589,2.666c5.575,-0 10.228,-0.931 13.958,-2.793c3.731,-1.862 6.58,-4.231 8.547,-7.109c2.132,-3.131 3.587,-6.389 4.366,-9.774c0.779,-3.385 1.169,-6.982 1.169,-10.79Zm24.842,0.634c-0,6.686 -1.394,12.462 -4.182,17.328c-2.787,4.866 -6.395,8.865 -10.822,11.996c-4.427,3.047 -9.347,5.332 -14.758,6.855c-5.411,1.523 -11.068,2.285 -16.971,2.285l-63.95,0l-0,-8.378c1.886,-0.169 3.833,-0.339 5.841,-0.508c2.009,-0.169 3.751,-0.508 5.227,-1.016c2.296,-0.761 3.997,-2.094 5.104,-3.998c1.107,-1.904 1.66,-4.38 1.66,-7.426l0,-81.243c0,-2.793 -0.574,-5.142 -1.722,-7.046c-1.147,-1.904 -2.869,-3.364 -5.165,-4.379c-2.131,-1.016 -4.202,-1.693 -6.21,-2.031c-2.009,-0.339 -3.874,-0.593 -5.596,-0.762l0,-8.378l61.122,-0l-0,8.378c-2.46,0.169 -4.858,0.36 -7.195,0.571c-2.336,0.212 -4.284,0.529 -5.841,0.952c-2.542,0.762 -4.305,2.201 -5.289,4.316c-0.983,2.116 -1.475,4.486 -1.475,7.109l-0,29.832c3.279,-0.085 6.087,-0.191 8.424,-0.318c2.336,-0.127 5.718,-0.19 10.146,-0.19c7.952,-0 14.942,0.656 20.968,1.967c6.026,1.312 11.253,3.322 15.68,6.03c4.755,2.878 8.445,6.559 11.068,11.044c2.624,4.485 3.936,10.156 3.936,17.01Z" style="fill-rule:nonzero;"/>
    <path d="M3301.42,669.668l-59.277,0l0,-8.378c1.886,-0.169 3.813,-0.339 5.781,-0.508c1.967,-0.169 3.689,-0.508 5.165,-1.016c2.295,-0.761 4.058,-2.094 5.288,-3.998c1.23,-1.904 1.845,-4.38 1.845,-7.426l-0,-93.43l-51.898,0l-0,92.16c-0,2.878 0.574,5.247 1.721,7.109c1.148,1.862 2.87,3.301 5.166,4.316c1.721,0.846 3.566,1.481 5.534,1.904c1.967,0.423 4.017,0.72 6.149,0.889l-0,8.378l-59.277,0l0,-8.378c1.886,-0.169 3.833,-0.339 5.842,-0.508c2.008,-0.169 3.751,-0.508 5.226,-1.016c2.296,-0.761 3.997,-2.094 5.104,-3.998c1.107,-1.904 1.66,-4.38 1.66,-7.426l0,-81.243c0,-2.793 -0.574,-5.142 -1.721,-7.046c-1.148,-1.904 -2.87,-3.364 -5.166,-4.379c-2.131,-1.016 -4.202,-1.693 -6.21,-2.031c-2.009,-0.339 -3.874,-0.593 -5.596,-0.762l0,-8.378l134.172,-0l0,8.378c-2.377,0.169 -4.447,0.381 -6.21,0.635c-1.763,0.254 -3.382,0.55 -4.858,0.888c-2.296,0.677 -3.997,2.01 -5.104,3.999c-1.107,1.989 -1.66,4.464 -1.66,7.426l0,81.243c0,2.962 0.492,5.353 1.476,7.172c0.984,1.82 2.664,3.238 5.042,4.253c1.722,0.846 3.587,1.481 5.596,1.904c2.008,0.423 4.079,0.72 6.21,0.889l0,8.378Z" style="fill-rule:nonzero;"/>
    <path d="M3437.07,605.816c0,8.801 -1.353,17.455 -4.058,25.96c-2.706,8.505 -6.559,15.719 -11.56,21.643c-5.658,6.771 -12.217,11.806 -19.677,15.107c-7.461,3.3 -15.824,4.95 -25.088,4.95c-7.707,0 -15.045,-1.502 -22.014,-4.506c-6.969,-3.004 -13.159,-7.384 -18.57,-13.139c-5.329,-5.67 -9.572,-12.588 -12.729,-20.755c-3.156,-8.166 -4.734,-17.327 -4.734,-27.483c-0,-19.549 5.513,-35.544 16.54,-47.984c11.028,-12.44 25.478,-18.661 43.351,-18.661c16.972,0 30.971,5.903 41.998,17.709c11.028,11.806 16.541,27.525 16.541,47.159Zm-25.457,0.254c0,-6.347 -0.615,-13.054 -1.845,-20.121c-1.229,-7.066 -3.074,-13.053 -5.534,-17.962c-2.623,-5.247 -6.067,-9.457 -10.33,-12.631c-4.263,-3.173 -9.47,-4.76 -15.619,-4.76c-6.313,0 -11.703,1.608 -16.172,4.824c-4.468,3.216 -8.096,7.616 -10.884,13.202c-2.623,5.162 -4.468,11.044 -5.534,17.645c-1.065,6.601 -1.598,12.99 -1.598,19.168c-0,8.124 0.635,15.635 1.906,22.532c1.271,6.898 3.3,13.054 6.087,18.471c2.788,5.416 6.293,9.668 10.515,12.757c4.223,3.089 9.449,4.634 15.68,4.634c10.249,-0 18.365,-5.12 24.351,-15.36c5.985,-10.24 8.977,-24.373 8.977,-42.399Z" style="fill-rule:nonzero;"/>
    <path d="M3649.45,669.668l-59.277,0l0,-8.378c1.886,-0.169 3.813,-0.339 5.78,-0.508c1.968,-0.169 3.69,-0.508 5.166,-1.016c2.295,-0.761 4.058,-2.094 5.288,-3.998c1.23,-1.904 1.845,-4.38 1.845,-7.426l-0,-93.43l-51.898,0l-0,92.16c-0,2.878 0.574,5.247 1.721,7.109c1.148,1.862 2.87,3.301 5.166,4.316c1.721,0.846 3.566,1.481 5.534,1.904c1.967,0.423 4.017,0.72 6.149,0.889l-0,8.378l-59.277,0l-0,-8.378c1.886,-0.169 3.833,-0.339 5.842,-0.508c2.008,-0.169 3.75,-0.508 5.226,-1.016c2.296,-0.761 3.997,-2.094 5.104,-3.998c1.107,-1.904 1.66,-4.38 1.66,-7.426l0,-81.243c0,-2.793 -0.574,-5.142 -1.722,-7.046c-1.147,-1.904 -2.869,-3.364 -5.165,-4.379c-2.131,-1.016 -4.202,-1.693 -6.21,-2.031c-2.009,-0.339 -3.874,-0.593 -5.596,-0.762l0,-8.378l134.172,-0l0,8.378c-2.377,0.169 -4.448,0.381 -6.21,0.635c-1.763,0.254 -3.382,0.55 -4.858,0.888c-2.296,0.677 -3.997,2.01 -5.104,3.999c-1.107,1.989 -1.66,4.464 -1.66,7.426l0,81.243c0,2.962 0.492,5.353 1.476,7.172c0.984,1.82 2.664,3.238 5.042,4.253c1.722,0.846 3.587,1.481 5.596,1.904c2.008,0.423 4.078,0.72 6.21,0.889l0,8.378Z" style="fill-rule:nonzero;"/>
    <path d="M3774.65,640.217c-5.083,9.986 -11.888,17.942 -20.415,23.866c-8.527,5.924 -18.324,8.886 -29.393,8.886c-9.756,-0 -18.303,-1.778 -25.641,-5.332c-7.338,-3.554 -13.384,-8.378 -18.14,-14.472c-4.755,-6.093 -8.301,-13.202 -10.638,-21.326c-2.336,-8.124 -3.505,-16.714 -3.505,-25.769c0,-8.124 1.251,-16.101 3.751,-23.929c2.501,-7.828 6.17,-14.873 11.007,-21.136c4.673,-6.008 10.474,-10.853 17.402,-14.535c6.928,-3.681 14.696,-5.522 23.305,-5.522c8.854,0 16.438,1.439 22.751,4.316c6.313,2.878 11.438,6.813 15.373,11.806c3.771,4.739 6.579,10.325 8.424,16.756c1.845,6.432 2.767,13.414 2.767,20.946l0,8.378l-80.306,0c-0,8.209 0.758,15.656 2.275,22.342c1.517,6.686 3.915,12.567 7.194,17.645c3.198,4.908 7.379,8.78 12.544,11.615c5.165,2.835 11.314,4.253 18.447,4.253c7.297,-0 13.59,-1.756 18.878,-5.268c5.288,-3.512 10.392,-9.838 15.311,-18.978l8.609,5.458Zm-27.179,-47.73c-0,-4.739 -0.389,-9.817 -1.168,-15.233c-0.779,-5.416 -2.03,-9.944 -3.751,-13.583c-1.886,-3.893 -4.469,-7.066 -7.748,-9.521c-3.28,-2.454 -7.502,-3.681 -12.667,-3.681c-8.609,0 -15.762,3.703 -21.46,11.108c-5.698,7.405 -8.793,17.708 -9.285,30.91l56.079,0Z" style="fill-rule:nonzero;"/>
    <path d="M3899.47,559.355c4.838,5.924 8.588,12.8 11.253,20.628c2.665,7.828 3.997,16.778 3.997,26.849c-0,9.901 -1.599,18.935 -4.796,27.102c-3.198,8.166 -7.42,15.127 -12.667,20.882c-5.493,5.839 -11.602,10.324 -18.324,13.456c-6.723,3.131 -13.856,4.697 -21.399,4.697c-7.297,-0 -13.282,-0.847 -17.955,-2.539c-4.674,-1.693 -8.486,-3.682 -11.438,-5.967l-0.983,0l-0,37.575c-0,3.047 0.573,5.586 1.721,7.617c1.148,2.031 2.911,3.512 5.288,4.443c1.968,0.762 4.776,1.502 8.425,2.221c3.648,0.72 6.661,1.122 9.039,1.206l-0,8.505l-67.763,0l0,-8.505c2.542,-0.169 5.002,-0.381 7.379,-0.634c2.378,-0.254 4.509,-0.677 6.395,-1.27c2.46,-0.846 4.181,-2.327 5.165,-4.443c0.984,-2.116 1.476,-4.612 1.476,-7.489l0,-133.163c0,-2.539 -0.615,-4.993 -1.845,-7.363c-1.229,-2.369 -2.828,-4.273 -4.796,-5.712c-1.476,-1.016 -3.525,-1.798 -6.149,-2.349c-2.623,-0.55 -5.165,-0.909 -7.625,-1.079l0,-8.251l41.322,-2.793l1.722,1.524l-0,14.09l0.983,0.254c4.264,-5.077 9.552,-9.309 15.865,-12.694c6.313,-3.385 12.585,-5.078 18.816,-5.078c7.543,0 14.45,1.651 20.722,4.951c6.272,3.301 11.663,7.744 16.172,13.329Zm-20.046,90.002c3.28,-5.247 5.699,-11.34 7.256,-18.279c1.558,-6.94 2.337,-14.683 2.337,-23.231c-0,-6.262 -0.656,-12.652 -1.968,-19.168c-1.312,-6.517 -3.361,-12.187 -6.149,-17.011c-2.787,-4.908 -6.436,-8.886 -10.945,-11.932c-4.509,-3.047 -9.921,-4.57 -16.234,-4.57c-6.067,-0 -11.232,1.375 -15.495,4.126c-4.263,2.75 -7.953,6.029 -11.068,9.838l-0,74.007c0.737,2.285 1.947,4.655 3.627,7.109c1.681,2.454 3.546,4.57 5.596,6.347c2.542,2.116 5.288,3.829 8.24,5.141c2.951,1.312 6.559,1.968 10.822,1.968c4.591,-0 9.019,-1.249 13.282,-3.745c4.263,-2.497 7.83,-6.03 10.699,-10.6Z" style="fill-rule:nonzero;"/>
    <path d="M4040.29,640.217c-5.083,9.986 -11.888,17.942 -20.414,23.866c-8.527,5.924 -18.325,8.886 -29.393,8.886c-9.756,-0 -18.303,-1.778 -25.641,-5.332c-7.338,-3.554 -13.385,-8.378 -18.14,-14.472c-4.755,-6.093 -8.301,-13.202 -10.638,-21.326c-2.336,-8.124 -3.505,-16.714 -3.505,-25.769c0,-8.124 1.25,-16.101 3.751,-23.929c2.501,-7.828 6.17,-14.873 11.007,-21.136c4.673,-6.008 10.474,-10.853 17.402,-14.535c6.928,-3.681 14.696,-5.522 23.305,-5.522c8.854,0 16.438,1.439 22.751,4.316c6.313,2.878 11.437,6.813 15.373,11.806c3.771,4.739 6.579,10.325 8.424,16.756c1.845,6.432 2.767,13.414 2.767,20.946l-0,8.378l-80.307,0c0,8.209 0.759,15.656 2.276,22.342c1.516,6.686 3.914,12.567 7.194,17.645c3.197,4.908 7.379,8.78 12.544,11.615c5.165,2.835 11.314,4.253 18.447,4.253c7.297,-0 13.589,-1.756 18.878,-5.268c5.288,-3.512 10.392,-9.838 15.311,-18.978l8.608,5.458Zm-27.178,-47.73c-0,-4.739 -0.39,-9.817 -1.169,-15.233c-0.779,-5.416 -2.029,-9.944 -3.751,-13.583c-1.885,-3.893 -4.468,-7.066 -7.747,-9.521c-3.28,-2.454 -7.502,-3.681 -12.667,-3.681c-8.609,0 -15.762,3.703 -21.461,11.108c-5.698,7.405 -8.793,17.708 -9.285,30.91l56.08,0Z" style="fill-rule:nonzero;"/>
    <path d="M4162.04,640.217c-5.084,9.986 -11.889,17.942 -20.415,23.866c-8.527,5.924 -18.324,8.886 -29.393,8.886c-9.756,-0 -18.303,-1.778 -25.641,-5.332c-7.338,-3.554 -13.385,-8.378 -18.14,-14.472c-4.755,-6.093 -8.301,-13.202 -10.638,-21.326c-2.336,-8.124 -3.505,-16.714 -3.505,-25.769c0,-8.124 1.251,-16.101 3.751,-23.929c2.501,-7.828 6.17,-14.873 11.007,-21.136c4.673,-6.008 10.474,-10.853 17.402,-14.535c6.928,-3.681 14.696,-5.522 23.305,-5.522c8.854,0 16.438,1.439 22.751,4.316c6.313,2.878 11.437,6.813 15.373,11.806c3.771,4.739 6.579,10.325 8.424,16.756c1.845,6.432 2.767,13.414 2.767,20.946l0,8.378l-80.307,0c0,8.209 0.759,15.656 2.276,22.342c1.516,6.686 3.915,12.567 7.194,17.645c3.198,4.908 7.379,8.78 12.544,11.615c5.165,2.835 11.314,4.253 18.447,4.253c7.297,-0 13.59,-1.756 18.878,-5.268c5.288,-3.512 10.392,-9.838 15.311,-18.978l8.609,5.458Zm-27.179,-47.73c-0,-4.739 -0.39,-9.817 -1.169,-15.233c-0.778,-5.416 -2.029,-9.944 -3.75,-13.583c-1.886,-3.893 -4.469,-7.066 -7.748,-9.521c-3.28,-2.454 -7.502,-3.681 -12.667,-3.681c-8.609,0 -15.762,3.703 -21.46,11.108c-5.699,7.405 -8.794,17.708 -9.286,30.91l56.08,0Z" style="fill-rule:nonzero;"/>
    <path d="M4276.29,633.489c-0,11.764 -5.063,21.284 -15.188,28.562c-10.126,7.278 -23.346,10.918 -39.662,10.918c-7.297,-0 -13.917,-0.868 -19.861,-2.603c-5.944,-1.735 -10.925,-4.083 -14.942,-7.045c-3.854,-2.962 -6.805,-6.305 -8.855,-10.029c-2.05,-3.723 -3.074,-7.785 -3.074,-12.186c-0,-3.808 0.983,-6.94 2.951,-9.394c1.968,-2.454 5.042,-3.681 9.224,-3.681c4.427,-0 7.788,1.227 10.084,3.681c2.296,2.454 3.444,5.036 3.444,7.744c-0,2.454 -0.349,5.374 -1.046,8.759c-0.697,3.385 -1.291,6.008 -1.783,7.87c2.132,2.2 5.247,3.999 9.347,5.395c4.099,1.397 8.895,2.095 14.388,2.095c8.527,-0 15.619,-2.624 21.276,-7.871c5.657,-5.247 8.486,-12.652 8.486,-22.215c-0,-2.877 -0.369,-5.797 -1.107,-8.759c-0.738,-2.962 -2.132,-5.585 -4.181,-7.87c-2.05,-2.285 -4.838,-4.147 -8.363,-5.586c-3.526,-1.438 -8.158,-2.158 -13.897,-2.158l-12.913,0l-0,-11.805l10.576,-0c9.839,-0 16.726,-2.137 20.661,-6.411c3.936,-4.273 5.903,-10.896 5.903,-19.866c0,-6.263 -1.885,-11.235 -5.657,-14.916c-3.771,-3.681 -8.977,-5.522 -15.618,-5.522c-4.838,0 -9.142,1.079 -12.913,3.237c-3.772,2.158 -7.256,5.099 -10.454,8.823c-2.869,3.385 -5.391,7.341 -7.563,11.869c-2.173,4.527 -3.956,8.78 -5.35,12.757l-8.24,0l0.738,-45.318l8.24,-0l4.427,6.982c4.1,-1.947 9.039,-3.766 14.82,-5.459c5.78,-1.692 12.277,-2.539 19.492,-2.539c9.019,0 16.356,1.122 22.014,3.364c5.657,2.243 10.043,4.93 13.159,8.061c3.033,3.047 5.083,6.284 6.149,9.711c1.065,3.428 1.598,6.242 1.598,8.442c0,2.877 -0.43,5.818 -1.291,8.822c-0.861,3.005 -2.48,5.861 -4.858,8.569c-2.295,2.708 -5.472,5.226 -9.531,7.553c-4.058,2.327 -9.162,4.126 -15.311,5.395l0,1.65c3.854,0.17 7.809,0.804 11.868,1.905c4.058,1.1 7.809,2.835 11.253,5.204c3.689,2.624 6.538,5.903 8.547,9.838c2.008,3.935 3.013,8.611 3.013,14.027Z" style="fill-rule:nonzero;"/>
    <path d="M4300.27,659.386c8.117,-11.087 15.188,-25.643 21.214,-43.669c6.026,-18.025 9.039,-32.793 9.039,-44.302c0,-4.401 -0.533,-7.659 -1.598,-9.775c-1.066,-2.116 -2.747,-3.766 -5.043,-4.951c-1.557,-0.846 -4.099,-1.629 -7.624,-2.348c-3.526,-0.72 -6.395,-1.206 -8.609,-1.46l-0,-8.378l110.437,-0l-0,8.378c-2.378,0.169 -4.448,0.381 -6.211,0.635c-1.762,0.254 -3.382,0.55 -4.858,0.888c-2.295,0.677 -3.996,2.01 -5.103,3.999c-1.107,1.989 -1.66,4.464 -1.66,7.426l-0,81.116c-0,4.486 0.84,7.68 2.521,9.584c1.68,1.905 5.226,2.857 10.637,2.857l7.871,-0l0,46.968l-8.854,0c-1.722,-8.547 -4.633,-16.629 -8.732,-24.246c-4.099,-7.616 -8.527,-11.932 -13.282,-12.948l-71.452,0c-4.427,0.762 -8.916,4.993 -13.466,12.694c-4.551,7.702 -7.646,15.868 -9.285,24.5l-8.855,0l0,-46.968l12.913,-0Zm14.02,-0l53.005,-0c3.607,-0 6.19,-0.656 7.747,-1.968c1.558,-1.312 2.337,-3.322 2.337,-6.03l0,-96.476l-33.82,0c-0.492,21.411 -3.341,41.024 -8.547,58.838c-5.206,17.814 -12.113,33.026 -20.722,45.636Z" style="fill-rule:nonzero;"/>
    <path d="M4427.06,710.543c0,-4.231 1.128,-7.68 3.382,-10.345c2.255,-2.666 5.063,-3.999 8.425,-3.999c2.623,-0 4.878,0.508 6.763,1.523c1.886,1.016 3.567,2.328 5.043,3.935c1.23,1.27 2.541,3.005 3.935,5.205c1.394,2.2 2.501,4.02 3.321,5.459c4.099,-2.285 8.998,-8.252 14.696,-17.899c5.698,-9.648 9.818,-18.111 12.359,-25.389c-7.788,-20.057 -14.839,-37.998 -21.152,-53.823c-6.313,-15.826 -12.913,-32.201 -19.8,-49.127c-1.558,-3.893 -4.182,-6.918 -7.871,-9.076c-3.689,-2.158 -7.379,-3.534 -11.068,-4.126l-0,-8.378l55.341,-0l0,8.886c-2.46,0.084 -5.411,0.613 -8.855,1.587c-3.443,0.973 -5.165,2.094 -5.165,3.364c0,0.507 0.185,1.354 0.554,2.538c0.369,1.185 0.799,2.412 1.291,3.682c3.115,8.378 7.871,20.459 14.266,36.242c6.395,15.783 11.355,28.414 14.88,37.892c3.69,-9.055 7.523,-18.428 11.499,-28.118c3.977,-9.69 8.424,-21.136 13.344,-34.338c0.573,-1.608 1.393,-3.829 2.459,-6.664c1.066,-2.835 1.599,-5.268 1.599,-7.299c-0,-2.201 -1.865,-4.253 -5.596,-6.157c-3.73,-1.904 -7.276,-3.068 -10.638,-3.491l0,-8.124l45.011,-0l0,7.87c-2.459,0.423 -5.698,1.883 -9.715,4.38c-4.017,2.496 -7.01,6.029 -8.978,10.599c-9.756,23.358 -18.426,44.642 -26.01,63.852c-7.584,19.211 -13.343,33.344 -17.279,42.399c-5.165,11.848 -9.777,21.094 -13.835,27.737c-4.059,6.643 -8.014,11.869 -11.868,15.678c-3.771,3.554 -7.194,5.945 -10.269,7.172c-3.074,1.227 -6.251,1.84 -9.531,1.84c-6.395,0 -11.417,-1.565 -15.065,-4.696c-3.648,-3.132 -5.473,-6.728 -5.473,-10.791Z" style="fill-rule:nonzero;"/>
    <g transform="matrix(0.733431,0,0,13.2653,1214.66,-1757.44)">
        <clipPath id="_clip1">
            <path d="M1696.12,160.036l-129.722,0l-0,-0.985c11.414,-0.047 20.889,-0.139 28.425,-0.278c7.536,-0.139 11.304,-0.31 11.304,-0.513c-0,-0.083 -0.146,-0.185 -0.439,-0.306c-0.293,-0.12 -0.732,-0.226 -1.317,-0.319l-25.901,-4.413l-109.089,0c-4.098,0.648 -7.427,1.212 -9.988,1.693c-2.56,0.481 -4.865,0.926 -6.914,1.333c-1.902,0.397 -3.219,0.721 -3.951,0.971c-0.731,0.25 -1.097,0.453 -1.097,0.611c-0,0.37 4.609,0.656 13.828,0.86c9.219,0.203 19.609,0.324 31.169,0.361l-0,0.985l-117.211,0l-0,-0.985c3.804,-0.019 8.56,-0.072 14.267,-0.16c5.707,-0.088 10.389,-0.206 14.048,-0.354c5.853,-0.249 10.389,-0.511 13.608,-0.784c3.22,-0.273 6.366,-0.65 9.439,-1.131c15.657,-2.47 32.924,-5.245 51.801,-8.326c18.877,-3.081 35.705,-5.824 50.484,-8.229l17.56,0l103.822,16.985c2.195,0.361 4.682,0.653 7.463,0.875c2.78,0.222 6.658,0.439 11.633,0.652c3.365,0.129 7.755,0.238 13.17,0.326c5.414,0.088 9.95,0.137 13.608,0.146l0,0.985Zm-125.552,-8.049l-47.191,-7.632l-46.314,7.632l93.505,0Zm328.806,-4.01c8.634,0.648 15.328,1.399 20.084,2.255c4.756,0.856 7.134,1.834 7.134,2.935c-0,1.082 -2.854,2.07 -8.561,2.963c-5.707,0.892 -13.243,1.653 -22.608,2.282c-9.804,0.639 -20.706,1.129 -32.705,1.471c-11.999,0.343 -24.73,0.514 -38.192,0.514c-13.024,-0 -23.706,-0.093 -32.047,-0.278c-8.341,-0.185 -15.145,-0.402 -20.413,-0.652l-1.756,0l0,4.108c0,0.333 1.024,0.61 3.073,0.832c2.049,0.222 5.195,0.384 9.438,0.486c3.512,0.083 8.524,0.164 15.036,0.243c6.512,0.078 11.889,0.122 16.133,0.132l-0,0.929l-120.943,0l0,-0.929c4.537,-0.019 8.927,-0.042 13.17,-0.07c4.244,-0.028 8.048,-0.074 11.414,-0.139c4.39,-0.092 7.463,-0.254 9.219,-0.485c1.756,-0.232 2.634,-0.504 2.634,-0.819l-0,-14.557c-0,-0.277 -1.098,-0.546 -3.293,-0.805c-2.195,-0.259 -5.048,-0.467 -8.56,-0.624c-2.634,-0.111 -6.292,-0.197 -10.975,-0.257c-4.682,-0.06 -9.219,-0.099 -13.609,-0.118l0,-0.902l73.751,-0.305l3.073,0.166l0,1.541l1.756,0.027c7.609,-0.555 17.048,-1.017 28.315,-1.387c11.268,-0.37 22.462,-0.555 33.583,-0.555c13.463,-0 25.791,0.18 36.985,0.541c11.195,0.361 20.816,0.846 28.864,1.457Zm-35.778,9.839c5.853,-0.574 10.17,-1.24 12.95,-1.999c2.781,-0.758 4.171,-1.605 4.171,-2.539c-0,-0.685 -1.171,-1.383 -3.512,-2.095c-2.341,-0.713 -6,-1.333 -10.975,-1.86c-4.975,-0.537 -11.487,-0.971 -19.535,-1.304c-8.048,-0.333 -17.706,-0.5 -28.974,-0.5c-10.828,0 -20.047,0.15 -27.656,0.451c-7.609,0.301 -14.194,0.659 -19.755,1.075l0,8.091c1.317,0.25 3.476,0.509 6.475,0.777c3,0.268 6.329,0.499 9.987,0.694c4.537,0.231 9.439,0.418 14.707,0.562c5.268,0.143 11.706,0.215 19.315,0.215c8.195,-0 16.097,-0.137 23.706,-0.41c7.609,-0.272 13.975,-0.659 19.096,-1.158Zm385.216,2.22l-106.016,0l-0,-0.916c3.365,-0.018 6.841,-0.037 10.426,-0.055c3.585,-0.019 6.694,-0.056 9.328,-0.111c4.244,-0.084 7.5,-0.234 9.768,-0.451c2.268,-0.218 3.402,-0.484 3.402,-0.798l0,-9.908l-5.268,-0l-73.312,12.017l-13.608,-0l-68.922,-12.253l-4.829,-0l-0,9.589c-0,0.471 1.061,0.841 3.183,1.11c2.121,0.268 5.158,0.453 9.109,0.555c3.073,0.092 6.402,0.162 9.987,0.208c3.585,0.046 7.28,0.079 11.084,0.097l0,0.916l-84.286,0l-0,-0.916c3.365,-0.018 6.841,-0.037 10.426,-0.055c3.585,-0.019 6.694,-0.056 9.328,-0.111c4.39,-0.093 7.5,-0.276 9.329,-0.549c1.829,-0.272 2.744,-0.645 2.744,-1.117l-0,-8.326c-0,-0.361 -1.025,-0.654 -3.073,-0.881c-2.049,-0.227 -5.122,-0.395 -9.219,-0.506c-3.805,-0.111 -7.5,-0.185 -11.085,-0.222c-3.585,-0.037 -6.914,-0.065 -9.987,-0.084l0,-0.916l89.994,0l54.215,9.797l47.851,-8.118c1.463,-0.268 3.072,-0.587 4.828,-0.957c1.756,-0.37 2.708,-0.611 2.854,-0.722l90.871,0l0,0.916c-4.243,0.019 -7.938,0.042 -11.084,0.07c-3.146,0.027 -6.036,0.06 -8.67,0.097c-4.098,0.074 -7.134,0.219 -9.109,0.437c-1.976,0.217 -2.964,0.488 -2.964,0.812l0,8.881c0,0.324 0.878,0.585 2.634,0.784c1.756,0.199 4.756,0.354 9,0.465c3.073,0.092 6.402,0.162 9.987,0.208c3.585,0.046 7.28,0.079 11.084,0.097l0,0.916Zm223.448,-3.219c-9.073,1.091 -21.218,1.961 -36.437,2.608c-15.218,0.648 -32.705,0.972 -52.459,0.972c-17.414,-0 -32.669,-0.194 -45.765,-0.583c-13.097,-0.389 -23.889,-0.916 -32.376,-1.582c-8.487,-0.666 -14.816,-1.443 -18.986,-2.331c-4.171,-0.888 -6.256,-1.827 -6.256,-2.817c-0,-0.888 2.231,-1.76 6.695,-2.616c4.463,-0.856 11.011,-1.626 19.644,-2.311c8.341,-0.656 18.694,-1.186 31.059,-1.589c12.365,-0.402 26.23,-0.603 41.595,-0.603c15.804,-0 29.339,0.157 40.607,0.472c11.267,0.314 20.413,0.744 27.437,1.29c6.731,0.518 11.743,1.129 15.035,1.832c3.293,0.703 4.939,1.466 4.939,2.29l-0,0.916l-143.331,-0c-0,0.897 1.353,1.711 4.06,2.442c2.708,0.731 6.988,1.374 12.841,1.929c5.707,0.536 13.17,0.96 22.389,1.269c9.218,0.31 20.193,0.465 32.924,0.465c13.024,0 24.254,-0.192 33.693,-0.576c9.438,-0.383 18.547,-1.075 27.327,-2.074l15.365,0.597Zm-48.509,-5.218c0,-0.518 -0.695,-1.073 -2.085,-1.665c-1.39,-0.592 -3.622,-1.087 -6.695,-1.485c-3.365,-0.426 -7.975,-0.773 -13.828,-1.041c-5.853,-0.268 -13.389,-0.402 -22.608,-0.402c-15.365,-0 -28.132,0.404 -38.302,1.214c-10.17,0.809 -15.694,1.936 -16.572,3.379l100.09,-0Zm316.075,8.437l-105.797,0l-0,-0.916c3.365,-0.018 6.841,-0.037 10.426,-0.055c3.585,-0.019 6.694,-0.056 9.328,-0.111c4.098,-0.084 7.244,-0.229 9.439,-0.438c2.195,-0.208 3.292,-0.478 3.292,-0.811l0,-4.358l-96.359,0l0,4.219c0,0.314 1.025,0.574 3.073,0.777c2.049,0.204 5.122,0.361 9.219,0.472c3.073,0.092 6.402,0.162 9.987,0.208c3.585,0.046 7.28,0.079 11.085,0.097l-0,0.916l-105.798,0l0,-0.916c3.366,-0.018 6.841,-0.037 10.426,-0.055c3.586,-0.019 6.695,-0.056 9.329,-0.111c4.097,-0.084 7.134,-0.229 9.109,-0.438c1.976,-0.208 2.963,-0.478 2.963,-0.811l0,-8.882c0,-0.305 -1.024,-0.562 -3.073,-0.77c-2.048,-0.208 -5.121,-0.367 -9.218,-0.478c-3.805,-0.111 -7.5,-0.185 -11.085,-0.222c-3.585,-0.037 -6.914,-0.065 -9.987,-0.084l-0,-0.916l105.797,0l0,0.916c-4.243,0.019 -7.938,0.042 -11.084,0.07c-3.146,0.027 -6.037,0.06 -8.67,0.097c-4.098,0.074 -7.134,0.219 -9.11,0.437c-1.975,0.217 -2.963,0.488 -2.963,0.812l0,3.524l96.359,0l0,-3.386c0,-0.305 -1.024,-0.562 -3.073,-0.77c-2.048,-0.208 -5.121,-0.367 -9.219,-0.478c-3.804,-0.111 -7.499,-0.185 -11.084,-0.222c-3.585,-0.037 -6.914,-0.065 -9.987,-0.084l-0,-0.916l105.797,0l-0,0.916c-4.244,0.019 -7.938,0.042 -11.085,0.07c-3.146,0.027 -6.036,0.06 -8.67,0.097c-4.097,0.074 -7.133,0.219 -9.109,0.437c-1.975,0.217 -2.963,0.488 -2.963,0.812l0,8.881c0,0.324 0.878,0.585 2.634,0.784c1.756,0.199 4.756,0.354 8.999,0.465c3.073,0.092 6.402,0.162 9.987,0.208c3.586,0.046 7.28,0.079 11.085,0.097l-0,0.916Zm275.249,0l-105.139,0l-0,-0.916c3.365,-0.018 6.841,-0.037 10.426,-0.055c3.585,-0.019 6.694,-0.056 9.328,-0.111c4.098,-0.084 7.244,-0.229 9.439,-0.438c2.195,-0.208 3.292,-0.478 3.292,-0.811l0,-7.189l-99.651,6.814l-0,0.236c-0,0.314 1.024,0.574 3.073,0.777c2.048,0.204 5.121,0.361 9.219,0.472c3.219,0.092 6.621,0.162 10.206,0.208c3.585,0.046 7.353,0.079 11.304,0.097l0,0.916l-105.139,0l0,-0.916c3.366,-0.018 6.841,-0.037 10.427,-0.055c3.585,-0.019 6.694,-0.056 9.328,-0.111c4.097,-0.084 7.134,-0.229 9.109,-0.438c1.976,-0.208 2.963,-0.478 2.963,-0.811l0,-8.882c0,-0.305 -1.024,-0.562 -3.073,-0.77c-2.048,-0.208 -5.121,-0.367 -9.218,-0.478c-3.805,-0.111 -7.5,-0.185 -11.085,-0.222c-3.585,-0.037 -6.914,-0.065 -9.987,-0.084l-0,-0.916l105.139,0l-0,0.916c-4.244,0.019 -7.939,0.042 -11.085,0.07c-3.146,0.027 -6.036,0.06 -8.67,0.097c-4.097,0.074 -7.134,0.219 -9.109,0.437c-1.975,0.217 -2.963,0.488 -2.963,0.812l-0,7.077l99.651,-6.828c0,-0.407 -1.024,-0.707 -3.073,-0.902c-2.048,-0.194 -5.121,-0.346 -9.219,-0.457c-3.804,-0.111 -7.572,-0.185 -11.304,-0.222c-3.731,-0.037 -7.133,-0.065 -10.206,-0.084l-0,-0.916l105.139,0l-0,0.916c-4.244,0.019 -7.939,0.042 -11.085,0.07c-3.146,0.027 -6.036,0.06 -8.67,0.097c-4.097,0.074 -7.134,0.219 -9.109,0.437c-1.976,0.217 -2.963,0.488 -2.963,0.812l-0,8.881c-0,0.324 0.878,0.585 2.634,0.784c1.755,0.199 4.755,0.354 8.999,0.465c3.073,0.092 6.402,0.162 9.987,0.208c3.585,0.046 7.28,0.079 11.085,0.097l-0,0.916Zm172.743,-7.188l0,-5.509l-24.583,-0c-15.365,-0 -28.096,0.226 -38.193,0.68c-10.097,0.453 -15.145,1.124 -15.145,2.012c-0,0.916 5.341,1.614 16.023,2.095c10.682,0.481 25.901,0.722 45.655,0.722l16.243,-0Zm-66.288,0.583l0,-0.084c-19.754,-0.249 -34.131,-0.663 -43.131,-1.242c-8.999,-0.578 -13.499,-1.311 -13.499,-2.199c0,-1.092 7.792,-1.957 23.377,-2.595c15.584,-0.638 35.302,-0.958 59.154,-0.958l113.041,0l-0,0.916c-4.244,0.019 -7.939,0.042 -11.085,0.07c-3.146,0.027 -6.036,0.06 -8.67,0.097c-4.097,0.074 -7.134,0.219 -9.109,0.437c-1.976,0.217 -2.963,0.488 -2.963,0.812l-0,8.881c-0,0.324 0.878,0.585 2.634,0.784c1.755,0.199 4.755,0.354 8.999,0.465c3.073,0.092 6.402,0.162 9.987,0.208c3.585,0.046 7.28,0.079 11.085,0.097l-0,0.916l-106.017,0l-0,-0.916c3.365,-0.018 6.841,-0.037 10.426,-0.055c3.585,-0.019 6.694,-0.056 9.328,-0.111c4.098,-0.084 7.244,-0.229 9.439,-0.438c2.195,-0.208 3.292,-0.478 3.292,-0.811l0,-3.844l-9.219,-0c-13.608,-0 -24.254,0.164 -31.936,0.492c-7.683,0.329 -15.036,0.946 -22.06,1.853c-5.121,0.675 -9.328,1.3 -12.621,1.873c-3.292,0.574 -6.694,1.226 -10.206,1.957l-73.971,0l0,-0.916c3.366,-0.028 6.549,-0.055 9.548,-0.083c3,-0.028 6.256,-0.06 9.768,-0.097c4.536,-0.056 8.67,-0.167 12.402,-0.333c3.731,-0.167 6.987,-0.44 9.767,-0.819c1.463,-0.213 3.475,-0.497 6.036,-0.853c2.561,-0.357 5.597,-0.757 9.109,-1.201c4.683,-0.583 9.914,-1.059 15.694,-1.429c5.78,-0.37 12.914,-0.662 21.401,-0.874Z" clip-rule="nonzero"/>
        </clipPath>
        <g clip-path="url(#_clip1)">
            <g transform="matrix(15.8174,0,0,1,-20510.5,0)">
                <g transform="matrix(28.4199,0,0,28.4199,1384.22,160.036)">
                    <path d="M0.694,-0l-0.289,-0l0,-0.035c0.026,-0.001 0.047,-0.005 0.064,-0.009c0.016,-0.005 0.025,-0.011 0.025,-0.018c-0,-0.003 -0.001,-0.007 -0.001,-0.011c-0.001,-0.004 -0.002,-0.008 -0.003,-0.011l-0.058,-0.156l-0.243,0c-0.009,0.023 -0.016,0.043 -0.022,0.06c-0.005,0.017 -0.011,0.032 -0.015,0.047c-0.004,0.014 -0.007,0.025 -0.009,0.034c-0.002,0.009 -0.002,0.016 -0.002,0.021c-0,0.013 0.01,0.023 0.03,0.031c0.021,0.007 0.044,0.011 0.07,0.012l-0,0.035l-0.261,-0l-0,-0.035c0.008,-0 0.019,-0.002 0.032,-0.005c0.012,-0.003 0.023,-0.008 0.031,-0.013c0.013,-0.009 0.023,-0.018 0.03,-0.027c0.007,-0.01 0.014,-0.023 0.021,-0.04c0.035,-0.087 0.073,-0.185 0.115,-0.293c0.042,-0.108 0.08,-0.205 0.113,-0.29l0.039,0l0.231,0.598c0.005,0.013 0.01,0.023 0.016,0.031c0.007,0.008 0.015,0.015 0.026,0.023c0.008,0.004 0.018,0.008 0.03,0.011c0.012,0.003 0.022,0.005 0.03,0.005l-0,0.035Zm-0.279,-0.283l-0.105,-0.269l-0.103,0.269l0.208,-0Z" style="fill-rule:nonzero;"/>
                </g>
                <g transform="matrix(28.4199,0,0,28.4199,1403.28,160.036)">
                    <path d="M0.475,-0.424c0.019,0.022 0.034,0.049 0.045,0.079c0.01,0.03 0.016,0.065 0.016,0.103c-0,0.038 -0.007,0.073 -0.019,0.105c-0.013,0.031 -0.03,0.058 -0.051,0.08c-0.022,0.022 -0.046,0.04 -0.072,0.052c-0.027,0.012 -0.055,0.018 -0.085,0.018c-0.029,-0 -0.053,-0.004 -0.072,-0.01c-0.018,-0.007 -0.033,-0.014 -0.045,-0.023l-0.004,-0l-0,0.145c-0,0.011 0.002,0.021 0.007,0.029c0.004,0.008 0.011,0.013 0.021,0.017c0.008,0.003 0.019,0.006 0.033,0.008c0.015,0.003 0.027,0.005 0.036,0.005l0,0.033l-0.269,-0l0,-0.033c0.01,-0.001 0.02,-0.001 0.029,-0.002c0.01,-0.001 0.018,-0.003 0.026,-0.005c0.01,-0.003 0.016,-0.009 0.02,-0.017c0.004,-0.008 0.006,-0.018 0.006,-0.029l0,-0.512c0,-0.01 -0.002,-0.02 -0.007,-0.029c-0.005,-0.009 -0.011,-0.016 -0.019,-0.022c-0.006,-0.004 -0.014,-0.007 -0.025,-0.009c-0.01,-0.002 -0.02,-0.003 -0.03,-0.004l0,-0.032l0.164,-0.01l0.007,0.006l0,0.054l0.004,0.001c0.017,-0.02 0.038,-0.036 0.063,-0.049c0.025,-0.013 0.05,-0.02 0.075,-0.02c0.03,0 0.057,0.007 0.082,0.019c0.025,0.013 0.046,0.03 0.064,0.052Zm-0.079,0.346c0.013,-0.02 0.022,-0.044 0.028,-0.07c0.007,-0.027 0.01,-0.057 0.01,-0.09c-0,-0.024 -0.003,-0.048 -0.008,-0.074c-0.005,-0.025 -0.014,-0.046 -0.025,-0.065c-0.011,-0.019 -0.025,-0.034 -0.043,-0.046c-0.018,-0.012 -0.039,-0.017 -0.065,-0.017c-0.024,-0 -0.044,0.005 -0.061,0.015c-0.017,0.011 -0.032,0.024 -0.044,0.038l-0,0.285c0.003,0.009 0.008,0.018 0.014,0.027c0.007,0.01 0.014,0.018 0.023,0.025c0.01,0.008 0.021,0.014 0.032,0.019c0.012,0.006 0.026,0.008 0.043,0.008c0.019,0 0.036,-0.005 0.053,-0.014c0.017,-0.01 0.031,-0.024 0.043,-0.041Z" style="fill-rule:nonzero;"/>
                </g>
                <g transform="matrix(28.4199,0,0,28.4199,1419.52,160.036)">
                    <path d="M0.681,-0l-0.236,-0l0,-0.032c0.008,-0.001 0.016,-0.002 0.024,-0.002c0.007,-0.001 0.014,-0.002 0.02,-0.004c0.01,-0.003 0.017,-0.008 0.022,-0.016c0.005,-0.008 0.008,-0.017 0.008,-0.028l-0,-0.349l-0.012,0l-0.163,0.423l-0.031,0l-0.153,-0.431l-0.011,0l0,0.337c0,0.017 0.003,0.03 0.007,0.04c0.005,0.009 0.012,0.015 0.021,0.019c0.007,0.003 0.014,0.006 0.022,0.007c0.008,0.002 0.016,0.003 0.025,0.004l-0,0.032l-0.188,0l0,-0.032c0.008,-0.001 0.015,-0.002 0.023,-0.002c0.008,-0.001 0.015,-0.002 0.021,-0.004c0.01,-0.003 0.017,-0.01 0.021,-0.019c0.004,-0.01 0.006,-0.023 0.006,-0.04l-0,-0.293c-0,-0.012 -0.002,-0.023 -0.007,-0.031c-0.004,-0.008 -0.011,-0.014 -0.02,-0.017c-0.009,-0.004 -0.017,-0.007 -0.025,-0.008c-0.008,-0.002 -0.015,-0.003 -0.022,-0.003l-0,-0.032l0.2,-0l0.121,0.344l0.106,-0.285c0.003,-0.01 0.007,-0.021 0.011,-0.034c0.004,-0.013 0.006,-0.022 0.006,-0.025l0.202,-0l0,0.032c-0.009,0 -0.017,0.001 -0.024,0.002c-0.007,0.001 -0.014,0.002 -0.02,0.004c-0.009,0.002 -0.016,0.007 -0.02,0.015c-0.004,0.008 -0.007,0.017 -0.007,0.029l0,0.312c0,0.011 0.002,0.021 0.006,0.028c0.004,0.007 0.011,0.012 0.02,0.016c0.007,0.003 0.015,0.006 0.022,0.007c0.008,0.002 0.017,0.003 0.025,0.004l0,0.032Z" style="fill-rule:nonzero;"/>
                </g>
                <g transform="matrix(28.4199,0,0,28.4199,1439.85,160.036)">
                    <path d="M0.463,-0.113c-0.02,0.038 -0.047,0.069 -0.081,0.092c-0.034,0.022 -0.073,0.034 -0.117,0.034c-0.039,-0 -0.073,-0.007 -0.102,-0.021c-0.029,-0.013 -0.053,-0.032 -0.072,-0.055c-0.019,-0.024 -0.033,-0.051 -0.042,-0.083c-0.009,-0.031 -0.014,-0.064 -0.014,-0.099c0,-0.031 0.005,-0.062 0.015,-0.092c0.01,-0.03 0.025,-0.057 0.044,-0.081c0.018,-0.023 0.041,-0.042 0.069,-0.056c0.027,-0.014 0.058,-0.021 0.092,-0.021c0.036,-0 0.066,0.005 0.091,0.016c0.025,0.012 0.045,0.027 0.061,0.046c0.015,0.018 0.026,0.04 0.033,0.064c0.008,0.025 0.011,0.052 0.011,0.081l0,0.032l-0.319,0c0,0.032 0.003,0.06 0.009,0.086c0.006,0.026 0.016,0.048 0.029,0.068c0.013,0.019 0.029,0.034 0.05,0.045c0.02,0.011 0.045,0.016 0.073,0.016c0.029,-0 0.054,-0.007 0.075,-0.02c0.021,-0.014 0.041,-0.038 0.061,-0.073l0.034,0.021Zm-0.108,-0.184c-0,-0.018 -0.002,-0.038 -0.005,-0.058c-0.003,-0.021 -0.008,-0.039 -0.015,-0.053c-0.007,-0.015 -0.017,-0.027 -0.03,-0.036c-0.013,-0.01 -0.03,-0.014 -0.051,-0.014c-0.034,-0 -0.062,0.014 -0.085,0.042c-0.022,0.029 -0.035,0.068 -0.037,0.119l0.223,0Z" style="fill-rule:nonzero;"/>
                </g>
                <g transform="matrix(28.4199,0,0,28.4199,1453.59,160.036)">
                    <path d="M0.575,-0l-0.236,-0l0,-0.032c0.008,-0.001 0.016,-0.002 0.024,-0.002c0.008,-0.001 0.014,-0.002 0.02,-0.004c0.009,-0.003 0.016,-0.008 0.021,-0.015c0.005,-0.008 0.008,-0.017 0.008,-0.029l-0,-0.153l-0.215,-0l0,0.148c0,0.011 0.003,0.02 0.007,0.027c0.005,0.008 0.011,0.013 0.021,0.017c0.006,0.003 0.014,0.006 0.022,0.007c0.008,0.002 0.016,0.003 0.024,0.004l0,0.032l-0.235,-0l0,-0.032c0.008,-0.001 0.015,-0.002 0.023,-0.002c0.008,-0.001 0.015,-0.002 0.021,-0.004c0.009,-0.003 0.016,-0.008 0.02,-0.015c0.005,-0.008 0.007,-0.017 0.007,-0.029l-0,-0.313c-0,-0.01 -0.002,-0.019 -0.007,-0.027c-0.004,-0.007 -0.011,-0.013 -0.02,-0.016c-0.009,-0.004 -0.017,-0.007 -0.025,-0.008c-0.008,-0.002 -0.015,-0.003 -0.022,-0.003l-0,-0.032l0.235,-0l0,0.032c-0.009,0 -0.018,0.001 -0.025,0.002c-0.007,0.001 -0.013,0.002 -0.019,0.004c-0.009,0.002 -0.016,0.007 -0.02,0.015c-0.005,0.008 -0.007,0.017 -0.007,0.029l0,0.124l0.215,-0l-0,-0.12c-0,-0.01 -0.003,-0.019 -0.007,-0.027c-0.005,-0.007 -0.012,-0.013 -0.021,-0.016c-0.008,-0.004 -0.016,-0.007 -0.024,-0.008c-0.008,-0.002 -0.016,-0.003 -0.023,-0.003l0,-0.032l0.236,-0l-0,0.032c-0.01,0 -0.018,0.001 -0.025,0.002c-0.007,0.001 -0.013,0.002 -0.019,0.004c-0.009,0.002 -0.016,0.007 -0.02,0.015c-0.005,0.008 -0.007,0.017 -0.007,0.029l-0,0.312c-0,0.011 0.002,0.021 0.006,0.028c0.004,0.007 0.01,0.012 0.02,0.016c0.007,0.003 0.014,0.006 0.022,0.007c0.008,0.002 0.016,0.003 0.025,0.004l-0,0.032Z" style="fill-rule:nonzero;"/>
                </g>
                <g transform="matrix(28.4199,0,0,28.4199,1470.89,160.036)">
                    <path d="M0.578,-0l-0.234,-0l0,-0.032c0.008,-0.001 0.015,-0.002 0.023,-0.002c0.008,-0.001 0.015,-0.002 0.021,-0.004c0.009,-0.003 0.016,-0.008 0.021,-0.015c0.005,-0.008 0.008,-0.017 0.008,-0.029l-0,-0.253l-0.222,0.24l-0,0.008c-0,0.011 0.002,0.02 0.007,0.027c0.004,0.008 0.011,0.013 0.02,0.017c0.007,0.003 0.015,0.006 0.023,0.007c0.008,0.002 0.016,0.003 0.025,0.004l0,0.032l-0.234,0l0,-0.032c0.008,-0.001 0.015,-0.002 0.023,-0.002c0.008,-0.001 0.015,-0.002 0.021,-0.004c0.009,-0.003 0.016,-0.008 0.02,-0.015c0.005,-0.008 0.007,-0.017 0.007,-0.029l-0,-0.313c-0,-0.01 -0.002,-0.019 -0.007,-0.027c-0.004,-0.007 -0.011,-0.013 -0.02,-0.016c-0.009,-0.004 -0.017,-0.007 -0.025,-0.008c-0.008,-0.002 -0.015,-0.003 -0.022,-0.003l-0,-0.032l0.234,-0l-0,0.032c-0.01,0 -0.018,0.001 -0.025,0.002c-0.007,0.001 -0.013,0.002 -0.019,0.004c-0.009,0.002 -0.016,0.007 -0.021,0.015c-0.004,0.008 -0.006,0.017 -0.006,0.029l-0,0.249l0.221,-0.241c0,-0.014 -0.002,-0.025 -0.006,-0.031c-0.005,-0.007 -0.012,-0.013 -0.021,-0.016c-0.008,-0.004 -0.017,-0.007 -0.025,-0.008c-0.008,-0.002 -0.016,-0.003 -0.023,-0.003l0,-0.032l0.234,-0l0,0.032c-0.009,0 -0.017,0.001 -0.024,0.002c-0.007,0.001 -0.014,0.002 -0.02,0.004c-0.009,0.002 -0.016,0.007 -0.02,0.015c-0.004,0.008 -0.007,0.017 -0.007,0.029l0,0.312c0,0.011 0.002,0.021 0.006,0.028c0.004,0.007 0.011,0.012 0.02,0.016c0.007,0.003 0.014,0.006 0.022,0.007c0.008,0.002 0.017,0.003 0.025,0.004l0,0.032Z" style="fill-rule:nonzero;"/>
                </g>
                <g transform="matrix(28.4199,0,0,28.4199,1488.29,160.036)">
                    <path d="M0.35,-0.253l0,-0.194l-0.055,0c-0.034,0 -0.062,0.008 -0.085,0.024c-0.022,0.016 -0.033,0.04 -0.033,0.071c-0,0.032 0.012,0.057 0.035,0.074c0.024,0.017 0.058,0.025 0.102,0.025l0.036,0Zm-0.147,0.021l-0,-0.003c-0.044,-0.009 -0.076,-0.024 -0.096,-0.044c-0.02,-0.02 -0.03,-0.046 -0.03,-0.077c-0,-0.039 0.017,-0.069 0.052,-0.092c0.034,-0.022 0.078,-0.033 0.131,-0.033l0.252,-0l-0,0.032c-0.01,0 -0.018,0.001 -0.025,0.002c-0.007,0.001 -0.013,0.002 -0.019,0.004c-0.009,0.002 -0.016,0.007 -0.02,0.015c-0.005,0.008 -0.007,0.017 -0.007,0.029l-0,0.312c-0,0.011 0.002,0.021 0.006,0.028c0.004,0.007 0.01,0.012 0.02,0.016c0.007,0.003 0.014,0.006 0.022,0.007c0.008,0.002 0.016,0.003 0.025,0.004l-0,0.032l-0.236,-0l-0,-0.032c0.007,-0.001 0.015,-0.002 0.023,-0.002c0.008,-0.001 0.015,-0.002 0.021,-0.004c0.009,-0.003 0.016,-0.008 0.021,-0.015c0.005,-0.008 0.007,-0.017 0.007,-0.029l0,-0.135l-0.02,-0c-0.031,-0 -0.054,0.005 -0.071,0.017c-0.018,0.012 -0.034,0.033 -0.05,0.065c-0.011,0.024 -0.02,0.046 -0.028,0.066c-0.007,0.02 -0.014,0.043 -0.022,0.069l-0.165,-0l0,-0.032c0.008,-0.001 0.015,-0.002 0.021,-0.003c0.007,-0.001 0.014,-0.002 0.022,-0.004c0.01,-0.002 0.019,-0.005 0.028,-0.011c0.008,-0.006 0.015,-0.016 0.021,-0.029c0.004,-0.008 0.008,-0.018 0.014,-0.03c0.006,-0.013 0.012,-0.027 0.02,-0.042c0.011,-0.021 0.022,-0.038 0.035,-0.051c0.013,-0.013 0.029,-0.023 0.048,-0.03Z" style="fill-rule:nonzero;"/>
                </g>
            </g>
        </g>
    </g>
</svg>
