<svg viewBox="0 0 4697 800" xmlns="http://www.w3.org/2000/svg" xml:space="preserve" style="fill-rule:evenodd;clip-rule:evenodd;stroke-linejoin:round;stroke-miterlimit:2"><path style="fill:#f2a800;fill-rule:nonzero" d="M-407.535-2.8h1612.14v806.068h-1612.14z"/><path style="fill:#0033a0;fill-rule:nonzero" d="M-407.535-2.8h1612.14v537.379h-1612.14z"/><path style="fill:#d90012;fill-rule:nonzero" d="M-407.535-2.8h1612.14v268.689h-1612.14z"/><path d="M826.065 683.314c-32.306-4.31-54.977-11.379-94.249-29.309-8.294-3.803-16.399-7.448-18.01-8.143l-2.931-1.268-11.595 4.767c-25.572 10.516-48.304 16.956-72.159 20.45-9.674 1.419-29.977 2.738-37.228 2.434h-4.944l64.985-63.728 6.418 4.31c10.48 7.033 28.014 17.179 44.769 25.911l9.714 5.07 2.637-1.014c2.307-.862 21.096-11.611 24.928-14.228 1.369-.913 1.202-1.065-6.044-4.969-19.888-10.704-60.234-34.278-61.709-36.052-.507-.609-.101-1.877 1.511-4.868 10.363-19.218 16.202-34.141 19.655-50.235 4.741-22.098 5.845-56.228 2.368-73.347-8.24-40.565-25.766-73.063-51.728-95.926-16.567-14.588-29.743-21.85-54.389-29.983-7.184-2.383-13.97-4.766-15.081-5.339-5.429-2.738-10.458-7.256-20.129-18.001-23.974-26.646-54.571-52.643-72.598-61.684-11.129-5.583-26.014-6.734-40.778-3.144-9.205 2.231-26.008 11.678-34.484 19.38-8.019 7.286-10.812 14.37-7.188 18.229 3.124 3.346 7.314 4.259 21.416 4.817 28.479 1.115 34.539 3.904 57.397 26.301 10.206 10.005 16.502 17.19 18.476 21.084.7 1.369 2.744 6.896 4.539 12.251 4.142 12.362 10.347 25.15 17.071 35.205 2.895 4.31 10.66 14.928 17.253 23.558 6.594 8.636 13.324 17.651 14.957 20.034 12.692 18.574 13.391 33.046 2.373 49.191-2.962 4.36-11.966 14.644-12.795 14.644-.974 0-32.468-27.341-52.042-45.175-34.374-31.316-67.889-65.178-93.665-94.628-15.57-17.793-26.69-31.656-42.287-52.729-5.553-7.5-8.934-11.556-9.317-11.171-1.192 1.217-8.084 18.569-9.996 25.206L329.229 318l9.928 12.499c51.265 64.539 101.857 117.071 165.322 171.656 4.903 4.209 9.068 7.91 9.252 8.209.771 1.268-101.368 94.958-103.498 94.958-2.1 0-25.271-24.106-35.933-37.386-11.506-14.329-18.7-25.85-28.888-46.259-20.482-41.021-29.331-78.164-29.273-122.846.036-26.89 2.754-48.156 9.245-72.389l2.246-8.382-1.343-1.825c-4.016-5.436-19.988-29.709-24.357-37.021-17.043-28.527-26.94-50.975-31.064-70.446-1.82-8.595-2.003-22.164-.405-28.203 3.671-13.655 12.894-22.138 27.78-25.551 6.885-1.572 24.882-1.572 34.244-.01 23.388 3.955 48.734 12.438 84.278 28.299l3.539 1.572 4.726-3.6c12.913-9.898 33.101-21.88 49.526-29.384 28.969-13.24 56.581-20.648 90.099-24.167 11.223-1.166 41.249-1.014 52.389.507 57.044 6.688 102.743 26.038 147.733 62.556 8.486 6.886 28.343 26.743 35.247 35.241 33.622 41.402 54.001 89.675 60.608 143.575 1.389 11.344 1.901 38.005.948 49.698-2.997 36.853-11.611 68.646-27.519 101.539l-5.379 11.125 5.04 7.728c12.791 19.613 18.51 29.481 26.518 45.742 17.406 35.348 21.837 60.934 13.551 78.245-5.2 10.867-14.983 17.174-29.577 19.076-6.116.811-15.633 1.318-18.175.963l.028-.405zm10.449-28.807c8.494-1.774 14.75-6.759 17.525-13.893 2.145-5.512 2.033-15.815-.254-24.375-2.951-10.998-7.794-22.27-15.417-35.89-7.233-12.92-18.767-30.5-20.009-30.494-.253 0-1.298 1.318-2.332 2.991-3.114 4.969-12.758 17.656-18.463 24.344-11.845 13.884-30.254 31.144-47.713 44.734-4.787 3.701-7.513 6.247-7.15 6.607.918.912 19.964 9.264 33.107 14.502 25.524 10.176 47.378 14.309 60.716 11.48l-.01-.006zm-59.365-179.079c1.779-.558 4.888-2.079 6.911-3.448 6-4.006 20.654-16.657 29.869-25.779 8.479-8.392 8.619-8.575 9.968-13.103 1.962-6.587 1.577-15.283-.898-20.272-3.787-7.627-18.237-22.955-24.545-26.043-6.668-3.245-16.753-3.499-22.538-.507-4.929 2.535-25.058 19.182-34.494 28.527-7.693 7.616-10.114 11.744-10.833 18.447-.877 8.174 2.15 15.805 10.147 25.576 8.284 10.121 14.804 15.451 21.067 17.215 3.925 1.116 10.598.862 15.347-.608l-.001-.005zM733.7 406.482c1.385-.507 3.413-1.115 4.508-1.774 6.083-3.55 52.746-42.822 66.363-55.884 6.761-6.48 8.796-9.401 9.886-14.172.999-4.361.842-13.321-.304-16.526-1.815-5.141-9.954-15.379-19.627-24.689-6.506-6.257-9.006-7.413-17.175-7.93-8.405-.507-11.613.507-18.088 5.329-7.194 5.461-38.838 31.803-53.541 44.566-11.976 10.4-14.545 13.265-17.463 19.497-1.511 3.245-1.699 4.36-1.699 10.232 0 6.166.152 6.881 2.008 10.684 2.338 4.716 10.493 15.151 17.364 22.164 8.327 8.508 16.951 11.15 27.75 8.498l.018.005zm-45.392-67.602c3.737-1.673 7.174-4.31 25.6-19.648 31.305-26.063 48.515-41.874 50.856-46.706 2.997-6.196 2.977-17.255-.042-23.497-3.139-6.48-19.847-24.786-25.113-27.508-5.495-2.84-13.963-3.601-20.089-1.775-4.538 1.318-7.771 3.701-28.86 21.312-24.473 20.409-34.95 29.551-42.786 37.345-8.386 8.341-9.609 10.937-9.625 20.445-.011 5.841.152 6.571 2.038 10.405 2.824 5.684 9.142 13.919 15.727 20.505 9.802 9.797 12.307 10.994 22.396 10.684 5.357 0 7.584-.507 9.901-1.572l-.003.01zm-341.554-65.177c13.43-24.776 25.336-41.341 45.733-63.642 7.417-8.108 9.397-10.623 8.691-11.034-2.393-1.42-24.716-9.989-32.536-12.524-12.775-4.158-18.972-5.091-33.616-5.132-12.154-.035-12.282-.02-16.095 1.724-4.625 2.13-8.473 5.902-10.392 10.162-1.754 3.904-2.343 14.629-1.166 21.352 1.764 10.076 7.054 23.655 14.894 38.233 7.078 13.158 18.62 31.448 19.222 30.454.253-.507 2.641-4.766 5.263-9.614l.002.021z" style="fill:#fff;fill-rule:nonzero"/><path d="M1647.69 669.668h-72.436v-9.013c1.968-.169 4.817-.423 8.548-.762 3.73-.338 6.292-.846 7.686-1.523 2.459-1.015 4.263-2.56 5.411-4.633 1.148-2.074 1.722-4.761 1.722-8.061V500.962h-80.307V644.28c0 2.962.472 5.458 1.415 7.489.942 2.031 2.808 3.808 5.595 5.332 1.394.761 3.874 1.523 7.44 2.285 3.567.761 6.375 1.184 8.425 1.269v9.013h-72.436v-9.013c1.968-.169 4.817-.423 8.547-.762 3.731-.338 6.293-.846 7.686-1.523 2.46-1.015 4.264-2.56 5.412-4.633 1.147-2.074 1.721-4.761 1.721-8.061V515.687c0-2.708-.533-5.184-1.598-7.426-1.066-2.243-2.911-3.999-5.535-5.268-2.213-1.101-4.898-2.074-8.055-2.92-3.156-.846-5.882-1.354-8.178-1.523v-9.013h178.937v9.013c-2.296.084-5.104.465-8.424 1.142-3.321.677-5.801 1.312-7.44 1.904-2.788 1.016-4.653 2.708-5.596 5.078-.943 2.37-1.414 4.951-1.414 7.743V644.28c0 2.962.471 5.458 1.414 7.489.943 2.031 2.808 3.808 5.596 5.332 1.393.761 3.873 1.523 7.44 2.285 3.566.761 6.374 1.184 8.424 1.269v9.013zM1659.87 710.543c0-4.231 1.128-7.68 3.382-10.345 2.255-2.666 5.063-3.999 8.424-3.999 2.624 0 4.879.508 6.764 1.523a19.125 19.125 0 0 1 5.043 3.935c1.229 1.27 2.541 3.005 3.935 5.205 1.394 2.2 2.501 4.02 3.32 5.459 4.1-2.285 8.999-8.252 14.697-17.899 5.698-9.648 9.818-18.111 12.359-25.389-7.789-20.057-14.839-37.998-21.152-53.823a7714.409 7714.409 0 0 0-19.8-49.127c-1.558-3.893-4.182-6.918-7.871-9.076-3.69-2.158-7.379-3.534-11.068-4.126v-8.378h55.341v8.886c-2.46.084-5.411.613-8.855 1.587-3.443.973-5.165 2.094-5.165 3.364 0 .507.185 1.354.554 2.538a57.073 57.073 0 0 0 1.291 3.682c3.115 8.378 7.871 20.459 14.266 36.242 6.395 15.783 11.355 28.414 14.88 37.892 3.69-9.055 7.523-18.428 11.499-28.118 3.976-9.69 8.424-21.136 13.343-34.338a450.147 450.147 0 0 1 2.46-6.664c1.066-2.835 1.599-5.268 1.599-7.299 0-2.201-1.865-4.253-5.596-6.157-3.73-1.904-7.276-3.068-10.638-3.491v-8.124h45.011v7.87c-2.459.423-5.698 1.883-9.715 4.38-4.018 2.496-7.01 6.029-8.978 10.599-9.756 23.358-18.426 44.642-26.01 63.852-7.584 19.211-13.344 33.344-17.279 42.399-5.165 11.848-9.777 21.094-13.835 27.737-4.059 6.643-8.015 11.869-11.868 15.678-3.771 3.554-7.194 5.945-10.269 7.172a25.485 25.485 0 0 1-9.531 1.84c-6.395 0-11.417-1.565-15.065-4.696-3.649-3.132-5.473-6.728-5.473-10.791z" style="fill-rule:nonzero"/><path d="M1900.05 584.617h-7.502c-.738-2.37-1.824-5.163-3.259-8.379a86.129 86.129 0 0 0-4.735-9.139c-1.803-3.132-3.833-5.903-6.087-8.315-2.255-2.412-4.612-3.787-7.072-4.126a145.55 145.55 0 0 0-8.485-.571c-3.116-.127-5.78-.19-7.994-.19v93.175c0 2.878.574 5.247 1.722 7.109 1.147 1.862 2.869 3.301 5.165 4.316 1.804.846 3.853 1.481 6.149 1.904 2.296.423 4.55.72 6.764.889v8.378h-61.737v-8.378c1.886-.169 4.038-.339 6.457-.508 2.419-.169 4.366-.508 5.842-1.016 2.295-.761 3.996-2.094 5.103-3.998 1.107-1.904 1.66-4.38 1.66-7.426v-94.445c-2.623.084-5.575.19-8.854.317-3.28.127-5.862.275-7.748.444-2.132.169-4.407 1.566-6.825 4.189a56.254 56.254 0 0 0-6.334 8.252c-1.722 2.877-3.32 6.072-4.796 9.584-1.476 3.512-2.501 6.156-3.075 7.934h-7.502v-40.114h113.143v40.114zM2019.34 640.217c-5.083 9.986-11.888 17.942-20.414 23.866-8.527 5.924-18.325 8.886-29.393 8.886-9.756 0-18.304-1.778-25.641-5.332-7.338-3.554-13.385-8.378-18.14-14.472-4.755-6.093-8.301-13.202-10.638-21.326-2.337-8.124-3.505-16.714-3.505-25.769 0-8.124 1.25-16.101 3.751-23.929 2.501-7.828 6.17-14.873 11.007-21.136 4.673-6.008 10.474-10.853 17.402-14.535 6.928-3.681 14.696-5.522 23.305-5.522 8.854 0 16.438 1.439 22.751 4.316 6.313 2.878 11.437 6.813 15.373 11.806 3.771 4.739 6.579 10.325 8.424 16.756 1.844 6.432 2.767 13.414 2.767 20.946v8.378h-80.307c0 8.209.759 15.656 2.275 22.342 1.517 6.686 3.915 12.567 7.195 17.645 3.197 4.908 7.379 8.78 12.544 11.615 5.165 2.835 11.314 4.253 18.447 4.253 7.297 0 13.589-1.756 18.878-5.268 5.288-3.512 10.391-9.838 15.311-18.978l8.608 5.458zm-27.178-47.73c0-4.739-.39-9.817-1.169-15.233s-2.029-9.944-3.751-13.583c-1.885-3.893-4.468-7.066-7.747-9.521-3.28-2.454-7.502-3.681-12.667-3.681-8.609 0-15.763 3.703-21.461 11.108-5.698 7.405-8.793 17.708-9.285 30.91h56.08zM2121.05 632.855c0-7.448-2.665-13.329-7.994-17.645-5.329-4.316-12.954-6.474-22.875-6.474-4.345 0-7.768.084-10.269.254-2.5.169-4.447.253-5.841.253v41.384c0 3.3 1.353 5.86 4.058 7.68 2.706 1.819 6.846 2.729 12.421 2.729 5.903 0 10.905-.804 15.004-2.412 4.099-1.608 7.297-3.808 9.593-6.601 2.213-2.708 3.75-5.67 4.611-8.886.861-3.216 1.292-6.643 1.292-10.282zm24.596 1.904c0 6.178-1.353 11.509-4.059 15.995-2.705 4.485-6.436 8.166-11.191 11.044-4.345 2.623-9.305 4.591-14.881 5.902-5.575 1.312-11.519 1.968-17.832 1.968h-64.073v-8.378c1.886-.169 3.833-.339 5.842-.508 2.008-.169 3.751-.508 5.226-1.016 2.296-.761 3.997-2.094 5.104-3.998 1.107-1.904 1.66-4.38 1.66-7.426v-81.243c0-2.793-.574-5.142-1.721-7.046-1.148-1.904-2.87-3.364-5.166-4.379-2.131-1.016-4.201-1.693-6.21-2.031a81.847 81.847 0 0 0-5.596-.762v-8.378c7.297 0 16.336-.043 27.118-.127 10.781-.085 22.034-.127 33.758-.127 6.231 0 12.031.444 17.402 1.333 5.37.888 10.146 2.391 14.327 4.506 4.345 2.201 7.707 5.184 10.084 8.95 2.378 3.766 3.567 8.314 3.567 13.646 0 8.378-2.521 15-7.564 19.866-5.042 4.867-11.662 8.188-19.861 9.965v1.397a69.914 69.914 0 0 1 12.36 2.92c4.058 1.354 7.686 3.215 10.883 5.585a27.973 27.973 0 0 1 7.871 9.076c1.968 3.597 2.952 8.019 2.952 13.266zm-30.991-61.059c0-4.232-.759-7.68-2.276-10.346-1.516-2.666-3.546-4.761-6.087-6.284-2.542-1.523-5.391-2.56-8.547-3.11a56.874 56.874 0 0 0-9.777-.825c-2.132 0-4.489.063-7.072.19-2.582.127-4.857.233-6.825.318v45.699H2086c5.657 0 10.412-.677 14.266-2.031 3.853-1.354 6.764-3.174 8.731-5.459 2.05-2.2 3.505-4.824 4.366-7.87.861-3.047 1.292-6.474 1.292-10.282zM2282.03 605.816c0 8.801-1.353 17.455-4.059 25.96-2.705 8.505-6.559 15.719-11.56 21.643-5.657 6.771-12.216 11.806-19.677 15.107-7.461 3.3-15.823 4.95-25.088 4.95-7.707 0-15.045-1.502-22.014-4.506-6.969-3.004-13.159-7.384-18.57-13.139-5.329-5.67-9.572-12.588-12.728-20.755-3.157-8.166-4.735-17.327-4.735-27.483 0-19.549 5.514-35.544 16.541-47.984 11.027-12.44 25.477-18.661 43.351-18.661 16.971 0 30.97 5.903 41.998 17.709 11.027 11.806 16.541 27.525 16.541 47.159zm-25.457.254c0-6.347-.615-13.054-1.845-20.121-1.23-7.066-3.075-13.053-5.534-17.962-2.624-5.247-6.067-9.457-10.331-12.631-4.263-3.173-9.469-4.76-15.618-4.76-6.313 0-11.704 1.608-16.172 4.824-4.469 3.216-8.097 7.616-10.884 13.202-2.624 5.162-4.468 11.044-5.534 17.645-1.066 6.601-1.599 12.99-1.599 19.168 0 8.124.635 15.635 1.906 22.532 1.271 6.898 3.3 13.054 6.088 18.471 2.787 5.416 6.292 9.668 10.515 12.757 4.222 3.089 9.449 4.634 15.68 4.634 10.248 0 18.365-5.12 24.35-15.36 5.985-10.24 8.978-24.373 8.978-42.399zM2304.53 659.386c8.117-11.087 15.188-25.643 21.214-43.669 6.026-18.025 9.039-32.793 9.039-44.302 0-4.401-.533-7.659-1.598-9.775-1.066-2.116-2.747-3.766-5.043-4.951-1.557-.846-4.099-1.629-7.624-2.348-3.526-.72-6.395-1.206-8.609-1.46v-8.378h110.437v8.378c-2.378.169-4.448.381-6.211.635-1.762.254-3.382.55-4.857.888-2.296.677-3.997 2.01-5.104 3.999-1.107 1.989-1.66 4.464-1.66 7.426v81.116c0 4.486.84 7.68 2.521 9.584 1.68 1.905 5.226 2.857 10.638 2.857h7.87v46.968h-8.854a87.24 87.24 0 0 0-8.732-24.246c-4.099-7.616-8.527-11.932-13.282-12.948h-71.452c-4.427.762-8.916 4.993-13.466 12.694-4.551 7.702-7.646 15.868-9.285 24.5h-8.855v-46.968h12.913zm14.02 0h53.005c3.607 0 6.19-.656 7.747-1.968 1.558-1.312 2.337-3.322 2.337-6.03v-96.476h-33.82c-.492 21.411-3.341 41.024-8.547 58.838s-12.113 33.026-20.722 45.636zM2577.31 669.668h-58.908v-8.378c1.886-.169 3.833-.339 5.841-.508 2.009-.169 3.751-.508 5.227-1.016 2.296-.761 4.059-2.094 5.288-3.998 1.23-1.904 1.845-4.38 1.845-7.426v-65.756l-55.833 62.328v2.158c0 2.878.574 5.247 1.721 7.109 1.148 1.862 2.87 3.301 5.166 4.316a26.06 26.06 0 0 0 5.718 1.904c2.009.423 4.12.72 6.334.889v8.378h-58.908v-8.378c1.886-.169 3.833-.339 5.842-.508 2.008-.169 3.75-.508 5.226-1.016 2.296-.761 3.997-2.094 5.104-3.998 1.107-1.904 1.66-4.38 1.66-7.426v-81.243c0-2.793-.574-5.142-1.722-7.046-1.147-1.904-2.869-3.364-5.165-4.379-2.131-1.016-4.202-1.693-6.21-2.031a81.847 81.847 0 0 0-5.596-.762v-8.378h58.908v8.378c-2.378.169-4.448.381-6.211.635-1.762.254-3.382.55-4.857.888-2.296.677-3.997 2.01-5.104 3.999-1.107 1.989-1.66 4.464-1.66 7.426v64.741l55.833-62.456c0-3.724-.574-6.474-1.722-8.251-1.148-1.777-2.869-3.174-5.165-4.189-2.132-1.016-4.243-1.693-6.333-2.031a92.425 92.425 0 0 0-5.719-.762v-8.378h58.908v8.378c-2.378.169-4.448.381-6.211.635-1.762.254-3.382.55-4.857.888-2.296.677-3.997 2.01-5.104 3.999-1.107 1.989-1.66 4.464-1.66 7.426v81.243c0 2.962.491 5.353 1.475 7.172.984 1.82 2.665 3.238 5.043 4.253a23.691 23.691 0 0 0 5.595 1.904c2.009.423 4.079.72 6.211.889v8.378zM2701.76 584.617h-7.501c-.738-2.37-1.825-5.163-3.259-8.379a86.129 86.129 0 0 0-4.735-9.139c-1.804-3.132-3.833-5.903-6.088-8.315-2.254-2.412-4.612-3.787-7.071-4.126-2.542-.254-5.37-.444-8.486-.571-3.115-.127-5.78-.19-7.994-.19v93.175c0 2.878.574 5.247 1.722 7.109 1.148 1.862 2.87 3.301 5.165 4.316 1.804.846 3.854 1.481 6.149 1.904 2.296.423 4.551.72 6.764.889v8.378h-61.736v-8.378c1.886-.169 4.038-.339 6.456-.508 2.419-.169 4.366-.508 5.842-1.016 2.296-.761 3.997-2.094 5.104-3.998 1.107-1.904 1.66-4.38 1.66-7.426v-94.445c-2.624.084-5.575.19-8.855.317-3.279.127-5.862.275-7.747.444-2.132.169-4.407 1.566-6.826 4.189a56.177 56.177 0 0 0-6.333 8.252c-1.722 2.877-3.321 6.072-4.797 9.584-1.475 3.512-2.5 6.156-3.074 7.934h-7.502v-40.114h113.142v40.114zM2821.05 640.217c-5.083 9.986-11.888 17.942-20.415 23.866-8.527 5.924-18.324 8.886-29.392 8.886-9.757 0-18.304-1.778-25.642-5.332-7.338-3.554-13.384-8.378-18.14-14.472-4.755-6.093-8.301-13.202-10.637-21.326-2.337-8.124-3.505-16.714-3.505-25.769 0-8.124 1.25-16.101 3.751-23.929 2.5-7.828 6.169-14.873 11.006-21.136 4.674-6.008 10.474-10.853 17.402-14.535 6.928-3.681 14.696-5.522 23.305-5.522 8.855 0 16.438 1.439 22.751 4.316 6.313 2.878 11.438 6.813 15.373 11.806 3.771 4.739 6.58 10.325 8.424 16.756 1.845 6.432 2.767 13.414 2.767 20.946v8.378h-80.306c0 8.209.758 15.656 2.275 22.342 1.517 6.686 3.915 12.567 7.194 17.645 3.198 4.908 7.379 8.78 12.544 11.615 5.166 2.835 11.315 4.253 18.448 4.253 7.296 0 13.589-1.756 18.877-5.268 5.288-3.512 10.392-9.838 15.311-18.978l8.609 5.458zm-27.179-47.73c0-4.739-.389-9.817-1.168-15.233-.779-5.416-2.029-9.944-3.751-13.583-1.886-3.893-4.468-7.066-7.748-9.521-3.279-2.454-7.502-3.681-12.667-3.681-8.609 0-15.762 3.703-21.46 11.108-5.698 7.405-8.793 17.708-9.285 30.91h56.079zM2963.96 669.668h-59.277v-8.378c1.886-.169 3.812-.339 5.78-.508 1.968-.169 3.689-.508 5.165-1.016 2.296-.761 4.059-2.094 5.288-3.998 1.23-1.904 1.845-4.38 1.845-7.426v-93.43h-33.697c0 20.649-1.393 38.421-4.181 53.316-2.788 14.894-6.395 27.039-10.822 36.432-4.346 9.225-9.265 16.122-14.758 20.692-5.493 4.57-11.109 6.855-16.848 6.855-5.904 0-10.372-1.587-13.405-4.76-3.034-3.174-4.551-6.877-4.551-11.108 0-3.047.964-5.924 2.89-8.632 1.927-2.708 4.735-4.062 8.425-4.062 3.443 0 6.559 1.015 9.346 3.046 2.788 2.032 5.493 4.867 8.117 8.506 1.968-1.862 4.284-5.311 6.948-10.346 2.665-5.036 5.104-11.277 7.318-18.724 2.459-8.04 4.468-16.376 6.026-25.008 1.557-8.632 2.336-18.533 2.336-29.704 0-4.401-.533-7.659-1.598-9.775-1.066-2.116-2.747-3.766-5.043-4.951-1.557-.846-4.099-1.629-7.624-2.348-3.526-.72-6.395-1.206-8.609-1.46v-8.378h110.437v8.378c-2.378.169-4.448.381-6.211.635s-3.382.55-4.858.888c-2.295.677-3.996 2.01-5.103 3.999-1.107 1.989-1.66 4.464-1.66 7.426v81.243c0 2.962.491 5.353 1.475 7.172.984 1.82 2.665 3.238 5.042 4.253a23.715 23.715 0 0 0 5.596 1.904c2.009.423 4.079.72 6.211.889v8.378zM3067.51 630.57c0-7.109-2.501-13.181-7.502-18.216-5.001-5.036-12.298-7.554-21.891-7.554-4.017 0-7.338.149-9.961.445-2.624.296-4.633.444-6.026.444v44.684c0 3.554 1.25 6.22 3.751 7.997 2.5 1.777 7.03 2.666 13.589 2.666 5.575 0 10.228-.931 13.958-2.793 3.731-1.862 6.58-4.231 8.547-7.109 2.132-3.131 3.587-6.389 4.366-9.774.779-3.385 1.169-6.982 1.169-10.79zm24.842.634c0 6.686-1.394 12.462-4.182 17.328-2.787 4.866-6.395 8.865-10.822 11.996-4.427 3.047-9.347 5.332-14.758 6.855-5.411 1.523-11.068 2.285-16.971 2.285h-63.95v-8.378c1.886-.169 3.833-.339 5.841-.508 2.009-.169 3.751-.508 5.227-1.016 2.296-.761 3.997-2.094 5.104-3.998 1.107-1.904 1.66-4.38 1.66-7.426v-81.243c0-2.793-.574-5.142-1.722-7.046-1.147-1.904-2.869-3.364-5.165-4.379-2.131-1.016-4.202-1.693-6.21-2.031a81.847 81.847 0 0 0-5.596-.762v-8.378h61.122v8.378c-2.46.169-4.858.36-7.195.571-2.336.212-4.284.529-5.841.952-2.542.762-4.305 2.201-5.289 4.316-.983 2.116-1.475 4.486-1.475 7.109v29.832c3.279-.085 6.087-.191 8.424-.318 2.336-.127 5.718-.19 10.146-.19 7.952 0 14.942.656 20.968 1.967 6.026 1.312 11.253 3.322 15.68 6.03 4.755 2.878 8.445 6.559 11.068 11.044 2.624 4.485 3.936 10.156 3.936 17.01zM3301.42 669.668h-59.277v-8.378c1.886-.169 3.813-.339 5.781-.508 1.967-.169 3.689-.508 5.165-1.016 2.295-.761 4.058-2.094 5.288-3.998 1.23-1.904 1.845-4.38 1.845-7.426v-93.43h-51.898v92.16c0 2.878.574 5.247 1.721 7.109 1.148 1.862 2.87 3.301 5.166 4.316a23.854 23.854 0 0 0 5.534 1.904 46.83 46.83 0 0 0 6.149.889v8.378h-59.277v-8.378c1.886-.169 3.833-.339 5.842-.508 2.008-.169 3.751-.508 5.226-1.016 2.296-.761 3.997-2.094 5.104-3.998 1.107-1.904 1.66-4.38 1.66-7.426v-81.243c0-2.793-.574-5.142-1.721-7.046-1.148-1.904-2.87-3.364-5.166-4.379-2.131-1.016-4.202-1.693-6.21-2.031a81.847 81.847 0 0 0-5.596-.762v-8.378h134.172v8.378c-2.377.169-4.447.381-6.21.635s-3.382.55-4.858.888c-2.296.677-3.997 2.01-5.104 3.999-1.107 1.989-1.66 4.464-1.66 7.426v81.243c0 2.962.492 5.353 1.476 7.172.984 1.82 2.664 3.238 5.042 4.253a23.715 23.715 0 0 0 5.596 1.904c2.008.423 4.079.72 6.21.889v8.378zM3437.07 605.816c0 8.801-1.353 17.455-4.058 25.96-2.706 8.505-6.559 15.719-11.56 21.643-5.658 6.771-12.217 11.806-19.677 15.107-7.461 3.3-15.824 4.95-25.088 4.95-7.707 0-15.045-1.502-22.014-4.506-6.969-3.004-13.159-7.384-18.57-13.139-5.329-5.67-9.572-12.588-12.729-20.755-3.156-8.166-4.734-17.327-4.734-27.483 0-19.549 5.513-35.544 16.54-47.984 11.028-12.44 25.478-18.661 43.351-18.661 16.972 0 30.971 5.903 41.998 17.709 11.028 11.806 16.541 27.525 16.541 47.159zm-25.457.254c0-6.347-.615-13.054-1.845-20.121-1.229-7.066-3.074-13.053-5.534-17.962-2.623-5.247-6.067-9.457-10.33-12.631-4.263-3.173-9.47-4.76-15.619-4.76-6.313 0-11.703 1.608-16.172 4.824-4.468 3.216-8.096 7.616-10.884 13.202-2.623 5.162-4.468 11.044-5.534 17.645-1.065 6.601-1.598 12.99-1.598 19.168 0 8.124.635 15.635 1.906 22.532 1.271 6.898 3.3 13.054 6.087 18.471 2.788 5.416 6.293 9.668 10.515 12.757 4.223 3.089 9.449 4.634 15.68 4.634 10.249 0 18.365-5.12 24.351-15.36 5.985-10.24 8.977-24.373 8.977-42.399zM3649.45 669.668h-59.277v-8.378c1.886-.169 3.813-.339 5.78-.508 1.968-.169 3.69-.508 5.166-1.016 2.295-.761 4.058-2.094 5.288-3.998 1.23-1.904 1.845-4.38 1.845-7.426v-93.43h-51.898v92.16c0 2.878.574 5.247 1.721 7.109 1.148 1.862 2.87 3.301 5.166 4.316a23.854 23.854 0 0 0 5.534 1.904 46.83 46.83 0 0 0 6.149.889v8.378h-59.277v-8.378c1.886-.169 3.833-.339 5.842-.508 2.008-.169 3.75-.508 5.226-1.016 2.296-.761 3.997-2.094 5.104-3.998 1.107-1.904 1.66-4.38 1.66-7.426v-81.243c0-2.793-.574-5.142-1.722-7.046-1.147-1.904-2.869-3.364-5.165-4.379-2.131-1.016-4.202-1.693-6.21-2.031a81.847 81.847 0 0 0-5.596-.762v-8.378h134.172v8.378c-2.377.169-4.448.381-6.21.635-1.763.254-3.382.55-4.858.888-2.296.677-3.997 2.01-5.104 3.999-1.107 1.989-1.66 4.464-1.66 7.426v81.243c0 2.962.492 5.353 1.476 7.172.984 1.82 2.664 3.238 5.042 4.253a23.715 23.715 0 0 0 5.596 1.904 48.81 48.81 0 0 0 6.21.889v8.378zM3774.65 640.217c-5.083 9.986-11.888 17.942-20.415 23.866-8.527 5.924-18.324 8.886-29.393 8.886-9.756 0-18.303-1.778-25.641-5.332-7.338-3.554-13.384-8.378-18.14-14.472-4.755-6.093-8.301-13.202-10.638-21.326-2.336-8.124-3.505-16.714-3.505-25.769 0-8.124 1.251-16.101 3.751-23.929 2.501-7.828 6.17-14.873 11.007-21.136 4.673-6.008 10.474-10.853 17.402-14.535 6.928-3.681 14.696-5.522 23.305-5.522 8.854 0 16.438 1.439 22.751 4.316 6.313 2.878 11.438 6.813 15.373 11.806 3.771 4.739 6.579 10.325 8.424 16.756 1.845 6.432 2.767 13.414 2.767 20.946v8.378h-80.306c0 8.209.758 15.656 2.275 22.342 1.517 6.686 3.915 12.567 7.194 17.645 3.198 4.908 7.379 8.78 12.544 11.615 5.165 2.835 11.314 4.253 18.447 4.253 7.297 0 13.59-1.756 18.878-5.268 5.288-3.512 10.392-9.838 15.311-18.978l8.609 5.458zm-27.179-47.73c0-4.739-.389-9.817-1.168-15.233-.779-5.416-2.03-9.944-3.751-13.583-1.886-3.893-4.469-7.066-7.748-9.521-3.28-2.454-7.502-3.681-12.667-3.681-8.609 0-15.762 3.703-21.46 11.108-5.698 7.405-8.793 17.708-9.285 30.91h56.079zM3899.47 559.355c4.838 5.924 8.588 12.8 11.253 20.628 2.665 7.828 3.997 16.778 3.997 26.849 0 9.901-1.599 18.935-4.796 27.102-3.198 8.166-7.42 15.127-12.667 20.882-5.493 5.839-11.602 10.324-18.324 13.456-6.723 3.131-13.856 4.697-21.399 4.697-7.297 0-13.282-.847-17.955-2.539-4.674-1.693-8.486-3.682-11.438-5.967h-.983v37.575c0 3.047.573 5.586 1.721 7.617 1.148 2.031 2.911 3.512 5.288 4.443 1.968.762 4.776 1.502 8.425 2.221 3.648.72 6.661 1.122 9.039 1.206v8.505h-67.763v-8.505c2.542-.169 5.002-.381 7.379-.634 2.378-.254 4.509-.677 6.395-1.27 2.46-.846 4.181-2.327 5.165-4.443.984-2.116 1.476-4.612 1.476-7.489V570.526c0-2.539-.615-4.993-1.845-7.363-1.229-2.369-2.828-4.273-4.796-5.712-1.476-1.016-3.525-1.798-6.149-2.349a55.977 55.977 0 0 0-7.625-1.079v-8.251l41.322-2.793 1.722 1.524v14.09l.983.254c4.264-5.077 9.552-9.309 15.865-12.694 6.313-3.385 12.585-5.078 18.816-5.078 7.543 0 14.45 1.651 20.722 4.951 6.272 3.301 11.663 7.744 16.172 13.329zm-20.046 90.002c3.28-5.247 5.699-11.34 7.256-18.279 1.558-6.94 2.337-14.683 2.337-23.231 0-6.262-.656-12.652-1.968-19.168-1.312-6.517-3.361-12.187-6.149-17.011-2.787-4.908-6.436-8.886-10.945-11.932-4.509-3.047-9.921-4.57-16.234-4.57-6.067 0-11.232 1.375-15.495 4.126-4.263 2.75-7.953 6.029-11.068 9.838v74.007c.737 2.285 1.947 4.655 3.627 7.109 1.681 2.454 3.546 4.57 5.596 6.347a35.136 35.136 0 0 0 8.24 5.141c2.951 1.312 6.559 1.968 10.822 1.968 4.591 0 9.019-1.249 13.282-3.745 4.263-2.497 7.83-6.03 10.699-10.6zM4040.29 640.217c-5.083 9.986-11.888 17.942-20.414 23.866-8.527 5.924-18.325 8.886-29.393 8.886-9.756 0-18.303-1.778-25.641-5.332-7.338-3.554-13.385-8.378-18.14-14.472-4.755-6.093-8.301-13.202-10.638-21.326-2.336-8.124-3.505-16.714-3.505-25.769 0-8.124 1.25-16.101 3.751-23.929 2.501-7.828 6.17-14.873 11.007-21.136 4.673-6.008 10.474-10.853 17.402-14.535 6.928-3.681 14.696-5.522 23.305-5.522 8.854 0 16.438 1.439 22.751 4.316 6.313 2.878 11.437 6.813 15.373 11.806 3.771 4.739 6.579 10.325 8.424 16.756 1.845 6.432 2.767 13.414 2.767 20.946v8.378h-80.307c0 8.209.759 15.656 2.276 22.342 1.516 6.686 3.914 12.567 7.194 17.645 3.197 4.908 7.379 8.78 12.544 11.615 5.165 2.835 11.314 4.253 18.447 4.253 7.297 0 13.589-1.756 18.878-5.268 5.288-3.512 10.392-9.838 15.311-18.978l8.608 5.458zm-27.178-47.73c0-4.739-.39-9.817-1.169-15.233s-2.029-9.944-3.751-13.583c-1.885-3.893-4.468-7.066-7.747-9.521-3.28-2.454-7.502-3.681-12.667-3.681-8.609 0-15.762 3.703-21.461 11.108-5.698 7.405-8.793 17.708-9.285 30.91h56.08zM4162.04 640.217c-5.084 9.986-11.889 17.942-20.415 23.866-8.527 5.924-18.324 8.886-29.393 8.886-9.756 0-18.303-1.778-25.641-5.332-7.338-3.554-13.385-8.378-18.14-14.472-4.755-6.093-8.301-13.202-10.638-21.326-2.336-8.124-3.505-16.714-3.505-25.769 0-8.124 1.251-16.101 3.751-23.929 2.501-7.828 6.17-14.873 11.007-21.136 4.673-6.008 10.474-10.853 17.402-14.535 6.928-3.681 14.696-5.522 23.305-5.522 8.854 0 16.438 1.439 22.751 4.316 6.313 2.878 11.437 6.813 15.373 11.806 3.771 4.739 6.579 10.325 8.424 16.756 1.845 6.432 2.767 13.414 2.767 20.946v8.378h-80.307c0 8.209.759 15.656 2.276 22.342 1.516 6.686 3.915 12.567 7.194 17.645 3.198 4.908 7.379 8.78 12.544 11.615 5.165 2.835 11.314 4.253 18.447 4.253 7.297 0 13.59-1.756 18.878-5.268 5.288-3.512 10.392-9.838 15.311-18.978l8.609 5.458zm-27.179-47.73c0-4.739-.39-9.817-1.169-15.233-.778-5.416-2.029-9.944-3.75-13.583-1.886-3.893-4.469-7.066-7.748-9.521-3.28-2.454-7.502-3.681-12.667-3.681-8.609 0-15.762 3.703-21.46 11.108-5.699 7.405-8.794 17.708-9.286 30.91h56.08zM4276.29 633.489c0 11.764-5.063 21.284-15.188 28.562-10.126 7.278-23.346 10.918-39.662 10.918-7.297 0-13.917-.868-19.861-2.603-5.944-1.735-10.925-4.083-14.942-7.045-3.854-2.962-6.805-6.305-8.855-10.029-2.05-3.723-3.074-7.785-3.074-12.186 0-3.808.983-6.94 2.951-9.394 1.968-2.454 5.042-3.681 9.224-3.681 4.427 0 7.788 1.227 10.084 3.681 2.296 2.454 3.444 5.036 3.444 7.744 0 2.454-.349 5.374-1.046 8.759-.697 3.385-1.291 6.008-1.783 7.87 2.132 2.2 5.247 3.999 9.347 5.395 4.099 1.397 8.895 2.095 14.388 2.095 8.527 0 15.619-2.624 21.276-7.871s8.486-12.652 8.486-22.215c0-2.877-.369-5.797-1.107-8.759a18.22 18.22 0 0 0-4.181-7.87c-2.05-2.285-4.838-4.147-8.363-5.586-3.526-1.438-8.158-2.158-13.897-2.158h-12.913v-11.805h10.576c9.839 0 16.726-2.137 20.661-6.411 3.936-4.273 5.903-10.896 5.903-19.866 0-6.263-1.885-11.235-5.657-14.916-3.771-3.681-8.977-5.522-15.618-5.522-4.838 0-9.142 1.079-12.913 3.237-3.772 2.158-7.256 5.099-10.454 8.823-2.869 3.385-5.391 7.341-7.563 11.869-2.173 4.527-3.956 8.78-5.35 12.757h-8.24l.738-45.318h8.24l4.427 6.982c4.1-1.947 9.039-3.766 14.82-5.459 5.78-1.692 12.277-2.539 19.492-2.539 9.019 0 16.356 1.122 22.014 3.364 5.657 2.243 10.043 4.93 13.159 8.061 3.033 3.047 5.083 6.284 6.149 9.711 1.065 3.428 1.598 6.242 1.598 8.442 0 2.877-.43 5.818-1.291 8.822-.861 3.005-2.48 5.861-4.858 8.569-2.295 2.708-5.472 5.226-9.531 7.553-4.058 2.327-9.162 4.126-15.311 5.395v1.65c3.854.17 7.809.804 11.868 1.905a36.615 36.615 0 0 1 11.253 5.204c3.689 2.624 6.538 5.903 8.547 9.838 2.008 3.935 3.013 8.611 3.013 14.027zM4300.27 659.386c8.117-11.087 15.188-25.643 21.214-43.669 6.026-18.025 9.039-32.793 9.039-44.302 0-4.401-.533-7.659-1.598-9.775-1.066-2.116-2.747-3.766-5.043-4.951-1.557-.846-4.099-1.629-7.624-2.348-3.526-.72-6.395-1.206-8.609-1.46v-8.378h110.437v8.378c-2.378.169-4.448.381-6.211.635-1.762.254-3.382.55-4.858.888-2.295.677-3.996 2.01-5.103 3.999-1.107 1.989-1.66 4.464-1.66 7.426v81.116c0 4.486.84 7.68 2.521 9.584 1.68 1.905 5.226 2.857 10.637 2.857h7.871v46.968h-8.854a87.24 87.24 0 0 0-8.732-24.246c-4.099-7.616-8.527-11.932-13.282-12.948h-71.452c-4.427.762-8.916 4.993-13.466 12.694-4.551 7.702-7.646 15.868-9.285 24.5h-8.855v-46.968h12.913zm14.02 0h53.005c3.607 0 6.19-.656 7.747-1.968 1.558-1.312 2.337-3.322 2.337-6.03v-96.476h-33.82c-.492 21.411-3.341 41.024-8.547 58.838s-12.113 33.026-20.722 45.636zM4427.06 710.543c0-4.231 1.128-7.68 3.382-10.345 2.255-2.666 5.063-3.999 8.425-3.999 2.623 0 4.878.508 6.763 1.523a19.125 19.125 0 0 1 5.043 3.935c1.23 1.27 2.541 3.005 3.935 5.205 1.394 2.2 2.501 4.02 3.321 5.459 4.099-2.285 8.998-8.252 14.696-17.899 5.698-9.648 9.818-18.111 12.359-25.389-7.788-20.057-14.839-37.998-21.152-53.823a7714.409 7714.409 0 0 0-19.8-49.127c-1.558-3.893-4.182-6.918-7.871-9.076-3.689-2.158-7.379-3.534-11.068-4.126v-8.378h55.341v8.886c-2.46.084-5.411.613-8.855 1.587-3.443.973-5.165 2.094-5.165 3.364 0 .507.185 1.354.554 2.538a57.686 57.686 0 0 0 1.291 3.682c3.115 8.378 7.871 20.459 14.266 36.242 6.395 15.783 11.355 28.414 14.88 37.892 3.69-9.055 7.523-18.428 11.499-28.118 3.977-9.69 8.424-21.136 13.344-34.338a436.832 436.832 0 0 1 2.459-6.664c1.066-2.835 1.599-5.268 1.599-7.299 0-2.201-1.865-4.253-5.596-6.157-3.73-1.904-7.276-3.068-10.638-3.491v-8.124h45.011v7.87c-2.459.423-5.698 1.883-9.715 4.38-4.017 2.496-7.01 6.029-8.978 10.599-9.756 23.358-18.426 44.642-26.01 63.852-7.584 19.211-13.343 33.344-17.279 42.399-5.165 11.848-9.777 21.094-13.835 27.737-4.059 6.643-8.014 11.869-11.868 15.678-3.771 3.554-7.194 5.945-10.269 7.172a25.485 25.485 0 0 1-9.531 1.84c-6.395 0-11.417-1.565-15.065-4.696-3.648-3.132-5.473-6.728-5.473-10.791z" style="fill-rule:nonzero"/><g transform="matrix(.73343 0 0 13.2653 1214.66 -1757.44)"><clipPath id="a"><path d="M1696.12 160.036h-129.722v-.985c11.414-.047 20.889-.139 28.425-.278 7.536-.139 11.304-.31 11.304-.513 0-.083-.146-.185-.439-.306-.293-.12-.732-.226-1.317-.319l-25.901-4.413h-109.089c-4.098.648-7.427 1.212-9.988 1.693-2.56.481-4.865.926-6.914 1.333-1.902.397-3.219.721-3.951.971-.731.25-1.097.453-1.097.611 0 .37 4.609.656 13.828.86 9.219.203 19.609.324 31.169.361v.985h-117.211v-.985c3.804-.019 8.56-.072 14.267-.16 5.707-.088 10.389-.206 14.048-.354 5.853-.249 10.389-.511 13.608-.784 3.22-.273 6.366-.65 9.439-1.131a9923.133 9923.133 0 0 0 51.801-8.326c18.877-3.081 35.705-5.824 50.484-8.229h17.56l103.822 16.985c2.195.361 4.682.653 7.463.875 2.78.222 6.658.439 11.633.652 3.365.129 7.755.238 13.17.326 5.414.088 9.95.137 13.608.146v.985zm-125.552-8.049-47.191-7.632-46.314 7.632h93.505zm328.806-4.01c8.634.648 15.328 1.399 20.084 2.255 4.756.856 7.134 1.834 7.134 2.935 0 1.082-2.854 2.07-8.561 2.963-5.707.892-13.243 1.653-22.608 2.282-9.804.639-20.706 1.129-32.705 1.471-11.999.343-24.73.514-38.192.514-13.024 0-23.706-.093-32.047-.278-8.341-.185-15.145-.402-20.413-.652h-1.756v4.108c0 .333 1.024.61 3.073.832 2.049.222 5.195.384 9.438.486 3.512.083 8.524.164 15.036.243 6.512.078 11.889.122 16.133.132v.929h-120.943v-.929c4.537-.019 8.927-.042 13.17-.07a907.74 907.74 0 0 0 11.414-.139c4.39-.092 7.463-.254 9.219-.485 1.756-.232 2.634-.504 2.634-.819v-14.557c0-.277-1.098-.546-3.293-.805-2.195-.259-5.048-.467-8.56-.624-2.634-.111-6.292-.197-10.975-.257-4.682-.06-9.219-.099-13.609-.118v-.902l73.751-.305 3.073.166v1.541l1.756.027c7.609-.555 17.048-1.017 28.315-1.387 11.268-.37 22.462-.555 33.583-.555 13.463 0 25.791.18 36.985.541 11.195.361 20.816.846 28.864 1.457zm-35.778 9.839c5.853-.574 10.17-1.24 12.95-1.999 2.781-.758 4.171-1.605 4.171-2.539 0-.685-1.171-1.383-3.512-2.095-2.341-.713-6-1.333-10.975-1.86-4.975-.537-11.487-.971-19.535-1.304-8.048-.333-17.706-.5-28.974-.5-10.828 0-20.047.15-27.656.451-7.609.301-14.194.659-19.755 1.075v8.091c1.317.25 3.476.509 6.475.777 3 .268 6.329.499 9.987.694 4.537.231 9.439.418 14.707.562 5.268.143 11.706.215 19.315.215 8.195 0 16.097-.137 23.706-.41 7.609-.272 13.975-.659 19.096-1.158zm385.216 2.22h-106.016v-.916l10.426-.055c3.585-.019 6.694-.056 9.328-.111 4.244-.084 7.5-.234 9.768-.451 2.268-.218 3.402-.484 3.402-.798v-9.908h-5.268l-73.312 12.017h-13.608l-68.922-12.253h-4.829v9.589c0 .471 1.061.841 3.183 1.11 2.121.268 5.158.453 9.109.555 3.073.092 6.402.162 9.987.208 3.585.046 7.28.079 11.084.097v.916h-84.286v-.916l10.426-.055c3.585-.019 6.694-.056 9.328-.111 4.39-.093 7.5-.276 9.329-.549 1.829-.272 2.744-.645 2.744-1.117v-8.326c0-.361-1.025-.654-3.073-.881-2.049-.227-5.122-.395-9.219-.506-3.805-.111-7.5-.185-11.085-.222a2424.57 2424.57 0 0 0-9.987-.084v-.916h89.994l54.215 9.797 47.851-8.118c1.463-.268 3.072-.587 4.828-.957 1.756-.37 2.708-.611 2.854-.722h90.871v.916c-4.243.019-7.938.042-11.084.07-3.146.027-6.036.06-8.67.097-4.098.074-7.134.219-9.109.437-1.976.217-2.964.488-2.964.812v8.881c0 .324.878.585 2.634.784 1.756.199 4.756.354 9 .465 3.073.092 6.402.162 9.987.208 3.585.046 7.28.079 11.084.097v.916zm223.448-3.219c-9.073 1.091-21.218 1.961-36.437 2.608-15.218.648-32.705.972-52.459.972-17.414 0-32.669-.194-45.765-.583-13.097-.389-23.889-.916-32.376-1.582-8.487-.666-14.816-1.443-18.986-2.331-4.171-.888-6.256-1.827-6.256-2.817 0-.888 2.231-1.76 6.695-2.616 4.463-.856 11.011-1.626 19.644-2.311 8.341-.656 18.694-1.186 31.059-1.589 12.365-.402 26.23-.603 41.595-.603 15.804 0 29.339.157 40.607.472 11.267.314 20.413.744 27.437 1.29 6.731.518 11.743 1.129 15.035 1.832 3.293.703 4.939 1.466 4.939 2.29v.916h-143.331c0 .897 1.353 1.711 4.06 2.442 2.708.731 6.988 1.374 12.841 1.929 5.707.536 13.17.96 22.389 1.269 9.218.31 20.193.465 32.924.465 13.024 0 24.254-.192 33.693-.576 9.438-.383 18.547-1.075 27.327-2.074l15.365.597zm-48.509-5.218c0-.518-.695-1.073-2.085-1.665-1.39-.592-3.622-1.087-6.695-1.485-3.365-.426-7.975-.773-13.828-1.041-5.853-.268-13.389-.402-22.608-.402-15.365 0-28.132.404-38.302 1.214-10.17.809-15.694 1.936-16.572 3.379h100.09zm316.075 8.437h-105.797v-.916l10.426-.055c3.585-.019 6.694-.056 9.328-.111 4.098-.084 7.244-.229 9.439-.438 2.195-.208 3.292-.478 3.292-.811v-4.358h-96.359v4.219c0 .314 1.025.574 3.073.777 2.049.204 5.122.361 9.219.472 3.073.092 6.402.162 9.987.208 3.585.046 7.28.079 11.085.097v.916h-105.798v-.916l10.426-.055a609.52 609.52 0 0 0 9.329-.111c4.097-.084 7.134-.229 9.109-.438 1.976-.208 2.963-.478 2.963-.811v-8.882c0-.305-1.024-.562-3.073-.77-2.048-.208-5.121-.367-9.218-.478-3.805-.111-7.5-.185-11.085-.222a2424.57 2424.57 0 0 0-9.987-.084v-.916h105.797v.916c-4.243.019-7.938.042-11.084.07-3.146.027-6.037.06-8.67.097-4.098.074-7.134.219-9.11.437-1.975.217-2.963.488-2.963.812v3.524h96.359v-3.386c0-.305-1.024-.562-3.073-.77-2.048-.208-5.121-.367-9.219-.478a588.507 588.507 0 0 0-11.084-.222 2424.57 2424.57 0 0 0-9.987-.084v-.916h105.797v.916c-4.244.019-7.938.042-11.085.07-3.146.027-6.036.06-8.67.097-4.097.074-7.133.219-9.109.437-1.975.217-2.963.488-2.963.812v8.881c0 .324.878.585 2.634.784 1.756.199 4.756.354 8.999.465 3.073.092 6.402.162 9.987.208 3.586.046 7.28.079 11.085.097v.916zm275.249 0h-105.139v-.916l10.426-.055c3.585-.019 6.694-.056 9.328-.111 4.098-.084 7.244-.229 9.439-.438 2.195-.208 3.292-.478 3.292-.811v-7.189l-99.651 6.814v.236c0 .314 1.024.574 3.073.777 2.048.204 5.121.361 9.219.472 3.219.092 6.621.162 10.206.208 3.585.046 7.353.079 11.304.097v.916h-105.139v-.916l10.427-.055c3.585-.019 6.694-.056 9.328-.111 4.097-.084 7.134-.229 9.109-.438 1.976-.208 2.963-.478 2.963-.811v-8.882c0-.305-1.024-.562-3.073-.77-2.048-.208-5.121-.367-9.218-.478-3.805-.111-7.5-.185-11.085-.222a2424.57 2424.57 0 0 0-9.987-.084v-.916h105.139v.916c-4.244.019-7.939.042-11.085.07-3.146.027-6.036.06-8.67.097-4.097.074-7.134.219-9.109.437-1.975.217-2.963.488-2.963.812v7.077l99.651-6.828c0-.407-1.024-.707-3.073-.902-2.048-.194-5.121-.346-9.219-.457a587.14 587.14 0 0 0-11.304-.222c-3.731-.037-7.133-.065-10.206-.084v-.916h105.139v.916c-4.244.019-7.939.042-11.085.07-3.146.027-6.036.06-8.67.097-4.097.074-7.134.219-9.109.437-1.976.217-2.963.488-2.963.812v8.881c0 .324.878.585 2.634.784 1.755.199 4.755.354 8.999.465 3.073.092 6.402.162 9.987.208 3.585.046 7.28.079 11.085.097v.916zm172.743-7.188v-5.509h-24.583c-15.365 0-28.096.226-38.193.68-10.097.453-15.145 1.124-15.145 2.012 0 .916 5.341 1.614 16.023 2.095 10.682.481 25.901.722 45.655.722h16.243zm-66.288.583v-.084c-19.754-.249-34.131-.663-43.131-1.242-8.999-.578-13.499-1.311-13.499-2.199 0-1.092 7.792-1.957 23.377-2.595 15.584-.638 35.302-.958 59.154-.958h113.041v.916c-4.244.019-7.939.042-11.085.07-3.146.027-6.036.06-8.67.097-4.097.074-7.134.219-9.109.437-1.976.217-2.963.488-2.963.812v8.881c0 .324.878.585 2.634.784 1.755.199 4.755.354 8.999.465 3.073.092 6.402.162 9.987.208 3.585.046 7.28.079 11.085.097v.916h-106.017v-.916l10.426-.055c3.585-.019 6.694-.056 9.328-.111 4.098-.084 7.244-.229 9.439-.438 2.195-.208 3.292-.478 3.292-.811v-3.844h-9.219c-13.608 0-24.254.164-31.936.492-7.683.329-15.036.946-22.06 1.853-5.121.675-9.328 1.3-12.621 1.873a319.158 319.158 0 0 0-10.206 1.957h-73.971v-.916a9518.315 9518.315 0 0 0 19.316-.18c4.536-.056 8.67-.167 12.402-.333 3.731-.167 6.987-.44 9.767-.819 1.463-.213 3.475-.497 6.036-.853 2.561-.357 5.597-.757 9.109-1.201 4.683-.583 9.914-1.059 15.694-1.429 5.78-.37 12.914-.662 21.401-.874z"/></clipPath><g clip-path="url(#a)"><path d="M.694 0H.405v-.035a.327.327 0 0 0 .064-.009c.016-.005.025-.011.025-.018L.493-.073.49-.084.432-.24H.189l-.022.06-.015.047a.622.622 0 0 0-.009.034C.141-.09.141-.083.141-.078c0 .013.01.023.03.031a.25.25 0 0 0 .07.012V0H-.02v-.035A.157.157 0 0 0 .012-.04a.111.111 0 0 0 .061-.04.207.207 0 0 0 .021-.04l.115-.293.113-.29h.039l.231.598c.005.013.01.023.016.031a.151.151 0 0 0 .026.023.146.146 0 0 0 .03.011.133.133 0 0 0 .03.005V0zM.415-.283.31-.552l-.103.269h.208z" style="fill-rule:nonzero" transform="matrix(449.529 0 0 28.4199 1384.261 160.036)"/><path d="M.475-.424a.254.254 0 0 1 .045.079.327.327 0 0 1-.003.208.253.253 0 0 1-.123.132.24.24 0 0 1-.157.008.189.189 0 0 1-.045-.023H.188v.145c0 .011.002.021.007.029.004.008.011.013.021.017a.16.16 0 0 0 .033.008.202.202 0 0 0 .036.005v.033H.016V.184L.045.182.071.177A.031.031 0 0 0 .091.16.065.065 0 0 0 .097.131v-.512A.06.06 0 0 0 .09-.41a.067.067 0 0 0-.019-.022.066.066 0 0 0-.025-.009l-.03-.004v-.032l.164-.01.007.006v.054l.004.001a.205.205 0 0 1 .063-.049.162.162 0 0 1 .075-.02.187.187 0 0 1 .146.071zm-.079.346a.219.219 0 0 0 .028-.07.36.36 0 0 0 .002-.164.21.21 0 0 0-.025-.065.135.135 0 0 0-.043-.046.113.113 0 0 0-.065-.017.117.117 0 0 0-.061.015.204.204 0 0 0-.044.038v.285a.116.116 0 0 0 .037.052.15.15 0 0 0 .032.019.094.094 0 0 0 .043.008.11.11 0 0 0 .053-.014.14.14 0 0 0 .043-.041z" style="fill-rule:nonzero" transform="matrix(449.529 0 0 28.4199 1685.741 160.036)"/><path d="M.681 0H.445v-.032a.194.194 0 0 1 .024-.002l.02-.004a.037.037 0 0 0 .022-.016.051.051 0 0 0 .008-.028v-.349H.507l-.163.423H.313L.16-.439H.149v.337c0 .017.003.03.007.04a.043.043 0 0 0 .021.019c.007.003.014.006.022.007a.187.187 0 0 0 .025.004V0H.036v-.032l.023-.002A.112.112 0 0 0 .08-.038a.033.033 0 0 0 .021-.019.109.109 0 0 0 .006-.04V-.39A.06.06 0 0 0 .1-.421a.034.034 0 0 0-.02-.017.09.09 0 0 0-.025-.008.09.09 0 0 0-.022-.003v-.032h.2l.121.344.106-.285.011-.034a.128.128 0 0 0 .006-.025h.202v.032a.166.166 0 0 0-.024.002l-.02.004a.028.028 0 0 0-.02.015.062.062 0 0 0-.007.029v.312c0 .011.002.021.006.028a.04.04 0 0 0 .02.016.094.094 0 0 0 .022.007l.025.004V0z" style="fill-rule:nonzero" transform="matrix(449.529 0 0 28.4199 1942.616 160.036)"/><path d="M.463-.113a.25.25 0 0 1-.081.092.211.211 0 0 1-.117.034.232.232 0 0 1-.102-.021.198.198 0 0 1-.072-.055.232.232 0 0 1-.042-.083.353.353 0 0 1-.014-.099.29.29 0 0 1 .059-.173.2.2 0 0 1 .161-.077c.036 0 .066.005.091.016a.179.179 0 0 1 .061.046c.015.018.026.04.033.064a.265.265 0 0 1 .011.081v.032H.132c0 .032.003.06.009.086a.209.209 0 0 0 .029.068.136.136 0 0 0 .05.045c.02.011.045.016.073.016a.14.14 0 0 0 .075-.02.212.212 0 0 0 .061-.073l.034.021zM.355-.297A.401.401 0 0 0 .35-.355a.176.176 0 0 0-.015-.053.088.088 0 0 0-.03-.036.081.081 0 0 0-.051-.014.106.106 0 0 0-.085.042.205.205 0 0 0-.037.119h.223z" style="fill-rule:nonzero" transform="matrix(449.529 0 0 28.4199 2264.183 160.036)"/><path d="M.575 0H.339v-.032a.194.194 0 0 1 .024-.002.1.1 0 0 0 .02-.004.04.04 0 0 0 .021-.015.052.052 0 0 0 .008-.029v-.153H.197v.148c0 .011.003.02.007.027a.04.04 0 0 0 .021.017.2.2 0 0 0 .046.011V0H.036v-.032l.023-.002A.112.112 0 0 0 .08-.038.035.035 0 0 0 .1-.053a.052.052 0 0 0 .007-.029v-.313A.05.05 0 0 0 .1-.422a.036.036 0 0 0-.02-.016.09.09 0 0 0-.025-.008.09.09 0 0 0-.022-.003v-.032h.235v.032a.18.18 0 0 0-.044.006.028.028 0 0 0-.02.015.052.052 0 0 0-.007.029v.124h.215v-.12a.06.06 0 0 0-.007-.027.042.042 0 0 0-.021-.016.075.075 0 0 0-.024-.008.097.097 0 0 0-.023-.003v-.032h.236v.032a.169.169 0 0 0-.044.006.028.028 0 0 0-.02.015.052.052 0 0 0-.007.029v.312c0 .011.002.021.006.028.004.007.01.012.02.016.007.003.014.006.022.007a.187.187 0 0 0 .025.004V0z" style="fill-rule:nonzero" transform="matrix(449.529 0 0 28.4199 2481.514 160.036)"/><path d="M.578 0H.344v-.032l.023-.002a.112.112 0 0 0 .021-.004.04.04 0 0 0 .021-.015.052.052 0 0 0 .008-.029v-.253l-.222.24v.008c0 .011.002.02.007.027a.038.038 0 0 0 .02.017.187.187 0 0 0 .048.011V0H.036v-.032l.023-.002A.112.112 0 0 0 .08-.038.035.035 0 0 0 .1-.053a.052.052 0 0 0 .007-.029v-.313A.05.05 0 0 0 .1-.422a.036.036 0 0 0-.02-.016.09.09 0 0 0-.025-.008.09.09 0 0 0-.022-.003v-.032h.234v.032a.169.169 0 0 0-.044.006.032.032 0 0 0-.021.015.062.062 0 0 0-.006.029v.249l.221-.241a.06.06 0 0 0-.006-.031.042.042 0 0 0-.021-.016.08.08 0 0 0-.025-.008.097.097 0 0 0-.023-.003v-.032h.234v.032a.166.166 0 0 0-.024.002l-.02.004a.028.028 0 0 0-.02.015.062.062 0 0 0-.007.029v.312c0 .011.002.021.006.028a.04.04 0 0 0 .02.016c.007.003.014.006.022.007l.025.004V0z" style="fill-rule:nonzero" transform="matrix(449.529 0 0 28.4199 2755.155 160.036)"/><path d="M.35-.253v-.194H.295a.144.144 0 0 0-.085.024.083.083 0 0 0-.033.071c0 .032.012.057.035.074a.175.175 0 0 0 .102.025H.35zm-.147.021v-.003a.187.187 0 0 1-.096-.044.105.105 0 0 1-.03-.077c0-.039.017-.069.052-.092A.238.238 0 0 1 .26-.481h.252v.032a.169.169 0 0 0-.044.006.028.028 0 0 0-.02.015.052.052 0 0 0-.007.029v.312c0 .011.002.021.006.028.004.007.01.012.02.016.007.003.014.006.022.007a.187.187 0 0 0 .025.004V0H.278v-.032a.164.164 0 0 1 .023-.002.112.112 0 0 0 .021-.004.04.04 0 0 0 .021-.015.052.052 0 0 0 .007-.029v-.135H.33A.12.12 0 0 0 .259-.2a.162.162 0 0 0-.05.065l-.028.066L.159 0h-.165v-.032a.528.528 0 0 0 .021-.003l.022-.004A.075.075 0 0 0 .065-.05a.075.075 0 0 0 .021-.029L.1-.109l.02-.042a.207.207 0 0 1 .035-.051.13.13 0 0 1 .048-.03z" style="fill-rule:nonzero" transform="matrix(449.529 0 0 28.4199 3030.378 160.036)"/></g></g></svg>