<svg xmlns="http://www.w3.org/2000/svg" viewBox="0 0 318.333 186.667"><path d="M88.5 63.337c0 18.027-9.443 28.33-27.213 28.33h-26.01V35.009h26.011c17.77 0 27.212 10.301 27.212 28.328zm-17.941 0c0-10.473-3-15.537-11.418-15.537h-6.352v31.076h6.353c8.413 0 11.418-5.065 11.418-15.539zM147.909 63.337c0 18.457-10.559 29.188-28.244 29.188-17.6 0-28.415-10.73-28.415-29.187s10.817-29.188 28.416-29.188c17.684 0 28.243 10.73 28.243 29.187zm-38.717 0c0 10.73 3.52 15.8 10.473 15.8s10.3-5.065 10.3-15.8-3.348-15.795-10.3-15.795-10.473 5.065-10.473 15.795zM204.311 91.667h-19.144L169.8 63.6l-3.777-7.727h-.258l.429 11.16v24.634h-15.28V35.009h19.144l15.366 28.07 3.777 7.727h.172l-.344-11.16V35.009h15.281v56.658zM227.062 44.709c0 7.812-4.292 14.765-12.791 18.285l-7.471-4.979c5.494-2.146 9.787-4.979 11.5-9.271l-.429-.344a3.322 3.322 0 0 1-2.661 1.117c-3.863 0-7.984-2.4-7.984-7.812 0-5.924 3.863-8.928 9.615-8.928 7.131 0 10.221 4.634 10.221 11.932zM265.264 48.143v43.524h-17.513V48.143h-18.2V35.009h53.654l.085 13.134h-18.026zM86.27 114.324c0 11.934-7.9 18.543-22.835 18.543H52.79v18.8H35.278V95.009h28.157c14.937 0 22.835 6.609 22.835 19.315zm-17.513-.172c0-4.292-2.489-6.352-8.155-6.352H52.79v12.705h7.81c5.668 0 8.157-2.06 8.157-6.353zM118.721 139.906H101.38l-3.262 11.762H80.606l19.058-56.659H120.7l19.144 56.658H121.9zm-3.09-11.332-3.09-11.245-2.318-9.357h-.343l-2.232 9.271-3.177 11.331h11.16zM197.1 151.667h-19.143L162.59 123.6l-3.777-7.727h-.258l.429 11.16v24.639H143.7V95.009h19.144l15.366 28.07 3.777 7.727h.172l-.344-11.16V95.009H197.1v56.658zM221.74 151.667h-17.512V95.009h17.512v56.658zM257.366 152.525c-17.6 0-28.415-10.73-28.415-29.187S239.768 94.15 257.28 94.15c12.19 0 22.406 4.979 25.067 16.4l-15.195 6.7c-1.288-7.9-4.035-9.7-9.357-9.7-6.954 0-10.9 5.15-10.9 15.795 0 10.56 3.605 15.8 10.731 15.8 5.837 0 8.584-2.661 9.615-8.413l15.624 4.121c-3.265 12.607-12.965 17.672-25.499 17.672z" style="fill:#cc3351"/></svg>