<svg width="170" height="100" xmlns="http://www.w3.org/2000/svg"><defs><linearGradient x1="50%" y1="100%" x2="50%" y2="0%" id="a"><stop stop-color="#1D93D2" offset="0%"/><stop stop-color="#38B0E3" offset="100%"/></linearGradient></defs><g fill="none" fill-rule="nonzero"><g transform="translate(55)"><circle fill="url(#a)" cx="30" cy="30" r="30"/><path d="m20 32.034 3.573 10.028s.446.938.924.938c.479 0 7.592-7.505 7.592-7.505L40 20l-19.873 9.445L20 32.034z" fill="#C8DAEA"/><path d="m25.662 35-.65 7.041s-.273 2.158 1.844 0C28.973 39.884 31 38.22 31 38.22" fill="#A9C6D8"/><path d="m20.868 32.738-7.227-2.409s-.864-.358-.586-1.17c.057-.168.173-.311.518-.556 1.602-1.142 29.639-11.45 29.639-11.45s.791-.272 1.258-.09a.692.692 0 0 1 .465.518c.05.213.072.433.063.652-.002.19-.025.366-.042.642-.17 2.818-5.28 23.851-5.28 23.851s-.306 1.23-1.402 1.273a1.982 1.982 0 0 1-1.462-.579c-2.15-1.89-9.579-6.998-11.22-8.121a.322.322 0 0 1-.136-.228c-.022-.118.103-.265.103-.265S38.496 23.044 38.841 21.81c.026-.095-.074-.143-.21-.1-.859.323-15.754 9.944-17.398 11.006a.775.775 0 0 1-.365.023z" fill="#FFF"/></g><g fill="#2399D6"><path d="M35.703 77.766c0 1.541-.187 2.935-.562 4.18-.375 1.244-.865 2.304-1.47 3.179-.603.875-1.278 1.547-2.023 2.016-.744.468-1.487.703-2.226.703-.948 0-1.737-.255-2.367-.766-.63-.51-1.097-1.224-1.399-2.14h-.172a7.69 7.69 0 0 1-.742 1.156 4.907 4.907 0 0 1-.937.922c-.35.26-.74.463-1.172.609-.432.146-.92.219-1.461.219-.646 0-1.263-.11-1.852-.328a4.215 4.215 0 0 1-1.547-1c-.442-.448-.796-1.016-1.062-1.704-.266-.687-.398-1.5-.398-2.437 0-.573.065-1.193.195-1.86a10.287 10.287 0 0 1 1.672-3.913c.432-.62.95-1.167 1.554-1.641a7.52 7.52 0 0 1 2.086-1.14c.787-.287 1.67-.43 2.649-.43.687 0 1.278.093 1.773.28.495.188.904.412 1.227.673l1.281-.672h.766l-1.625 8.156c-.032.25-.068.5-.11.75a10.583 10.583 0 0 0-.11 1.39c0 .376.056.701.165.977.11.276.253.506.43.688.177.182.382.315.617.398.234.084.482.125.742.125.469 0 .948-.187 1.438-.562.49-.375.932-.925 1.328-1.649.395-.724.721-1.612.976-2.664s.383-2.255.383-3.61c0-1.395-.224-2.627-.672-3.694-.448-1.068-1.07-1.964-1.867-2.688-.797-.724-1.75-1.27-2.86-1.64-1.109-.37-2.33-.555-3.663-.555a11.062 11.062 0 0 0-5.922 1.727 12.794 12.794 0 0 0-2.493 2.077 12.805 12.805 0 0 0-1.976 2.797A15.206 15.206 0 0 0 13 79.172c-.313 1.27-.469 2.635-.469 4.094 0 1.78.255 3.3.766 4.554.51 1.256 1.2 2.282 2.07 3.078a8.009 8.009 0 0 0 3.031 1.743c1.151.364 2.373.546 3.665.546.875 0 1.703-.075 2.484-.226a14.22 14.22 0 0 0 2.195-.602c.682-.25 1.313-.533 1.89-.851a14.595 14.595 0 0 0 1.555-.977l.75 1.156c-.53.396-1.125.784-1.78 1.165-.657.38-1.368.718-2.134 1.015-.765.297-1.588.537-2.468.719-.88.182-1.815.273-2.805.273-1.719 0-3.297-.237-4.734-.71-1.438-.475-2.675-1.19-3.711-2.149-1.037-.958-1.847-2.156-2.43-3.594-.583-1.437-.875-3.125-.875-5.062 0-1.51.164-2.95.492-4.32.328-1.37.802-2.644 1.422-3.82a14.955 14.955 0 0 1 2.25-3.196 13.792 13.792 0 0 1 2.977-2.438 14.374 14.374 0 0 1 3.601-1.554 15.206 15.206 0 0 1 4.133-.547c1.792 0 3.365.265 4.719.797 1.354.53 2.484 1.257 3.39 2.18a8.913 8.913 0 0 1 2.04 3.265c.453 1.255.68 2.607.68 4.055zm-16.422 5.062c0 1.125.227 1.961.68 2.508.453.547 1.039.82 1.758.82.541 0 1.01-.117 1.406-.351.396-.235.73-.54 1-.914.27-.375.49-.802.656-1.282.167-.479.297-.963.39-1.453l1.22-6.5c-.136-.302-.373-.536-.711-.703-.339-.167-.7-.25-1.086-.25a3.6 3.6 0 0 0-1.727.414 4.793 4.793 0 0 0-1.36 1.086c-.39.448-.726.961-1.007 1.54a12.192 12.192 0 0 0-1.094 3.54 10.85 10.85 0 0 0-.125 1.545zM46.578 88.969v1.344h-8.61v-1.344h.25c.365 0 .706-.026 1.024-.078.318-.052.594-.16.828-.32a1.68 1.68 0 0 0 .563-.696c.14-.302.21-.703.21-1.203V69.516c0-.47-.07-.847-.21-1.133a1.626 1.626 0 0 0-.57-.664 2.06 2.06 0 0 0-.836-.305 6.906 6.906 0 0 0-1.008-.07h-.25V66h5.89v7.031c0 .292-.005.597-.015.914-.01.318-.026.612-.047.883l-.063.922h.157c.958-1.938 2.526-2.906 4.703-2.906.906 0 1.71.122 2.414.367.703.245 1.294.62 1.773 1.125.48.505.844 1.154 1.094 1.945.25.792.375 1.735.375 2.828v7.563c0 .5.063.9.188 1.203.124.302.296.534.515.695.219.162.48.269.781.32.302.053.63.079.985.079h.093v1.344H51.25V79.266c0-.698-.063-1.318-.188-1.86-.124-.541-.325-1-.601-1.375a2.59 2.59 0 0 0-1.086-.851c-.448-.193-.995-.29-1.64-.29-.667 0-1.243.123-1.727.368a3.23 3.23 0 0 0-1.203 1.047c-.318.453-.555 1-.711 1.64a9.007 9.007 0 0 0-.235 2.133v6.75c0 .469.07.846.211 1.133.14.286.331.503.57.648.24.146.519.243.837.29.317.046.653.07 1.007.07h.094zM62.406 85.672c0 1 .211 1.747.633 2.242.422.495 1.076.742 1.961.742.646 0 1.232-.104 1.758-.312a3.746 3.746 0 0 0 1.344-.89c.37-.386.653-.855.851-1.407a5.433 5.433 0 0 0 .297-1.844V81.61l-2.047.094c-.906.042-1.664.154-2.273.336-.61.182-1.102.438-1.477.766a2.744 2.744 0 0 0-.805 1.21c-.161.48-.242 1.032-.242 1.657zm3.875-11.234c-.614 0-1.112.085-1.492.257-.38.172-.677.414-.89.727a2.764 2.764 0 0 0-.43 1.11c-.073.426-.11.89-.11 1.39-.885 0-1.56-.151-2.023-.453-.464-.302-.695-.823-.695-1.563 0-.552.15-1.02.453-1.406.302-.385.716-.7 1.242-.945s1.138-.425 1.836-.54a13.797 13.797 0 0 1 2.234-.171c.98 0 1.834.096 2.563.289.729.193 1.338.508 1.828.945.49.438.857 1.008 1.101 1.711.245.703.368 1.565.368 2.586v8.297c0 .448.036.818.109 1.11.073.29.188.525.344.702.156.177.362.302.617.375.255.073.56.11.914.11h.094v1.344h-4.328l-.5-2.75h-.266c-.333.447-.656.859-.969 1.234a5.642 5.642 0 0 1-1.031.969c-.375.27-.8.481-1.273.632-.474.151-1.045.227-1.711.227a6.214 6.214 0 0 1-1.977-.305 4.162 4.162 0 0 1-1.578-.937c-.443-.422-.79-.953-1.04-1.594-.25-.64-.374-1.398-.374-2.273 0-1.698.604-2.959 1.812-3.782 1.209-.823 3.037-1.27 5.485-1.343l2.656-.094v-1.922c0-.573-.031-1.102-.094-1.586-.062-.484-.198-.901-.406-1.25a2.098 2.098 0 0 0-.898-.812c-.391-.193-.915-.29-1.57-.29zM93.797 73.156V74.5h-.094c-.312 0-.58.034-.805.102a1.419 1.419 0 0 0-.609.382 2.914 2.914 0 0 0-.508.766c-.156.323-.328.74-.515 1.25l-4.86 13.438a54.208 54.208 0 0 1-1.062 2.718c-.334.781-.683 1.45-1.047 2.008a6.306 6.306 0 0 1-1.195 1.383 5.299 5.299 0 0 1-1.477.875 7.528 7.528 0 0 1-1.906.453c-.719.083-1.552.125-2.5.125h-.281v-1.516c1.083 0 2.015-.161 2.796-.484a6.21 6.21 0 0 0 2.024-1.328 7.427 7.427 0 0 0 1.422-1.992c.38-.766.7-1.597.96-2.493L78.22 76.204a6.188 6.188 0 0 0-.422-.82 2.065 2.065 0 0 0-.461-.524 1.492 1.492 0 0 0-.594-.28 3.597 3.597 0 0 0-.805-.079h-.093v-1.344h7.687V74.5h-.094c-.645 0-1.127.125-1.445.375-.318.25-.476.64-.476 1.172 0 .177.018.357.054.539.037.182.102.393.196.633l2.343 5.703c.146.364.3.763.461 1.195.162.432.313.86.453 1.281.141.422.269.82.383 1.196.115.375.193.698.235.969h.093c.115-.47.274-1.04.477-1.711.203-.672.44-1.394.71-2.165l2.141-6.234c.094-.26.165-.51.211-.75.047-.24.07-.448.07-.625 0-.552-.174-.953-.523-1.203-.349-.25-.877-.375-1.586-.375h-.093v-1.344h6.656zM109.031 73.25l3.203 9.484c.125.386.258.8.399 1.243.14.442.273.88.398 1.312.125.432.24.841.344 1.227.104.385.182.713.234.984h.094c.094-.531.245-1.185.453-1.96.209-.777.474-1.68.797-2.712l1.594-5.156c.083-.271.154-.56.21-.867.058-.308.087-.55.087-.727 0-.552-.175-.953-.524-1.203-.349-.25-.882-.375-1.601-.375h-.219v-1.344h6.844V74.5h-.406c-.313 0-.584.031-.813.094-.23.062-.435.185-.617.367a2.776 2.776 0 0 0-.508.758c-.156.323-.313.75-.469 1.281l-4.125 13.313h-2.562l-3.813-11.266-.578-2.11-4.531 13.376h-2.531l-4.188-14.11a4.773 4.773 0 0 0-.39-.828 1.84 1.84 0 0 0-.47-.523 1.623 1.623 0 0 0-.609-.274c-.229-.052-.5-.078-.812-.078h-.094v-1.344h7.906V74.5h-.421c-.636 0-1.115.094-1.438.281-.323.188-.484.542-.484 1.063 0 .177.028.39.086.64.057.25.117.495.18.735l1.5 5.375c.103.385.213.807.327 1.265.115.459.222.914.32 1.368.1.453.19.877.274 1.273.083.396.151.73.203 1h.094c.052-.27.122-.586.21-.945.09-.36.194-.745.313-1.157.12-.411.248-.83.383-1.257.136-.427.271-.834.406-1.22l3.329-9.671h2.015zM122.531 88.969c.354 0 .69-.024 1.008-.07a2.21 2.21 0 0 0 .836-.29c.24-.145.43-.362.57-.648.14-.287.211-.664.211-1.133v-10.14c0-.47-.07-.847-.21-1.133a1.626 1.626 0 0 0-.571-.664 2.147 2.147 0 0 0-.836-.313 6.228 6.228 0 0 0-1.008-.078h-.094v-1.344h5.72v13.516c0 .5.07.9.21 1.203.14.302.328.534.563.695.234.162.513.269.836.32.323.053.661.079 1.015.079h.422v1.344h-9.094v-1.344h.422zm2.172-21c0-.375.047-.688.14-.938.094-.25.225-.453.391-.61.167-.155.36-.265.579-.327a2.61 2.61 0 0 1 .718-.094c.25 0 .485.031.703.094.22.062.41.172.57.328.162.156.292.36.391.61.1.25.149.562.149.937s-.05.687-.149.937c-.099.25-.229.453-.39.61a1.406 1.406 0 0 1-.57.336 2.366 2.366 0 0 1-.704.101c-.26 0-.5-.034-.719-.101a1.47 1.47 0 0 1-.578-.336 1.578 1.578 0 0 1-.39-.61c-.094-.25-.14-.562-.14-.937zM142.453 80.016l4.266 6.328c.552.854 1.101 1.505 1.648 1.953.547.448 1.18.672 1.899.672h.093v1.344h-.453c-.927 0-1.69-.03-2.289-.086-.599-.058-1.117-.193-1.554-.407a3.893 3.893 0 0 1-1.204-.937c-.364-.412-.77-.972-1.218-1.68l-3.203-5.016-2.36 1.75v2.891c0 .469.07.846.211 1.133.14.286.33.503.57.648.24.146.519.243.836.29.318.046.654.07 1.008.07h.094v1.344h-8.61v-1.344h.25c.365 0 .706-.026 1.024-.078.318-.052.594-.16.828-.32a1.68 1.68 0 0 0 .563-.696c.14-.302.21-.703.21-1.203V69.516c0-.47-.07-.847-.21-1.133a1.626 1.626 0 0 0-.57-.664 2.06 2.06 0 0 0-.837-.305 6.906 6.906 0 0 0-1.007-.07h-.25V66h5.89v12.344a54.357 54.357 0 0 1-.063 2.453l-.062 1.578 4-4.375c.344-.385.628-.724.852-1.016.224-.291.403-.546.539-.765.135-.219.229-.414.281-.586.052-.172.078-.336.078-.492 0-.271-.127-.446-.383-.524-.255-.078-.648-.117-1.18-.117v-1.344h7.063V74.5c-.74 0-1.466.26-2.18.781-.713.521-1.487 1.255-2.32 2.203l-2.25 2.532zM151.484 88.969c.355 0 .69-.024 1.008-.07a2.21 2.21 0 0 0 .836-.29c.24-.145.43-.362.57-.648.141-.287.211-.664.211-1.133v-10.14c0-.47-.07-.847-.21-1.133a1.626 1.626 0 0 0-.57-.664 2.147 2.147 0 0 0-.837-.313 6.228 6.228 0 0 0-1.008-.078h-.093v-1.344h5.718v13.516c0 .5.07.9.211 1.203.14.302.328.534.563.695.234.162.513.269.836.32.323.053.661.079 1.015.079h.422v1.344h-9.094v-1.344h.422zm2.172-21c0-.375.047-.688.14-.938.095-.25.225-.453.392-.61.166-.155.359-.265.578-.327a2.61 2.61 0 0 1 .718-.094c.25 0 .485.031.703.094.22.062.41.172.57.328.162.156.292.36.391.61.1.25.149.562.149.937s-.05.687-.149.937c-.099.25-.229.453-.39.61a1.406 1.406 0 0 1-.57.336 2.366 2.366 0 0 1-.704.101c-.26 0-.5-.034-.718-.101a1.47 1.47 0 0 1-.578-.336 1.578 1.578 0 0 1-.391-.61c-.094-.25-.14-.562-.14-.937zM30.023 92.531h7.368v2.094h-7.368z"/><path d="M37.39 92.531h20.313v2.094H37.391zM57.703 92.531H75.72v2.094H57.703z"/><path d="M75.719 92.531h4.52v2.094h-4.52zM89.277 92.531h4.52v2.094h-4.52zM93.797 92.531h27.578v2.094H93.797zM121.375 92.531h10.234v2.094h-10.234zM131.61 92.531h18.718v2.094H131.61zM150.328 92.531h9.828v2.094h-9.828z"/></g></g></svg>