<svg width="380" height="100" xmlns="http://www.w3.org/2000/svg"><defs><linearGradient x1="50%" y1="100%" x2="50%" y2="0%" id="a"><stop stop-color="#1D93D2" offset="0%"/><stop stop-color="#38B0E3" offset="100%"/></linearGradient></defs><g fill="none" fill-rule="nonzero"><g fill="#000"><path d="M23.352 37.36c0 .5.07.9.21 1.203.141.302.329.533.563.695.234.161.513.268.836.32.323.052.661.078 1.016.078h.734V41h-9.953v-1.344h.734c.354 0 .69-.023 1.008-.07a2.21 2.21 0 0 0 .836-.29c.24-.145.43-.361.57-.648.14-.286.211-.664.211-1.132V19.75h-3.062c-.47 0-.862.07-1.18.21a2.14 2.14 0 0 0-.781.571c-.203.24-.354.518-.453.836-.1.318-.17.654-.211 1.008l-.172 1.375h-1.656l.156-5.594h18.015l.157 5.594h-1.657l-.156-1.375a5.164 5.164 0 0 0-.219-1.008 2.54 2.54 0 0 0-.453-.836 2.057 2.057 0 0 0-.78-.57c-.324-.14-.725-.211-1.204-.211h-3.11v17.61zM40.367 25.25c-1.187 0-2.101.482-2.742 1.445-.64.964-1.018 2.373-1.133 4.227h7.36c0-.844-.063-1.615-.188-2.313-.125-.698-.323-1.297-.594-1.797-.27-.5-.627-.885-1.07-1.156-.443-.27-.987-.406-1.633-.406zm.39 16.063c-1.155 0-2.194-.196-3.116-.586-.922-.391-1.7-.961-2.336-1.711-.636-.75-1.123-1.67-1.461-2.758-.339-1.089-.508-2.326-.508-3.711 0-2.99.615-5.24 1.844-6.75 1.229-1.51 2.979-2.266 5.25-2.266 1.03 0 1.958.162 2.78.485.824.323 1.522.804 2.095 1.445.573.64 1.013 1.437 1.32 2.39.307.954.46 2.06.46 3.32v1.47H36.43c.02 1.166.138 2.169.351 3.007.214.839.521 1.53.922 2.07.401.542.893.94 1.477 1.196.583.255 1.255.383 2.015.383a6.02 6.02 0 0 0 1.54-.188 5.824 5.824 0 0 0 1.288-.5 5.32 5.32 0 0 0 1.024-.71c.297-.266.539-.545.726-.837.146.063.284.193.415.391.13.198.195.432.195.703 0 .323-.115.67-.344 1.04-.23.37-.578.71-1.047 1.023-.469.312-1.054.573-1.758.781-.703.208-1.528.313-2.476.313zM49.523 39.656c.365 0 .706-.026 1.024-.078.318-.052.594-.159.828-.32a1.68 1.68 0 0 0 .563-.696c.14-.302.21-.703.21-1.203V20.203c0-.469-.07-.846-.21-1.133a1.626 1.626 0 0 0-.57-.664 2.06 2.06 0 0 0-.837-.304 6.906 6.906 0 0 0-1.008-.07h-.406v-1.345h6.047V37.36c0 .5.068.901.203 1.203.136.303.323.534.563.696.24.161.518.268.836.32.317.052.658.078 1.023.078h.406V41h-9.078v-1.344h.406zM67.414 25.25c-1.187 0-2.101.482-2.742 1.445-.64.964-1.018 2.373-1.133 4.227h7.36c0-.844-.063-1.615-.188-2.313-.125-.698-.323-1.297-.594-1.797-.27-.5-.627-.885-1.07-1.156-.443-.27-.987-.406-1.633-.406zm.39 16.063c-1.156 0-2.195-.196-3.116-.586-.922-.391-1.701-.961-2.336-1.711-.636-.75-1.123-1.67-1.461-2.758-.339-1.089-.508-2.326-.508-3.711 0-2.99.614-5.24 1.844-6.75 1.229-1.51 2.979-2.266 5.25-2.266 1.03 0 1.958.162 2.78.485.824.323 1.522.804 2.095 1.445.572.64 1.013 1.437 1.32 2.39.307.954.46 2.06.46 3.32v1.47H63.478c.02 1.166.138 2.169.351 3.007.214.839.521 1.53.922 2.07.401.542.893.94 1.477 1.196.583.255 1.255.383 2.015.383a6.02 6.02 0 0 0 1.54-.188 5.824 5.824 0 0 0 1.288-.5 5.32 5.32 0 0 0 1.024-.71c.297-.266.539-.545.726-.837.146.063.284.193.414.391s.196.432.196.703c0 .323-.115.67-.344 1.04-.23.37-.578.71-1.047 1.023-.469.312-1.055.573-1.758.781-.703.208-1.528.313-2.476.313zM92.57 24.516c0 .229-.034.445-.101.648-.068.203-.17.38-.305.531a1.42 1.42 0 0 1-.523.36 1.971 1.971 0 0 1-.758.133c0-.125-.016-.25-.047-.375a1.031 1.031 0 0 0-.164-.352.853.853 0 0 0-.32-.266 1.192 1.192 0 0 0-.532-.101c-.27 0-.515.031-.734.093a2.368 2.368 0 0 0-.64.297c.364.448.663.977.898 1.586.234.61.351 1.373.351 2.29 0 .791-.12 1.523-.36 2.195a4.777 4.777 0 0 1-1.07 1.742c-.473.49-1.072.872-1.796 1.148-.724.276-1.57.414-2.54.414-.124 0-.265-.002-.421-.007l-.469-.016a5.396 5.396 0 0 1-.437-.031 36.425 36.425 0 0 1-.329-.04 5.516 5.516 0 0 0-.593.344 2.592 2.592 0 0 0-.492.422c-.141.157-.253.334-.336.532a1.675 1.675 0 0 0-.125.656c0 .26.049.468.148.625.099.156.237.278.414.367.177.088.388.146.633.172.245.026.508.039.789.039h3.625c.958 0 1.77.12 2.437.36.667.239 1.211.57 1.633.991.422.422.73.928.922 1.516.193.589.29 1.227.29 1.914 0 .917-.17 1.745-.509 2.484a4.812 4.812 0 0 1-1.554 1.883c-.698.516-1.581.914-2.649 1.196-1.067.28-2.325.422-3.773.422-2.23 0-3.896-.412-5-1.235-1.104-.823-1.656-1.969-1.656-3.437 0-.625.109-1.172.328-1.641.218-.469.513-.87.883-1.203.37-.333.794-.604 1.273-.813.48-.208.984-.359 1.516-.453a3.112 3.112 0 0 1-.641-.375 2.877 2.877 0 0 1-.969-1.312 2.682 2.682 0 0 1-.156-.938c0-.635.167-1.185.5-1.648.333-.464.865-.914 1.594-1.352a4.113 4.113 0 0 1-1.227-.773 4.727 4.727 0 0 1-.906-1.125A5.504 5.504 0 0 1 78.109 31a6.113 6.113 0 0 1-.195-1.547c0-.927.125-1.755.375-2.484.25-.73.625-1.35 1.125-1.86s1.125-.9 1.875-1.172c.75-.27 1.63-.406 2.64-.406a7.542 7.542 0 0 1 2.18.32c.318.1.605.212.86.337.255.125.46.255.617.39.156-.167.338-.351.547-.555.208-.203.443-.39.703-.562a4.21 4.21 0 0 1 .852-.43c.307-.114.638-.172.992-.172.323 0 .601.045.836.133.234.089.43.209.586.36.156.15.273.328.351.53.078.204.117.415.117.634zm-13.5 19.297c0 .468.063.906.188 1.312s.344.755.656 1.047c.313.292.734.52 1.266.687.53.167 1.203.25 2.015.25 1.146 0 2.091-.096 2.836-.289.745-.192 1.336-.46 1.774-.804.437-.344.744-.753.922-1.227.177-.474.265-.992.265-1.555 0-.49-.07-.893-.21-1.21a1.701 1.701 0 0 0-.626-.75c-.276-.183-.617-.31-1.023-.383a8.032 8.032 0 0 0-1.406-.11h-3.141c-.448 0-.883.04-1.305.117a2.982 2.982 0 0 0-1.125.446 2.33 2.33 0 0 0-.789.922c-.198.395-.297.911-.297 1.547zm1.86-14.454c0 1.365.226 2.365.68 3 .453.636 1.195.953 2.226.953.52 0 .96-.078 1.32-.234.36-.156.654-.396.883-.719.23-.323.393-.737.492-1.242.1-.505.149-1.107.149-1.805 0-1.437-.22-2.5-.657-3.187-.437-.688-1.177-1.031-2.218-1.031-1.032 0-1.769.351-2.211 1.054-.443.704-.664 1.774-.664 3.211zM103.258 41h-9.235v-1.344h.094c.365 0 .706-.026 1.024-.078.317-.052.593-.159.828-.32a1.68 1.68 0 0 0 .562-.696c.14-.302.211-.703.211-1.203v-9.984c0-.469-.07-.846-.21-1.133a1.626 1.626 0 0 0-.571-.664 2.147 2.147 0 0 0-.836-.312 6.228 6.228 0 0 0-1.008-.078h-.094v-1.344h4.922l.61 3.172h.156c.208-.48.422-.93.64-1.352.22-.422.488-.792.805-1.11.318-.317.711-.567 1.18-.75.469-.182 1.057-.273 1.766-.273 1.166 0 2.033.203 2.601.61.568.406.852.979.852 1.718 0 .334-.055.641-.164.922-.11.282-.284.524-.524.727a2.48 2.48 0 0 1-.922.469c-.375.109-.833.164-1.375.164 0-.886-.125-1.524-.375-1.914-.25-.391-.687-.586-1.312-.586-.396 0-.75.112-1.063.336-.312.224-.586.52-.82.89-.234.37-.432.794-.594 1.274-.161.479-.291.971-.39 1.476-.1.505-.17 1.008-.211 1.508-.042.5-.063.953-.063 1.36v5.03c0 .47.07.847.211 1.133.14.287.33.503.57.649.24.146.519.242.836.289.318.047.654.07 1.008.07h.89V41zM112.742 36.36c0 1 .211 1.747.633 2.242.422.494 1.076.742 1.96.742.647 0 1.233-.104 1.759-.313a3.746 3.746 0 0 0 1.344-.89c.37-.386.653-.855.851-1.407a5.433 5.433 0 0 0 .297-1.843v-2.594l-2.047.094c-.906.041-1.664.153-2.273.336-.61.182-1.102.437-1.477.765a2.744 2.744 0 0 0-.805 1.211c-.161.48-.242 1.031-.242 1.656zm3.875-11.235c-.614 0-1.112.086-1.492.258-.38.172-.677.414-.89.726a2.764 2.764 0 0 0-.43 1.11c-.073.427-.11.89-.11 1.39-.885 0-1.56-.15-2.023-.453-.464-.302-.695-.823-.695-1.562 0-.552.15-1.021.453-1.407.302-.385.716-.7 1.242-.945s1.138-.424 1.836-.539a13.797 13.797 0 0 1 2.234-.172c.98 0 1.834.097 2.563.29.729.192 1.338.507 1.828.945.49.437.857 1.007 1.101 1.71.245.704.368 1.566.368 2.587v8.296c0 .448.036.818.109 1.11.073.291.187.526.344.703.156.177.362.302.617.375.255.073.56.11.914.11h.094V41h-4.328l-.5-2.75h-.266c-.333.448-.656.86-.969 1.234a5.642 5.642 0 0 1-1.031.97c-.375.27-.8.48-1.273.632-.474.151-1.045.227-1.711.227a6.214 6.214 0 0 1-1.977-.305 4.162 4.162 0 0 1-1.578-.938c-.443-.422-.79-.953-1.04-1.593-.25-.641-.374-1.399-.374-2.274 0-1.698.604-2.958 1.812-3.781 1.209-.823 3.037-1.271 5.485-1.344l2.656-.094v-1.922c0-.572-.031-1.101-.094-1.585-.062-.485-.198-.901-.406-1.25a2.098 2.098 0 0 0-.898-.813c-.391-.193-.915-.289-1.57-.289zM135.555 39.656V41h-8.61v-1.344h.422c.365 0 .698-.026 1-.078.302-.052.563-.159.781-.32.22-.162.388-.393.508-.696.12-.302.18-.703.18-1.203v-9.984c0-.469-.063-.846-.188-1.133a1.557 1.557 0 0 0-.515-.664 1.87 1.87 0 0 0-.781-.312 5.803 5.803 0 0 0-.985-.078h-.094v-1.344h5.016l.422 2.593h.156c.323-.593.662-1.08 1.016-1.46.354-.38.732-.678 1.133-.891.4-.214.823-.36 1.265-.438a8.135 8.135 0 0 1 1.414-.117c.521 0 1.016.052 1.485.157.468.104.903.27 1.304.5.401.229.76.528 1.079.898.317.37.575.82.773 1.352h.266c.322-.594.671-1.081 1.046-1.461.375-.38.774-.678 1.196-.891.422-.214.864-.36 1.328-.438a8.686 8.686 0 0 1 1.445-.117c.813 0 1.542.123 2.188.367.646.245 1.192.62 1.64 1.125.448.506.792 1.154 1.032 1.946.24.791.359 1.734.359 2.828v7.562c0 .5.062.901.187 1.203.125.303.297.534.516.696.219.161.48.268.781.32.302.052.63.078.985.078h.093V41h-5.562V29.953a8.66 8.66 0 0 0-.18-1.86c-.12-.54-.312-1-.578-1.374a2.518 2.518 0 0 0-1.039-.852c-.427-.193-.948-.289-1.562-.289-.667 0-1.227.128-1.68.383-.453.255-.82.602-1.102 1.039a4.465 4.465 0 0 0-.601 1.516 8.92 8.92 0 0 0-.18 1.828v7.015c0 .5.063.901.188 1.203.125.303.296.534.515.696.219.161.48.268.781.32.303.052.63.078.985.078h.094V41h-5.563V29.953a8.66 8.66 0 0 0-.18-1.86c-.12-.54-.312-1-.578-1.374a2.518 2.518 0 0 0-1.039-.852c-.427-.193-.948-.289-1.562-.289-.698 0-1.284.14-1.758.422a3.298 3.298 0 0 0-1.149 1.14 5.07 5.07 0 0 0-.625 1.657 10.021 10.021 0 0 0-.187 1.969v6.75c0 .468.07.846.21 1.132.142.287.332.503.571.649.24.146.518.242.836.289.318.047.654.07 1.008.07h.094zM157.086 33.484v-2.406h8.328v2.406zM184.445 41c-.812 0-1.51-.042-2.093-.125-.584-.083-1.092-.237-1.524-.46a3.802 3.802 0 0 1-1.148-.923c-.334-.39-.662-.893-.985-1.508l-1.578-3.093a6.44 6.44 0 0 0-.703-1.125c-.23-.282-.497-.5-.805-.657a3.281 3.281 0 0 0-1.086-.312 12.635 12.635 0 0 0-1.53-.078v4.797c0 .468.07.846.21 1.132.14.287.33.503.57.649.24.146.519.242.836.289.318.047.654.07 1.008.07h.094V41h-8.922v-1.344h.578c.354 0 .693-.026 1.016-.078.323-.052.601-.159.836-.32a1.68 1.68 0 0 0 .562-.696c.14-.302.211-.703.211-1.203v-9.984c0-.469-.07-.846-.21-1.133a1.626 1.626 0 0 0-.571-.664 2.147 2.147 0 0 0-.836-.312 6.228 6.228 0 0 0-1.008-.078h-.578v-1.344h8.922v1.343h-.094c-.344 0-.674.024-.992.07-.318.048-.596.141-.836.282-.24.14-.432.344-.578.61-.146.265-.219.617-.219 1.054v4.031c.313 0 .584-.013.813-.039.229-.026.43-.065.601-.117.172-.052.328-.12.469-.203.14-.083.273-.188.398-.313.271-.25.589-.65.954-1.203.364-.552.822-1.24 1.375-2.062.364-.563.705-1.068 1.023-1.516a6.614 6.614 0 0 1 1.008-1.14c.354-.313.75-.555 1.187-.727.438-.172.964-.258 1.578-.258.907 0 1.592.18 2.055.54.464.359.695.83.695 1.413 0 .302-.041.568-.125.797-.083.23-.195.427-.335.594-.141.167-.305.302-.493.406a2.06 2.06 0 0 1-.578.219 3.078 3.078 0 0 0-.203-.688 2.043 2.043 0 0 0-.36-.57 1.619 1.619 0 0 0-1.234-.54c-.52.001-1 .202-1.437.603-.438.4-.927 1.013-1.469 1.836-.292.427-.552.8-.781 1.117a24 24 0 0 1-.64.851c-.199.25-.391.467-.579.649a4.8 4.8 0 0 1-.594.492c.5.02.938.096 1.313.227.375.13.716.31 1.023.539.308.229.586.513.836.851.25.339.495.727.735 1.164l1.671 2.938c.5.906 1.042 1.56 1.625 1.96a3.37 3.37 0 0 0 1.954.602h.093V41h-1.125zM190.602 36.36c0 1 .21 1.747.632 2.242.422.494 1.076.742 1.961.742.646 0 1.232-.104 1.758-.313a3.746 3.746 0 0 0 1.344-.89c.37-.386.654-.855.851-1.407a5.433 5.433 0 0 0 .297-1.843v-2.594l-2.047.094c-.906.041-1.664.153-2.273.336-.61.182-1.102.437-1.477.765a2.744 2.744 0 0 0-.804 1.211c-.162.48-.242 1.031-.242 1.656zm3.875-11.235c-.615 0-1.112.086-1.493.258-.38.172-.677.414-.89.726a2.764 2.764 0 0 0-.43 1.11c-.073.427-.11.89-.11 1.39-.885 0-1.56-.15-2.023-.453-.463-.302-.695-.823-.695-1.562 0-.552.151-1.021.453-1.407.302-.385.716-.7 1.242-.945s1.138-.424 1.836-.539a13.797 13.797 0 0 1 2.235-.172c.979 0 1.833.097 2.562.29.73.192 1.339.507 1.828.945.49.437.857 1.007 1.102 1.71.245.704.367 1.566.367 2.587v8.296c0 .448.036.818.11 1.11.072.291.187.526.343.703.156.177.362.302.617.375.255.073.56.11.914.11h.094V41h-4.328l-.5-2.75h-.266c-.333.448-.656.86-.968 1.234a5.642 5.642 0 0 1-1.032.97c-.375.27-.8.48-1.273.632-.474.151-1.044.227-1.711.227a6.214 6.214 0 0 1-1.977-.305 4.162 4.162 0 0 1-1.578-.938c-.442-.422-.789-.953-1.039-1.593-.25-.641-.375-1.399-.375-2.274 0-1.698.604-2.958 1.813-3.781 1.208-.823 3.036-1.271 5.484-1.344l2.656-.094v-1.922c0-.572-.03-1.101-.093-1.585-.063-.485-.198-.901-.407-1.25a2.098 2.098 0 0 0-.898-.813c-.39-.193-.914-.289-1.57-.289zM225.195 23.844v1.343h-.422c-.354 0-.69.024-1.007.07a2.131 2.131 0 0 0-.836.298c-.24.15-.43.37-.57.656-.141.286-.212.664-.212 1.133v10.172c0 .468.07.846.211 1.132.141.287.331.503.57.649.24.146.519.242.837.289.317.047.653.07 1.007.07h.422V41h-8.765v-1.344h.093c.355 0 .69-.023 1.008-.07a2.21 2.21 0 0 0 .836-.29c.24-.145.43-.361.57-.648.141-.286.211-.664.211-1.132v-4.578h-8.453v4.578c0 .468.07.846.211 1.132.14.287.331.503.57.649.24.146.519.242.837.289.317.047.653.07 1.007.07h.094V41h-8.766v-1.344h.422c.354 0 .69-.023 1.008-.07a2.21 2.21 0 0 0 .836-.29c.24-.145.43-.361.57-.648.141-.286.211-.664.211-1.132V27.375c0-.469-.07-.846-.21-1.133a1.626 1.626 0 0 0-.57-.664 2.147 2.147 0 0 0-.837-.312 6.228 6.228 0 0 0-1.008-.078h-.422v-1.344h8.766v1.343h-.094c-.354 0-.69.024-1.007.07a2.131 2.131 0 0 0-.836.298c-.24.15-.43.37-.57.656-.141.286-.212.664-.212 1.133v4.125h8.453v-4.094c0-.469-.07-.846-.21-1.133a1.626 1.626 0 0 0-.57-.664 2.147 2.147 0 0 0-.837-.312 6.228 6.228 0 0 0-1.008-.078h-.093v-1.344h8.765zM230.633 36.36c0 1 .21 1.747.633 2.242.422.494 1.075.742 1.96.742.646 0 1.232-.104 1.758-.313a3.746 3.746 0 0 0 1.344-.89c.37-.386.654-.855.852-1.407a5.433 5.433 0 0 0 .297-1.843v-2.594l-2.047.094c-.907.041-1.664.153-2.274.336-.61.182-1.101.437-1.476.765a2.744 2.744 0 0 0-.805 1.211c-.161.48-.242 1.031-.242 1.656zm3.875-11.235c-.615 0-1.112.086-1.492.258-.38.172-.677.414-.891.726a2.764 2.764 0 0 0-.43 1.11c-.073.427-.11.89-.11 1.39-.884 0-1.559-.15-2.022-.453-.464-.302-.696-.823-.696-1.562 0-.552.151-1.021.453-1.407.302-.385.716-.7 1.243-.945.526-.245 1.138-.424 1.835-.539a13.797 13.797 0 0 1 2.235-.172c.979 0 1.833.097 2.562.29.73.192 1.339.507 1.828.945.49.437.857 1.007 1.102 1.71.245.704.367 1.566.367 2.587v8.296c0 .448.037.818.11 1.11.072.291.187.526.343.703.157.177.362.302.618.375.255.073.56.11.914.11h.093V41h-4.328l-.5-2.75h-.265c-.334.448-.657.86-.97 1.234a5.642 5.642 0 0 1-1.03.97c-.375.27-.8.48-1.274.632-.474.151-1.044.227-1.71.227a6.214 6.214 0 0 1-1.977-.305 4.162 4.162 0 0 1-1.578-.938c-.443-.422-.79-.953-1.04-1.593-.25-.641-.375-1.399-.375-2.274 0-1.698.605-2.958 1.813-3.781s3.036-1.271 5.484-1.344l2.657-.094v-1.922c0-.572-.032-1.101-.094-1.585-.063-.485-.198-.901-.406-1.25a2.098 2.098 0 0 0-.899-.813c-.39-.193-.914-.289-1.57-.289zM251.305 27.172c0-.427-.07-.768-.211-1.024a1.585 1.585 0 0 0-.57-.601 2.21 2.21 0 0 0-.836-.29 6.906 6.906 0 0 0-1.008-.07h-.422v-1.343h15.047v1.343h-.422c-.354 0-.69.024-1.008.07a2.131 2.131 0 0 0-.836.298c-.24.15-.43.37-.57.656-.14.286-.211.664-.211 1.133v10.172c0 .468.07.846.21 1.132.141.287.331.503.571.649.24.146.518.242.836.289.318.047.654.07 1.008.07h.422V41h-8.766v-1.344h.094c.354 0 .69-.023 1.008-.07a2.21 2.21 0 0 0 .836-.29c.24-.145.43-.361.57-.648.14-.286.21-.664.21-1.132V25.313h-4.124a91.757 91.757 0 0 1-.797 5.765 59.353 59.353 0 0 1-.508 2.633 35.504 35.504 0 0 1-.586 2.336c-.291.969-.588 1.784-.89 2.445-.303.662-.638 1.196-1.008 1.602a3.18 3.18 0 0 1-1.25.867c-.464.172-.992.258-1.586.258-.854 0-1.495-.196-1.922-.586-.427-.39-.64-.94-.64-1.649 0-.552.124-1.015.374-1.39s.594-.563 1.032-.563c0 .146.03.305.093.477s.16.333.29.484c.13.151.294.279.492.383.197.104.427.156.687.156.302 0 .586-.044.852-.133.265-.088.528-.289.789-.601.26-.313.518-.766.773-1.36.255-.593.518-1.395.79-2.406.124-.437.254-.966.39-1.586.135-.62.263-1.252.383-1.898.12-.646.218-1.268.297-1.867.078-.6.117-1.102.117-1.508z"/></g><g fill="#2399D6"><path d="M89.46 70.453c0 1.542-.187 2.935-.562 4.18-.375 1.245-.864 2.305-1.468 3.18-.604.874-1.279 1.546-2.024 2.015-.745.469-1.487.703-2.226.703-.948 0-1.737-.255-2.367-.765-.63-.51-1.097-1.224-1.399-2.141h-.172a7.69 7.69 0 0 1-.742 1.156 4.907 4.907 0 0 1-.937.922c-.35.26-.74.464-1.172.61-.433.145-.92.218-1.461.218-.646 0-1.263-.11-1.852-.328a4.215 4.215 0 0 1-1.547-1c-.442-.448-.797-1.016-1.062-1.703-.266-.688-.399-1.5-.399-2.438 0-.572.065-1.192.196-1.859a10.287 10.287 0 0 1 1.672-3.914c.432-.62.95-1.167 1.554-1.64a7.52 7.52 0 0 1 2.086-1.141c.787-.287 1.67-.43 2.649-.43.687 0 1.278.094 1.773.281.495.188.904.412 1.227.672l1.28-.672h.766l-1.625 8.157c-.03.25-.067.5-.109.75a10.583 10.583 0 0 0-.11 1.39c0 .375.055.7.165.977.11.276.252.505.43.687.177.183.382.315.617.399.234.083.481.125.742.125.469 0 .948-.188 1.437-.563.49-.375.933-.924 1.328-1.648.396-.724.722-1.612.977-2.664s.383-2.255.383-3.61c0-1.395-.224-2.627-.672-3.695-.448-1.068-1.07-1.963-1.867-2.687-.797-.724-1.75-1.271-2.86-1.641-1.109-.37-2.33-.555-3.664-.555a11.062 11.062 0 0 0-5.922 1.727 12.794 12.794 0 0 0-2.492 2.078 12.805 12.805 0 0 0-1.976 2.797 15.206 15.206 0 0 0-1.297 3.476c-.313 1.271-.469 2.636-.469 4.094 0 1.781.255 3.3.766 4.555.51 1.255 1.2 2.281 2.07 3.078a8.009 8.009 0 0 0 3.031 1.742c1.151.365 2.373.547 3.664.547.875 0 1.703-.076 2.485-.227a14.22 14.22 0 0 0 2.195-.601c.682-.25 1.313-.534 1.89-.852a14.595 14.595 0 0 0 1.555-.976l.75 1.156c-.53.396-1.125.784-1.78 1.164-.657.38-1.368.719-2.134 1.016-.765.297-1.588.536-2.468.718-.88.183-1.816.274-2.805.274-1.719 0-3.297-.237-4.735-.711-1.437-.474-2.674-1.19-3.71-2.148-1.037-.959-1.847-2.157-2.43-3.594-.584-1.438-.875-3.125-.875-5.063 0-1.51.164-2.95.492-4.32.328-1.37.802-2.643 1.422-3.82a14.955 14.955 0 0 1 2.25-3.196 13.792 13.792 0 0 1 2.976-2.437 14.374 14.374 0 0 1 3.602-1.555 15.206 15.206 0 0 1 4.133-.547c1.791 0 3.364.266 4.719.797 1.354.531 2.484 1.258 3.39 2.18a8.913 8.913 0 0 1 2.04 3.265c.452 1.256.679 2.607.679 4.055zm-16.42 5.063c0 1.125.226 1.96.679 2.507.453.547 1.039.82 1.758.82.541 0 1.01-.116 1.406-.35.396-.235.729-.54 1-.915.27-.375.49-.802.656-1.281.167-.48.297-.964.39-1.453l1.22-6.5c-.136-.302-.373-.537-.711-.703-.339-.167-.701-.25-1.086-.25a3.6 3.6 0 0 0-1.727.414 4.793 4.793 0 0 0-1.36 1.086c-.39.448-.726.96-1.007 1.539a12.192 12.192 0 0 0-1.094 3.54 10.85 10.85 0 0 0-.125 1.546zM100.336 81.656V83h-8.61v-1.344h.25c.365 0 .706-.026 1.024-.078.318-.052.594-.159.828-.32a1.68 1.68 0 0 0 .563-.695c.14-.303.21-.704.21-1.204V62.203c0-.469-.07-.846-.21-1.133a1.626 1.626 0 0 0-.57-.664 2.06 2.06 0 0 0-.837-.304 6.906 6.906 0 0 0-1.007-.07h-.25v-1.344h5.89v7.03c0 .292-.005.597-.015.915-.01.318-.026.612-.047.883l-.063.921h.156c.959-1.937 2.526-2.906 4.704-2.906.906 0 1.71.123 2.414.367.703.245 1.294.62 1.773 1.125.48.506.844 1.154 1.094 1.946.25.791.375 1.734.375 2.828v7.562c0 .5.062.901.187 1.204.125.302.297.533.516.695.219.161.48.268.781.32.302.052.63.078.985.078h.093V83h-5.562V71.953c0-.698-.063-1.318-.188-1.86-.125-.54-.325-1-.601-1.374a2.59 2.59 0 0 0-1.086-.852c-.448-.193-.995-.289-1.64-.289-.667 0-1.243.123-1.727.367a3.23 3.23 0 0 0-1.203 1.047c-.318.453-.555 1-.711 1.64a9.007 9.007 0 0 0-.235 2.134v6.75c0 .468.07.846.211 1.132.14.287.33.503.57.649.24.146.519.242.836.289.318.047.654.07 1.008.07h.094zM116.164 78.36c0 1 .211 1.747.633 2.242.422.494 1.075.742 1.96.742.647 0 1.233-.104 1.759-.313a3.746 3.746 0 0 0 1.343-.89c.37-.386.654-.855.852-1.407a5.433 5.433 0 0 0 .297-1.843v-2.594l-2.047.094c-.906.041-1.664.153-2.273.336-.61.182-1.102.437-1.477.765a2.744 2.744 0 0 0-.805 1.211c-.161.48-.242 1.031-.242 1.656zm3.875-11.235c-.615 0-1.112.086-1.492.258-.38.172-.677.414-.89.726a2.764 2.764 0 0 0-.43 1.11c-.073.427-.11.89-.11 1.39-.885 0-1.56-.15-2.023-.453-.464-.302-.696-.823-.696-1.562 0-.552.151-1.021.454-1.406.302-.386.716-.701 1.242-.946s1.138-.424 1.836-.539a13.797 13.797 0 0 1 2.234-.172c.98 0 1.833.097 2.563.29.729.192 1.338.507 1.828.945.49.437.856 1.007 1.101 1.71.245.704.367 1.566.367 2.587v8.296c0 .448.037.818.11 1.11.073.291.187.526.344.703.156.177.362.302.617.375.255.073.56.11.914.11h.094V83h-4.329l-.5-2.75h-.265c-.334.448-.656.86-.969 1.234a5.642 5.642 0 0 1-1.031.97c-.375.27-.8.48-1.274.632-.474.151-1.044.227-1.71.227a6.214 6.214 0 0 1-1.977-.305 4.162 4.162 0 0 1-1.578-.938c-.443-.422-.79-.953-1.04-1.593-.25-.641-.374-1.399-.374-2.274 0-1.698.604-2.958 1.812-3.781 1.209-.823 3.037-1.271 5.485-1.344l2.656-.094v-1.921c0-.573-.031-1.102-.094-1.586-.062-.485-.198-.901-.406-1.25a2.098 2.098 0 0 0-.899-.813c-.39-.193-.914-.289-1.57-.289zM147.555 65.844v1.344h-.094c-.313 0-.58.033-.805.101a1.419 1.419 0 0 0-.61.383 2.914 2.914 0 0 0-.507.766c-.156.322-.328.74-.516 1.25l-4.859 13.437a54.208 54.208 0 0 1-1.062 2.719c-.334.781-.683 1.45-1.047 2.008a6.306 6.306 0 0 1-1.196 1.382 5.299 5.299 0 0 1-1.476.875 7.528 7.528 0 0 1-1.906.454c-.72.083-1.553.124-2.5.124h-.282v-1.515c1.084 0 2.016-.162 2.797-.484a6.21 6.21 0 0 0 2.024-1.329 7.427 7.427 0 0 0 1.422-1.992c.38-.765.7-1.596.96-2.492l-5.921-13.984a6.188 6.188 0 0 0-.422-.82 2.065 2.065 0 0 0-.461-.524 1.492 1.492 0 0 0-.594-.281 3.597 3.597 0 0 0-.805-.079h-.093v-1.343h7.687v1.344h-.094c-.646 0-1.127.124-1.445.374-.318.25-.477.641-.477 1.172 0 .177.019.357.055.54.037.182.102.393.195.632l2.344 5.703c.146.365.3.763.461 1.196.162.432.313.86.453 1.28.14.423.268.821.383 1.196.115.375.193.698.234.969h.094c.115-.469.274-1.04.477-1.71.203-.673.44-1.394.71-2.165l2.141-6.234c.094-.26.164-.51.211-.75.047-.24.07-.448.07-.625 0-.552-.174-.954-.523-1.204-.349-.25-.877-.374-1.586-.374h-.094v-1.344h6.657zM162.79 65.938l3.202 9.484c.125.385.258.8.399 1.242.14.443.273.88.398 1.313.125.432.24.84.344 1.226.104.386.182.714.234.984h.094c.094-.53.245-1.184.453-1.96.208-.776.474-1.68.797-2.711l1.594-5.157c.083-.27.153-.56.21-.867.058-.307.087-.55.087-.726 0-.552-.175-.954-.524-1.204-.349-.25-.883-.374-1.601-.374h-.22v-1.344h6.845v1.344h-.407c-.312 0-.583.03-.812.093-.23.063-.435.185-.617.367a2.776 2.776 0 0 0-.508.758c-.156.323-.313.75-.469 1.281L168.164 83h-2.562l-3.813-11.266-.578-2.109L156.68 83h-2.532l-4.187-14.11a4.773 4.773 0 0 0-.39-.828 1.84 1.84 0 0 0-.47-.523 1.623 1.623 0 0 0-.609-.273c-.229-.052-.5-.079-.812-.079h-.094v-1.343h7.906v1.344h-.422c-.635 0-1.114.093-1.437.28-.323.188-.485.542-.485 1.063 0 .177.03.39.086.64.058.25.118.496.18.735l1.5 5.375c.104.386.214.808.328 1.266.115.458.222.914.32 1.367.1.453.19.878.274 1.273.083.396.151.73.203 1h.094c.052-.27.122-.585.21-.945.09-.36.193-.745.313-1.156.12-.412.248-.83.383-1.258.135-.427.27-.833.406-1.219l3.328-9.671h2.016zM176.29 81.656c.353 0 .69-.023 1.007-.07a2.21 2.21 0 0 0 .836-.29c.24-.145.43-.361.57-.648.14-.286.211-.664.211-1.132V69.375c0-.469-.07-.846-.21-1.133a1.626 1.626 0 0 0-.571-.664 2.147 2.147 0 0 0-.836-.312 6.228 6.228 0 0 0-1.008-.079h-.094v-1.343h5.72v13.515c0 .5.07.901.21 1.204.14.302.328.533.563.695.234.161.513.268.835.32.323.052.662.078 1.016.078h.422V83h-9.094v-1.344h.422zm2.17-21c0-.375.048-.687.142-.937.093-.25.224-.453.39-.61.167-.156.36-.265.578-.328a2.61 2.61 0 0 1 .72-.093c.25 0 .483.03.702.093.219.063.409.172.57.328.162.157.292.36.391.61.1.25.149.562.149.937s-.05.688-.149.938c-.099.25-.229.453-.39.61a1.406 1.406 0 0 1-.57.335 2.366 2.366 0 0 1-.704.102c-.26 0-.5-.034-.719-.102a1.47 1.47 0 0 1-.578-.336 1.578 1.578 0 0 1-.39-.61c-.094-.25-.141-.562-.141-.937zM196.21 72.703l4.267 6.328c.552.854 1.101 1.505 1.648 1.953.547.448 1.18.672 1.898.672h.094V83h-.453c-.927 0-1.69-.029-2.289-.086-.599-.057-1.117-.193-1.555-.406a3.893 3.893 0 0 1-1.203-.938c-.364-.411-.77-.971-1.219-1.68l-3.203-5.015-2.36 1.75v2.89c0 .47.071.847.212 1.133.14.287.33.503.57.649.24.146.518.242.836.289.318.047.654.07 1.008.07h.094V83h-8.61v-1.344h.25c.365 0 .706-.026 1.024-.078.317-.052.594-.159.828-.32a1.68 1.68 0 0 0 .562-.695c.141-.303.211-.704.211-1.204V62.203c0-.469-.07-.846-.21-1.133a1.626 1.626 0 0 0-.57-.664 2.06 2.06 0 0 0-.837-.304 6.906 6.906 0 0 0-1.008-.07h-.25v-1.344h5.89V71.03a54.357 54.357 0 0 1-.063 2.453l-.061 1.579 4-4.376c.344-.385.628-.723.852-1.015.223-.292.403-.547.539-.766.135-.219.229-.414.28-.586.053-.172.079-.336.079-.492 0-.27-.128-.445-.383-.523-.255-.078-.648-.118-1.18-.118v-1.343h7.063v1.344c-.74 0-1.466.26-2.18.78-.713.522-1.487 1.256-2.32 2.204l-2.25 2.531zM205.242 81.656c.354 0 .69-.023 1.008-.07a2.21 2.21 0 0 0 .836-.29c.24-.145.43-.361.57-.648.14-.286.211-.664.211-1.132V69.375c0-.469-.07-.846-.21-1.133a1.626 1.626 0 0 0-.571-.664 2.147 2.147 0 0 0-.836-.312 6.228 6.228 0 0 0-1.008-.079h-.094v-1.343h5.72v13.515c0 .5.07.901.21 1.204.14.302.328.533.563.695.234.161.513.268.836.32.322.052.661.078 1.015.078h.422V83h-9.094v-1.344h.422zm2.172-21c0-.375.047-.687.14-.937.094-.25.225-.453.391-.61.167-.156.36-.265.578-.328a2.61 2.61 0 0 1 .72-.093c.25 0 .484.03.702.093.22.063.41.172.57.328.162.157.292.36.391.61.1.25.149.562.149.937s-.05.688-.149.938c-.099.25-.229.453-.39.61a1.406 1.406 0 0 1-.57.335 2.366 2.366 0 0 1-.704.102c-.26 0-.5-.034-.719-.102a1.47 1.47 0 0 1-.578-.336 1.578 1.578 0 0 1-.39-.61c-.094-.25-.14-.562-.14-.937zM83.781 85.219h7.367v2.094h-7.367z"/><path d="M91.148 85.219h20.313v2.094H91.148z"/><path d="M111.46 85.219h18.017v2.094H111.46zM129.477 85.219h4.52v2.094h-4.52zM143.035 85.219h4.52v2.094h-4.52zM147.555 85.219h27.578v2.094h-27.578zM175.133 85.219h10.234v2.094h-10.234z"/><path d="M185.367 85.219h18.719v2.094h-18.719zM204.086 85.219h9.828v2.094h-9.828z"/></g><g transform="translate(280)"><circle fill="url(#a)" cx="50" cy="50" r="50"/><path d="m33.333 53.024 5.955 16.409s.744 1.535 1.541 1.535c.797 0 12.653-12.28 12.653-12.28l13.185-25.355L33.546 48.79l-.213 4.235z" fill="#C8DAEA"/><path d="M42.046 58.065 40.881 69.42s-.488 3.48 3.306 0 7.426-6.163 7.426-6.163" fill="#A9C6D8"/><path d="m34.724 54.28-12.142-4.028s-1.451-.6-.984-1.959c.096-.28.29-.518.87-.928 2.691-1.91 49.796-19.151 49.796-19.151s1.33-.456 2.115-.153c.395.125.693.456.781.868.085.357.12.724.106 1.091-.004.318-.042.612-.07 1.073-.287 4.714-8.873 39.894-8.873 39.894s-.514 2.059-2.354 2.13c-.914.03-1.8-.32-2.456-.968C57.9 68.985 45.418 60.443 42.66 58.564a.538.538 0 0 1-.226-.38c-.039-.198.173-.443.173-.443S64.342 38.067 64.92 36c.045-.16-.124-.239-.351-.169-1.444.541-26.47 16.635-29.232 18.41a1.308 1.308 0 0 1-.613.039z" fill="#FFF"/></g></g></svg>