<?xml version="1.0" encoding="UTF-8"?>
<svg width="170px" height="100px" viewBox="0 0 170 100" version="1.1" xmlns="http://www.w3.org/2000/svg" xmlns:xlink="http://www.w3.org/1999/xlink">
    <title>telegram-small</title>
    <defs>
        <linearGradient x1="50%" y1="100%" x2="50%" y2="0%" id="linearGradient-1">
            <stop stop-color="#1D93D2" offset="0%"></stop>
            <stop stop-color="#38B0E3" offset="100%"></stop>
        </linearGradient>
    </defs>
    <g id="Telegram-Small" stroke="none" stroke-width="1" fill="none" fill-rule="evenodd">
        <g id="Logo" transform="translate(55.000000, 0.000000)" fill-rule="nonzero">
            <circle id="Oval" fill="url(#linearGradient-1)" cx="30" cy="30" r="30"></circle>
            <path d="M20,32.0338895 L23.572513,42.061749 C23.572513,42.061749 24.0191712,43 24.4974468,43 C24.9757224,43 32.0893818,35.4950101 32.0893818,35.4950101 L40,20 L20.1274732,29.4453652 L20,32.0338895 Z" id="Path" fill="#C8DAEA"></path>
            <path d="M25.6616672,35 L25.011388,42.0411226 C25.011388,42.0411226 24.7391892,44.1985967 26.856344,42.0411226 C28.9734988,39.8836486 31,38.2199694 31,38.2199694" id="Path" fill="#A9C6D8"></path>
            <path d="M20.8675964,32.7379291 L13.6407551,30.3294371 C13.6407551,30.3294371 12.7770678,29.9710155 13.0551751,29.1582568 C13.1124253,28.9906568 13.2279126,28.8480454 13.5733875,28.6029558 C15.1746636,27.4613074 43.2116789,17.1536584 43.2116789,17.1536584 C43.2116789,17.1536584 44.0033099,16.8808037 44.4701946,17.0622862 C44.7053455,17.136742 44.8830853,17.3349414 44.9353518,17.5809878 C44.9857994,17.7944424 45.0068956,18.0140507 44.9980309,18.2334665 C44.99581,18.4232785 44.9733541,18.5992079 44.9563271,18.8750916 C44.7855638,21.6932442 39.6754965,42.7260275 39.6754965,42.7260275 C39.6754965,42.7260275 39.3697513,43.9567765 38.2743491,43.9989289 C37.7304448,44.0168999 37.2027374,43.8080969 36.8122499,43.4204062 C34.6626558,41.5291014 27.2329714,36.4218465 25.5912253,35.298624 C25.5163026,35.2464009 25.4671622,35.1635483 25.4564901,35.0714554 C25.4335407,34.9530753 25.5593923,34.8064254 25.5593923,34.8064254 C25.5593923,34.8064254 38.4964401,23.0441402 38.8406811,21.8093526 C38.867332,21.7136894 38.7666508,21.6664888 38.631422,21.7083888 C37.7721766,22.0317254 22.8767797,31.6533252 21.2328127,32.7152122 C21.1144753,32.7518339 20.9894002,32.7596137 20.8675964,32.7379291 Z" id="Path" fill="#FFFFFF"></path>
        </g>
        <g id="@haywiki" transform="translate(10.000000, 66.000000)" fill="#2399D6" fill-rule="nonzero">
            <path d="M25.703125,11.765625 C25.703125,13.3072917 25.515625,14.7005208 25.140625,15.9453125 C24.765625,17.1901042 24.2760417,18.25 23.671875,19.125 C23.0677083,20 22.3932292,20.671875 21.6484375,21.140625 C20.9036458,21.609375 20.1614583,21.84375 19.421875,21.84375 C18.4739583,21.84375 17.6848958,21.5885417 17.0546875,21.078125 C16.4244792,20.5677083 15.9583333,19.8541667 15.65625,18.9375 L15.484375,18.9375 C15.265625,19.3541667 15.0182292,19.7395833 14.7421875,20.09375 C14.4661458,20.4479167 14.1536458,20.7552083 13.8046875,21.015625 C13.4557292,21.2760417 13.0651042,21.4791667 12.6328125,21.625 C12.2005208,21.7708333 11.7135417,21.84375 11.171875,21.84375 C10.5260417,21.84375 9.90885417,21.734375 9.3203125,21.515625 C8.73177083,21.296875 8.21614583,20.9635417 7.7734375,20.515625 C7.33072917,20.0677083 6.9765625,19.5 6.7109375,18.8125 C6.4453125,18.125 6.3125,17.3125 6.3125,16.375 C6.3125,15.8020833 6.37760417,15.1822917 6.5078125,14.515625 C6.63802083,13.8489583 6.84114583,13.1848958 7.1171875,12.5234375 C7.39322917,11.8619792 7.74739583,11.2213542 8.1796875,10.6015625 C8.61197917,9.98177083 9.13020833,9.43489583 9.734375,8.9609375 C10.3385417,8.48697917 11.0338542,8.10677083 11.8203125,7.8203125 C12.6067708,7.53385417 13.4895833,7.390625 14.46875,7.390625 C15.15625,7.390625 15.7473958,7.484375 16.2421875,7.671875 C16.7369792,7.859375 17.1458333,8.08333333 17.46875,8.34375 L18.75,7.671875 L19.515625,7.671875 L17.890625,15.828125 C17.859375,16.078125 17.8229167,16.328125 17.78125,16.578125 C17.75,16.7864583 17.7239583,17.015625 17.703125,17.265625 C17.6822917,17.515625 17.671875,17.75 17.671875,17.96875 C17.671875,18.34375 17.7265625,18.6692708 17.8359375,18.9453125 C17.9453125,19.2213542 18.0885417,19.4505208 18.265625,19.6328125 C18.4427083,19.8151042 18.6484375,19.9479167 18.8828125,20.03125 C19.1171875,20.1145833 19.3645833,20.15625 19.625,20.15625 C20.09375,20.15625 20.5729167,19.96875 21.0625,19.59375 C21.5520833,19.21875 21.9947917,18.6692708 22.390625,17.9453125 C22.7864583,17.2213542 23.1119792,16.3333333 23.3671875,15.28125 C23.6223958,14.2291667 23.75,13.0260417 23.75,11.671875 C23.75,10.2760417 23.5260417,9.04427083 23.078125,7.9765625 C22.6302083,6.90885417 22.0078125,6.01302083 21.2109375,5.2890625 C20.4140625,4.56510417 19.4609375,4.01822917 18.3515625,3.6484375 C17.2421875,3.27864583 16.0208333,3.09375 14.6875,3.09375 C13.6458333,3.09375 12.6223958,3.23958333 11.6171875,3.53125 C10.6119792,3.82291667 9.66145833,4.25260417 8.765625,4.8203125 C7.86979167,5.38802083 7.0390625,6.08072917 6.2734375,6.8984375 C5.5078125,7.71614583 4.84895833,8.6484375 4.296875,9.6953125 C3.74479167,10.7421875 3.3125,11.9010417 3,13.171875 C2.6875,14.4427083 2.53125,15.8072917 2.53125,17.265625 C2.53125,19.046875 2.78645833,20.5651042 3.296875,21.8203125 C3.80729167,23.0755208 4.49739583,24.1015625 5.3671875,24.8984375 C6.23697917,25.6953125 7.24739583,26.2760417 8.3984375,26.640625 C9.54947917,27.0052083 10.7708333,27.1875 12.0625,27.1875 C12.9375,27.1875 13.765625,27.1119792 14.546875,26.9609375 C15.328125,26.8098958 16.0598958,26.609375 16.7421875,26.359375 C17.4244792,26.109375 18.0546875,25.8255208 18.6328125,25.5078125 C19.2109375,25.1901042 19.7291667,24.8645833 20.1875,24.53125 L20.9375,25.6875 C20.40625,26.0833333 19.8125,26.4713542 19.15625,26.8515625 C18.5,27.2317708 17.7890625,27.5703125 17.0234375,27.8671875 C16.2578125,28.1640625 15.4348958,28.4036458 14.5546875,28.5859375 C13.6744792,28.7682292 12.7395833,28.859375 11.75,28.859375 C10.03125,28.859375 8.453125,28.6223958 7.015625,28.1484375 C5.578125,27.6744792 4.34114583,26.9583333 3.3046875,26 C2.26822917,25.0416667 1.45833333,23.84375 0.875,22.40625 C0.291666667,20.96875 0,19.28125 0,17.34375 C0,15.8333333 0.1640625,14.3932292 0.4921875,13.0234375 C0.8203125,11.6536458 1.29427083,10.3802083 1.9140625,9.203125 C2.53385417,8.02604167 3.28385417,6.9609375 4.1640625,6.0078125 C5.04427083,5.0546875 6.03645833,4.2421875 7.140625,3.5703125 C8.24479167,2.8984375 9.4453125,2.38020833 10.7421875,2.015625 C12.0390625,1.65104167 13.4166667,1.46875 14.875,1.46875 C16.6666667,1.46875 18.2395833,1.734375 19.59375,2.265625 C20.9479167,2.796875 22.078125,3.5234375 22.984375,4.4453125 C23.890625,5.3671875 24.5703125,6.45572917 25.0234375,7.7109375 C25.4765625,8.96614583 25.703125,10.3177083 25.703125,11.765625 Z M9.28125,16.828125 C9.28125,17.953125 9.5078125,18.7890625 9.9609375,19.3359375 C10.4140625,19.8828125 11,20.15625 11.71875,20.15625 C12.2604167,20.15625 12.7291667,20.0390625 13.125,19.8046875 C13.5208333,19.5703125 13.8541667,19.265625 14.125,18.890625 C14.3958333,18.515625 14.6145833,18.0885417 14.78125,17.609375 C14.9479167,17.1302083 15.078125,16.6458333 15.171875,16.15625 L16.390625,9.65625 C16.2552083,9.35416667 16.0182292,9.11979167 15.6796875,8.953125 C15.3411458,8.78645833 14.9791667,8.703125 14.59375,8.703125 C13.9583333,8.703125 13.3828125,8.84114583 12.8671875,9.1171875 C12.3515625,9.39322917 11.8984375,9.75520833 11.5078125,10.203125 C11.1171875,10.6510417 10.78125,11.1640625 10.5,11.7421875 C10.21875,12.3203125 9.98697917,12.9114583 9.8046875,13.515625 C9.62239583,14.1197917 9.48958333,14.7083333 9.40625,15.28125 C9.32291667,15.8541667 9.28125,16.3697917 9.28125,16.828125 Z" id="Shape"></path>
            <path d="M36.578125,22.96875 L36.578125,24.3125 L27.96875,24.3125 L27.96875,22.96875 L28.21875,22.96875 C28.5833333,22.96875 28.9244792,22.9427083 29.2421875,22.890625 C29.5598958,22.8385417 29.8359375,22.7317708 30.0703125,22.5703125 C30.3046875,22.4088542 30.4921875,22.1770833 30.6328125,21.875 C30.7734375,21.5729167 30.84375,21.171875 30.84375,20.671875 L30.84375,3.515625 C30.84375,3.046875 30.7734375,2.66927083 30.6328125,2.3828125 C30.4921875,2.09635417 30.3020833,1.875 30.0625,1.71875 C29.8229167,1.5625 29.5442708,1.4609375 29.2265625,1.4140625 C28.9088542,1.3671875 28.5729167,1.34375 28.21875,1.34375 L27.96875,1.34375 L27.96875,0 L33.859375,0 L33.859375,7.03125 C33.859375,7.32291667 33.8541667,7.62760417 33.84375,7.9453125 C33.8333333,8.26302083 33.8177083,8.55729167 33.796875,8.828125 C33.7760417,9.140625 33.7552083,9.44791667 33.734375,9.75 L33.890625,9.75 C34.8489583,7.8125 36.4166667,6.84375 38.59375,6.84375 C39.5,6.84375 40.3046875,6.96614583 41.0078125,7.2109375 C41.7109375,7.45572917 42.3020833,7.83072917 42.78125,8.3359375 C43.2604167,8.84114583 43.625,9.48958333 43.875,10.28125 C44.125,11.0729167 44.25,12.015625 44.25,13.109375 L44.25,20.671875 C44.25,21.171875 44.3125,21.5729167 44.4375,21.875 C44.5625,22.1770833 44.734375,22.4088542 44.953125,22.5703125 C45.171875,22.7317708 45.4322917,22.8385417 45.734375,22.890625 C46.0364583,22.9427083 46.3645833,22.96875 46.71875,22.96875 L46.8125,22.96875 L46.8125,24.3125 L41.25,24.3125 L41.25,13.265625 C41.25,12.5677083 41.1875,11.9479167 41.0625,11.40625 C40.9375,10.8645833 40.7369792,10.40625 40.4609375,10.03125 C40.1848958,9.65625 39.8229167,9.37239583 39.375,9.1796875 C38.9270833,8.98697917 38.3802083,8.890625 37.734375,8.890625 C37.0677083,8.890625 36.4921875,9.01302083 36.0078125,9.2578125 C35.5234375,9.50260417 35.1223958,9.8515625 34.8046875,10.3046875 C34.4869792,10.7578125 34.25,11.3046875 34.09375,11.9453125 C33.9375,12.5859375 33.859375,13.296875 33.859375,14.078125 L33.859375,20.828125 C33.859375,21.296875 33.9296875,21.6744792 34.0703125,21.9609375 C34.2109375,22.2473958 34.4010417,22.4635417 34.640625,22.609375 C34.8802083,22.7552083 35.1588542,22.8515625 35.4765625,22.8984375 C35.7942708,22.9453125 36.1302083,22.96875 36.484375,22.96875 L36.578125,22.96875 Z" id="Path"></path>
            <path d="M52.40625,19.671875 C52.40625,20.671875 52.6171875,21.4192708 53.0390625,21.9140625 C53.4609375,22.4088542 54.1145833,22.65625 55,22.65625 C55.6458333,22.65625 56.2317708,22.5520833 56.7578125,22.34375 C57.2838542,22.1354167 57.7317708,21.8385417 58.1015625,21.453125 C58.4713542,21.0677083 58.7552083,20.5989583 58.953125,20.046875 C59.1510417,19.4947917 59.25,18.8802083 59.25,18.203125 L59.25,15.609375 L57.203125,15.703125 C56.296875,15.7447917 55.5390625,15.8567708 54.9296875,16.0390625 C54.3203125,16.2213542 53.828125,16.4765625 53.453125,16.8046875 C53.078125,17.1328125 52.8098958,17.5364583 52.6484375,18.015625 C52.4869792,18.4947917 52.40625,19.046875 52.40625,19.671875 Z M56.28125,8.4375 C55.6666667,8.4375 55.1692708,8.5234375 54.7890625,8.6953125 C54.4088542,8.8671875 54.1119792,9.109375 53.8984375,9.421875 C53.6848958,9.734375 53.5416667,10.1041667 53.46875,10.53125 C53.3958333,10.9583333 53.359375,11.421875 53.359375,11.921875 C52.4739583,11.921875 51.7994792,11.7708333 51.3359375,11.46875 C50.8723958,11.1666667 50.640625,10.6458333 50.640625,9.90625 C50.640625,9.35416667 50.7916667,8.88541667 51.09375,8.5 C51.3958333,8.11458333 51.8098958,7.79947917 52.3359375,7.5546875 C52.8619792,7.30989583 53.4739583,7.13020833 54.171875,7.015625 C54.8697917,6.90104167 55.6145833,6.84375 56.40625,6.84375 C57.3854167,6.84375 58.2395833,6.94010417 58.96875,7.1328125 C59.6979167,7.32552083 60.3072917,7.640625 60.796875,8.078125 C61.2864583,8.515625 61.6536458,9.0859375 61.8984375,9.7890625 C62.1432292,10.4921875 62.265625,11.3541667 62.265625,12.375 L62.265625,20.671875 C62.265625,21.1197917 62.3020833,21.4895833 62.375,21.78125 C62.4479167,22.0729167 62.5625,22.3072917 62.71875,22.484375 C62.875,22.6614583 63.0807292,22.7864583 63.3359375,22.859375 C63.5911458,22.9322917 63.8958333,22.96875 64.25,22.96875 L64.34375,22.96875 L64.34375,24.3125 L60.015625,24.3125 L59.515625,21.5625 L59.25,21.5625 C58.9166667,22.0104167 58.59375,22.421875 58.28125,22.796875 C57.96875,23.171875 57.625,23.4947917 57.25,23.765625 C56.875,24.0364583 56.4505208,24.2473958 55.9765625,24.3984375 C55.5026042,24.5494792 54.9322917,24.625 54.265625,24.625 C53.5572917,24.625 52.8984375,24.5234375 52.2890625,24.3203125 C51.6796875,24.1171875 51.1536458,23.8046875 50.7109375,23.3828125 C50.2682292,22.9609375 49.921875,22.4296875 49.671875,21.7890625 C49.421875,21.1484375 49.296875,20.390625 49.296875,19.515625 C49.296875,17.8177083 49.9010417,16.5572917 51.109375,15.734375 C52.3177083,14.9114583 54.1458333,14.4635417 56.59375,14.390625 L59.25,14.296875 L59.25,12.375 C59.25,11.8020833 59.21875,11.2734375 59.15625,10.7890625 C59.09375,10.3046875 58.9583333,9.88802083 58.75,9.5390625 C58.5416667,9.19010417 58.2421875,8.91927083 57.8515625,8.7265625 C57.4609375,8.53385417 56.9375,8.4375 56.28125,8.4375 Z" id="Shape"></path>
            <path d="M83.796875,7.15625 L83.796875,8.5 L83.703125,8.5 C83.390625,8.5 83.1223958,8.53385417 82.8984375,8.6015625 C82.6744792,8.66927083 82.4713542,8.796875 82.2890625,8.984375 C82.1067708,9.171875 81.9375,9.42708333 81.78125,9.75 C81.625,10.0729167 81.453125,10.4895833 81.265625,11 L76.40625,24.4375 C76.03125,25.46875 75.6770833,26.375 75.34375,27.15625 C75.0104167,27.9375 74.6614583,28.6067708 74.296875,29.1640625 C73.9322917,29.7213542 73.5338542,30.1822917 73.1015625,30.546875 C72.6692708,30.9114583 72.1770833,31.203125 71.625,31.421875 C71.0729167,31.640625 70.4375,31.7916667 69.71875,31.875 C69,31.9583333 68.1666667,32 67.21875,32 L66.9375,32 L66.9375,30.484375 C68.0208333,30.484375 68.953125,30.3229167 69.734375,30 C70.515625,29.6770833 71.1901042,29.234375 71.7578125,28.671875 C72.3255208,28.109375 72.7994792,27.4453125 73.1796875,26.6796875 C73.5598958,25.9140625 73.8802083,25.0833333 74.140625,24.1875 L68.21875,10.203125 C68.0729167,9.86979167 67.9322917,9.59635417 67.796875,9.3828125 C67.6614583,9.16927083 67.5078125,8.99479167 67.3359375,8.859375 C67.1640625,8.72395833 66.9661458,8.63020833 66.7421875,8.578125 C66.5182292,8.52604167 66.25,8.5 65.9375,8.5 L65.84375,8.5 L65.84375,7.15625 L73.53125,7.15625 L73.53125,8.5 L73.4375,8.5 C72.7916667,8.5 72.3098958,8.625 71.9921875,8.875 C71.6744792,9.125 71.515625,9.515625 71.515625,10.046875 C71.515625,10.2239583 71.5338542,10.4036458 71.5703125,10.5859375 C71.6067708,10.7682292 71.671875,10.9791667 71.765625,11.21875 L74.109375,16.921875 C74.2552083,17.2864583 74.4088542,17.6848958 74.5703125,18.1171875 C74.7317708,18.5494792 74.8828125,18.9765625 75.0234375,19.3984375 C75.1640625,19.8203125 75.2916667,20.21875 75.40625,20.59375 C75.5208333,20.96875 75.5989583,21.2916667 75.640625,21.5625 L75.734375,21.5625 C75.8489583,21.09375 76.0078125,20.5234375 76.2109375,19.8515625 C76.4140625,19.1796875 76.6510417,18.4583333 76.921875,17.6875 L79.0625,11.453125 C79.15625,11.1927083 79.2265625,10.9427083 79.2734375,10.703125 C79.3203125,10.4635417 79.34375,10.2552083 79.34375,10.078125 C79.34375,9.52604167 79.1692708,9.125 78.8203125,8.875 C78.4713542,8.625 77.9427083,8.5 77.234375,8.5 L77.140625,8.5 L77.140625,7.15625 L83.796875,7.15625 Z" id="Path"></path>
            <path d="M99.03125,7.25 L102.234375,16.734375 C102.359375,17.1197917 102.492188,17.5338542 102.632812,17.9765625 C102.773438,18.4192708 102.90625,18.8567708 103.03125,19.2890625 C103.15625,19.7213542 103.270833,20.1302083 103.375,20.515625 C103.479167,20.9010417 103.557292,21.2291667 103.609375,21.5 L103.703125,21.5 C103.796875,20.96875 103.947917,20.3151042 104.15625,19.5390625 C104.364583,18.7630208 104.630208,17.859375 104.953125,16.828125 L106.546875,11.671875 C106.630208,11.4010417 106.700521,11.1119792 106.757812,10.8046875 C106.815104,10.4973958 106.84375,10.2552083 106.84375,10.078125 C106.84375,9.52604167 106.669271,9.125 106.320312,8.875 C105.971354,8.625 105.4375,8.5 104.71875,8.5 L104.5,8.5 L104.5,7.15625 L111.34375,7.15625 L111.34375,8.5 L110.9375,8.5 C110.625,8.5 110.354167,8.53125 110.125,8.59375 C109.895833,8.65625 109.690104,8.77864583 109.507812,8.9609375 C109.325521,9.14322917 109.15625,9.39583333 109,9.71875 C108.84375,10.0416667 108.6875,10.46875 108.53125,11 L104.40625,24.3125 L101.84375,24.3125 L98.03125,13.046875 L97.453125,10.9375 L92.921875,24.3125 L90.390625,24.3125 L86.203125,10.203125 C86.078125,9.86979167 85.9479167,9.59375 85.8125,9.375 C85.6770833,9.15625 85.5208333,8.98177083 85.34375,8.8515625 C85.1666667,8.72135417 84.9635417,8.63020833 84.734375,8.578125 C84.5052083,8.52604167 84.234375,8.5 83.921875,8.5 L83.828125,8.5 L83.828125,7.15625 L91.734375,7.15625 L91.734375,8.5 L91.3125,8.5 C90.6770833,8.5 90.1979167,8.59375 89.875,8.78125 C89.5520833,8.96875 89.390625,9.32291667 89.390625,9.84375 C89.390625,10.0208333 89.4192708,10.234375 89.4765625,10.484375 C89.5338542,10.734375 89.59375,10.9791667 89.65625,11.21875 L91.15625,16.59375 C91.2604167,16.9791667 91.3697917,17.4010417 91.484375,17.859375 C91.5989583,18.3177083 91.7057292,18.7734375 91.8046875,19.2265625 C91.9036458,19.6796875 91.9947917,20.1041667 92.078125,20.5 C92.1614583,20.8958333 92.2291667,21.2291667 92.28125,21.5 L92.375,21.5 C92.4270833,21.2291667 92.4973958,20.9140625 92.5859375,20.5546875 C92.6744792,20.1953125 92.7786458,19.8098958 92.8984375,19.3984375 C93.0182292,18.9869792 93.1458333,18.5677083 93.28125,18.140625 C93.4166667,17.7135417 93.5520833,17.3072917 93.6875,16.921875 L97.015625,7.25 L99.03125,7.25 Z" id="Path"></path>
            <path d="M112.53125,22.96875 C112.885417,22.96875 113.221354,22.9453125 113.539062,22.8984375 C113.856771,22.8515625 114.135417,22.7552083 114.375,22.609375 C114.614583,22.4635417 114.804688,22.2473958 114.945312,21.9609375 C115.085938,21.6744792 115.15625,21.296875 115.15625,20.828125 L115.15625,10.6875 C115.15625,10.21875 115.085938,9.84114583 114.945312,9.5546875 C114.804688,9.26822917 114.614583,9.046875 114.375,8.890625 C114.135417,8.734375 113.856771,8.63020833 113.539062,8.578125 C113.221354,8.52604167 112.885417,8.5 112.53125,8.5 L112.4375,8.5 L112.4375,7.15625 L118.15625,7.15625 L118.15625,20.671875 C118.15625,21.171875 118.226562,21.5729167 118.367188,21.875 C118.507812,22.1770833 118.695312,22.4088542 118.929688,22.5703125 C119.164062,22.7317708 119.442708,22.8385417 119.765625,22.890625 C120.088542,22.9427083 120.427083,22.96875 120.78125,22.96875 L121.203125,22.96875 L121.203125,24.3125 L112.109375,24.3125 L112.109375,22.96875 L112.53125,22.96875 Z M114.703125,1.96875 C114.703125,1.59375 114.75,1.28125 114.84375,1.03125 C114.9375,0.78125 115.067708,0.578125 115.234375,0.421875 C115.401042,0.265625 115.59375,0.15625 115.8125,0.09375 C116.03125,0.03125 116.270833,0 116.53125,0 C116.78125,0 117.015625,0.03125 117.234375,0.09375 C117.453125,0.15625 117.643229,0.265625 117.804688,0.421875 C117.966146,0.578125 118.096354,0.78125 118.195312,1.03125 C118.294271,1.28125 118.34375,1.59375 118.34375,1.96875 C118.34375,2.34375 118.294271,2.65625 118.195312,2.90625 C118.096354,3.15625 117.966146,3.359375 117.804688,3.515625 C117.643229,3.671875 117.453125,3.78385417 117.234375,3.8515625 C117.015625,3.91927083 116.78125,3.953125 116.53125,3.953125 C116.270833,3.953125 116.03125,3.91927083 115.8125,3.8515625 C115.59375,3.78385417 115.401042,3.671875 115.234375,3.515625 C115.067708,3.359375 114.9375,3.15625 114.84375,2.90625 C114.75,2.65625 114.703125,2.34375 114.703125,1.96875 Z" id="Shape"></path>
            <path d="M132.453125,14.015625 L136.71875,20.34375 C137.270833,21.1979167 137.820312,21.8489583 138.367188,22.296875 C138.914062,22.7447917 139.546875,22.96875 140.265625,22.96875 L140.359375,22.96875 L140.359375,24.3125 L139.90625,24.3125 C138.979167,24.3125 138.216146,24.2838542 137.617188,24.2265625 C137.018229,24.1692708 136.5,24.0338542 136.0625,23.8203125 C135.625,23.6067708 135.223958,23.2942708 134.859375,22.8828125 C134.494792,22.4713542 134.088542,21.9114583 133.640625,21.203125 L130.4375,16.1875 L128.078125,17.9375 L128.078125,20.828125 C128.078125,21.296875 128.148438,21.6744792 128.289062,21.9609375 C128.429688,22.2473958 128.619792,22.4635417 128.859375,22.609375 C129.098958,22.7552083 129.377604,22.8515625 129.695312,22.8984375 C130.013021,22.9453125 130.348958,22.96875 130.703125,22.96875 L130.796875,22.96875 L130.796875,24.3125 L122.1875,24.3125 L122.1875,22.96875 L122.4375,22.96875 C122.802083,22.96875 123.143229,22.9427083 123.460938,22.890625 C123.778646,22.8385417 124.054688,22.7317708 124.289062,22.5703125 C124.523438,22.4088542 124.710938,22.1770833 124.851562,21.875 C124.992188,21.5729167 125.0625,21.171875 125.0625,20.671875 L125.0625,3.515625 C125.0625,3.046875 124.992188,2.66927083 124.851562,2.3828125 C124.710938,2.09635417 124.520833,1.875 124.28125,1.71875 C124.041667,1.5625 123.763021,1.4609375 123.445312,1.4140625 C123.127604,1.3671875 122.791667,1.34375 122.4375,1.34375 L122.1875,1.34375 L122.1875,0 L128.078125,0 L128.078125,12.34375 C128.078125,12.6354167 128.072917,13.0078125 128.0625,13.4609375 C128.052083,13.9140625 128.036458,14.359375 128.015625,14.796875 C127.994792,15.296875 127.973958,15.8229167 127.953125,16.375 L131.953125,12 C132.296875,11.6145833 132.580729,11.2760417 132.804688,10.984375 C133.028646,10.6927083 133.208333,10.4375 133.34375,10.21875 C133.479167,10 133.572917,9.8046875 133.625,9.6328125 C133.677083,9.4609375 133.703125,9.296875 133.703125,9.140625 C133.703125,8.86979167 133.575521,8.6953125 133.320312,8.6171875 C133.065104,8.5390625 132.671875,8.5 132.140625,8.5 L132.140625,7.15625 L139.203125,7.15625 L139.203125,8.5 C138.463542,8.5 137.736979,8.76041667 137.023438,9.28125 C136.309896,9.80208333 135.536458,10.5364583 134.703125,11.484375 L132.453125,14.015625 Z" id="Path"></path>
            <path d="M141.484375,22.96875 C141.838542,22.96875 142.174479,22.9453125 142.492188,22.8984375 C142.809896,22.8515625 143.088542,22.7552083 143.328125,22.609375 C143.567708,22.4635417 143.757812,22.2473958 143.898438,21.9609375 C144.039062,21.6744792 144.109375,21.296875 144.109375,20.828125 L144.109375,10.6875 C144.109375,10.21875 144.039062,9.84114583 143.898438,9.5546875 C143.757812,9.26822917 143.567708,9.046875 143.328125,8.890625 C143.088542,8.734375 142.809896,8.63020833 142.492188,8.578125 C142.174479,8.52604167 141.838542,8.5 141.484375,8.5 L141.390625,8.5 L141.390625,7.15625 L147.109375,7.15625 L147.109375,20.671875 C147.109375,21.171875 147.179688,21.5729167 147.320312,21.875 C147.460938,22.1770833 147.648438,22.4088542 147.882812,22.5703125 C148.117188,22.7317708 148.395833,22.8385417 148.71875,22.890625 C149.041667,22.9427083 149.380208,22.96875 149.734375,22.96875 L150.15625,22.96875 L150.15625,24.3125 L141.0625,24.3125 L141.0625,22.96875 L141.484375,22.96875 Z M143.65625,1.96875 C143.65625,1.59375 143.703125,1.28125 143.796875,1.03125 C143.890625,0.78125 144.020833,0.578125 144.1875,0.421875 C144.354167,0.265625 144.546875,0.15625 144.765625,0.09375 C144.984375,0.03125 145.223958,0 145.484375,0 C145.734375,0 145.96875,0.03125 146.1875,0.09375 C146.40625,0.15625 146.596354,0.265625 146.757812,0.421875 C146.919271,0.578125 147.049479,0.78125 147.148438,1.03125 C147.247396,1.28125 147.296875,1.59375 147.296875,1.96875 C147.296875,2.34375 147.247396,2.65625 147.148438,2.90625 C147.049479,3.15625 146.919271,3.359375 146.757812,3.515625 C146.596354,3.671875 146.40625,3.78385417 146.1875,3.8515625 C145.96875,3.91927083 145.734375,3.953125 145.484375,3.953125 C145.223958,3.953125 144.984375,3.91927083 144.765625,3.8515625 C144.546875,3.78385417 144.354167,3.671875 144.1875,3.515625 C144.020833,3.359375 143.890625,3.15625 143.796875,2.90625 C143.703125,2.65625 143.65625,2.34375 143.65625,1.96875 Z" id="Shape"></path>
            <polygon id="Path" points="20.0234375 26.53125 27.390625 26.53125 27.390625 28.625 20.0234375 28.625"></polygon>
            <polygon id="Path" points="27.390625 26.53125 47.703125 26.53125 47.703125 28.625 27.390625 28.625"></polygon>
            <polygon id="Path" points="47.703125 26.53125 65.71875 26.53125 65.71875 28.625 47.703125 28.625"></polygon>
            <polygon id="Path" points="65.71875 26.53125 70.2382812 26.53125 70.2382812 28.625 65.71875 28.625"></polygon>
            <polygon id="Path" points="79.2773438 26.53125 83.796875 26.53125 83.796875 28.625 79.2773438 28.625"></polygon>
            <polygon id="Path" points="83.796875 26.53125 111.375 26.53125 111.375 28.625 83.796875 28.625"></polygon>
            <polygon id="Path" points="111.375 26.53125 121.609375 26.53125 121.609375 28.625 111.375 28.625"></polygon>
            <polygon id="Path" points="121.609375 26.53125 140.328125 26.53125 140.328125 28.625 121.609375 28.625"></polygon>
            <polygon id="Path" points="140.328125 26.53125 150.15625 26.53125 150.15625 28.625 140.328125 28.625"></polygon>
        </g>
    </g>
</svg>