<?xml version="1.0" encoding="UTF-8"?>
<svg width="380px" height="100px" viewBox="0 0 380 100" version="1.1" xmlns="http://www.w3.org/2000/svg" xmlns:xlink="http://www.w3.org/1999/xlink">
    <title>telegram</title>
    <defs>
        <linearGradient x1="50%" y1="100%" x2="50%" y2="0%" id="linearGradient-1">
            <stop stop-color="#1D93D2" offset="0%"></stop>
            <stop stop-color="#38B0E3" offset="100%"></stop>
        </linearGradient>
    </defs>
    <g id="Telegram" stroke="none" stroke-width="1" fill="none" fill-rule="evenodd">
        <g id="Telegram-канал" transform="translate(12.601563, 16.687500)" fill="#000000" fill-rule="nonzero">
            <path d="M10.75,20.671875 C10.75,21.171875 10.8203125,21.5729167 10.9609375,21.875 C11.1015625,22.1770833 11.2890625,22.4088542 11.5234375,22.5703125 C11.7578125,22.7317708 12.0364583,22.8385417 12.359375,22.890625 C12.6822917,22.9427083 13.0208333,22.96875 13.375,22.96875 L14.109375,22.96875 L14.109375,24.3125 L4.15625,24.3125 L4.15625,22.96875 L4.890625,22.96875 C5.24479167,22.96875 5.58072917,22.9453125 5.8984375,22.8984375 C6.21614583,22.8515625 6.49479167,22.7552083 6.734375,22.609375 C6.97395833,22.4635417 7.1640625,22.2473958 7.3046875,21.9609375 C7.4453125,21.6744792 7.515625,21.296875 7.515625,20.828125 L7.515625,3.0625 L4.453125,3.0625 C3.984375,3.0625 3.59114583,3.1328125 3.2734375,3.2734375 C2.95572917,3.4140625 2.6953125,3.60416667 2.4921875,3.84375 C2.2890625,4.08333333 2.13802083,4.36197917 2.0390625,4.6796875 C1.94010417,4.99739583 1.86979167,5.33333333 1.828125,5.6875 L1.65625,7.0625 L0,7.0625 L0.15625,1.46875 L18.171875,1.46875 L18.328125,7.0625 L16.671875,7.0625 L16.515625,5.6875 C16.4739583,5.33333333 16.4010417,4.99739583 16.296875,4.6796875 C16.1927083,4.36197917 16.0416667,4.08333333 15.84375,3.84375 C15.6458333,3.60416667 15.3854167,3.4140625 15.0625,3.2734375 C14.7395833,3.1328125 14.3385417,3.0625 13.859375,3.0625 L10.75,3.0625 L10.75,20.671875 Z" id="Path"></path>
            <path d="M27.765625,8.5625 C26.578125,8.5625 25.6640625,9.04427083 25.0234375,10.0078125 C24.3828125,10.9713542 24.0052083,12.3802083 23.890625,14.234375 L31.25,14.234375 C31.25,13.390625 31.1875,12.6197917 31.0625,11.921875 C30.9375,11.2239583 30.7395833,10.625 30.46875,10.125 C30.1979167,9.625 29.8411458,9.23958333 29.3984375,8.96875 C28.9557292,8.69791667 28.4114583,8.5625 27.765625,8.5625 Z M28.15625,24.625 C27,24.625 25.9609375,24.4296875 25.0390625,24.0390625 C24.1171875,23.6484375 23.3385417,23.078125 22.703125,22.328125 C22.0677083,21.578125 21.5807292,20.6588542 21.2421875,19.5703125 C20.9036458,18.4817708 20.734375,17.2447917 20.734375,15.859375 C20.734375,12.8697917 21.3489583,10.6197917 22.578125,9.109375 C23.8072917,7.59895833 25.5572917,6.84375 27.828125,6.84375 C28.859375,6.84375 29.7864583,7.00520833 30.609375,7.328125 C31.4322917,7.65104167 32.1302083,8.1328125 32.703125,8.7734375 C33.2760417,9.4140625 33.7161458,10.2109375 34.0234375,11.1640625 C34.3307292,12.1171875 34.484375,13.2239583 34.484375,14.484375 L34.484375,15.953125 L23.828125,15.953125 C23.8489583,17.1197917 23.9661458,18.1223958 24.1796875,18.9609375 C24.3932292,19.7994792 24.7005208,20.4895833 25.1015625,21.03125 C25.5026042,21.5729167 25.9947917,21.9713542 26.578125,22.2265625 C27.1614583,22.4817708 27.8333333,22.609375 28.59375,22.609375 C29.1458333,22.609375 29.6588542,22.546875 30.1328125,22.421875 C30.6067708,22.296875 31.0364583,22.1302083 31.421875,21.921875 C31.8072917,21.7135417 32.1484375,21.4765625 32.4453125,21.2109375 C32.7421875,20.9453125 32.984375,20.6666667 33.171875,20.375 C33.3177083,20.4375 33.4557292,20.5677083 33.5859375,20.765625 C33.7161458,20.9635417 33.78125,21.1979167 33.78125,21.46875 C33.78125,21.7916667 33.6666667,22.1380208 33.4375,22.5078125 C33.2083333,22.8776042 32.859375,23.21875 32.390625,23.53125 C31.921875,23.84375 31.3359375,24.1041667 30.6328125,24.3125 C29.9296875,24.5208333 29.1041667,24.625 28.15625,24.625 Z" id="Shape"></path>
            <path d="M36.921875,22.96875 C37.2864583,22.96875 37.6276042,22.9427083 37.9453125,22.890625 C38.2630208,22.8385417 38.5390625,22.7317708 38.7734375,22.5703125 C39.0078125,22.4088542 39.1953125,22.1770833 39.3359375,21.875 C39.4765625,21.5729167 39.546875,21.171875 39.546875,20.671875 L39.546875,3.515625 C39.546875,3.046875 39.4765625,2.66927083 39.3359375,2.3828125 C39.1953125,2.09635417 39.0052083,1.875 38.765625,1.71875 C38.5260417,1.5625 38.2473958,1.4609375 37.9296875,1.4140625 C37.6119792,1.3671875 37.2760417,1.34375 36.921875,1.34375 L36.515625,1.34375 L36.515625,0 L42.5625,0 L42.5625,20.671875 C42.5625,21.171875 42.6302083,21.5729167 42.765625,21.875 C42.9010417,22.1770833 43.0885417,22.4088542 43.328125,22.5703125 C43.5677083,22.7317708 43.8463542,22.8385417 44.1640625,22.890625 C44.4817708,22.9427083 44.8229167,22.96875 45.1875,22.96875 L45.59375,22.96875 L45.59375,24.3125 L36.515625,24.3125 L36.515625,22.96875 L36.921875,22.96875 Z" id="Path"></path>
            <path d="M54.8125,8.5625 C53.625,8.5625 52.7109375,9.04427083 52.0703125,10.0078125 C51.4296875,10.9713542 51.0520833,12.3802083 50.9375,14.234375 L58.296875,14.234375 C58.296875,13.390625 58.234375,12.6197917 58.109375,11.921875 C57.984375,11.2239583 57.7864583,10.625 57.515625,10.125 C57.2447917,9.625 56.8880208,9.23958333 56.4453125,8.96875 C56.0026042,8.69791667 55.4583333,8.5625 54.8125,8.5625 Z M55.203125,24.625 C54.046875,24.625 53.0078125,24.4296875 52.0859375,24.0390625 C51.1640625,23.6484375 50.3854167,23.078125 49.75,22.328125 C49.1145833,21.578125 48.6276042,20.6588542 48.2890625,19.5703125 C47.9505208,18.4817708 47.78125,17.2447917 47.78125,15.859375 C47.78125,12.8697917 48.3958333,10.6197917 49.625,9.109375 C50.8541667,7.59895833 52.6041667,6.84375 54.875,6.84375 C55.90625,6.84375 56.8333333,7.00520833 57.65625,7.328125 C58.4791667,7.65104167 59.1770833,8.1328125 59.75,8.7734375 C60.3229167,9.4140625 60.7630208,10.2109375 61.0703125,11.1640625 C61.3776042,12.1171875 61.53125,13.2239583 61.53125,14.484375 L61.53125,15.953125 L50.875,15.953125 C50.8958333,17.1197917 51.0130208,18.1223958 51.2265625,18.9609375 C51.4401042,19.7994792 51.7473958,20.4895833 52.1484375,21.03125 C52.5494792,21.5729167 53.0416667,21.9713542 53.625,22.2265625 C54.2083333,22.4817708 54.8802083,22.609375 55.640625,22.609375 C56.1927083,22.609375 56.7057292,22.546875 57.1796875,22.421875 C57.6536458,22.296875 58.0833333,22.1302083 58.46875,21.921875 C58.8541667,21.7135417 59.1953125,21.4765625 59.4921875,21.2109375 C59.7890625,20.9453125 60.03125,20.6666667 60.21875,20.375 C60.3645833,20.4375 60.5026042,20.5677083 60.6328125,20.765625 C60.7630208,20.9635417 60.828125,21.1979167 60.828125,21.46875 C60.828125,21.7916667 60.7135417,22.1380208 60.484375,22.5078125 C60.2552083,22.8776042 59.90625,23.21875 59.4375,23.53125 C58.96875,23.84375 58.3828125,24.1041667 57.6796875,24.3125 C56.9765625,24.5208333 56.1510417,24.625 55.203125,24.625 Z" id="Shape"></path>
            <path d="M79.96875,7.828125 C79.96875,8.05729167 79.9348958,8.2734375 79.8671875,8.4765625 C79.7994792,8.6796875 79.6979167,8.85677083 79.5625,9.0078125 C79.4270833,9.15885417 79.2526042,9.27864583 79.0390625,9.3671875 C78.8255208,9.45572917 78.5729167,9.5 78.28125,9.5 C78.28125,9.375 78.265625,9.25 78.234375,9.125 C78.203125,9 78.1484375,8.8828125 78.0703125,8.7734375 C77.9921875,8.6640625 77.8854167,8.57552083 77.75,8.5078125 C77.6145833,8.44010417 77.4375,8.40625 77.21875,8.40625 C76.9479167,8.40625 76.703125,8.4375 76.484375,8.5 C76.265625,8.5625 76.0520833,8.66145833 75.84375,8.796875 C76.2083333,9.24479167 76.5078125,9.7734375 76.7421875,10.3828125 C76.9765625,10.9921875 77.09375,11.7552083 77.09375,12.671875 C77.09375,13.4635417 76.9739583,14.1953125 76.734375,14.8671875 C76.4947917,15.5390625 76.1380208,16.1197917 75.6640625,16.609375 C75.1901042,17.0989583 74.5911458,17.4817708 73.8671875,17.7578125 C73.1432292,18.0338542 72.296875,18.171875 71.328125,18.171875 C71.203125,18.171875 71.0625,18.1692708 70.90625,18.1640625 C70.75,18.1588542 70.59375,18.1536458 70.4375,18.1484375 C70.28125,18.1432292 70.1354167,18.1328125 70,18.1171875 C69.8645833,18.1015625 69.7552083,18.0885417 69.671875,18.078125 C69.4635417,18.1822917 69.265625,18.296875 69.078125,18.421875 C68.890625,18.546875 68.7265625,18.6875 68.5859375,18.84375 C68.4453125,19 68.3333333,19.1770833 68.25,19.375 C68.1666667,19.5729167 68.125,19.7916667 68.125,20.03125 C68.125,20.2916667 68.1744792,20.5 68.2734375,20.65625 C68.3723958,20.8125 68.5104167,20.9348958 68.6875,21.0234375 C68.8645833,21.1119792 69.0755208,21.1692708 69.3203125,21.1953125 C69.5651042,21.2213542 69.828125,21.234375 70.109375,21.234375 L73.734375,21.234375 C74.6927083,21.234375 75.5052083,21.3541667 76.171875,21.59375 C76.8385417,21.8333333 77.3828125,22.1640625 77.8046875,22.5859375 C78.2265625,23.0078125 78.5338542,23.5130208 78.7265625,24.1015625 C78.9192708,24.6901042 79.015625,25.328125 79.015625,26.015625 C79.015625,26.9322917 78.8463542,27.7604167 78.5078125,28.5 C78.1692708,29.2395833 77.6510417,29.8671875 76.953125,30.3828125 C76.2552083,30.8984375 75.3723958,31.296875 74.3046875,31.578125 C73.2369792,31.859375 71.9791667,32 70.53125,32 C68.3020833,32 66.6354167,31.5885417 65.53125,30.765625 C64.4270833,29.9427083 63.875,28.796875 63.875,27.328125 C63.875,26.703125 63.984375,26.15625 64.203125,25.6875 C64.421875,25.21875 64.7161458,24.8177083 65.0859375,24.484375 C65.4557292,24.1510417 65.8802083,23.8802083 66.359375,23.671875 C66.8385417,23.4635417 67.34375,23.3125 67.875,23.21875 C67.65625,23.125 67.4427083,23 67.234375,22.84375 C67.0260417,22.6875 66.8385417,22.5 66.671875,22.28125 C66.5052083,22.0625 66.3697917,21.8125 66.265625,21.53125 C66.1614583,21.25 66.109375,20.9375 66.109375,20.59375 C66.109375,19.9583333 66.2760417,19.4088542 66.609375,18.9453125 C66.9427083,18.4817708 67.4739583,18.03125 68.203125,17.59375 C67.7447917,17.40625 67.3359375,17.1484375 66.9765625,16.8203125 C66.6171875,16.4921875 66.3151042,16.1171875 66.0703125,15.6953125 C65.8255208,15.2734375 65.6380208,14.8125 65.5078125,14.3125 C65.3776042,13.8125 65.3125,13.296875 65.3125,12.765625 C65.3125,11.8385417 65.4375,11.0104167 65.6875,10.28125 C65.9375,9.55208333 66.3125,8.93229167 66.8125,8.421875 C67.3125,7.91145833 67.9375,7.52083333 68.6875,7.25 C69.4375,6.97916667 70.3177083,6.84375 71.328125,6.84375 C71.7135417,6.84375 72.09375,6.87239583 72.46875,6.9296875 C72.84375,6.98697917 73.1901042,7.06510417 73.5078125,7.1640625 C73.8255208,7.26302083 74.1119792,7.375 74.3671875,7.5 C74.6223958,7.625 74.828125,7.75520833 74.984375,7.890625 C75.140625,7.72395833 75.3229167,7.5390625 75.53125,7.3359375 C75.7395833,7.1328125 75.9739583,6.9453125 76.234375,6.7734375 C76.4947917,6.6015625 76.7786458,6.45833333 77.0859375,6.34375 C77.3932292,6.22916667 77.7239583,6.171875 78.078125,6.171875 C78.4010417,6.171875 78.6796875,6.21614583 78.9140625,6.3046875 C79.1484375,6.39322917 79.34375,6.51302083 79.5,6.6640625 C79.65625,6.81510417 79.7734375,6.9921875 79.8515625,7.1953125 C79.9296875,7.3984375 79.96875,7.609375 79.96875,7.828125 Z M66.46875,27.125 C66.46875,27.59375 66.53125,28.03125 66.65625,28.4375 C66.78125,28.84375 67,29.1927083 67.3125,29.484375 C67.625,29.7760417 68.046875,30.0052083 68.578125,30.171875 C69.109375,30.3385417 69.78125,30.421875 70.59375,30.421875 C71.7395833,30.421875 72.6848958,30.3255208 73.4296875,30.1328125 C74.1744792,29.9401042 74.765625,29.671875 75.203125,29.328125 C75.640625,28.984375 75.9479167,28.5755208 76.125,28.1015625 C76.3020833,27.6276042 76.390625,27.109375 76.390625,26.546875 C76.390625,26.0572917 76.3203125,25.6536458 76.1796875,25.3359375 C76.0390625,25.0182292 75.8307292,24.7682292 75.5546875,24.5859375 C75.2786458,24.4036458 74.9375,24.2760417 74.53125,24.203125 C74.125,24.1302083 73.65625,24.09375 73.125,24.09375 L69.984375,24.09375 C69.5364583,24.09375 69.1015625,24.1328125 68.6796875,24.2109375 C68.2578125,24.2890625 67.8828125,24.4375 67.5546875,24.65625 C67.2265625,24.875 66.9635417,25.1822917 66.765625,25.578125 C66.5677083,25.9739583 66.46875,26.4895833 66.46875,27.125 Z M68.328125,12.671875 C68.328125,14.0364583 68.5546875,15.0364583 69.0078125,15.671875 C69.4609375,16.3072917 70.203125,16.625 71.234375,16.625 C71.7552083,16.625 72.1953125,16.546875 72.5546875,16.390625 C72.9140625,16.234375 73.2083333,15.9947917 73.4375,15.671875 C73.6666667,15.3489583 73.8307292,14.9348958 73.9296875,14.4296875 C74.0286458,13.9244792 74.078125,13.3229167 74.078125,12.625 C74.078125,11.1875 73.859375,10.125 73.421875,9.4375 C72.984375,8.75 72.2447917,8.40625 71.203125,8.40625 C70.171875,8.40625 69.4348958,8.7578125 68.9921875,9.4609375 C68.5494792,10.1640625 68.328125,11.234375 68.328125,12.671875 Z" id="Shape"></path>
            <path d="M90.65625,24.3125 L81.421875,24.3125 L81.421875,22.96875 L81.515625,22.96875 C81.8802083,22.96875 82.2213542,22.9427083 82.5390625,22.890625 C82.8567708,22.8385417 83.1328125,22.7317708 83.3671875,22.5703125 C83.6015625,22.4088542 83.7890625,22.1770833 83.9296875,21.875 C84.0703125,21.5729167 84.140625,21.171875 84.140625,20.671875 L84.140625,10.6875 C84.140625,10.21875 84.0703125,9.84114583 83.9296875,9.5546875 C83.7890625,9.26822917 83.5989583,9.046875 83.359375,8.890625 C83.1197917,8.734375 82.8411458,8.63020833 82.5234375,8.578125 C82.2057292,8.52604167 81.8697917,8.5 81.515625,8.5 L81.421875,8.5 L81.421875,7.15625 L86.34375,7.15625 L86.953125,10.328125 L87.109375,10.328125 C87.3177083,9.84895833 87.53125,9.3984375 87.75,8.9765625 C87.96875,8.5546875 88.2369792,8.18489583 88.5546875,7.8671875 C88.8723958,7.54947917 89.265625,7.29947917 89.734375,7.1171875 C90.203125,6.93489583 90.7916667,6.84375 91.5,6.84375 C92.6666667,6.84375 93.5338542,7.046875 94.1015625,7.453125 C94.6692708,7.859375 94.953125,8.43229167 94.953125,9.171875 C94.953125,9.50520833 94.8984375,9.8125 94.7890625,10.09375 C94.6796875,10.375 94.5052083,10.6171875 94.265625,10.8203125 C94.0260417,11.0234375 93.71875,11.1796875 93.34375,11.2890625 C92.96875,11.3984375 92.5104167,11.453125 91.96875,11.453125 C91.96875,10.5677083 91.84375,9.9296875 91.59375,9.5390625 C91.34375,9.1484375 90.90625,8.953125 90.28125,8.953125 C89.8854167,8.953125 89.53125,9.06510417 89.21875,9.2890625 C88.90625,9.51302083 88.6328125,9.80989583 88.3984375,10.1796875 C88.1640625,10.5494792 87.9661458,10.9739583 87.8046875,11.453125 C87.6432292,11.9322917 87.5130208,12.4244792 87.4140625,12.9296875 C87.3151042,13.4348958 87.2447917,13.9375 87.203125,14.4375 C87.1614583,14.9375 87.140625,15.390625 87.140625,15.796875 L87.140625,20.828125 C87.140625,21.296875 87.2109375,21.6744792 87.3515625,21.9609375 C87.4921875,22.2473958 87.6822917,22.4635417 87.921875,22.609375 C88.1614583,22.7552083 88.4401042,22.8515625 88.7578125,22.8984375 C89.0755208,22.9453125 89.4114583,22.96875 89.765625,22.96875 L90.65625,22.96875 L90.65625,24.3125 Z" id="Path"></path>
            <path d="M100.140625,19.671875 C100.140625,20.671875 100.351562,21.4192708 100.773438,21.9140625 C101.195312,22.4088542 101.848958,22.65625 102.734375,22.65625 C103.380208,22.65625 103.966146,22.5520833 104.492188,22.34375 C105.018229,22.1354167 105.466146,21.8385417 105.835938,21.453125 C106.205729,21.0677083 106.489583,20.5989583 106.6875,20.046875 C106.885417,19.4947917 106.984375,18.8802083 106.984375,18.203125 L106.984375,15.609375 L104.9375,15.703125 C104.03125,15.7447917 103.273438,15.8567708 102.664062,16.0390625 C102.054688,16.2213542 101.5625,16.4765625 101.1875,16.8046875 C100.8125,17.1328125 100.544271,17.5364583 100.382812,18.015625 C100.221354,18.4947917 100.140625,19.046875 100.140625,19.671875 Z M104.015625,8.4375 C103.401042,8.4375 102.903646,8.5234375 102.523438,8.6953125 C102.143229,8.8671875 101.846354,9.109375 101.632812,9.421875 C101.419271,9.734375 101.276042,10.1041667 101.203125,10.53125 C101.130208,10.9583333 101.09375,11.421875 101.09375,11.921875 C100.208333,11.921875 99.5338542,11.7708333 99.0703125,11.46875 C98.6067708,11.1666667 98.375,10.6458333 98.375,9.90625 C98.375,9.35416667 98.5260417,8.88541667 98.828125,8.5 C99.1302083,8.11458333 99.5442708,7.79947917 100.070312,7.5546875 C100.596354,7.30989583 101.208333,7.13020833 101.90625,7.015625 C102.604167,6.90104167 103.348958,6.84375 104.140625,6.84375 C105.119792,6.84375 105.973958,6.94010417 106.703125,7.1328125 C107.432292,7.32552083 108.041667,7.640625 108.53125,8.078125 C109.020833,8.515625 109.388021,9.0859375 109.632812,9.7890625 C109.877604,10.4921875 110,11.3541667 110,12.375 L110,20.671875 C110,21.1197917 110.036458,21.4895833 110.109375,21.78125 C110.182292,22.0729167 110.296875,22.3072917 110.453125,22.484375 C110.609375,22.6614583 110.815104,22.7864583 111.070312,22.859375 C111.325521,22.9322917 111.630208,22.96875 111.984375,22.96875 L112.078125,22.96875 L112.078125,24.3125 L107.75,24.3125 L107.25,21.5625 L106.984375,21.5625 C106.651042,22.0104167 106.328125,22.421875 106.015625,22.796875 C105.703125,23.171875 105.359375,23.4947917 104.984375,23.765625 C104.609375,24.0364583 104.184896,24.2473958 103.710938,24.3984375 C103.236979,24.5494792 102.666667,24.625 102,24.625 C101.291667,24.625 100.632812,24.5234375 100.023438,24.3203125 C99.4140625,24.1171875 98.8880208,23.8046875 98.4453125,23.3828125 C98.0026042,22.9609375 97.65625,22.4296875 97.40625,21.7890625 C97.15625,21.1484375 97.03125,20.390625 97.03125,19.515625 C97.03125,17.8177083 97.6354167,16.5572917 98.84375,15.734375 C100.052083,14.9114583 101.880208,14.4635417 104.328125,14.390625 L106.984375,14.296875 L106.984375,12.375 C106.984375,11.8020833 106.953125,11.2734375 106.890625,10.7890625 C106.828125,10.3046875 106.692708,9.88802083 106.484375,9.5390625 C106.276042,9.19010417 105.976562,8.91927083 105.585938,8.7265625 C105.195312,8.53385417 104.671875,8.4375 104.015625,8.4375 Z" id="Shape"></path>
            <path d="M122.953125,22.96875 L122.953125,24.3125 L114.34375,24.3125 L114.34375,22.96875 L114.765625,22.96875 C115.130208,22.96875 115.463542,22.9427083 115.765625,22.890625 C116.067708,22.8385417 116.328125,22.7317708 116.546875,22.5703125 C116.765625,22.4088542 116.934896,22.1770833 117.054688,21.875 C117.174479,21.5729167 117.234375,21.171875 117.234375,20.671875 L117.234375,10.6875 C117.234375,10.21875 117.171875,9.84114583 117.046875,9.5546875 C116.921875,9.26822917 116.75,9.046875 116.53125,8.890625 C116.3125,8.734375 116.052083,8.63020833 115.75,8.578125 C115.447917,8.52604167 115.119792,8.5 114.765625,8.5 L114.671875,8.5 L114.671875,7.15625 L119.6875,7.15625 L120.109375,9.75 L120.265625,9.75 C120.588542,9.15625 120.927083,8.66927083 121.28125,8.2890625 C121.635417,7.90885417 122.013021,7.61197917 122.414062,7.3984375 C122.815104,7.18489583 123.236979,7.0390625 123.679688,6.9609375 C124.122396,6.8828125 124.59375,6.84375 125.09375,6.84375 C125.614583,6.84375 126.109375,6.89583333 126.578125,7 C127.046875,7.10416667 127.481771,7.27083333 127.882812,7.5 C128.283854,7.72916667 128.643229,8.02864583 128.960938,8.3984375 C129.278646,8.76822917 129.536458,9.21875 129.734375,9.75 L130,9.75 C130.322917,9.15625 130.671875,8.66927083 131.046875,8.2890625 C131.421875,7.90885417 131.820312,7.61197917 132.242188,7.3984375 C132.664062,7.18489583 133.106771,7.0390625 133.570312,6.9609375 C134.033854,6.8828125 134.515625,6.84375 135.015625,6.84375 C135.828125,6.84375 136.557292,6.96614583 137.203125,7.2109375 C137.848958,7.45572917 138.395833,7.83072917 138.84375,8.3359375 C139.291667,8.84114583 139.635417,9.48958333 139.875,10.28125 C140.114583,11.0729167 140.234375,12.015625 140.234375,13.109375 L140.234375,20.671875 C140.234375,21.171875 140.296875,21.5729167 140.421875,21.875 C140.546875,22.1770833 140.71875,22.4088542 140.9375,22.5703125 C141.15625,22.7317708 141.416667,22.8385417 141.71875,22.890625 C142.020833,22.9427083 142.348958,22.96875 142.703125,22.96875 L142.796875,22.96875 L142.796875,24.3125 L137.234375,24.3125 L137.234375,13.265625 C137.234375,12.5677083 137.174479,11.9479167 137.054688,11.40625 C136.934896,10.8645833 136.742188,10.40625 136.476562,10.03125 C136.210938,9.65625 135.864583,9.37239583 135.4375,9.1796875 C135.010417,8.98697917 134.489583,8.890625 133.875,8.890625 C133.208333,8.890625 132.648438,9.01822917 132.195312,9.2734375 C131.742188,9.52864583 131.375,9.875 131.09375,10.3125 C130.8125,10.75 130.611979,11.2552083 130.492188,11.828125 C130.372396,12.4010417 130.3125,13.0104167 130.3125,13.65625 L130.3125,20.671875 C130.3125,21.171875 130.375,21.5729167 130.5,21.875 C130.625,22.1770833 130.796875,22.4088542 131.015625,22.5703125 C131.234375,22.7317708 131.494792,22.8385417 131.796875,22.890625 C132.098958,22.9427083 132.427083,22.96875 132.78125,22.96875 L132.875,22.96875 L132.875,24.3125 L127.3125,24.3125 L127.3125,13.265625 C127.3125,12.5677083 127.252604,11.9479167 127.132812,11.40625 C127.013021,10.8645833 126.820312,10.40625 126.554688,10.03125 C126.289062,9.65625 125.942708,9.37239583 125.515625,9.1796875 C125.088542,8.98697917 124.567708,8.890625 123.953125,8.890625 C123.255208,8.890625 122.669271,9.03125 122.195312,9.3125 C121.721354,9.59375 121.338542,9.97395833 121.046875,10.453125 C120.755208,10.9322917 120.546875,11.484375 120.421875,12.109375 C120.296875,12.734375 120.234375,13.390625 120.234375,14.078125 L120.234375,20.828125 C120.234375,21.296875 120.304688,21.6744792 120.445312,21.9609375 C120.585938,22.2473958 120.776042,22.4635417 121.015625,22.609375 C121.255208,22.7552083 121.533854,22.8515625 121.851562,22.8984375 C122.169271,22.9453125 122.505208,22.96875 122.859375,22.96875 L122.953125,22.96875 Z" id="Path"></path>
            <polygon id="Path" points="144.484375 16.796875 144.484375 14.390625 152.8125 14.390625 152.8125 16.796875"></polygon>
            <path d="M171.84375,24.3125 C171.03125,24.3125 170.333333,24.2708333 169.75,24.1875 C169.166667,24.1041667 168.658854,23.9505208 168.226562,23.7265625 C167.794271,23.5026042 167.411458,23.1953125 167.078125,22.8046875 C166.744792,22.4140625 166.416667,21.9114583 166.09375,21.296875 L164.515625,18.203125 C164.276042,17.734375 164.041667,17.359375 163.8125,17.078125 C163.583333,16.796875 163.315104,16.578125 163.007812,16.421875 C162.700521,16.265625 162.338542,16.1614583 161.921875,16.109375 C161.505208,16.0572917 160.994792,16.03125 160.390625,16.03125 L160.390625,20.828125 C160.390625,21.296875 160.460938,21.6744792 160.601562,21.9609375 C160.742188,22.2473958 160.932292,22.4635417 161.171875,22.609375 C161.411458,22.7552083 161.690104,22.8515625 162.007812,22.8984375 C162.325521,22.9453125 162.661458,22.96875 163.015625,22.96875 L163.109375,22.96875 L163.109375,24.3125 L154.1875,24.3125 L154.1875,22.96875 L154.765625,22.96875 C155.119792,22.96875 155.458333,22.9427083 155.78125,22.890625 C156.104167,22.8385417 156.382812,22.7317708 156.617188,22.5703125 C156.851562,22.4088542 157.039062,22.1770833 157.179688,21.875 C157.320312,21.5729167 157.390625,21.171875 157.390625,20.671875 L157.390625,10.6875 C157.390625,10.21875 157.320312,9.84114583 157.179688,9.5546875 C157.039062,9.26822917 156.848958,9.046875 156.609375,8.890625 C156.369792,8.734375 156.091146,8.63020833 155.773438,8.578125 C155.455729,8.52604167 155.119792,8.5 154.765625,8.5 L154.1875,8.5 L154.1875,7.15625 L163.109375,7.15625 L163.109375,8.5 L163.015625,8.5 C162.671875,8.5 162.341146,8.5234375 162.023438,8.5703125 C161.705729,8.6171875 161.427083,8.7109375 161.1875,8.8515625 C160.947917,8.9921875 160.755208,9.1953125 160.609375,9.4609375 C160.463542,9.7265625 160.390625,10.078125 160.390625,10.515625 L160.390625,14.546875 C160.703125,14.546875 160.973958,14.5338542 161.203125,14.5078125 C161.432292,14.4817708 161.632812,14.4427083 161.804688,14.390625 C161.976562,14.3385417 162.132812,14.2708333 162.273438,14.1875 C162.414062,14.1041667 162.546875,14 162.671875,13.875 C162.942708,13.625 163.260417,13.2239583 163.625,12.671875 C163.989583,12.1197917 164.447917,11.4322917 165,10.609375 C165.364583,10.046875 165.705729,9.54166667 166.023438,9.09375 C166.341146,8.64583333 166.677083,8.265625 167.03125,7.953125 C167.385417,7.640625 167.78125,7.3984375 168.21875,7.2265625 C168.65625,7.0546875 169.182292,6.96875 169.796875,6.96875 C170.703125,6.96875 171.388021,7.1484375 171.851562,7.5078125 C172.315104,7.8671875 172.546875,8.33854167 172.546875,8.921875 C172.546875,9.22395833 172.505208,9.48958333 172.421875,9.71875 C172.338542,9.94791667 172.226562,10.1458333 172.085938,10.3125 C171.945312,10.4791667 171.78125,10.6145833 171.59375,10.71875 C171.40625,10.8229167 171.213542,10.8958333 171.015625,10.9375 C170.973958,10.6979167 170.90625,10.46875 170.8125,10.25 C170.71875,10.03125 170.598958,9.84114583 170.453125,9.6796875 C170.307292,9.51822917 170.130208,9.38802083 169.921875,9.2890625 C169.713542,9.19010417 169.479167,9.140625 169.21875,9.140625 C168.697917,9.140625 168.21875,9.34114583 167.78125,9.7421875 C167.34375,10.1432292 166.854167,10.7552083 166.3125,11.578125 C166.020833,12.0052083 165.760417,12.3776042 165.53125,12.6953125 C165.302083,13.0130208 165.088542,13.296875 164.890625,13.546875 C164.692708,13.796875 164.5,14.0130208 164.3125,14.1953125 C164.125,14.3776042 163.927083,14.5416667 163.71875,14.6875 C164.21875,14.7083333 164.65625,14.7838542 165.03125,14.9140625 C165.40625,15.0442708 165.747396,15.2239583 166.054688,15.453125 C166.361979,15.6822917 166.640625,15.9661458 166.890625,16.3046875 C167.140625,16.6432292 167.385417,17.03125 167.625,17.46875 L169.296875,20.40625 C169.796875,21.3125 170.338542,21.9661458 170.921875,22.3671875 C171.505208,22.7682292 172.15625,22.96875 172.875,22.96875 L172.96875,22.96875 L172.96875,24.3125 L171.84375,24.3125 Z" id="Path"></path>
            <path d="M178,19.671875 C178,20.671875 178.210938,21.4192708 178.632812,21.9140625 C179.054688,22.4088542 179.708333,22.65625 180.59375,22.65625 C181.239583,22.65625 181.825521,22.5520833 182.351562,22.34375 C182.877604,22.1354167 183.325521,21.8385417 183.695312,21.453125 C184.065104,21.0677083 184.348958,20.5989583 184.546875,20.046875 C184.744792,19.4947917 184.84375,18.8802083 184.84375,18.203125 L184.84375,15.609375 L182.796875,15.703125 C181.890625,15.7447917 181.132812,15.8567708 180.523438,16.0390625 C179.914062,16.2213542 179.421875,16.4765625 179.046875,16.8046875 C178.671875,17.1328125 178.403646,17.5364583 178.242188,18.015625 C178.080729,18.4947917 178,19.046875 178,19.671875 Z M181.875,8.4375 C181.260417,8.4375 180.763021,8.5234375 180.382812,8.6953125 C180.002604,8.8671875 179.705729,9.109375 179.492188,9.421875 C179.278646,9.734375 179.135417,10.1041667 179.0625,10.53125 C178.989583,10.9583333 178.953125,11.421875 178.953125,11.921875 C178.067708,11.921875 177.393229,11.7708333 176.929688,11.46875 C176.466146,11.1666667 176.234375,10.6458333 176.234375,9.90625 C176.234375,9.35416667 176.385417,8.88541667 176.6875,8.5 C176.989583,8.11458333 177.403646,7.79947917 177.929688,7.5546875 C178.455729,7.30989583 179.067708,7.13020833 179.765625,7.015625 C180.463542,6.90104167 181.208333,6.84375 182,6.84375 C182.979167,6.84375 183.833333,6.94010417 184.5625,7.1328125 C185.291667,7.32552083 185.901042,7.640625 186.390625,8.078125 C186.880208,8.515625 187.247396,9.0859375 187.492188,9.7890625 C187.736979,10.4921875 187.859375,11.3541667 187.859375,12.375 L187.859375,20.671875 C187.859375,21.1197917 187.895833,21.4895833 187.96875,21.78125 C188.041667,22.0729167 188.15625,22.3072917 188.3125,22.484375 C188.46875,22.6614583 188.674479,22.7864583 188.929688,22.859375 C189.184896,22.9322917 189.489583,22.96875 189.84375,22.96875 L189.9375,22.96875 L189.9375,24.3125 L185.609375,24.3125 L185.109375,21.5625 L184.84375,21.5625 C184.510417,22.0104167 184.1875,22.421875 183.875,22.796875 C183.5625,23.171875 183.21875,23.4947917 182.84375,23.765625 C182.46875,24.0364583 182.044271,24.2473958 181.570312,24.3984375 C181.096354,24.5494792 180.526042,24.625 179.859375,24.625 C179.151042,24.625 178.492188,24.5234375 177.882812,24.3203125 C177.273438,24.1171875 176.747396,23.8046875 176.304688,23.3828125 C175.861979,22.9609375 175.515625,22.4296875 175.265625,21.7890625 C175.015625,21.1484375 174.890625,20.390625 174.890625,19.515625 C174.890625,17.8177083 175.494792,16.5572917 176.703125,15.734375 C177.911458,14.9114583 179.739583,14.4635417 182.1875,14.390625 L184.84375,14.296875 L184.84375,12.375 C184.84375,11.8020833 184.8125,11.2734375 184.75,10.7890625 C184.6875,10.3046875 184.552083,9.88802083 184.34375,9.5390625 C184.135417,9.19010417 183.835938,8.91927083 183.445312,8.7265625 C183.054688,8.53385417 182.53125,8.4375 181.875,8.4375 Z" id="Shape"></path>
            <path d="M212.59375,7.15625 L212.59375,8.5 L212.171875,8.5 C211.817708,8.5 211.481771,8.5234375 211.164062,8.5703125 C210.846354,8.6171875 210.567708,8.71614583 210.328125,8.8671875 C210.088542,9.01822917 209.898438,9.23697917 209.757812,9.5234375 C209.617188,9.80989583 209.546875,10.1875 209.546875,10.65625 L209.546875,20.828125 C209.546875,21.296875 209.617188,21.6744792 209.757812,21.9609375 C209.898438,22.2473958 210.088542,22.4635417 210.328125,22.609375 C210.567708,22.7552083 210.846354,22.8515625 211.164062,22.8984375 C211.481771,22.9453125 211.817708,22.96875 212.171875,22.96875 L212.59375,22.96875 L212.59375,24.3125 L203.828125,24.3125 L203.828125,22.96875 L203.921875,22.96875 C204.276042,22.96875 204.611979,22.9453125 204.929688,22.8984375 C205.247396,22.8515625 205.526042,22.7552083 205.765625,22.609375 C206.005208,22.4635417 206.195312,22.2473958 206.335938,21.9609375 C206.476562,21.6744792 206.546875,21.296875 206.546875,20.828125 L206.546875,16.25 L198.09375,16.25 L198.09375,20.828125 C198.09375,21.296875 198.164062,21.6744792 198.304688,21.9609375 C198.445312,22.2473958 198.635417,22.4635417 198.875,22.609375 C199.114583,22.7552083 199.393229,22.8515625 199.710938,22.8984375 C200.028646,22.9453125 200.364583,22.96875 200.71875,22.96875 L200.8125,22.96875 L200.8125,24.3125 L192.046875,24.3125 L192.046875,22.96875 L192.46875,22.96875 C192.822917,22.96875 193.158854,22.9453125 193.476562,22.8984375 C193.794271,22.8515625 194.072917,22.7552083 194.3125,22.609375 C194.552083,22.4635417 194.742188,22.2473958 194.882812,21.9609375 C195.023438,21.6744792 195.09375,21.296875 195.09375,20.828125 L195.09375,10.6875 C195.09375,10.21875 195.023438,9.84114583 194.882812,9.5546875 C194.742188,9.26822917 194.552083,9.046875 194.3125,8.890625 C194.072917,8.734375 193.794271,8.63020833 193.476562,8.578125 C193.158854,8.52604167 192.822917,8.5 192.46875,8.5 L192.046875,8.5 L192.046875,7.15625 L200.8125,7.15625 L200.8125,8.5 L200.71875,8.5 C200.364583,8.5 200.028646,8.5234375 199.710938,8.5703125 C199.393229,8.6171875 199.114583,8.71614583 198.875,8.8671875 C198.635417,9.01822917 198.445312,9.23697917 198.304688,9.5234375 C198.164062,9.80989583 198.09375,10.1875 198.09375,10.65625 L198.09375,14.78125 L206.546875,14.78125 L206.546875,10.6875 C206.546875,10.21875 206.476562,9.84114583 206.335938,9.5546875 C206.195312,9.26822917 206.005208,9.046875 205.765625,8.890625 C205.526042,8.734375 205.247396,8.63020833 204.929688,8.578125 C204.611979,8.52604167 204.276042,8.5 203.921875,8.5 L203.828125,8.5 L203.828125,7.15625 L212.59375,7.15625 Z" id="Path"></path>
            <path d="M218.03125,19.671875 C218.03125,20.671875 218.242188,21.4192708 218.664062,21.9140625 C219.085938,22.4088542 219.739583,22.65625 220.625,22.65625 C221.270833,22.65625 221.856771,22.5520833 222.382812,22.34375 C222.908854,22.1354167 223.356771,21.8385417 223.726562,21.453125 C224.096354,21.0677083 224.380208,20.5989583 224.578125,20.046875 C224.776042,19.4947917 224.875,18.8802083 224.875,18.203125 L224.875,15.609375 L222.828125,15.703125 C221.921875,15.7447917 221.164062,15.8567708 220.554688,16.0390625 C219.945312,16.2213542 219.453125,16.4765625 219.078125,16.8046875 C218.703125,17.1328125 218.434896,17.5364583 218.273438,18.015625 C218.111979,18.4947917 218.03125,19.046875 218.03125,19.671875 Z M221.90625,8.4375 C221.291667,8.4375 220.794271,8.5234375 220.414062,8.6953125 C220.033854,8.8671875 219.736979,9.109375 219.523438,9.421875 C219.309896,9.734375 219.166667,10.1041667 219.09375,10.53125 C219.020833,10.9583333 218.984375,11.421875 218.984375,11.921875 C218.098958,11.921875 217.424479,11.7708333 216.960938,11.46875 C216.497396,11.1666667 216.265625,10.6458333 216.265625,9.90625 C216.265625,9.35416667 216.416667,8.88541667 216.71875,8.5 C217.020833,8.11458333 217.434896,7.79947917 217.960938,7.5546875 C218.486979,7.30989583 219.098958,7.13020833 219.796875,7.015625 C220.494792,6.90104167 221.239583,6.84375 222.03125,6.84375 C223.010417,6.84375 223.864583,6.94010417 224.59375,7.1328125 C225.322917,7.32552083 225.932292,7.640625 226.421875,8.078125 C226.911458,8.515625 227.278646,9.0859375 227.523438,9.7890625 C227.768229,10.4921875 227.890625,11.3541667 227.890625,12.375 L227.890625,20.671875 C227.890625,21.1197917 227.927083,21.4895833 228,21.78125 C228.072917,22.0729167 228.1875,22.3072917 228.34375,22.484375 C228.5,22.6614583 228.705729,22.7864583 228.960938,22.859375 C229.216146,22.9322917 229.520833,22.96875 229.875,22.96875 L229.96875,22.96875 L229.96875,24.3125 L225.640625,24.3125 L225.140625,21.5625 L224.875,21.5625 C224.541667,22.0104167 224.21875,22.421875 223.90625,22.796875 C223.59375,23.171875 223.25,23.4947917 222.875,23.765625 C222.5,24.0364583 222.075521,24.2473958 221.601562,24.3984375 C221.127604,24.5494792 220.557292,24.625 219.890625,24.625 C219.182292,24.625 218.523438,24.5234375 217.914062,24.3203125 C217.304688,24.1171875 216.778646,23.8046875 216.335938,23.3828125 C215.893229,22.9609375 215.546875,22.4296875 215.296875,21.7890625 C215.046875,21.1484375 214.921875,20.390625 214.921875,19.515625 C214.921875,17.8177083 215.526042,16.5572917 216.734375,15.734375 C217.942708,14.9114583 219.770833,14.4635417 222.21875,14.390625 L224.875,14.296875 L224.875,12.375 C224.875,11.8020833 224.84375,11.2734375 224.78125,10.7890625 C224.71875,10.3046875 224.583333,9.88802083 224.375,9.5390625 C224.166667,9.19010417 223.867188,8.91927083 223.476562,8.7265625 C223.085938,8.53385417 222.5625,8.4375 221.90625,8.4375 Z" id="Shape"></path>
            <path d="M238.703125,10.484375 C238.703125,10.0572917 238.632812,9.71614583 238.492188,9.4609375 C238.351562,9.20572917 238.161458,9.00520833 237.921875,8.859375 C237.682292,8.71354167 237.403646,8.6171875 237.085938,8.5703125 C236.768229,8.5234375 236.432292,8.5 236.078125,8.5 L235.65625,8.5 L235.65625,7.15625 L250.703125,7.15625 L250.703125,8.5 L250.28125,8.5 C249.927083,8.5 249.591146,8.5234375 249.273438,8.5703125 C248.955729,8.6171875 248.677083,8.71614583 248.4375,8.8671875 C248.197917,9.01822917 248.007812,9.23697917 247.867188,9.5234375 C247.726562,9.80989583 247.65625,10.1875 247.65625,10.65625 L247.65625,20.828125 C247.65625,21.296875 247.726562,21.6744792 247.867188,21.9609375 C248.007812,22.2473958 248.197917,22.4635417 248.4375,22.609375 C248.677083,22.7552083 248.955729,22.8515625 249.273438,22.8984375 C249.591146,22.9453125 249.927083,22.96875 250.28125,22.96875 L250.703125,22.96875 L250.703125,24.3125 L241.9375,24.3125 L241.9375,22.96875 L242.03125,22.96875 C242.385417,22.96875 242.721354,22.9453125 243.039062,22.8984375 C243.356771,22.8515625 243.635417,22.7552083 243.875,22.609375 C244.114583,22.4635417 244.304688,22.2473958 244.445312,21.9609375 C244.585938,21.6744792 244.65625,21.296875 244.65625,20.828125 L244.65625,8.625 L240.53125,8.625 C240.427083,9.60416667 240.307292,10.5807292 240.171875,11.5546875 C240.036458,12.5286458 239.890625,13.4739583 239.734375,14.390625 C239.578125,15.3072917 239.408854,16.1848958 239.226562,17.0234375 C239.044271,17.8619792 238.848958,18.640625 238.640625,19.359375 C238.348958,20.328125 238.052083,21.1432292 237.75,21.8046875 C237.447917,22.4661458 237.111979,23 236.742188,23.40625 C236.372396,23.8125 235.955729,24.1015625 235.492188,24.2734375 C235.028646,24.4453125 234.5,24.53125 233.90625,24.53125 C233.052083,24.53125 232.411458,24.3359375 231.984375,23.9453125 C231.557292,23.5546875 231.34375,23.0052083 231.34375,22.296875 C231.34375,21.7447917 231.46875,21.28125 231.71875,20.90625 C231.96875,20.53125 232.3125,20.34375 232.75,20.34375 C232.75,20.4895833 232.78125,20.6484375 232.84375,20.8203125 C232.90625,20.9921875 233.002604,21.1536458 233.132812,21.3046875 C233.263021,21.4557292 233.427083,21.5833333 233.625,21.6875 C233.822917,21.7916667 234.052083,21.84375 234.3125,21.84375 C234.614583,21.84375 234.898438,21.7994792 235.164062,21.7109375 C235.429688,21.6223958 235.692708,21.421875 235.953125,21.109375 C236.213542,20.796875 236.471354,20.34375 236.726562,19.75 C236.981771,19.15625 237.244792,18.3541667 237.515625,17.34375 C237.640625,16.90625 237.770833,16.3776042 237.90625,15.7578125 C238.041667,15.1380208 238.169271,14.5052083 238.289062,13.859375 C238.408854,13.2135417 238.507812,12.5911458 238.585938,11.9921875 C238.664062,11.3932292 238.703125,10.890625 238.703125,10.484375 Z" id="Path"></path>
        </g>
        <g id="@haywiki" transform="translate(63.757813, 58.687500)" fill="#2399D6" fill-rule="nonzero">
            <path d="M25.703125,11.765625 C25.703125,13.3072917 25.515625,14.7005208 25.140625,15.9453125 C24.765625,17.1901042 24.2760417,18.25 23.671875,19.125 C23.0677083,20 22.3932292,20.671875 21.6484375,21.140625 C20.9036458,21.609375 20.1614583,21.84375 19.421875,21.84375 C18.4739583,21.84375 17.6848958,21.5885417 17.0546875,21.078125 C16.4244792,20.5677083 15.9583333,19.8541667 15.65625,18.9375 L15.484375,18.9375 C15.265625,19.3541667 15.0182292,19.7395833 14.7421875,20.09375 C14.4661458,20.4479167 14.1536458,20.7552083 13.8046875,21.015625 C13.4557292,21.2760417 13.0651042,21.4791667 12.6328125,21.625 C12.2005208,21.7708333 11.7135417,21.84375 11.171875,21.84375 C10.5260417,21.84375 9.90885417,21.734375 9.3203125,21.515625 C8.73177083,21.296875 8.21614583,20.9635417 7.7734375,20.515625 C7.33072917,20.0677083 6.9765625,19.5 6.7109375,18.8125 C6.4453125,18.125 6.3125,17.3125 6.3125,16.375 C6.3125,15.8020833 6.37760417,15.1822917 6.5078125,14.515625 C6.63802083,13.8489583 6.84114583,13.1848958 7.1171875,12.5234375 C7.39322917,11.8619792 7.74739583,11.2213542 8.1796875,10.6015625 C8.61197917,9.98177083 9.13020833,9.43489583 9.734375,8.9609375 C10.3385417,8.48697917 11.0338542,8.10677083 11.8203125,7.8203125 C12.6067708,7.53385417 13.4895833,7.390625 14.46875,7.390625 C15.15625,7.390625 15.7473958,7.484375 16.2421875,7.671875 C16.7369792,7.859375 17.1458333,8.08333333 17.46875,8.34375 L18.75,7.671875 L19.515625,7.671875 L17.890625,15.828125 C17.859375,16.078125 17.8229167,16.328125 17.78125,16.578125 C17.75,16.7864583 17.7239583,17.015625 17.703125,17.265625 C17.6822917,17.515625 17.671875,17.75 17.671875,17.96875 C17.671875,18.34375 17.7265625,18.6692708 17.8359375,18.9453125 C17.9453125,19.2213542 18.0885417,19.4505208 18.265625,19.6328125 C18.4427083,19.8151042 18.6484375,19.9479167 18.8828125,20.03125 C19.1171875,20.1145833 19.3645833,20.15625 19.625,20.15625 C20.09375,20.15625 20.5729167,19.96875 21.0625,19.59375 C21.5520833,19.21875 21.9947917,18.6692708 22.390625,17.9453125 C22.7864583,17.2213542 23.1119792,16.3333333 23.3671875,15.28125 C23.6223958,14.2291667 23.75,13.0260417 23.75,11.671875 C23.75,10.2760417 23.5260417,9.04427083 23.078125,7.9765625 C22.6302083,6.90885417 22.0078125,6.01302083 21.2109375,5.2890625 C20.4140625,4.56510417 19.4609375,4.01822917 18.3515625,3.6484375 C17.2421875,3.27864583 16.0208333,3.09375 14.6875,3.09375 C13.6458333,3.09375 12.6223958,3.23958333 11.6171875,3.53125 C10.6119792,3.82291667 9.66145833,4.25260417 8.765625,4.8203125 C7.86979167,5.38802083 7.0390625,6.08072917 6.2734375,6.8984375 C5.5078125,7.71614583 4.84895833,8.6484375 4.296875,9.6953125 C3.74479167,10.7421875 3.3125,11.9010417 3,13.171875 C2.6875,14.4427083 2.53125,15.8072917 2.53125,17.265625 C2.53125,19.046875 2.78645833,20.5651042 3.296875,21.8203125 C3.80729167,23.0755208 4.49739583,24.1015625 5.3671875,24.8984375 C6.23697917,25.6953125 7.24739583,26.2760417 8.3984375,26.640625 C9.54947917,27.0052083 10.7708333,27.1875 12.0625,27.1875 C12.9375,27.1875 13.765625,27.1119792 14.546875,26.9609375 C15.328125,26.8098958 16.0598958,26.609375 16.7421875,26.359375 C17.4244792,26.109375 18.0546875,25.8255208 18.6328125,25.5078125 C19.2109375,25.1901042 19.7291667,24.8645833 20.1875,24.53125 L20.9375,25.6875 C20.40625,26.0833333 19.8125,26.4713542 19.15625,26.8515625 C18.5,27.2317708 17.7890625,27.5703125 17.0234375,27.8671875 C16.2578125,28.1640625 15.4348958,28.4036458 14.5546875,28.5859375 C13.6744792,28.7682292 12.7395833,28.859375 11.75,28.859375 C10.03125,28.859375 8.453125,28.6223958 7.015625,28.1484375 C5.578125,27.6744792 4.34114583,26.9583333 3.3046875,26 C2.26822917,25.0416667 1.45833333,23.84375 0.875,22.40625 C0.291666667,20.96875 0,19.28125 0,17.34375 C0,15.8333333 0.1640625,14.3932292 0.4921875,13.0234375 C0.8203125,11.6536458 1.29427083,10.3802083 1.9140625,9.203125 C2.53385417,8.02604167 3.28385417,6.9609375 4.1640625,6.0078125 C5.04427083,5.0546875 6.03645833,4.2421875 7.140625,3.5703125 C8.24479167,2.8984375 9.4453125,2.38020833 10.7421875,2.015625 C12.0390625,1.65104167 13.4166667,1.46875 14.875,1.46875 C16.6666667,1.46875 18.2395833,1.734375 19.59375,2.265625 C20.9479167,2.796875 22.078125,3.5234375 22.984375,4.4453125 C23.890625,5.3671875 24.5703125,6.45572917 25.0234375,7.7109375 C25.4765625,8.96614583 25.703125,10.3177083 25.703125,11.765625 Z M9.28125,16.828125 C9.28125,17.953125 9.5078125,18.7890625 9.9609375,19.3359375 C10.4140625,19.8828125 11,20.15625 11.71875,20.15625 C12.2604167,20.15625 12.7291667,20.0390625 13.125,19.8046875 C13.5208333,19.5703125 13.8541667,19.265625 14.125,18.890625 C14.3958333,18.515625 14.6145833,18.0885417 14.78125,17.609375 C14.9479167,17.1302083 15.078125,16.6458333 15.171875,16.15625 L16.390625,9.65625 C16.2552083,9.35416667 16.0182292,9.11979167 15.6796875,8.953125 C15.3411458,8.78645833 14.9791667,8.703125 14.59375,8.703125 C13.9583333,8.703125 13.3828125,8.84114583 12.8671875,9.1171875 C12.3515625,9.39322917 11.8984375,9.75520833 11.5078125,10.203125 C11.1171875,10.6510417 10.78125,11.1640625 10.5,11.7421875 C10.21875,12.3203125 9.98697917,12.9114583 9.8046875,13.515625 C9.62239583,14.1197917 9.48958333,14.7083333 9.40625,15.28125 C9.32291667,15.8541667 9.28125,16.3697917 9.28125,16.828125 Z" id="Shape"></path>
            <path d="M36.578125,22.96875 L36.578125,24.3125 L27.96875,24.3125 L27.96875,22.96875 L28.21875,22.96875 C28.5833333,22.96875 28.9244792,22.9427083 29.2421875,22.890625 C29.5598958,22.8385417 29.8359375,22.7317708 30.0703125,22.5703125 C30.3046875,22.4088542 30.4921875,22.1770833 30.6328125,21.875 C30.7734375,21.5729167 30.84375,21.171875 30.84375,20.671875 L30.84375,3.515625 C30.84375,3.046875 30.7734375,2.66927083 30.6328125,2.3828125 C30.4921875,2.09635417 30.3020833,1.875 30.0625,1.71875 C29.8229167,1.5625 29.5442708,1.4609375 29.2265625,1.4140625 C28.9088542,1.3671875 28.5729167,1.34375 28.21875,1.34375 L27.96875,1.34375 L27.96875,0 L33.859375,0 L33.859375,7.03125 C33.859375,7.32291667 33.8541667,7.62760417 33.84375,7.9453125 C33.8333333,8.26302083 33.8177083,8.55729167 33.796875,8.828125 C33.7760417,9.140625 33.7552083,9.44791667 33.734375,9.75 L33.890625,9.75 C34.8489583,7.8125 36.4166667,6.84375 38.59375,6.84375 C39.5,6.84375 40.3046875,6.96614583 41.0078125,7.2109375 C41.7109375,7.45572917 42.3020833,7.83072917 42.78125,8.3359375 C43.2604167,8.84114583 43.625,9.48958333 43.875,10.28125 C44.125,11.0729167 44.25,12.015625 44.25,13.109375 L44.25,20.671875 C44.25,21.171875 44.3125,21.5729167 44.4375,21.875 C44.5625,22.1770833 44.734375,22.4088542 44.953125,22.5703125 C45.171875,22.7317708 45.4322917,22.8385417 45.734375,22.890625 C46.0364583,22.9427083 46.3645833,22.96875 46.71875,22.96875 L46.8125,22.96875 L46.8125,24.3125 L41.25,24.3125 L41.25,13.265625 C41.25,12.5677083 41.1875,11.9479167 41.0625,11.40625 C40.9375,10.8645833 40.7369792,10.40625 40.4609375,10.03125 C40.1848958,9.65625 39.8229167,9.37239583 39.375,9.1796875 C38.9270833,8.98697917 38.3802083,8.890625 37.734375,8.890625 C37.0677083,8.890625 36.4921875,9.01302083 36.0078125,9.2578125 C35.5234375,9.50260417 35.1223958,9.8515625 34.8046875,10.3046875 C34.4869792,10.7578125 34.25,11.3046875 34.09375,11.9453125 C33.9375,12.5859375 33.859375,13.296875 33.859375,14.078125 L33.859375,20.828125 C33.859375,21.296875 33.9296875,21.6744792 34.0703125,21.9609375 C34.2109375,22.2473958 34.4010417,22.4635417 34.640625,22.609375 C34.8802083,22.7552083 35.1588542,22.8515625 35.4765625,22.8984375 C35.7942708,22.9453125 36.1302083,22.96875 36.484375,22.96875 L36.578125,22.96875 Z" id="Path"></path>
            <path d="M52.40625,19.671875 C52.40625,20.671875 52.6171875,21.4192708 53.0390625,21.9140625 C53.4609375,22.4088542 54.1145833,22.65625 55,22.65625 C55.6458333,22.65625 56.2317708,22.5520833 56.7578125,22.34375 C57.2838542,22.1354167 57.7317708,21.8385417 58.1015625,21.453125 C58.4713542,21.0677083 58.7552083,20.5989583 58.953125,20.046875 C59.1510417,19.4947917 59.25,18.8802083 59.25,18.203125 L59.25,15.609375 L57.203125,15.703125 C56.296875,15.7447917 55.5390625,15.8567708 54.9296875,16.0390625 C54.3203125,16.2213542 53.828125,16.4765625 53.453125,16.8046875 C53.078125,17.1328125 52.8098958,17.5364583 52.6484375,18.015625 C52.4869792,18.4947917 52.40625,19.046875 52.40625,19.671875 Z M56.28125,8.4375 C55.6666667,8.4375 55.1692708,8.5234375 54.7890625,8.6953125 C54.4088542,8.8671875 54.1119792,9.109375 53.8984375,9.421875 C53.6848958,9.734375 53.5416667,10.1041667 53.46875,10.53125 C53.3958333,10.9583333 53.359375,11.421875 53.359375,11.921875 C52.4739583,11.921875 51.7994792,11.7708333 51.3359375,11.46875 C50.8723958,11.1666667 50.640625,10.6458333 50.640625,9.90625 C50.640625,9.35416667 50.7916667,8.88541667 51.09375,8.5 C51.3958333,8.11458333 51.8098958,7.79947917 52.3359375,7.5546875 C52.8619792,7.30989583 53.4739583,7.13020833 54.171875,7.015625 C54.8697917,6.90104167 55.6145833,6.84375 56.40625,6.84375 C57.3854167,6.84375 58.2395833,6.94010417 58.96875,7.1328125 C59.6979167,7.32552083 60.3072917,7.640625 60.796875,8.078125 C61.2864583,8.515625 61.6536458,9.0859375 61.8984375,9.7890625 C62.1432292,10.4921875 62.265625,11.3541667 62.265625,12.375 L62.265625,20.671875 C62.265625,21.1197917 62.3020833,21.4895833 62.375,21.78125 C62.4479167,22.0729167 62.5625,22.3072917 62.71875,22.484375 C62.875,22.6614583 63.0807292,22.7864583 63.3359375,22.859375 C63.5911458,22.9322917 63.8958333,22.96875 64.25,22.96875 L64.34375,22.96875 L64.34375,24.3125 L60.015625,24.3125 L59.515625,21.5625 L59.25,21.5625 C58.9166667,22.0104167 58.59375,22.421875 58.28125,22.796875 C57.96875,23.171875 57.625,23.4947917 57.25,23.765625 C56.875,24.0364583 56.4505208,24.2473958 55.9765625,24.3984375 C55.5026042,24.5494792 54.9322917,24.625 54.265625,24.625 C53.5572917,24.625 52.8984375,24.5234375 52.2890625,24.3203125 C51.6796875,24.1171875 51.1536458,23.8046875 50.7109375,23.3828125 C50.2682292,22.9609375 49.921875,22.4296875 49.671875,21.7890625 C49.421875,21.1484375 49.296875,20.390625 49.296875,19.515625 C49.296875,17.8177083 49.9010417,16.5572917 51.109375,15.734375 C52.3177083,14.9114583 54.1458333,14.4635417 56.59375,14.390625 L59.25,14.296875 L59.25,12.375 C59.25,11.8020833 59.21875,11.2734375 59.15625,10.7890625 C59.09375,10.3046875 58.9583333,9.88802083 58.75,9.5390625 C58.5416667,9.19010417 58.2421875,8.91927083 57.8515625,8.7265625 C57.4609375,8.53385417 56.9375,8.4375 56.28125,8.4375 Z" id="Shape"></path>
            <path d="M83.796875,7.15625 L83.796875,8.5 L83.703125,8.5 C83.390625,8.5 83.1223958,8.53385417 82.8984375,8.6015625 C82.6744792,8.66927083 82.4713542,8.796875 82.2890625,8.984375 C82.1067708,9.171875 81.9375,9.42708333 81.78125,9.75 C81.625,10.0729167 81.453125,10.4895833 81.265625,11 L76.40625,24.4375 C76.03125,25.46875 75.6770833,26.375 75.34375,27.15625 C75.0104167,27.9375 74.6614583,28.6067708 74.296875,29.1640625 C73.9322917,29.7213542 73.5338542,30.1822917 73.1015625,30.546875 C72.6692708,30.9114583 72.1770833,31.203125 71.625,31.421875 C71.0729167,31.640625 70.4375,31.7916667 69.71875,31.875 C69,31.9583333 68.1666667,32 67.21875,32 L66.9375,32 L66.9375,30.484375 C68.0208333,30.484375 68.953125,30.3229167 69.734375,30 C70.515625,29.6770833 71.1901042,29.234375 71.7578125,28.671875 C72.3255208,28.109375 72.7994792,27.4453125 73.1796875,26.6796875 C73.5598958,25.9140625 73.8802083,25.0833333 74.140625,24.1875 L68.21875,10.203125 C68.0729167,9.86979167 67.9322917,9.59635417 67.796875,9.3828125 C67.6614583,9.16927083 67.5078125,8.99479167 67.3359375,8.859375 C67.1640625,8.72395833 66.9661458,8.63020833 66.7421875,8.578125 C66.5182292,8.52604167 66.25,8.5 65.9375,8.5 L65.84375,8.5 L65.84375,7.15625 L73.53125,7.15625 L73.53125,8.5 L73.4375,8.5 C72.7916667,8.5 72.3098958,8.625 71.9921875,8.875 C71.6744792,9.125 71.515625,9.515625 71.515625,10.046875 C71.515625,10.2239583 71.5338542,10.4036458 71.5703125,10.5859375 C71.6067708,10.7682292 71.671875,10.9791667 71.765625,11.21875 L74.109375,16.921875 C74.2552083,17.2864583 74.4088542,17.6848958 74.5703125,18.1171875 C74.7317708,18.5494792 74.8828125,18.9765625 75.0234375,19.3984375 C75.1640625,19.8203125 75.2916667,20.21875 75.40625,20.59375 C75.5208333,20.96875 75.5989583,21.2916667 75.640625,21.5625 L75.734375,21.5625 C75.8489583,21.09375 76.0078125,20.5234375 76.2109375,19.8515625 C76.4140625,19.1796875 76.6510417,18.4583333 76.921875,17.6875 L79.0625,11.453125 C79.15625,11.1927083 79.2265625,10.9427083 79.2734375,10.703125 C79.3203125,10.4635417 79.34375,10.2552083 79.34375,10.078125 C79.34375,9.52604167 79.1692708,9.125 78.8203125,8.875 C78.4713542,8.625 77.9427083,8.5 77.234375,8.5 L77.140625,8.5 L77.140625,7.15625 L83.796875,7.15625 Z" id="Path"></path>
            <path d="M99.03125,7.25 L102.234375,16.734375 C102.359375,17.1197917 102.492188,17.5338542 102.632812,17.9765625 C102.773438,18.4192708 102.90625,18.8567708 103.03125,19.2890625 C103.15625,19.7213542 103.270833,20.1302083 103.375,20.515625 C103.479167,20.9010417 103.557292,21.2291667 103.609375,21.5 L103.703125,21.5 C103.796875,20.96875 103.947917,20.3151042 104.15625,19.5390625 C104.364583,18.7630208 104.630208,17.859375 104.953125,16.828125 L106.546875,11.671875 C106.630208,11.4010417 106.700521,11.1119792 106.757812,10.8046875 C106.815104,10.4973958 106.84375,10.2552083 106.84375,10.078125 C106.84375,9.52604167 106.669271,9.125 106.320312,8.875 C105.971354,8.625 105.4375,8.5 104.71875,8.5 L104.5,8.5 L104.5,7.15625 L111.34375,7.15625 L111.34375,8.5 L110.9375,8.5 C110.625,8.5 110.354167,8.53125 110.125,8.59375 C109.895833,8.65625 109.690104,8.77864583 109.507812,8.9609375 C109.325521,9.14322917 109.15625,9.39583333 109,9.71875 C108.84375,10.0416667 108.6875,10.46875 108.53125,11 L104.40625,24.3125 L101.84375,24.3125 L98.03125,13.046875 L97.453125,10.9375 L92.921875,24.3125 L90.390625,24.3125 L86.203125,10.203125 C86.078125,9.86979167 85.9479167,9.59375 85.8125,9.375 C85.6770833,9.15625 85.5208333,8.98177083 85.34375,8.8515625 C85.1666667,8.72135417 84.9635417,8.63020833 84.734375,8.578125 C84.5052083,8.52604167 84.234375,8.5 83.921875,8.5 L83.828125,8.5 L83.828125,7.15625 L91.734375,7.15625 L91.734375,8.5 L91.3125,8.5 C90.6770833,8.5 90.1979167,8.59375 89.875,8.78125 C89.5520833,8.96875 89.390625,9.32291667 89.390625,9.84375 C89.390625,10.0208333 89.4192708,10.234375 89.4765625,10.484375 C89.5338542,10.734375 89.59375,10.9791667 89.65625,11.21875 L91.15625,16.59375 C91.2604167,16.9791667 91.3697917,17.4010417 91.484375,17.859375 C91.5989583,18.3177083 91.7057292,18.7734375 91.8046875,19.2265625 C91.9036458,19.6796875 91.9947917,20.1041667 92.078125,20.5 C92.1614583,20.8958333 92.2291667,21.2291667 92.28125,21.5 L92.375,21.5 C92.4270833,21.2291667 92.4973958,20.9140625 92.5859375,20.5546875 C92.6744792,20.1953125 92.7786458,19.8098958 92.8984375,19.3984375 C93.0182292,18.9869792 93.1458333,18.5677083 93.28125,18.140625 C93.4166667,17.7135417 93.5520833,17.3072917 93.6875,16.921875 L97.015625,7.25 L99.03125,7.25 Z" id="Path"></path>
            <path d="M112.53125,22.96875 C112.885417,22.96875 113.221354,22.9453125 113.539062,22.8984375 C113.856771,22.8515625 114.135417,22.7552083 114.375,22.609375 C114.614583,22.4635417 114.804688,22.2473958 114.945312,21.9609375 C115.085938,21.6744792 115.15625,21.296875 115.15625,20.828125 L115.15625,10.6875 C115.15625,10.21875 115.085938,9.84114583 114.945312,9.5546875 C114.804688,9.26822917 114.614583,9.046875 114.375,8.890625 C114.135417,8.734375 113.856771,8.63020833 113.539062,8.578125 C113.221354,8.52604167 112.885417,8.5 112.53125,8.5 L112.4375,8.5 L112.4375,7.15625 L118.15625,7.15625 L118.15625,20.671875 C118.15625,21.171875 118.226562,21.5729167 118.367188,21.875 C118.507812,22.1770833 118.695312,22.4088542 118.929688,22.5703125 C119.164062,22.7317708 119.442708,22.8385417 119.765625,22.890625 C120.088542,22.9427083 120.427083,22.96875 120.78125,22.96875 L121.203125,22.96875 L121.203125,24.3125 L112.109375,24.3125 L112.109375,22.96875 L112.53125,22.96875 Z M114.703125,1.96875 C114.703125,1.59375 114.75,1.28125 114.84375,1.03125 C114.9375,0.78125 115.067708,0.578125 115.234375,0.421875 C115.401042,0.265625 115.59375,0.15625 115.8125,0.09375 C116.03125,0.03125 116.270833,0 116.53125,0 C116.78125,0 117.015625,0.03125 117.234375,0.09375 C117.453125,0.15625 117.643229,0.265625 117.804688,0.421875 C117.966146,0.578125 118.096354,0.78125 118.195312,1.03125 C118.294271,1.28125 118.34375,1.59375 118.34375,1.96875 C118.34375,2.34375 118.294271,2.65625 118.195312,2.90625 C118.096354,3.15625 117.966146,3.359375 117.804688,3.515625 C117.643229,3.671875 117.453125,3.78385417 117.234375,3.8515625 C117.015625,3.91927083 116.78125,3.953125 116.53125,3.953125 C116.270833,3.953125 116.03125,3.91927083 115.8125,3.8515625 C115.59375,3.78385417 115.401042,3.671875 115.234375,3.515625 C115.067708,3.359375 114.9375,3.15625 114.84375,2.90625 C114.75,2.65625 114.703125,2.34375 114.703125,1.96875 Z" id="Shape"></path>
            <path d="M132.453125,14.015625 L136.71875,20.34375 C137.270833,21.1979167 137.820312,21.8489583 138.367188,22.296875 C138.914062,22.7447917 139.546875,22.96875 140.265625,22.96875 L140.359375,22.96875 L140.359375,24.3125 L139.90625,24.3125 C138.979167,24.3125 138.216146,24.2838542 137.617188,24.2265625 C137.018229,24.1692708 136.5,24.0338542 136.0625,23.8203125 C135.625,23.6067708 135.223958,23.2942708 134.859375,22.8828125 C134.494792,22.4713542 134.088542,21.9114583 133.640625,21.203125 L130.4375,16.1875 L128.078125,17.9375 L128.078125,20.828125 C128.078125,21.296875 128.148438,21.6744792 128.289062,21.9609375 C128.429688,22.2473958 128.619792,22.4635417 128.859375,22.609375 C129.098958,22.7552083 129.377604,22.8515625 129.695312,22.8984375 C130.013021,22.9453125 130.348958,22.96875 130.703125,22.96875 L130.796875,22.96875 L130.796875,24.3125 L122.1875,24.3125 L122.1875,22.96875 L122.4375,22.96875 C122.802083,22.96875 123.143229,22.9427083 123.460938,22.890625 C123.778646,22.8385417 124.054688,22.7317708 124.289062,22.5703125 C124.523438,22.4088542 124.710938,22.1770833 124.851562,21.875 C124.992188,21.5729167 125.0625,21.171875 125.0625,20.671875 L125.0625,3.515625 C125.0625,3.046875 124.992188,2.66927083 124.851562,2.3828125 C124.710938,2.09635417 124.520833,1.875 124.28125,1.71875 C124.041667,1.5625 123.763021,1.4609375 123.445312,1.4140625 C123.127604,1.3671875 122.791667,1.34375 122.4375,1.34375 L122.1875,1.34375 L122.1875,0 L128.078125,0 L128.078125,12.34375 C128.078125,12.6354167 128.072917,13.0078125 128.0625,13.4609375 C128.052083,13.9140625 128.036458,14.359375 128.015625,14.796875 C127.994792,15.296875 127.973958,15.8229167 127.953125,16.375 L131.953125,12 C132.296875,11.6145833 132.580729,11.2760417 132.804688,10.984375 C133.028646,10.6927083 133.208333,10.4375 133.34375,10.21875 C133.479167,10 133.572917,9.8046875 133.625,9.6328125 C133.677083,9.4609375 133.703125,9.296875 133.703125,9.140625 C133.703125,8.86979167 133.575521,8.6953125 133.320312,8.6171875 C133.065104,8.5390625 132.671875,8.5 132.140625,8.5 L132.140625,7.15625 L139.203125,7.15625 L139.203125,8.5 C138.463542,8.5 137.736979,8.76041667 137.023438,9.28125 C136.309896,9.80208333 135.536458,10.5364583 134.703125,11.484375 L132.453125,14.015625 Z" id="Path"></path>
            <path d="M141.484375,22.96875 C141.838542,22.96875 142.174479,22.9453125 142.492188,22.8984375 C142.809896,22.8515625 143.088542,22.7552083 143.328125,22.609375 C143.567708,22.4635417 143.757812,22.2473958 143.898438,21.9609375 C144.039062,21.6744792 144.109375,21.296875 144.109375,20.828125 L144.109375,10.6875 C144.109375,10.21875 144.039062,9.84114583 143.898438,9.5546875 C143.757812,9.26822917 143.567708,9.046875 143.328125,8.890625 C143.088542,8.734375 142.809896,8.63020833 142.492188,8.578125 C142.174479,8.52604167 141.838542,8.5 141.484375,8.5 L141.390625,8.5 L141.390625,7.15625 L147.109375,7.15625 L147.109375,20.671875 C147.109375,21.171875 147.179688,21.5729167 147.320312,21.875 C147.460938,22.1770833 147.648438,22.4088542 147.882812,22.5703125 C148.117188,22.7317708 148.395833,22.8385417 148.71875,22.890625 C149.041667,22.9427083 149.380208,22.96875 149.734375,22.96875 L150.15625,22.96875 L150.15625,24.3125 L141.0625,24.3125 L141.0625,22.96875 L141.484375,22.96875 Z M143.65625,1.96875 C143.65625,1.59375 143.703125,1.28125 143.796875,1.03125 C143.890625,0.78125 144.020833,0.578125 144.1875,0.421875 C144.354167,0.265625 144.546875,0.15625 144.765625,0.09375 C144.984375,0.03125 145.223958,0 145.484375,0 C145.734375,0 145.96875,0.03125 146.1875,0.09375 C146.40625,0.15625 146.596354,0.265625 146.757812,0.421875 C146.919271,0.578125 147.049479,0.78125 147.148438,1.03125 C147.247396,1.28125 147.296875,1.59375 147.296875,1.96875 C147.296875,2.34375 147.247396,2.65625 147.148438,2.90625 C147.049479,3.15625 146.919271,3.359375 146.757812,3.515625 C146.596354,3.671875 146.40625,3.78385417 146.1875,3.8515625 C145.96875,3.91927083 145.734375,3.953125 145.484375,3.953125 C145.223958,3.953125 144.984375,3.91927083 144.765625,3.8515625 C144.546875,3.78385417 144.354167,3.671875 144.1875,3.515625 C144.020833,3.359375 143.890625,3.15625 143.796875,2.90625 C143.703125,2.65625 143.65625,2.34375 143.65625,1.96875 Z" id="Shape"></path>
            <polygon id="Path" points="20.0234375 26.53125 27.390625 26.53125 27.390625 28.625 20.0234375 28.625"></polygon>
            <polygon id="Path" points="27.390625 26.53125 47.703125 26.53125 47.703125 28.625 27.390625 28.625"></polygon>
            <polygon id="Path" points="47.703125 26.53125 65.71875 26.53125 65.71875 28.625 47.703125 28.625"></polygon>
            <polygon id="Path" points="65.71875 26.53125 70.2382812 26.53125 70.2382812 28.625 65.71875 28.625"></polygon>
            <polygon id="Path" points="79.2773438 26.53125 83.796875 26.53125 83.796875 28.625 79.2773438 28.625"></polygon>
            <polygon id="Path" points="83.796875 26.53125 111.375 26.53125 111.375 28.625 83.796875 28.625"></polygon>
            <polygon id="Path" points="111.375 26.53125 121.609375 26.53125 121.609375 28.625 111.375 28.625"></polygon>
            <polygon id="Path" points="121.609375 26.53125 140.328125 26.53125 140.328125 28.625 121.609375 28.625"></polygon>
            <polygon id="Path" points="140.328125 26.53125 150.15625 26.53125 150.15625 28.625 140.328125 28.625"></polygon>
        </g>
        <g id="Logo" transform="translate(280.000000, 0.000000)" fill-rule="nonzero">
            <circle id="Oval" fill="url(#linearGradient-1)" cx="50" cy="50" r="50"></circle>
            <path d="M33.3333333,53.0241296 L39.2875216,69.4325019 C39.2875216,69.4325019 40.031952,70.9677419 40.829078,70.9677419 C41.6262039,70.9677419 53.4823031,58.6874873 53.4823031,58.6874873 L66.6666667,33.3333333 L33.5457887,48.7885827 L33.3333333,53.0241296 Z" id="Path" fill="#C8DAEA"></path>
            <path d="M42.0459986,58.0645161 L40.8806237,69.4211655 C40.8806237,69.4211655 40.3928122,72.9009624 44.1869964,69.4211655 C47.9811807,65.9413687 51.6129032,63.2580152 51.6129032,63.2580152" id="Path" fill="#A9C6D8"></path>
            <path d="M34.7237843,54.2808849 L22.5819138,50.252344 C22.5819138,50.252344 21.1308264,49.6528336 21.5980765,48.2933805 C21.6942629,48.0130461 21.888294,47.7745085 22.468729,47.3645616 C25.1590451,45.4549944 72.2642454,28.2140045 72.2642454,28.2140045 C72.2642454,28.2140045 73.5942707,27.7576167 74.3786871,28.0611716 C74.773766,28.1857094 75.0723879,28.5172258 75.1602013,28.9287729 C75.2449587,29.2858057 75.2804026,29.6531313 75.2655088,30.0201351 C75.2617775,30.3376223 75.2240492,30.631889 75.195442,31.0933431 C74.9085413,35.8070991 66.3230789,70.9873818 66.3230789,70.9873818 C66.3230789,70.9873818 65.8093939,73.0459822 63.9690004,73.116488 C63.0551829,73.1465471 62.1685776,72.7972947 61.5125167,72.1488276 C57.9009674,68.9853548 45.4182987,60.442754 42.6599887,58.5640067 C42.5341105,58.4766563 42.4515493,58.3380737 42.4336191,58.1840353 C42.3950616,57.986028 42.6065058,57.7407354 42.6065058,57.7407354 C42.6065058,57.7407354 64.3421372,38.0666622 64.9204992,36.0013067 C64.9652756,35.8412965 64.7961203,35.7623469 64.5689215,35.8324305 C63.1252968,36.3732564 38.0994282,52.4667327 35.337387,54.2428878 C35.1385674,54.3041427 34.9284277,54.3171555 34.7237843,54.2808849 Z" id="Path" fill="#FFFFFF"></path>
        </g>
    </g>
</svg>