<?xml version="1.0" encoding="UTF-8"?>
<svg width="1078px" height="307px" viewBox="0 0 1078 307" version="1.1" xmlns="http://www.w3.org/2000/svg" xmlns:xlink="http://www.w3.org/1999/xlink">
    <title>telegram</title>
    <defs>
        <linearGradient x1="50%" y1="100%" x2="50%" y2="0%" id="linearGradient-1">
            <stop stop-color="#1D93D2" offset="0%"></stop>
            <stop stop-color="#38B0E3" offset="100%"></stop>
        </linearGradient>
    </defs>
    <g id="Telegram" stroke="none" stroke-width="1" fill="none" fill-rule="evenodd">
        <g id="Logo" transform="translate(838.000000, 32.000000)" fill-rule="nonzero">
            <circle id="Oval" fill="url(#linearGradient-1)" cx="120" cy="120" r="120"></circle>
            <path d="M81.229,128.772 L95.466,168.178 C95.466,168.178 97.246,171.865 99.152,171.865 C101.058,171.865 129.407,142.373 129.407,142.373 L160.932,81.483 L81.737,118.6 L81.229,128.772 Z" id="Path" fill="#C8DAEA"></path>
            <path d="M100.106,138.878 L97.373,167.924 C97.373,167.924 96.229,176.824 105.127,167.924 C114.025,159.024 122.542,152.161 122.542,152.161" id="Path" fill="#A9C6D8"></path>
            <path d="M81.486,130.178 L52.2,120.636 C52.2,120.636 48.7,119.216 49.827,115.996 C50.059,115.332 50.527,114.767 51.927,113.796 C58.416,109.273 172.033,68.436 172.033,68.436 C172.033,68.436 175.241,67.355 177.133,68.074 C178.085924,68.3689802 178.806195,69.1542097 179.018,70.129 C179.222433,70.9746676 179.307924,71.8447151 179.272,72.714 C179.263,73.466 179.172,74.163 179.103,75.256 C178.411,86.421 157.703,169.749 157.703,169.749 C157.703,169.749 156.464,174.625 152.025,174.792 C149.820886,174.863198 147.682408,174.035959 146.1,172.5 C137.389,165.007 107.281,144.773 100.628,140.323 C100.324384,140.116102 100.125247,139.787855 100.082,139.423 C99.989,138.954 100.499,138.373 100.499,138.373 C100.499,138.373 152.925,91.773 154.32,86.881 C154.428,86.502 154.02,86.315 153.472,86.481 C149.99,87.762 89.628,125.881 82.966,130.088 C82.4864505,130.233088 81.9795968,130.26391 81.486,130.178 Z" id="Path" fill="#FFFFFF"></path>
        </g>
        <g id="@haywiki" transform="translate(180.424072, 179.822266)" fill="#2399D6" fill-rule="nonzero">
            <polygon id="Path" points="0 80.1777344 21.8713379 80.1777344 21.8713379 85.6777344 0 85.6777344"></polygon>
            <polygon id="Path" points="65.6140137 80.1777344 87.4853516 80.1777344 87.4853516 85.6777344 65.6140137 85.6777344"></polygon>
            <polygon id="Path" points="87.4853516 80.1777344 147.788086 80.1777344 147.788086 85.6777344 87.4853516 85.6777344"></polygon>
            <polygon id="Path" points="147.788086 80.1777344 201.271973 80.1777344 201.271973 85.6777344 147.788086 85.6777344"></polygon>
            <polygon id="Path" points="201.271973 80.1777344 214.689331 80.1777344 214.689331 85.6777344 201.271973 85.6777344"></polygon>
            <polygon id="Path" points="241.524048 80.1777344 254.941406 80.1777344 254.941406 85.6777344 241.524048 85.6777344"></polygon>
            <polygon id="Path" points="254.941406 80.1777344 336.813965 80.1777344 336.813965 85.6777344 254.941406 85.6777344"></polygon>
            <polygon id="Path" points="336.813965 80.1777344 367.197266 80.1777344 367.197266 85.6777344 336.813965 85.6777344"></polygon>
            <polygon id="Path" points="367.197266 80.1777344 422.768555 80.1777344 422.768555 85.6777344 367.197266 85.6777344"></polygon>
            <polygon id="Path" points="422.768555 80.1777344 451.945801 80.1777344 451.945801 85.6777344 422.768555 85.6777344"></polygon>
            <path d="M82.4755859,34.9291992 C82.4755859,39.5060221 81.9189453,43.6421712 80.8056641,47.3376465 C79.6923828,51.0331217 78.2389323,54.1796875 76.4453125,56.7773438 C74.6516927,59.375 72.6493327,61.3696289 70.4382324,62.7612305 C68.2271322,64.152832 66.023763,64.8486328 63.828125,64.8486328 C61.0139974,64.8486328 58.6714681,64.0909831 56.8005371,62.5756836 C54.9296061,61.0603841 53.5457357,58.9420573 52.6489258,56.2207031 L52.1386719,56.2207031 C51.4892578,57.4576823 50.7548014,58.601888 49.9353027,59.6533203 C49.115804,60.7047526 48.1880697,61.6170247 47.1520996,62.3901367 C46.1161296,63.1632487 44.9564616,63.766276 43.6730957,64.1992188 C42.3897298,64.6321615 40.9440104,64.8486328 39.3359375,64.8486328 C37.4186198,64.8486328 35.5863444,64.5239258 33.8391113,63.8745117 C32.0918783,63.2250977 30.5611165,62.2355143 29.2468262,60.9057617 C27.9325358,59.5760091 26.8811035,57.890625 26.0925293,55.8496094 C25.3039551,53.8085938 24.909668,51.3964844 24.909668,48.6132812 C24.909668,46.9124349 25.102946,45.0724284 25.489502,43.0932617 C25.8760579,41.1140951 26.4790853,39.1426595 27.298584,37.1789551 C28.1180827,35.2152507 29.169515,33.3133952 30.4528809,31.4733887 C31.7362467,29.6333822 33.2747396,28.009847 35.0683594,26.6027832 C36.8619792,25.1957194 38.9261882,24.0669759 41.2609863,23.2165527 C43.5957845,22.3661296 46.2166341,21.940918 49.1235352,21.940918 C51.1645508,21.940918 52.919515,22.2192383 54.3884277,22.7758789 C55.8573405,23.3325195 57.0711263,23.9973958 58.0297852,24.7705078 L61.8334961,22.7758789 L64.1064453,22.7758789 L59.2822266,46.9897461 C59.1894531,47.7319336 59.0812174,48.4741211 58.9575195,49.2163086 C58.8647461,49.8347982 58.7874349,50.5151367 58.7255859,51.2573242 C58.663737,51.9995117 58.6328125,52.6953125 58.6328125,53.3447266 C58.6328125,54.4580078 58.795166,55.4243978 59.119873,56.2438965 C59.4445801,57.0633952 59.8697917,57.7437337 60.3955078,58.2849121 C60.921224,58.8260905 61.5319824,59.2203776 62.2277832,59.4677734 C62.923584,59.7151693 63.6580404,59.8388672 64.4311523,59.8388672 C65.8227539,59.8388672 67.2452799,59.2822266 68.6987305,58.1689453 C70.152181,57.0556641 71.4664714,55.4243978 72.6416016,53.2751465 C73.8167318,51.1258952 74.7831217,48.4895833 75.5407715,45.3662109 C76.2984212,42.2428385 76.6772461,38.6710612 76.6772461,34.6508789 C76.6772461,30.5069987 76.0123698,26.850179 74.6826172,23.6804199 C73.3528646,20.5106608 71.505127,17.8511556 69.1394043,15.7019043 C66.7736816,13.552653 63.9440918,11.9291178 60.6506348,10.8312988 C57.3571777,9.73347982 53.7312826,9.18457031 49.7729492,9.18457031 C46.6805013,9.18457031 43.6421712,9.61751302 40.657959,10.4833984 C37.6737467,11.3492839 34.851888,12.6249186 32.1923828,14.3103027 C29.5328776,15.9956868 27.0666504,18.0521647 24.7937012,20.4797363 C22.520752,22.9073079 20.5647786,25.6750488 18.9257812,28.782959 C17.2867839,31.8908691 16.003418,35.3312174 15.0756836,39.1040039 C14.1479492,42.8767904 13.684082,46.9278971 13.684082,51.2573242 C13.684082,56.5454102 14.4417318,61.052653 15.9570312,64.7790527 C17.4723307,68.5054525 19.5210775,71.5515137 22.1032715,73.9172363 C24.6854655,76.282959 27.68514,78.0069987 31.1022949,79.0893555 C34.5194499,80.1717122 38.1453451,80.7128906 41.9799805,80.7128906 C44.5776367,80.7128906 47.0361328,80.4886882 49.3554688,80.0402832 C51.6748047,79.5918783 53.8472493,78.996582 55.8728027,78.2543945 C57.8983561,77.512207 59.7692871,76.669515 61.4855957,75.7263184 C63.2019043,74.7831217 64.7403971,73.8167318 66.1010742,72.8271484 L68.3276367,76.2597656 C66.7504883,77.4348958 64.987793,78.5868327 63.0395508,79.7155762 C61.0913086,80.8443197 58.9807129,81.8493652 56.7077637,82.7307129 C54.4348145,83.6120605 51.9917806,84.3233236 49.3786621,84.864502 C46.7655436,85.4056803 43.9900716,85.6762695 41.0522461,85.6762695 C35.949707,85.6762695 31.2646484,84.9727376 26.9970703,83.5656738 C22.7294922,82.15861 19.0572103,80.0325521 15.9802246,77.1875 C12.9032389,74.3424479 10.4988607,70.7861328 8.76708984,66.5185547 C7.03531901,62.2509766 6.16943359,57.2412109 6.16943359,51.4892578 C6.16943359,47.0052083 6.65649414,42.7298991 7.63061523,38.6633301 C8.60473633,34.5967611 10.0118001,30.8162435 11.8518066,27.3217773 C13.6918132,23.8273112 15.9183757,20.6652832 18.5314941,17.8356934 C21.1446126,15.0061035 24.0901693,12.5939941 27.3681641,10.5993652 C30.6461589,8.60473633 34.2102051,7.06624349 38.0603027,5.98388672 C41.9104004,4.90152995 46.0001628,4.36035156 50.3295898,4.36035156 C55.6486003,4.36035156 60.3181966,5.14892578 64.3383789,6.72607422 C68.3585612,8.30322266 71.7138672,10.4602051 74.4042969,13.1970215 C77.0947266,15.9338379 79.1125488,19.165446 80.4577637,22.8918457 C81.8029785,26.6182454 82.4755859,30.6306966 82.4755859,34.9291992 Z M33.7231445,49.9584961 C33.7231445,53.2983398 34.395752,55.7800293 35.7409668,57.4035645 C37.0861816,59.0270996 38.8256836,59.8388672 40.9594727,59.8388672 C42.5675456,59.8388672 43.9591471,59.4909668 45.1342773,58.795166 C46.3094076,58.0993652 47.2989909,57.1948242 48.1030273,56.081543 C48.9070638,54.9682617 49.5564779,53.7003581 50.0512695,52.277832 C50.5460612,50.855306 50.9326172,49.4173177 51.2109375,47.9638672 L54.8291016,28.6669922 C54.4270833,27.7701823 53.7235514,27.0743815 52.7185059,26.5795898 C51.7134603,26.0847982 50.6388346,25.8374023 49.4946289,25.8374023 C47.6082357,25.8374023 45.8996582,26.2471517 44.3688965,27.0666504 C42.8381348,27.8861491 41.4929199,28.9607747 40.333252,30.2905273 C39.173584,31.6202799 38.1762695,33.1433105 37.3413086,34.8596191 C36.5063477,36.5759277 35.818278,38.3308919 35.2770996,40.1245117 C34.7359212,41.9181315 34.3416341,43.6653646 34.0942383,45.3662109 C33.8468424,47.0670573 33.7231445,48.597819 33.7231445,49.9584961 Z" id="Shape"></path>
            <path d="M114.760742,68.1884766 L114.760742,72.1777344 L89.2016602,72.1777344 L89.2016602,68.1884766 L89.9438477,68.1884766 C91.0262044,68.1884766 92.0389811,68.1111654 92.9821777,67.956543 C93.9253743,67.8019206 94.744873,67.4849447 95.4406738,67.0056152 C96.1364746,66.5262858 96.6931152,65.8382161 97.1105957,64.9414062 C97.5280762,64.0445964 97.7368164,62.8540039 97.7368164,61.3696289 L97.7368164,10.4370117 C97.7368164,9.04541016 97.5280762,7.92439779 97.1105957,7.07397461 C96.6931152,6.22355143 96.1287435,5.56640625 95.4174805,5.10253906 C94.7062174,4.63867188 93.8789876,4.3371582 92.935791,4.19799805 C91.9925944,4.05883789 90.9952799,3.98925781 89.9438477,3.98925781 L89.2016602,3.98925781 L89.2016602,0 L106.689453,0 L106.689453,20.8740234 C106.689453,21.7399089 106.673991,22.6444499 106.643066,23.5876465 C106.612142,24.5308431 106.565755,25.4044596 106.503906,26.2084961 C106.442057,27.1362305 106.380208,28.0485026 106.318359,28.9453125 L106.782227,28.9453125 C109.627279,23.1933594 114.281413,20.3173828 120.744629,20.3173828 C123.435059,20.3173828 125.823975,20.6807454 127.911377,21.4074707 C129.998779,22.134196 131.753743,23.2474772 133.17627,24.7473145 C134.598796,26.2471517 135.681152,28.1722005 136.42334,30.5224609 C137.165527,32.8727214 137.536621,35.6713867 137.536621,38.918457 L137.536621,61.3696289 C137.536621,62.8540039 137.722168,64.0445964 138.093262,64.9414062 C138.464355,65.8382161 138.974609,66.5262858 139.624023,67.0056152 C140.273438,67.4849447 141.046549,67.8019206 141.943359,67.956543 C142.840169,68.1111654 143.81429,68.1884766 144.865723,68.1884766 L145.144043,68.1884766 L145.144043,72.1777344 L128.630371,72.1777344 L128.630371,39.3823242 C128.630371,37.3103841 128.444824,35.4703776 128.07373,33.8623047 C127.702637,32.2542318 127.10734,30.8935547 126.287842,29.7802734 C125.468343,28.6669922 124.393717,27.8243001 123.063965,27.2521973 C121.734212,26.6800944 120.110677,26.394043 118.193359,26.394043 C116.214193,26.394043 114.505615,26.7574056 113.067627,27.4841309 C111.629639,28.2108561 110.439046,29.2468262 109.49585,30.592041 C108.552653,31.9372559 107.849121,33.560791 107.385254,35.4626465 C106.921387,37.364502 106.689453,39.4750977 106.689453,41.7944336 L106.689453,61.8334961 C106.689453,63.2250977 106.898193,64.34611 107.315674,65.1965332 C107.733154,66.0469564 108.297526,66.6886393 109.008789,67.121582 C109.720052,67.5545247 110.547282,67.8405762 111.490479,67.9797363 C112.433675,68.1188965 113.43099,68.1884766 114.482422,68.1884766 L114.760742,68.1884766 Z" id="Path"></path>
            <path d="M161.750488,58.4008789 C161.750488,61.3696289 162.376709,63.5884603 163.62915,65.057373 C164.881592,66.5262858 166.822103,67.2607422 169.450684,67.2607422 C171.368001,67.2607422 173.107503,66.9514974 174.669189,66.3330078 C176.230876,65.7145182 177.560628,64.8331706 178.658447,63.6889648 C179.756266,62.5447591 180.598958,61.1531576 181.186523,59.5141602 C181.774089,57.8751628 182.067871,56.0506185 182.067871,54.0405273 L182.067871,46.340332 L175.991211,46.6186523 C173.300781,46.7423503 171.051025,47.0747884 169.241943,47.6159668 C167.432861,48.1571452 165.97168,48.9147949 164.858398,49.888916 C163.745117,50.8630371 162.948812,52.0613607 162.469482,53.4838867 C161.990153,54.9064128 161.750488,56.5454102 161.750488,58.4008789 Z M173.254395,25.0488281 C171.42985,25.0488281 169.953206,25.3039551 168.824463,25.814209 C167.695719,26.3244629 166.814372,27.043457 166.18042,27.9711914 C165.546468,28.8989258 165.121257,29.9967448 164.904785,31.2646484 C164.688314,32.5325521 164.580078,33.9086914 164.580078,35.3930664 C161.951497,35.3930664 159.949137,34.9446615 158.572998,34.0478516 C157.196859,33.1510417 156.508789,31.6048177 156.508789,29.4091797 C156.508789,27.7701823 156.957194,26.3785807 157.854004,25.234375 C158.750814,24.0901693 159.980062,23.1547038 161.541748,22.4279785 C163.103434,21.7012533 164.920247,21.167806 166.992188,20.8276367 C169.064128,20.4874674 171.275228,20.3173828 173.625488,20.3173828 C176.532389,20.3173828 179.068197,20.6034342 181.23291,21.1755371 C183.397624,21.74764 185.206706,22.6831055 186.660156,23.9819336 C188.113607,25.2807617 189.203695,26.973877 189.93042,29.0612793 C190.657145,31.1486816 191.020508,33.7076823 191.020508,36.7382812 L191.020508,61.3696289 C191.020508,62.6993815 191.128743,63.7972005 191.345215,64.6630859 C191.561686,65.5289714 191.901855,66.2247721 192.365723,66.7504883 C192.82959,67.2762044 193.440348,67.6472982 194.197998,67.8637695 C194.955648,68.0802409 195.860189,68.1884766 196.911621,68.1884766 L197.189941,68.1884766 L197.189941,72.1777344 L184.34082,72.1777344 L182.856445,64.0136719 L182.067871,64.0136719 C181.078288,65.3434245 180.119629,66.5649414 179.191895,67.6782227 C178.26416,68.7915039 177.243652,69.7501628 176.130371,70.5541992 C175.01709,71.3582357 173.756917,71.9844564 172.349854,72.4328613 C170.94279,72.8812663 169.249674,73.1054688 167.270508,73.1054688 C165.167643,73.1054688 163.21167,72.8039551 161.402588,72.2009277 C159.593506,71.5979004 158.03182,70.670166 156.717529,69.4177246 C155.403239,68.1652832 154.375,66.5881348 153.632812,64.6862793 C152.890625,62.7844238 152.519531,60.534668 152.519531,57.9370117 C152.519531,52.8963216 154.313151,49.1544596 157.900391,46.7114258 C161.48763,44.2683919 166.914876,42.9386393 174.182129,42.722168 L182.067871,42.4438477 L182.067871,36.7382812 C182.067871,35.0374349 181.975098,33.4680176 181.789551,32.0300293 C181.604004,30.592041 181.201986,29.3550618 180.583496,28.3190918 C179.965007,27.2831217 179.075928,26.4790853 177.91626,25.9069824 C176.756592,25.3348796 175.202637,25.0488281 173.254395,25.0488281 Z" id="Shape"></path>
            <path d="M254.941406,21.2451172 L254.941406,25.234375 L254.663086,25.234375 C253.735352,25.234375 252.939046,25.3348796 252.27417,25.5358887 C251.609294,25.7368978 251.006266,26.1157227 250.465088,26.6723633 C249.92391,27.2290039 249.421387,27.9866536 248.95752,28.9453125 C248.493652,29.9039714 247.983398,31.1409505 247.426758,32.65625 L233.000488,72.5488281 C231.887207,75.6103516 230.835775,78.3007812 229.846191,80.6201172 C228.856608,82.9394531 227.820638,84.9263509 226.738281,86.5808105 C225.655924,88.2352702 224.473063,89.6036784 223.189697,90.6860352 C221.906331,91.7683919 220.44515,92.6342773 218.806152,93.2836914 C217.167155,93.9331055 215.280762,94.3815104 213.146973,94.6289062 C211.013184,94.8763021 208.539225,95 205.725098,95 L204.890137,95 L204.890137,90.5004883 C208.106283,90.5004883 210.874023,90.0211589 213.193359,89.0625 C215.512695,88.1038411 217.515055,86.7895508 219.200439,85.1196289 C220.885824,83.449707 222.292887,81.4782715 223.421631,79.2053223 C224.550374,76.932373 225.501302,74.4661458 226.274414,71.8066406 L208.693848,30.2905273 C208.260905,29.300944 207.843424,28.4891764 207.441406,27.8552246 C207.039388,27.2212728 206.583252,26.7032878 206.072998,26.3012695 C205.562744,25.8992513 204.975179,25.620931 204.310303,25.4663086 C203.645426,25.3116862 202.849121,25.234375 201.921387,25.234375 L201.643066,25.234375 L201.643066,21.2451172 L224.465332,21.2451172 L224.465332,25.234375 L224.187012,25.234375 C222.269694,25.234375 220.839437,25.6054688 219.89624,26.3476562 C218.953044,27.0898438 218.481445,28.2495117 218.481445,29.8266602 C218.481445,30.3523763 218.535563,30.8858236 218.643799,31.427002 C218.752035,31.9681803 218.945312,32.594401 219.223633,33.3056641 L226.181641,50.2368164 C226.614583,51.3191732 227.070719,52.5020345 227.550049,53.7854004 C228.029378,55.0687663 228.477783,56.3366699 228.895264,57.5891113 C229.312744,58.8415527 229.691569,60.0244141 230.031738,61.1376953 C230.371908,62.2509766 230.603841,63.2096354 230.727539,64.0136719 L231.005859,64.0136719 C231.346029,62.6220703 231.817627,60.9289551 232.420654,58.9343262 C233.023682,56.9396973 233.727214,54.7981771 234.53125,52.5097656 L240.88623,34.0014648 C241.164551,33.2283529 241.373291,32.4861654 241.512451,31.7749023 C241.651611,31.0636393 241.721191,30.4451497 241.721191,29.9194336 C241.721191,28.2804362 241.203206,27.0898438 240.167236,26.3476562 C239.131266,25.6054688 237.561849,25.234375 235.458984,25.234375 L235.180664,25.234375 L235.180664,21.2451172 L254.941406,21.2451172 Z" id="Path"></path>
            <path d="M300.168457,21.5234375 L309.677734,49.6801758 C310.048828,50.8243815 310.443115,52.0536296 310.860596,53.3679199 C311.278076,54.6822103 311.672363,55.9810384 312.043457,57.2644043 C312.414551,58.5477702 312.75472,59.761556 313.063965,60.9057617 C313.37321,62.0499674 313.605143,63.0240885 313.759766,63.828125 L314.038086,63.828125 C314.316406,62.2509766 314.764811,60.3104655 315.383301,58.0065918 C316.00179,55.7027181 316.790365,53.0200195 317.749023,49.9584961 L322.480469,34.6508789 C322.727865,33.8468424 322.936605,32.9886882 323.106689,32.076416 C323.276774,31.1641439 323.361816,30.4451497 323.361816,29.9194336 C323.361816,28.2804362 322.843831,27.0898438 321.807861,26.3476562 C320.771891,25.6054688 319.187012,25.234375 317.053223,25.234375 L316.403809,25.234375 L316.403809,21.2451172 L336.721191,21.2451172 L336.721191,25.234375 L335.515137,25.234375 C334.587402,25.234375 333.783366,25.3271484 333.103027,25.5126953 C332.422689,25.6982422 331.81193,26.0616048 331.270752,26.6027832 C330.729574,27.1439616 330.227051,27.8938802 329.763184,28.8525391 C329.299316,29.8111979 328.835449,31.0791016 328.371582,32.65625 L316.125488,72.1777344 L308.518066,72.1777344 L297.199707,38.7329102 L295.483398,32.4707031 L282.03125,72.1777344 L274.516602,72.1777344 L262.084961,30.2905273 C261.713867,29.300944 261.327311,28.4814453 260.925293,27.8320312 C260.523275,27.1826172 260.059408,26.6646322 259.533691,26.2780762 C259.007975,25.8915202 258.404948,25.620931 257.724609,25.4663086 C257.044271,25.3116862 256.240234,25.234375 255.3125,25.234375 L255.03418,25.234375 L255.03418,21.2451172 L278.505859,21.2451172 L278.505859,25.234375 L277.253418,25.234375 C275.367025,25.234375 273.944499,25.5126953 272.98584,26.0693359 C272.027181,26.6259766 271.547852,27.6774089 271.547852,29.2236328 C271.547852,29.749349 271.632894,30.3833008 271.802979,31.1254883 C271.973063,31.8676758 272.150879,32.594401 272.336426,33.3056641 L276.789551,49.2626953 C277.098796,50.406901 277.423503,51.6593424 277.763672,53.0200195 C278.103841,54.3806966 278.420817,55.7336426 278.7146,57.0788574 C279.008382,58.4240723 279.278971,59.6842448 279.526367,60.859375 C279.773763,62.0345052 279.974772,63.0240885 280.129395,63.828125 L280.407715,63.828125 C280.562337,63.0240885 280.771077,62.088623 281.033936,61.0217285 C281.296794,59.954834 281.606038,58.8106283 281.96167,57.5891113 C282.317301,56.3675944 282.696126,55.1228841 283.098145,53.8549805 C283.500163,52.5870768 283.902181,51.3810221 284.304199,50.2368164 L294.18457,21.5234375 L300.168457,21.5234375 Z" id="Path"></path>
            <path d="M340.246582,68.1884766 C341.298014,68.1884766 342.295329,68.1188965 343.238525,67.9797363 C344.181722,67.8405762 345.008952,67.5545247 345.720215,67.121582 C346.431478,66.6886393 346.99585,66.0469564 347.41333,65.1965332 C347.830811,64.34611 348.039551,63.2250977 348.039551,61.8334961 L348.039551,31.7285156 C348.039551,30.3369141 347.830811,29.2159017 347.41333,28.3654785 C346.99585,27.5150553 346.431478,26.8579102 345.720215,26.394043 C345.008952,25.9301758 344.181722,25.620931 343.238525,25.4663086 C342.295329,25.3116862 341.298014,25.234375 340.246582,25.234375 L339.968262,25.234375 L339.968262,21.2451172 L356.945801,21.2451172 L356.945801,61.3696289 C356.945801,62.8540039 357.154541,64.0445964 357.572021,64.9414062 C357.989502,65.8382161 358.546143,66.5262858 359.241943,67.0056152 C359.937744,67.4849447 360.764974,67.8019206 361.723633,67.956543 C362.682292,68.1111654 363.687337,68.1884766 364.73877,68.1884766 L365.991211,68.1884766 L365.991211,72.1777344 L338.994141,72.1777344 L338.994141,68.1884766 L340.246582,68.1884766 Z M346.694336,5.84472656 C346.694336,4.73144531 346.833496,3.80371094 347.111816,3.06152344 C347.390137,2.31933594 347.776693,1.71630859 348.271484,1.25244141 C348.766276,0.788574219 349.338379,0.463867188 349.987793,0.278320312 C350.637207,0.0927734375 351.34847,0 352.121582,0 C352.86377,0 353.55957,0.0927734375 354.208984,0.278320312 C354.858398,0.463867188 355.42277,0.788574219 355.9021,1.25244141 C356.381429,1.71630859 356.767985,2.31933594 357.061768,3.06152344 C357.35555,3.80371094 357.502441,4.73144531 357.502441,5.84472656 C357.502441,6.95800781 357.35555,7.88574219 357.061768,8.62792969 C356.767985,9.37011719 356.381429,9.97314453 355.9021,10.4370117 C355.42277,10.9008789 354.858398,11.2333171 354.208984,11.4343262 C353.55957,11.6353353 352.86377,11.7358398 352.121582,11.7358398 C351.34847,11.7358398 350.637207,11.6353353 349.987793,11.4343262 C349.338379,11.2333171 348.766276,10.9008789 348.271484,10.4370117 C347.776693,9.97314453 347.390137,9.37011719 347.111816,8.62792969 C346.833496,7.88574219 346.694336,6.95800781 346.694336,5.84472656 Z" id="Shape"></path>
            <path d="M399.389648,41.6088867 L412.053223,60.3955078 C413.69222,62.9313151 415.323486,64.8640951 416.947021,66.1938477 C418.570557,67.5236003 420.449219,68.1884766 422.583008,68.1884766 L422.861328,68.1884766 L422.861328,72.1777344 L421.516113,72.1777344 C418.763835,72.1777344 416.498617,72.0926921 414.720459,71.9226074 C412.942301,71.7525228 411.403809,71.3505046 410.10498,70.7165527 C408.806152,70.0826009 407.61556,69.1548665 406.533203,67.9333496 C405.450846,66.7118327 404.244792,65.0496419 402.915039,62.9467773 L393.405762,48.0566406 L386.401367,53.2519531 L386.401367,61.8334961 C386.401367,63.2250977 386.610107,64.34611 387.027588,65.1965332 C387.445068,66.0469564 388.00944,66.6886393 388.720703,67.121582 C389.431966,67.5545247 390.259196,67.8405762 391.202393,67.9797363 C392.145589,68.1188965 393.142904,68.1884766 394.194336,68.1884766 L394.472656,68.1884766 L394.472656,72.1777344 L368.913574,72.1777344 L368.913574,68.1884766 L369.655762,68.1884766 C370.738118,68.1884766 371.750895,68.1111654 372.694092,67.956543 C373.637288,67.8019206 374.456787,67.4849447 375.152588,67.0056152 C375.848389,66.5262858 376.405029,65.8382161 376.82251,64.9414062 C377.23999,64.0445964 377.44873,62.8540039 377.44873,61.3696289 L377.44873,10.4370117 C377.44873,9.04541016 377.23999,7.92439779 376.82251,7.07397461 C376.405029,6.22355143 375.840658,5.56640625 375.129395,5.10253906 C374.418132,4.63867188 373.590902,4.3371582 372.647705,4.19799805 C371.704508,4.05883789 370.707194,3.98925781 369.655762,3.98925781 L368.913574,3.98925781 L368.913574,0 L386.401367,0 L386.401367,36.6455078 C386.401367,37.5113932 386.385905,38.6169434 386.35498,39.9621582 C386.324056,41.307373 386.277669,42.6293945 386.21582,43.9282227 C386.153971,45.4125977 386.092122,46.9742839 386.030273,48.6132812 L397.905273,35.625 C398.925781,34.4807943 399.768473,33.4757487 400.43335,32.6098633 C401.098226,31.7439779 401.631673,30.9863281 402.033691,30.3369141 C402.43571,29.6875 402.71403,29.107666 402.868652,28.5974121 C403.023275,28.0871582 403.100586,27.6000977 403.100586,27.1362305 C403.100586,26.332194 402.721761,25.814209 401.964111,25.5822754 C401.206462,25.3503418 400.039062,25.234375 398.461914,25.234375 L398.461914,21.2451172 L419.428711,21.2451172 L419.428711,25.234375 C417.233073,25.234375 415.07609,26.007487 412.957764,27.5537109 C410.839437,29.0999349 408.543294,31.2801107 406.069336,34.0942383 L399.389648,41.6088867 Z" id="Path"></path>
            <path d="M426.201172,68.1884766 C427.252604,68.1884766 428.249919,68.1188965 429.193115,67.9797363 C430.136312,67.8405762 430.963542,67.5545247 431.674805,67.121582 C432.386068,66.6886393 432.950439,66.0469564 433.36792,65.1965332 C433.7854,64.34611 433.994141,63.2250977 433.994141,61.8334961 L433.994141,31.7285156 C433.994141,30.3369141 433.7854,29.2159017 433.36792,28.3654785 C432.950439,27.5150553 432.386068,26.8579102 431.674805,26.394043 C430.963542,25.9301758 430.136312,25.620931 429.193115,25.4663086 C428.249919,25.3116862 427.252604,25.234375 426.201172,25.234375 L425.922852,25.234375 L425.922852,21.2451172 L442.900391,21.2451172 L442.900391,61.3696289 C442.900391,62.8540039 443.109131,64.0445964 443.526611,64.9414062 C443.944092,65.8382161 444.500732,66.5262858 445.196533,67.0056152 C445.892334,67.4849447 446.719564,67.8019206 447.678223,67.956543 C448.636882,68.1111654 449.641927,68.1884766 450.693359,68.1884766 L451.945801,68.1884766 L451.945801,72.1777344 L424.94873,72.1777344 L424.94873,68.1884766 L426.201172,68.1884766 Z M432.648926,5.84472656 C432.648926,4.73144531 432.788086,3.80371094 433.066406,3.06152344 C433.344727,2.31933594 433.731283,1.71630859 434.226074,1.25244141 C434.720866,0.788574219 435.292969,0.463867188 435.942383,0.278320312 C436.591797,0.0927734375 437.30306,0 438.076172,0 C438.818359,0 439.51416,0.0927734375 440.163574,0.278320312 C440.812988,0.463867188 441.37736,0.788574219 441.856689,1.25244141 C442.336019,1.71630859 442.722575,2.31933594 443.016357,3.06152344 C443.31014,3.80371094 443.457031,4.73144531 443.457031,5.84472656 C443.457031,6.95800781 443.31014,7.88574219 443.016357,8.62792969 C442.722575,9.37011719 442.336019,9.97314453 441.856689,10.4370117 C441.37736,10.9008789 440.812988,11.2333171 440.163574,11.4343262 C439.51416,11.6353353 438.818359,11.7358398 438.076172,11.7358398 C437.30306,11.7358398 436.591797,11.6353353 435.942383,11.4343262 C435.292969,11.2333171 434.720866,10.9008789 434.226074,10.4370117 C433.731283,9.97314453 433.344727,9.37011719 433.066406,8.62792969 C432.788086,7.88574219 432.648926,6.95800781 432.648926,5.84472656 Z" id="Shape"></path>
        </g>
        <g id="Telegram-канал" transform="translate(34.723389, 50.822266)" fill="#000000" fill-rule="nonzero">
            <path d="M31.9140625,61.3696289 C31.9140625,62.8540039 32.1228027,64.0445964 32.5402832,64.9414062 C32.9577637,65.8382161 33.5144043,66.5262858 34.2102051,67.0056152 C34.9060059,67.4849447 35.7332357,67.8019206 36.6918945,67.956543 C37.6505534,68.1111654 38.655599,68.1884766 39.7070312,68.1884766 L41.887207,68.1884766 L41.887207,72.1777344 L12.3388672,72.1777344 L12.3388672,68.1884766 L14.519043,68.1884766 C15.5704753,68.1884766 16.5677897,68.1188965 17.5109863,67.9797363 C18.4541829,67.8405762 19.2814128,67.5545247 19.9926758,67.121582 C20.7039388,66.6886393 21.2683105,66.0469564 21.685791,65.1965332 C22.1032715,64.34611 22.3120117,63.2250977 22.3120117,61.8334961 L22.3120117,9.09179688 L13.2202148,9.09179688 C11.8286133,9.09179688 10.6612142,9.30053711 9.71801758,9.71801758 C8.77482096,10.135498 8.00170898,10.6998698 7.39868164,11.4111328 C6.7956543,12.1223958 6.34724935,12.9496257 6.0534668,13.8928223 C5.75968424,14.8360189 5.55094401,15.8333333 5.42724609,16.8847656 L4.91699219,20.9667969 L0,20.9667969 L0.463867188,4.36035156 L53.9477539,4.36035156 L54.4116211,20.9667969 L49.4946289,20.9667969 L49.0307617,16.8847656 C48.9070638,15.8333333 48.6905924,14.8360189 48.3813477,13.8928223 C48.0721029,12.9496257 47.6236979,12.1223958 47.0361328,11.4111328 C46.4485677,10.6998698 45.6754557,10.135498 44.7167969,9.71801758 C43.758138,9.30053711 42.5675456,9.09179688 41.1450195,9.09179688 L31.9140625,9.09179688 L31.9140625,61.3696289 Z" id="Path"></path>
            <path d="M82.4291992,25.4199219 C78.9038086,25.4199219 76.1901855,26.850179 74.2883301,29.7106934 C72.3864746,32.5712077 71.2654622,36.7537435 70.925293,42.2583008 L92.7734375,42.2583008 C92.7734375,39.753418 92.5878906,37.4650065 92.2167969,35.3930664 C91.8457031,33.3211263 91.258138,31.5429688 90.4541016,30.0585938 C89.6500651,28.5742188 88.5909017,27.430013 87.2766113,26.6259766 C85.962321,25.8219401 84.3465169,25.4199219 82.4291992,25.4199219 Z M83.5888672,73.1054688 C80.15625,73.1054688 77.0715332,72.5256348 74.3347168,71.3659668 C71.5979004,70.2062988 69.2862956,68.5131836 67.3999023,66.2866211 C65.5135091,64.0600586 64.0677897,61.3309733 63.0627441,58.0993652 C62.0576986,54.8677572 61.5551758,51.1954753 61.5551758,47.0825195 C61.5551758,38.207194 63.3797201,31.5275065 67.0288086,27.043457 C70.6778971,22.5594076 75.8732096,20.3173828 82.6147461,20.3173828 C85.6762695,20.3173828 88.4285482,20.7967122 90.871582,21.7553711 C93.3146159,22.7140299 95.386556,24.1442871 97.0874023,26.0461426 C98.7882487,27.947998 100.094808,30.3137207 101.00708,33.1433105 C101.919352,35.9729004 102.375488,39.2586263 102.375488,43.0004883 L102.375488,47.3608398 L70.7397461,47.3608398 C70.8015951,50.8243815 71.1494954,53.8008626 71.7834473,56.2902832 C72.4173991,58.7797038 73.3296712,60.8284505 74.5202637,62.4365234 C75.7108561,64.0445964 77.1720378,65.2274577 78.9038086,65.9851074 C80.6355794,66.7427572 82.6302083,67.121582 84.8876953,67.121582 C86.5266927,67.121582 88.0497233,66.9360352 89.4567871,66.5649414 C90.8638509,66.1938477 92.1394857,65.699056 93.2836914,65.0805664 C94.4278971,64.4620768 95.4406738,63.7585449 96.3220215,62.9699707 C97.2033691,62.1813965 97.9223633,61.3541667 98.4790039,60.4882812 C98.9119466,60.6738281 99.321696,61.0603841 99.708252,61.6479492 C100.094808,62.2355143 100.288086,62.9313151 100.288086,63.7353516 C100.288086,64.6940104 99.9479167,65.7222493 99.2675781,66.8200684 C98.5872396,67.9178874 97.5512695,68.9306641 96.159668,69.8583984 C94.7680664,70.7861328 93.0285645,71.5592448 90.9411621,72.1777344 C88.8537598,72.796224 86.4029948,73.1054688 83.5888672,73.1054688 Z" id="Shape"></path>
            <path d="M109.611816,68.1884766 C110.694173,68.1884766 111.70695,68.1111654 112.650146,67.956543 C113.593343,67.8019206 114.412842,67.4849447 115.108643,67.0056152 C115.804443,66.5262858 116.361084,65.8382161 116.778564,64.9414062 C117.196045,64.0445964 117.404785,62.8540039 117.404785,61.3696289 L117.404785,10.4370117 C117.404785,9.04541016 117.196045,7.92439779 116.778564,7.07397461 C116.361084,6.22355143 115.796712,5.56640625 115.085449,5.10253906 C114.374186,4.63867188 113.546956,4.3371582 112.60376,4.19799805 C111.660563,4.05883789 110.663249,3.98925781 109.611816,3.98925781 L108.405762,3.98925781 L108.405762,0 L126.357422,0 L126.357422,61.3696289 C126.357422,62.8540039 126.558431,64.0445964 126.960449,64.9414062 C127.362467,65.8382161 127.919108,66.5262858 128.630371,67.0056152 C129.341634,67.4849447 130.168864,67.8019206 131.112061,67.956543 C132.055257,68.1111654 133.068034,68.1884766 134.150391,68.1884766 L135.356445,68.1884766 L135.356445,72.1777344 L108.405762,72.1777344 L108.405762,68.1884766 L109.611816,68.1884766 Z" id="Path"></path>
            <path d="M162.724609,25.4199219 C159.199219,25.4199219 156.485596,26.850179 154.58374,29.7106934 C152.681885,32.5712077 151.560872,36.7537435 151.220703,42.2583008 L173.068848,42.2583008 C173.068848,39.753418 172.883301,37.4650065 172.512207,35.3930664 C172.141113,33.3211263 171.553548,31.5429688 170.749512,30.0585938 C169.945475,28.5742188 168.886312,27.430013 167.572021,26.6259766 C166.257731,25.8219401 164.641927,25.4199219 162.724609,25.4199219 Z M163.884277,73.1054688 C160.45166,73.1054688 157.366943,72.5256348 154.630127,71.3659668 C151.893311,70.2062988 149.581706,68.5131836 147.695312,66.2866211 C145.808919,64.0600586 144.3632,61.3309733 143.358154,58.0993652 C142.353109,54.8677572 141.850586,51.1954753 141.850586,47.0825195 C141.850586,38.207194 143.67513,31.5275065 147.324219,27.043457 C150.973307,22.5594076 156.16862,20.3173828 162.910156,20.3173828 C165.97168,20.3173828 168.723958,20.7967122 171.166992,21.7553711 C173.610026,22.7140299 175.681966,24.1442871 177.382812,26.0461426 C179.083659,27.947998 180.390218,30.3137207 181.30249,33.1433105 C182.214762,35.9729004 182.670898,39.2586263 182.670898,43.0004883 L182.670898,47.3608398 L151.035156,47.3608398 C151.097005,50.8243815 151.444906,53.8008626 152.078857,56.2902832 C152.712809,58.7797038 153.625081,60.8284505 154.815674,62.4365234 C156.006266,64.0445964 157.467448,65.2274577 159.199219,65.9851074 C160.93099,66.7427572 162.925618,67.121582 165.183105,67.121582 C166.822103,67.121582 168.345133,66.9360352 169.752197,66.5649414 C171.159261,66.1938477 172.434896,65.699056 173.579102,65.0805664 C174.723307,64.4620768 175.736084,63.7585449 176.617432,62.9699707 C177.498779,62.1813965 178.217773,61.3541667 178.774414,60.4882812 C179.207357,60.6738281 179.617106,61.0603841 180.003662,61.6479492 C180.390218,62.2355143 180.583496,62.9313151 180.583496,63.7353516 C180.583496,64.6940104 180.243327,65.7222493 179.562988,66.8200684 C178.88265,67.9178874 177.84668,68.9306641 176.455078,69.8583984 C175.063477,70.7861328 173.323975,71.5592448 171.236572,72.1777344 C169.14917,72.796224 166.698405,73.1054688 163.884277,73.1054688 Z" id="Shape"></path>
            <path d="M237.407227,23.2397461 C237.407227,23.9200846 237.306722,24.5617676 237.105713,25.1647949 C236.904704,25.7678223 236.60319,26.2935384 236.201172,26.7419434 C235.799154,27.1903483 235.281169,27.5459798 234.647217,27.8088379 C234.013265,28.071696 233.263346,28.203125 232.397461,28.203125 C232.397461,27.8320312 232.351074,27.4609375 232.258301,27.0898438 C232.165527,26.71875 232.003174,26.3708496 231.77124,26.0461426 C231.539307,25.7214355 231.222331,25.4585775 230.820312,25.2575684 C230.418294,25.0565592 229.892578,24.9560547 229.243164,24.9560547 C228.439128,24.9560547 227.712402,25.0488281 227.062988,25.234375 C226.413574,25.4199219 225.779622,25.7137044 225.161133,26.1157227 C226.24349,27.4454753 227.132568,29.0148926 227.828369,30.8239746 C228.52417,32.6330566 228.87207,34.8982747 228.87207,37.6196289 C228.87207,39.9698893 228.516439,42.142334 227.805176,44.1369629 C227.093913,46.1315918 226.034749,47.8556315 224.627686,49.309082 C223.220622,50.7625326 221.442464,51.8990072 219.293213,52.7185059 C217.143962,53.5380046 214.631348,53.9477539 211.755371,53.9477539 C211.384277,53.9477539 210.966797,53.9400228 210.50293,53.9245605 C210.039062,53.9090983 209.575195,53.8936361 209.111328,53.8781738 C208.647461,53.8627116 208.214518,53.8317871 207.8125,53.7854004 C207.410482,53.7390137 207.085775,53.7003581 206.838379,53.6694336 C206.219889,53.9786784 205.632324,54.3188477 205.075684,54.6899414 C204.519043,55.0610352 204.031982,55.4785156 203.614502,55.9423828 C203.197021,56.40625 202.864583,56.9319661 202.617188,57.5195312 C202.369792,58.1070964 202.246094,58.7565104 202.246094,59.4677734 C202.246094,60.2408854 202.392985,60.859375 202.686768,61.3232422 C202.98055,61.7871094 203.390299,62.150472 203.916016,62.4133301 C204.441732,62.6761882 205.067952,62.8462728 205.794678,62.923584 C206.521403,63.0008952 207.302246,63.0395508 208.137207,63.0395508 L218.898926,63.0395508 C221.743978,63.0395508 224.156087,63.3951823 226.135254,64.1064453 C228.114421,64.8177083 229.730225,65.7995605 230.982666,67.052002 C232.235107,68.3044434 233.14738,69.8042806 233.719482,71.5515137 C234.291585,73.2987467 234.577637,75.1928711 234.577637,77.2338867 C234.577637,79.9552409 234.075114,82.413737 233.070068,84.609375 C232.065023,86.805013 230.52653,88.6682129 228.45459,90.1989746 C226.38265,91.7297363 223.7618,92.9125977 220.592041,93.7475586 C217.422282,94.5825195 213.688151,95 209.389648,95 C202.77181,95 197.823893,93.7784831 194.545898,91.3354492 C191.267904,88.8924154 189.628906,85.4907227 189.628906,81.1303711 C189.628906,79.2749023 189.953613,77.6513672 190.603027,76.2597656 C191.252441,74.8681641 192.126058,73.6775716 193.223877,72.6879883 C194.321696,71.6984049 195.581868,70.8943685 197.004395,70.2758789 C198.426921,69.6573893 199.926758,69.2089844 201.503906,68.9306641 C200.854492,68.6523438 200.22054,68.28125 199.602051,67.8173828 C198.983561,67.3535156 198.426921,66.796875 197.932129,66.1474609 C197.437337,65.4980469 197.035319,64.7558594 196.726074,63.9208984 C196.416829,63.0859375 196.262207,62.1582031 196.262207,61.1376953 C196.262207,59.2513021 196.756999,57.6200358 197.746582,56.2438965 C198.736165,54.8677572 200.313314,53.5302734 202.478027,52.2314453 C201.11735,51.6748047 199.903564,50.9094238 198.83667,49.9353027 C197.769775,48.9611816 196.872965,47.8479004 196.14624,46.595459 C195.419515,45.3430176 194.862874,43.9746094 194.476318,42.4902344 C194.089762,41.0058594 193.896484,39.4750977 193.896484,37.8979492 C193.896484,35.1456706 194.267578,32.6871745 195.009766,30.5224609 C195.751953,28.3577474 196.865234,26.5177409 198.349609,25.0024414 C199.833984,23.4871419 201.689453,22.327474 203.916016,21.5234375 C206.142578,20.719401 208.755697,20.3173828 211.755371,20.3173828 C212.899577,20.3173828 214.02832,20.4024251 215.141602,20.5725098 C216.254883,20.7425944 217.283122,20.974528 218.226318,21.2683105 C219.169515,21.5620931 220.019938,21.8945312 220.777588,22.265625 C221.535238,22.6367188 222.145996,23.0232747 222.609863,23.425293 C223.07373,22.9305013 223.614909,22.3815918 224.233398,21.7785645 C224.851888,21.1755371 225.547689,20.6188965 226.320801,20.1086426 C227.093913,19.5983887 227.936605,19.1731771 228.848877,18.8330078 C229.761149,18.4928385 230.743001,18.3227539 231.794434,18.3227539 C232.753092,18.3227539 233.580322,18.4541829 234.276123,18.717041 C234.971924,18.9798991 235.551758,19.3355306 236.015625,19.7839355 C236.479492,20.2323405 236.827393,20.7580566 237.059326,21.361084 C237.29126,21.9641113 237.407227,22.590332 237.407227,23.2397461 Z M197.329102,80.5273438 C197.329102,81.9189453 197.514648,83.2177734 197.885742,84.4238281 C198.256836,85.6298828 198.90625,86.6658529 199.833984,87.5317383 C200.761719,88.3976237 202.01416,89.0779622 203.591309,89.5727539 C205.168457,90.0675456 207.163086,90.3149414 209.575195,90.3149414 C212.976888,90.3149414 215.783285,90.02889 217.994385,89.4567871 C220.205485,88.8846842 221.960449,88.0883789 223.259277,87.0678711 C224.558105,86.0473633 225.470378,84.8335775 225.996094,83.4265137 C226.52181,82.0194499 226.784668,80.480957 226.784668,78.8110352 C226.784668,77.3575846 226.575928,76.1592611 226.158447,75.2160645 C225.740967,74.2728678 225.122477,73.5306803 224.302979,72.989502 C223.48348,72.4483236 222.470703,72.0694987 221.264648,71.8530273 C220.058594,71.636556 218.666992,71.5283203 217.089844,71.5283203 L207.766113,71.5283203 C206.436361,71.5283203 205.145264,71.6442871 203.892822,71.8762207 C202.640381,72.1081543 201.5271,72.5488281 200.552979,73.1982422 C199.578857,73.8476562 198.798014,74.7599284 198.210449,75.9350586 C197.622884,77.1101888 197.329102,78.6409505 197.329102,80.5273438 Z M202.849121,37.6196289 C202.849121,41.6707357 203.521729,44.6394857 204.866943,46.5258789 C206.212158,48.4122721 208.415527,49.3554688 211.477051,49.3554688 C213.023275,49.3554688 214.329834,49.1235352 215.396729,48.659668 C216.463623,48.1958008 217.33724,47.4845378 218.017578,46.5258789 C218.697917,45.5672201 219.184977,44.337972 219.47876,42.8381348 C219.772542,41.3382975 219.919434,39.5524089 219.919434,37.4804688 C219.919434,33.2128906 219.27002,30.0585938 217.971191,28.0175781 C216.672363,25.9765625 214.476725,24.9560547 211.384277,24.9560547 C208.322754,24.9560547 206.134847,25.9997559 204.820557,28.0871582 C203.506266,30.1745605 202.849121,33.3520508 202.849121,37.6196289 Z" id="Shape"></path>
            <path d="M269.135742,72.1777344 L241.721191,72.1777344 L241.721191,68.1884766 L241.999512,68.1884766 C243.081868,68.1884766 244.094645,68.1111654 245.037842,67.956543 C245.981038,67.8019206 246.800537,67.4849447 247.496338,67.0056152 C248.192139,66.5262858 248.748779,65.8382161 249.16626,64.9414062 C249.58374,64.0445964 249.79248,62.8540039 249.79248,61.3696289 L249.79248,31.7285156 C249.79248,30.3369141 249.58374,29.2159017 249.16626,28.3654785 C248.748779,27.5150553 248.184408,26.8579102 247.473145,26.394043 C246.761882,25.9301758 245.934652,25.620931 244.991455,25.4663086 C244.048258,25.3116862 243.050944,25.234375 241.999512,25.234375 L241.721191,25.234375 L241.721191,21.2451172 L256.333008,21.2451172 L258.14209,30.6616211 L258.605957,30.6616211 C259.224447,29.2390951 259.858398,27.9016113 260.507812,26.6491699 C261.157227,25.3967285 261.953532,24.2989095 262.896729,23.3557129 C263.839925,22.4125163 265.007324,21.6703288 266.398926,21.1291504 C267.790527,20.587972 269.53776,20.3173828 271.640625,20.3173828 C275.104167,20.3173828 277.67863,20.9204102 279.364014,22.1264648 C281.049398,23.3325195 281.89209,25.0333659 281.89209,27.2290039 C281.89209,28.2185872 281.729736,29.1308594 281.405029,29.9658203 C281.080322,30.8007812 280.562337,31.5197754 279.851074,32.1228027 C279.139811,32.7258301 278.227539,33.1896973 277.114258,33.5144043 C276.000977,33.8391113 274.640299,34.0014648 273.032227,34.0014648 C273.032227,31.3728841 272.661133,29.4787598 271.918945,28.3190918 C271.176758,27.1594238 269.87793,26.5795898 268.022461,26.5795898 C266.847331,26.5795898 265.795898,26.912028 264.868164,27.5769043 C263.94043,28.2417806 263.128662,29.1231283 262.432861,30.2209473 C261.737061,31.3187663 261.149495,32.5789388 260.670166,34.0014648 C260.190837,35.4239909 259.804281,36.8851725 259.510498,38.3850098 C259.216715,39.884847 259.007975,41.3769531 258.884277,42.8613281 C258.760579,44.3457031 258.69873,45.690918 258.69873,46.8969727 L258.69873,61.8334961 C258.69873,63.2250977 258.907471,64.34611 259.324951,65.1965332 C259.742432,66.0469564 260.306803,66.6886393 261.018066,67.121582 C261.729329,67.5545247 262.556559,67.8405762 263.499756,67.9797363 C264.442952,68.1188965 265.440267,68.1884766 266.491699,68.1884766 L269.135742,68.1884766 L269.135742,72.1777344 Z" id="Path"></path>
            <path d="M297.29248,58.4008789 C297.29248,61.3696289 297.918701,63.5884603 299.171143,65.057373 C300.423584,66.5262858 302.364095,67.2607422 304.992676,67.2607422 C306.909993,67.2607422 308.649495,66.9514974 310.211182,66.3330078 C311.772868,65.7145182 313.10262,64.8331706 314.200439,63.6889648 C315.298258,62.5447591 316.140951,61.1531576 316.728516,59.5141602 C317.316081,57.8751628 317.609863,56.0506185 317.609863,54.0405273 L317.609863,46.340332 L311.533203,46.6186523 C308.842773,46.7423503 306.593018,47.0747884 304.783936,47.6159668 C302.974854,48.1571452 301.513672,48.9147949 300.400391,49.888916 C299.287109,50.8630371 298.490804,52.0613607 298.011475,53.4838867 C297.532145,54.9064128 297.29248,56.5454102 297.29248,58.4008789 Z M308.796387,25.0488281 C306.971842,25.0488281 305.495199,25.3039551 304.366455,25.814209 C303.237712,26.3244629 302.356364,27.043457 301.722412,27.9711914 C301.08846,28.8989258 300.663249,29.9967448 300.446777,31.2646484 C300.230306,32.5325521 300.12207,33.9086914 300.12207,35.3930664 C297.49349,35.3930664 295.49113,34.9446615 294.11499,34.0478516 C292.738851,33.1510417 292.050781,31.6048177 292.050781,29.4091797 C292.050781,27.7701823 292.499186,26.3785807 293.395996,25.234375 C294.292806,24.0901693 295.522054,23.1547038 297.08374,22.4279785 C298.645426,21.7012533 300.46224,21.167806 302.53418,20.8276367 C304.60612,20.4874674 306.81722,20.3173828 309.16748,20.3173828 C312.074382,20.3173828 314.610189,20.6034342 316.774902,21.1755371 C318.939616,21.74764 320.748698,22.6831055 322.202148,23.9819336 C323.655599,25.2807617 324.745687,26.973877 325.472412,29.0612793 C326.199137,31.1486816 326.5625,33.7076823 326.5625,36.7382812 L326.5625,61.3696289 C326.5625,62.6993815 326.670736,63.7972005 326.887207,64.6630859 C327.103678,65.5289714 327.443848,66.2247721 327.907715,66.7504883 C328.371582,67.2762044 328.98234,67.6472982 329.73999,67.8637695 C330.49764,68.0802409 331.402181,68.1884766 332.453613,68.1884766 L332.731934,68.1884766 L332.731934,72.1777344 L319.882812,72.1777344 L318.398438,64.0136719 L317.609863,64.0136719 C316.62028,65.3434245 315.661621,66.5649414 314.733887,67.6782227 C313.806152,68.7915039 312.785645,69.7501628 311.672363,70.5541992 C310.559082,71.3582357 309.29891,71.9844564 307.891846,72.4328613 C306.484782,72.8812663 304.791667,73.1054688 302.8125,73.1054688 C300.709635,73.1054688 298.753662,72.8039551 296.94458,72.2009277 C295.135498,71.5979004 293.573812,70.670166 292.259521,69.4177246 C290.945231,68.1652832 289.916992,66.5881348 289.174805,64.6862793 C288.432617,62.7844238 288.061523,60.534668 288.061523,57.9370117 C288.061523,52.8963216 289.855143,49.1544596 293.442383,46.7114258 C297.029622,44.2683919 302.456868,42.9386393 309.724121,42.722168 L317.609863,42.4438477 L317.609863,36.7382812 C317.609863,35.0374349 317.51709,33.4680176 317.331543,32.0300293 C317.145996,30.592041 316.743978,29.3550618 316.125488,28.3190918 C315.506999,27.2831217 314.61792,26.4790853 313.458252,25.9069824 C312.298584,25.3348796 310.744629,25.0488281 308.796387,25.0488281 Z" id="Shape"></path>
            <path d="M365.01709,68.1884766 L365.01709,72.1777344 L339.458008,72.1777344 L339.458008,68.1884766 L340.710449,68.1884766 C341.792806,68.1884766 342.782389,68.1111654 343.679199,67.956543 C344.576009,67.8019206 345.349121,67.4849447 345.998535,67.0056152 C346.647949,66.5262858 347.150472,65.8382161 347.506104,64.9414062 C347.861735,64.0445964 348.039551,62.8540039 348.039551,61.3696289 L348.039551,31.7285156 C348.039551,30.3369141 347.854004,29.2159017 347.48291,28.3654785 C347.111816,27.5150553 346.601562,26.8579102 345.952148,26.394043 C345.302734,25.9301758 344.529622,25.620931 343.632812,25.4663086 C342.736003,25.3116862 341.761882,25.234375 340.710449,25.234375 L340.432129,25.234375 L340.432129,21.2451172 L355.322266,21.2451172 L356.574707,28.9453125 L357.038574,28.9453125 C357.997233,27.1826172 359.002279,25.7368978 360.053711,24.6081543 C361.105143,23.4794108 362.226156,22.5980632 363.416748,21.9641113 C364.60734,21.3301595 365.859782,20.8972168 367.174072,20.6652832 C368.488363,20.4333496 369.887695,20.3173828 371.37207,20.3173828 C372.918294,20.3173828 374.387207,20.4720052 375.778809,20.78125 C377.17041,21.0904948 378.461507,21.5852865 379.6521,22.265625 C380.842692,22.9459635 381.909587,23.8350423 382.852783,24.9328613 C383.79598,26.0306803 384.561361,27.3681641 385.148926,28.9453125 L385.9375,28.9453125 C386.896159,27.1826172 387.932129,25.7368978 389.04541,24.6081543 C390.158691,23.4794108 391.341553,22.5980632 392.593994,21.9641113 C393.846436,21.3301595 395.160726,20.8972168 396.536865,20.6652832 C397.913005,20.4333496 399.343262,20.3173828 400.827637,20.3173828 C403.239746,20.3173828 405.40446,20.6807454 407.321777,21.4074707 C409.239095,22.134196 410.86263,23.2474772 412.192383,24.7473145 C413.522135,26.2471517 414.542643,28.1722005 415.253906,30.5224609 C415.965169,32.8727214 416.320801,35.6713867 416.320801,38.918457 L416.320801,61.3696289 C416.320801,62.8540039 416.506348,64.0445964 416.877441,64.9414062 C417.248535,65.8382161 417.758789,66.5262858 418.408203,67.0056152 C419.057617,67.4849447 419.830729,67.8019206 420.727539,67.956543 C421.624349,68.1111654 422.59847,68.1884766 423.649902,68.1884766 L423.928223,68.1884766 L423.928223,72.1777344 L407.414551,72.1777344 L407.414551,39.3823242 C407.414551,37.3103841 407.236735,35.4703776 406.881104,33.8623047 C406.525472,32.2542318 405.953369,30.8935547 405.164795,29.7802734 C404.376221,28.6669922 403.347982,27.8243001 402.080078,27.2521973 C400.812174,26.6800944 399.265951,26.394043 397.441406,26.394043 C395.46224,26.394043 393.800049,26.7728678 392.454834,27.5305176 C391.109619,28.2881673 390.019531,29.3164062 389.18457,30.6152344 C388.349609,31.9140625 387.754313,33.4138997 387.398682,35.1147461 C387.04305,36.8155924 386.865234,38.6246745 386.865234,40.5419922 L386.865234,61.3696289 C386.865234,62.8540039 387.050781,64.0445964 387.421875,64.9414062 C387.792969,65.8382161 388.303223,66.5262858 388.952637,67.0056152 C389.602051,67.4849447 390.375163,67.8019206 391.271973,67.956543 C392.168783,68.1111654 393.142904,68.1884766 394.194336,68.1884766 L394.472656,68.1884766 L394.472656,72.1777344 L377.958984,72.1777344 L377.958984,39.3823242 C377.958984,37.3103841 377.781169,35.4703776 377.425537,33.8623047 C377.069906,32.2542318 376.497803,30.8935547 375.709229,29.7802734 C374.920654,28.6669922 373.892415,27.8243001 372.624512,27.2521973 C371.356608,26.6800944 369.810384,26.394043 367.98584,26.394043 C365.9139,26.394043 364.174398,26.8115234 362.767334,27.6464844 C361.36027,28.4814453 360.223796,29.6101888 359.35791,31.0327148 C358.492025,32.4552409 357.873535,34.0942383 357.502441,35.949707 C357.131348,37.8051758 356.945801,39.753418 356.945801,41.7944336 L356.945801,61.8334961 C356.945801,63.2250977 357.154541,64.34611 357.572021,65.1965332 C357.989502,66.0469564 358.553874,66.6886393 359.265137,67.121582 C359.9764,67.5545247 360.80363,67.8405762 361.746826,67.9797363 C362.690023,68.1188965 363.687337,68.1884766 364.73877,68.1884766 L365.01709,68.1884766 Z" id="Path"></path>
            <polygon id="Path" points="428.937988 49.8657227 428.937988 42.722168 453.662109 42.722168 453.662109 49.8657227"></polygon>
            <path d="M510.161133,72.1777344 C507.749023,72.1777344 505.677083,72.0540365 503.945312,71.8066406 C502.213542,71.5592448 500.705973,71.1031087 499.422607,70.4382324 C498.139242,69.7733561 497.002767,68.861084 496.013184,67.701416 C495.0236,66.541748 494.049479,65.0496419 493.09082,63.2250977 L488.405762,54.0405273 C487.694499,52.6489258 486.998698,51.5356445 486.318359,50.7006836 C485.638021,49.8657227 484.841715,49.2163086 483.929443,48.7524414 C483.017171,48.2885742 481.942546,47.9793294 480.705566,47.824707 C479.468587,47.6700846 477.953288,47.5927734 476.159668,47.5927734 L476.159668,61.8334961 C476.159668,63.2250977 476.368408,64.34611 476.785889,65.1965332 C477.203369,66.0469564 477.767741,66.6886393 478.479004,67.121582 C479.190267,67.5545247 480.017497,67.8405762 480.960693,67.9797363 C481.90389,68.1188965 482.901204,68.1884766 483.952637,68.1884766 L484.230957,68.1884766 L484.230957,72.1777344 L457.744141,72.1777344 L457.744141,68.1884766 L459.460449,68.1884766 C460.511882,68.1884766 461.516927,68.1111654 462.475586,67.956543 C463.434245,67.8019206 464.261475,67.4849447 464.957275,67.0056152 C465.653076,66.5262858 466.209717,65.8382161 466.627197,64.9414062 C467.044678,64.0445964 467.253418,62.8540039 467.253418,61.3696289 L467.253418,31.7285156 C467.253418,30.3369141 467.044678,29.2159017 466.627197,28.3654785 C466.209717,27.5150553 465.645345,26.8579102 464.934082,26.394043 C464.222819,25.9301758 463.395589,25.620931 462.452393,25.4663086 C461.509196,25.3116862 460.511882,25.234375 459.460449,25.234375 L457.744141,25.234375 L457.744141,21.2451172 L484.230957,21.2451172 L484.230957,25.234375 L483.952637,25.234375 C482.932129,25.234375 481.950277,25.3039551 481.00708,25.4431152 C480.063883,25.5822754 479.236654,25.8605957 478.525391,26.2780762 C477.814128,26.6955566 477.242025,27.298584 476.809082,28.0871582 C476.376139,28.8757324 476.159668,29.9194336 476.159668,31.2182617 L476.159668,43.1860352 C477.087402,43.1860352 477.891439,43.1473796 478.571777,43.0700684 C479.252116,42.9927572 479.847412,42.8767904 480.357666,42.722168 C480.86792,42.5675456 481.331787,42.3665365 481.749268,42.1191406 C482.166748,41.8717448 482.561035,41.5625 482.932129,41.1914062 C483.736165,40.4492188 484.679362,39.2586263 485.761719,37.6196289 C486.844076,35.9806315 488.204753,33.9396159 489.84375,31.496582 C490.926107,29.8266602 491.938883,28.3268229 492.88208,26.9970703 C493.825277,25.6673177 494.822591,24.5385742 495.874023,23.6108398 C496.925456,22.6831055 498.100586,21.9641113 499.399414,21.4538574 C500.698242,20.9436035 502.259928,20.6884766 504.084473,20.6884766 C506.774902,20.6884766 508.808187,21.2219238 510.184326,22.2888184 C511.560465,23.3557129 512.248535,24.7550456 512.248535,26.4868164 C512.248535,27.3836263 512.124837,28.1722005 511.877441,28.8525391 C511.630046,29.5328776 511.297607,30.1204427 510.880127,30.6152344 C510.462646,31.110026 509.975586,31.5120443 509.418945,31.8212891 C508.862305,32.1305339 508.290202,32.3470052 507.702637,32.4707031 C507.578939,31.7594401 507.37793,31.0791016 507.099609,30.4296875 C506.821289,29.7802734 506.465658,29.2159017 506.032715,28.7365723 C505.599772,28.2572428 505.074056,27.8706868 504.455566,27.5769043 C503.837077,27.2831217 503.141276,27.1362305 502.368164,27.1362305 C500.82194,27.1362305 499.399414,27.7315267 498.100586,28.9221191 C496.801758,30.1127116 495.348307,31.9295247 493.740234,34.3725586 C492.874349,35.6404622 492.101237,36.7460124 491.420898,37.689209 C490.74056,38.6324056 490.106608,39.4750977 489.519043,40.2172852 C488.931478,40.9594727 488.359375,41.6011556 487.802734,42.142334 C487.246094,42.6835124 486.658529,43.1705729 486.040039,43.6035156 C487.524414,43.6653646 488.823242,43.8895671 489.936523,44.276123 C491.049805,44.662679 492.062581,45.1961263 492.974854,45.8764648 C493.887126,46.5568034 494.714355,47.3994954 495.456543,48.404541 C496.19873,49.4095866 496.925456,50.5615234 497.636719,51.8603516 L502.600098,60.5810547 C504.084473,63.2714844 505.692546,65.2119954 507.424316,66.4025879 C509.156087,67.5931803 511.088867,68.1884766 513.222656,68.1884766 L513.500977,68.1884766 L513.500977,72.1777344 L510.161133,72.1777344 Z" id="Path"></path>
            <path d="M528.4375,58.4008789 C528.4375,61.3696289 529.063721,63.5884603 530.316162,65.057373 C531.568604,66.5262858 533.509115,67.2607422 536.137695,67.2607422 C538.055013,67.2607422 539.794515,66.9514974 541.356201,66.3330078 C542.917887,65.7145182 544.24764,64.8331706 545.345459,63.6889648 C546.443278,62.5447591 547.28597,61.1531576 547.873535,59.5141602 C548.4611,57.8751628 548.754883,56.0506185 548.754883,54.0405273 L548.754883,46.340332 L542.678223,46.6186523 C539.987793,46.7423503 537.738037,47.0747884 535.928955,47.6159668 C534.119873,48.1571452 532.658691,48.9147949 531.54541,49.888916 C530.432129,50.8630371 529.635824,52.0613607 529.156494,53.4838867 C528.677165,54.9064128 528.4375,56.5454102 528.4375,58.4008789 Z M539.941406,25.0488281 C538.116862,25.0488281 536.640218,25.3039551 535.511475,25.814209 C534.382731,26.3244629 533.501383,27.043457 532.867432,27.9711914 C532.23348,28.8989258 531.808268,29.9967448 531.591797,31.2646484 C531.375326,32.5325521 531.26709,33.9086914 531.26709,35.3930664 C528.638509,35.3930664 526.636149,34.9446615 525.26001,34.0478516 C523.88387,33.1510417 523.195801,31.6048177 523.195801,29.4091797 C523.195801,27.7701823 523.644206,26.3785807 524.541016,25.234375 C525.437826,24.0901693 526.667074,23.1547038 528.22876,22.4279785 C529.790446,21.7012533 531.607259,21.167806 533.679199,20.8276367 C535.751139,20.4874674 537.96224,20.3173828 540.3125,20.3173828 C543.219401,20.3173828 545.755208,20.6034342 547.919922,21.1755371 C550.084635,21.74764 551.893717,22.6831055 553.347168,23.9819336 C554.800618,25.2807617 555.890706,26.973877 556.617432,29.0612793 C557.344157,31.1486816 557.70752,33.7076823 557.70752,36.7382812 L557.70752,61.3696289 C557.70752,62.6993815 557.815755,63.7972005 558.032227,64.6630859 C558.248698,65.5289714 558.588867,66.2247721 559.052734,66.7504883 C559.516602,67.2762044 560.12736,67.6472982 560.88501,67.8637695 C561.64266,68.0802409 562.547201,68.1884766 563.598633,68.1884766 L563.876953,68.1884766 L563.876953,72.1777344 L551.027832,72.1777344 L549.543457,64.0136719 L548.754883,64.0136719 C547.765299,65.3434245 546.806641,66.5649414 545.878906,67.6782227 C544.951172,68.7915039 543.930664,69.7501628 542.817383,70.5541992 C541.704102,71.3582357 540.443929,71.9844564 539.036865,72.4328613 C537.629801,72.8812663 535.936686,73.1054688 533.95752,73.1054688 C531.854655,73.1054688 529.898682,72.8039551 528.0896,72.2009277 C526.280518,71.5979004 524.718831,70.670166 523.404541,69.4177246 C522.090251,68.1652832 521.062012,66.5881348 520.319824,64.6862793 C519.577637,62.7844238 519.206543,60.534668 519.206543,57.9370117 C519.206543,52.8963216 521.000163,49.1544596 524.587402,46.7114258 C528.174642,44.2683919 533.601888,42.9386393 540.869141,42.722168 L548.754883,42.4438477 L548.754883,36.7382812 C548.754883,35.0374349 548.662109,33.4680176 548.476562,32.0300293 C548.291016,30.592041 547.888997,29.3550618 547.270508,28.3190918 C546.652018,27.2831217 545.762939,26.4790853 544.603271,25.9069824 C543.443604,25.3348796 541.889648,25.0488281 539.941406,25.0488281 Z" id="Shape"></path>
            <path d="M631.137695,21.2451172 L631.137695,25.234375 L629.885254,25.234375 C628.833822,25.234375 627.836507,25.3039551 626.893311,25.4431152 C625.950114,25.5822754 625.122884,25.8760579 624.411621,26.3244629 C623.700358,26.7728678 623.135986,27.4222819 622.718506,28.2727051 C622.301025,29.1231283 622.092285,30.2441406 622.092285,31.6357422 L622.092285,61.8334961 C622.092285,63.2250977 622.301025,64.34611 622.718506,65.1965332 C623.135986,66.0469564 623.700358,66.6886393 624.411621,67.121582 C625.122884,67.5545247 625.950114,67.8405762 626.893311,67.9797363 C627.836507,68.1188965 628.833822,68.1884766 629.885254,68.1884766 L631.137695,68.1884766 L631.137695,72.1777344 L605.114746,72.1777344 L605.114746,68.1884766 L605.393066,68.1884766 C606.444499,68.1884766 607.441813,68.1188965 608.38501,67.9797363 C609.328206,67.8405762 610.155436,67.5545247 610.866699,67.121582 C611.577962,66.6886393 612.142334,66.0469564 612.559814,65.1965332 C612.977295,64.34611 613.186035,63.2250977 613.186035,61.8334961 L613.186035,48.2421875 L588.09082,48.2421875 L588.09082,61.8334961 C588.09082,63.2250977 588.299561,64.34611 588.717041,65.1965332 C589.134521,66.0469564 589.698893,66.6886393 590.410156,67.121582 C591.121419,67.5545247 591.948649,67.8405762 592.891846,67.9797363 C593.835042,68.1188965 594.832357,68.1884766 595.883789,68.1884766 L596.162109,68.1884766 L596.162109,72.1777344 L570.13916,72.1777344 L570.13916,68.1884766 L571.391602,68.1884766 C572.443034,68.1884766 573.440348,68.1188965 574.383545,67.9797363 C575.326742,67.8405762 576.153971,67.5545247 576.865234,67.121582 C577.576497,66.6886393 578.140869,66.0469564 578.55835,65.1965332 C578.97583,64.34611 579.18457,63.2250977 579.18457,61.8334961 L579.18457,31.7285156 C579.18457,30.3369141 578.97583,29.2159017 578.55835,28.3654785 C578.140869,27.5150553 577.576497,26.8579102 576.865234,26.394043 C576.153971,25.9301758 575.326742,25.620931 574.383545,25.4663086 C573.440348,25.3116862 572.443034,25.234375 571.391602,25.234375 L570.13916,25.234375 L570.13916,21.2451172 L596.162109,21.2451172 L596.162109,25.234375 L595.883789,25.234375 C594.832357,25.234375 593.835042,25.3039551 592.891846,25.4431152 C591.948649,25.5822754 591.121419,25.8760579 590.410156,26.3244629 C589.698893,26.7728678 589.134521,27.4222819 588.717041,28.2727051 C588.299561,29.1231283 588.09082,30.2441406 588.09082,31.6357422 L588.09082,43.8818359 L613.186035,43.8818359 L613.186035,31.7285156 C613.186035,30.3369141 612.977295,29.2159017 612.559814,28.3654785 C612.142334,27.5150553 611.577962,26.8579102 610.866699,26.394043 C610.155436,25.9301758 609.328206,25.620931 608.38501,25.4663086 C607.441813,25.3116862 606.444499,25.234375 605.393066,25.234375 L605.114746,25.234375 L605.114746,21.2451172 L631.137695,21.2451172 Z" id="Path"></path>
            <path d="M647.280273,58.4008789 C647.280273,61.3696289 647.906494,63.5884603 649.158936,65.057373 C650.411377,66.5262858 652.351888,67.2607422 654.980469,67.2607422 C656.897786,67.2607422 658.637288,66.9514974 660.198975,66.3330078 C661.760661,65.7145182 663.090413,64.8331706 664.188232,63.6889648 C665.286051,62.5447591 666.128743,61.1531576 666.716309,59.5141602 C667.303874,57.8751628 667.597656,56.0506185 667.597656,54.0405273 L667.597656,46.340332 L661.520996,46.6186523 C658.830566,46.7423503 656.580811,47.0747884 654.771729,47.6159668 C652.962646,48.1571452 651.501465,48.9147949 650.388184,49.888916 C649.274902,50.8630371 648.478597,52.0613607 647.999268,53.4838867 C647.519938,54.9064128 647.280273,56.5454102 647.280273,58.4008789 Z M658.78418,25.0488281 C656.959635,25.0488281 655.482992,25.3039551 654.354248,25.814209 C653.225505,26.3244629 652.344157,27.043457 651.710205,27.9711914 C651.076253,28.8989258 650.651042,29.9967448 650.43457,31.2646484 C650.218099,32.5325521 650.109863,33.9086914 650.109863,35.3930664 C647.481283,35.3930664 645.478923,34.9446615 644.102783,34.0478516 C642.726644,33.1510417 642.038574,31.6048177 642.038574,29.4091797 C642.038574,27.7701823 642.486979,26.3785807 643.383789,25.234375 C644.280599,24.0901693 645.509847,23.1547038 647.071533,22.4279785 C648.633219,21.7012533 650.450033,21.167806 652.521973,20.8276367 C654.593913,20.4874674 656.805013,20.3173828 659.155273,20.3173828 C662.062174,20.3173828 664.597982,20.6034342 666.762695,21.1755371 C668.927409,21.74764 670.736491,22.6831055 672.189941,23.9819336 C673.643392,25.2807617 674.73348,26.973877 675.460205,29.0612793 C676.18693,31.1486816 676.550293,33.7076823 676.550293,36.7382812 L676.550293,61.3696289 C676.550293,62.6993815 676.658529,63.7972005 676.875,64.6630859 C677.091471,65.5289714 677.431641,66.2247721 677.895508,66.7504883 C678.359375,67.2762044 678.970133,67.6472982 679.727783,67.8637695 C680.485433,68.0802409 681.389974,68.1884766 682.441406,68.1884766 L682.719727,68.1884766 L682.719727,72.1777344 L669.870605,72.1777344 L668.38623,64.0136719 L667.597656,64.0136719 C666.608073,65.3434245 665.649414,66.5649414 664.72168,67.6782227 C663.793945,68.7915039 662.773438,69.7501628 661.660156,70.5541992 C660.546875,71.3582357 659.286702,71.9844564 657.879639,72.4328613 C656.472575,72.8812663 654.77946,73.1054688 652.800293,73.1054688 C650.697428,73.1054688 648.741455,72.8039551 646.932373,72.2009277 C645.123291,71.5979004 643.561605,70.670166 642.247314,69.4177246 C640.933024,68.1652832 639.904785,66.5881348 639.162598,64.6862793 C638.42041,62.7844238 638.049316,60.534668 638.049316,57.9370117 C638.049316,52.8963216 639.842936,49.1544596 643.430176,46.7114258 C647.017415,44.2683919 652.444661,42.9386393 659.711914,42.722168 L667.597656,42.4438477 L667.597656,36.7382812 C667.597656,35.0374349 667.504883,33.4680176 667.319336,32.0300293 C667.133789,30.592041 666.731771,29.3550618 666.113281,28.3190918 C665.494792,27.2831217 664.605713,26.4790853 663.446045,25.9069824 C662.286377,25.3348796 660.732422,25.0488281 658.78418,25.0488281 Z" id="Shape"></path>
            <path d="M708.649902,31.1254883 C708.649902,29.8575846 708.441162,28.8448079 708.023682,28.0871582 C707.606201,27.3295085 707.041829,26.7342122 706.330566,26.3012695 C705.619303,25.8683268 704.792074,25.5822754 703.848877,25.4431152 C702.90568,25.3039551 701.908366,25.234375 700.856934,25.234375 L699.604492,25.234375 L699.604492,21.2451172 L744.274902,21.2451172 L744.274902,25.234375 L743.022461,25.234375 C741.971029,25.234375 740.973714,25.3039551 740.030518,25.4431152 C739.087321,25.5822754 738.260091,25.8760579 737.548828,26.3244629 C736.837565,26.7728678 736.273193,27.4222819 735.855713,28.2727051 C735.438232,29.1231283 735.229492,30.2441406 735.229492,31.6357422 L735.229492,61.8334961 C735.229492,63.2250977 735.438232,64.34611 735.855713,65.1965332 C736.273193,66.0469564 736.837565,66.6886393 737.548828,67.121582 C738.260091,67.5545247 739.087321,67.8405762 740.030518,67.9797363 C740.973714,68.1188965 741.971029,68.1884766 743.022461,68.1884766 L744.274902,68.1884766 L744.274902,72.1777344 L718.251953,72.1777344 L718.251953,68.1884766 L718.530273,68.1884766 C719.581706,68.1884766 720.57902,68.1188965 721.522217,67.9797363 C722.465413,67.8405762 723.292643,67.5545247 724.003906,67.121582 C724.715169,66.6886393 725.279541,66.0469564 725.697021,65.1965332 C726.114502,64.34611 726.323242,63.2250977 726.323242,61.8334961 L726.323242,25.6054688 L714.077148,25.6054688 C713.767904,28.5123698 713.412272,31.4115397 713.010254,34.3029785 C712.608236,37.1944173 712.175293,40.0008138 711.711426,42.722168 C711.247559,45.4435221 710.745036,48.0489095 710.203857,50.5383301 C709.662679,53.0277507 709.082845,55.3393555 708.464355,57.4731445 C707.59847,60.3491211 706.717122,62.7689616 705.820312,64.732666 C704.923503,66.6963704 703.926188,68.28125 702.828369,69.4873047 C701.73055,70.6933594 700.493571,71.5515137 699.117432,72.0617676 C697.741292,72.5720215 696.171875,72.8271484 694.40918,72.8271484 C691.873372,72.8271484 689.971517,72.2473145 688.703613,71.0876465 C687.43571,69.9279785 686.801758,68.2967122 686.801758,66.1938477 C686.801758,64.5548503 687.172852,63.1787109 687.915039,62.0654297 C688.657227,60.9521484 689.677734,60.3955078 690.976562,60.3955078 C690.976562,60.8284505 691.069336,61.3000488 691.254883,61.8103027 C691.44043,62.3205566 691.726481,62.7998861 692.113037,63.248291 C692.499593,63.696696 692.986654,64.0755208 693.574219,64.3847656 C694.161784,64.6940104 694.842122,64.8486328 695.615234,64.8486328 C696.512044,64.8486328 697.354736,64.7172038 698.143311,64.4543457 C698.931885,64.1914876 699.712728,63.5961914 700.48584,62.668457 C701.258952,61.7407227 702.024333,60.3955078 702.781982,58.6328125 C703.539632,56.8701172 704.320475,54.4889323 705.124512,51.4892578 C705.495605,50.1904297 705.882161,48.6210124 706.28418,46.7810059 C706.686198,44.9409993 707.065023,43.0623372 707.420654,41.1450195 C707.776286,39.2277018 708.070068,37.3799642 708.302002,35.6018066 C708.533936,33.8236491 708.649902,32.331543 708.649902,31.1254883 Z" id="Path"></path>
        </g>
    </g>
</svg>